<svg viewBox="0 0 330 200" xmlns="http://www.w3.org/2000/svg"><g><g><g><g><g><line x1="70" y1="178" x2="65" y2="178" style="visibility: inherit;" fill="rgb(0, 0, 0)" stroke="rgb(204, 204, 204)" stroke-width="1px"></line><line x1="70" y1="165.2857142857163" x2="65" y2="165.2857142857163" style="visibility: inherit;" fill="rgb(0, 0, 0)" stroke="rgb(204, 204, 204)" stroke-width="1px"></line><line x1="70" y1="152.5714285714185" x2="65" y2="152.5714285714185" style="visibility: inherit;" fill="rgb(0, 0, 0)" stroke="rgb(204, 204, 204)" stroke-width="1px"></line><line x1="70" y1="139.8571428571348" x2="65" y2="139.8571428571348" style="visibility: inherit;" fill="rgb(0, 0, 0)" stroke="rgb(204, 204, 204)" stroke-width="1px"></line><line x1="70" y1="127.14285714285108" x2="65" y2="127.14285714285108" style="visibility: inherit;" fill="rgb(0, 0, 0)" stroke="rgb(204, 204, 204)" stroke-width="1px"></line><line x1="70" y1="114.4285714285674" x2="65" y2="114.4285714285674" style="visibility: inherit;" fill="rgb(0, 0, 0)" stroke="rgb(204, 204, 204)" stroke-width="1px"></line><line x1="70" y1="101.71428571428369" x2="65" y2="101.71428571428369" style="visibility: inherit;" fill="rgb(0, 0, 0)" stroke="rgb(204, 204, 204)" stroke-width="1px"></line><line x1="70" y1="89" x2="65" y2="89" style="visibility: inherit;" fill="rgb(0, 0, 0)" stroke="rgb(204, 204, 204)" stroke-width="1px"></line><line x1="70" y1="76.28571428571631" x2="65" y2="76.28571428571631" style="visibility: inherit;" fill="rgb(0, 0, 0)" stroke="rgb(204, 204, 204)" stroke-width="1px"></line><line x1="70" y1="63.57142857143262" x2="65" y2="63.57142857143262" style="visibility: inherit;" fill="rgb(0, 0, 0)" stroke="rgb(204, 204, 204)" stroke-width="1px"></line><line x1="70" y1="50.8571428571489" x2="65" y2="50.8571428571489" style="visibility: inherit;" fill="rgb(0, 0, 0)" stroke="rgb(204, 204, 204)" stroke-width="1px"></line><line x1="70" y1="38.14285714286521" x2="65" y2="38.14285714286521" style="visibility: inherit;" fill="rgb(0, 0, 0)" stroke="rgb(204, 204, 204)" stroke-width="1px"></line><line x1="70" y1="25.42857142856738" x2="65" y2="25.42857142856738" style="visibility: inherit;" fill="rgb(0, 0, 0)" stroke="rgb(204, 204, 204)" stroke-width="1px"></line><line x1="70" y1="12.714285714283704" x2="65" y2="12.714285714283704" style="visibility: inherit;" fill="rgb(0, 0, 0)" stroke="rgb(204, 204, 204)" stroke-width="1px"></line><line x1="70" y1="0" x2="65" y2="0" style="visibility: inherit;" fill="rgb(0, 0, 0)" stroke="rgb(204, 204, 204)" stroke-width="1px"></line></g><g transform="translate(60, 0)"><text x="0" y="178" dx="0em" dy="0.3em" style="text-anchor: end; visibility: hidden; font-family: &quot;Helvetica Neue&quot;, sans-serif; font-size: 12px; font-weight: 200;" fill="rgb(50, 49, 63)" stroke="none" stroke-width="1px">0.693</text><text x="0" y="165.2857142857163" dx="0em" dy="0.3em" style="text-anchor: end; visibility: inherit; font-family: &quot;Helvetica Neue&quot;, sans-serif; font-size: 12px; font-weight: 200;" fill="rgb(50, 49, 63)" stroke="none" stroke-width="1px">0.693</text><text x="0" y="152.5714285714185" dx="0em" dy="0.3em" style="text-anchor: end; visibility: hidden; font-family: &quot;Helvetica Neue&quot;, sans-serif; font-size: 12px; font-weight: 200;" fill="rgb(50, 49, 63)" stroke="none" stroke-width="1px">0.693</text><text x="0" y="139.8571428571348" dx="0em" dy="0.3em" style="text-anchor: end; visibility: inherit; font-family: &quot;Helvetica Neue&quot;, sans-serif; font-size: 12px; font-weight: 200;" fill="rgb(50, 49, 63)" stroke="none" stroke-width="1px">0.693</text><text x="0" y="127.14285714285108" dx="0em" dy="0.3em" style="text-anchor: end; visibility: hidden; font-family: &quot;Helvetica Neue&quot;, sans-serif; font-size: 12px; font-weight: 200;" fill="rgb(50, 49, 63)" stroke="none" stroke-width="1px">0.693</text><text x="0" y="114.4285714285674" dx="0em" dy="0.3em" style="text-anchor: end; visibility: inherit; font-family: &quot;Helvetica Neue&quot;, sans-serif; font-size: 12px; font-weight: 200;" fill="rgb(50, 49, 63)" stroke="none" stroke-width="1px">0.693</text><text x="0" y="101.71428571428369" dx="0em" dy="0.3em" style="text-anchor: end; visibility: hidden; font-family: &quot;Helvetica Neue&quot;, sans-serif; font-size: 12px; font-weight: 200;" fill="rgb(50, 49, 63)" stroke="none" stroke-width="1px">0.694</text><text x="0" y="89" dx="0em" dy="0.3em" style="text-anchor: end; visibility: inherit; font-family: &quot;Helvetica Neue&quot;, sans-serif; font-size: 12px; font-weight: 200;" fill="rgb(50, 49, 63)" stroke="none" stroke-width="1px">0.694</text><text x="0" y="76.28571428571631" dx="0em" dy="0.3em" style="text-anchor: end; visibility: hidden; font-family: &quot;Helvetica Neue&quot;, sans-serif; font-size: 12px; font-weight: 200;" fill="rgb(50, 49, 63)" stroke="none" stroke-width="1px">0.694</text><text x="0" y="63.57142857143262" dx="0em" dy="0.3em" style="text-anchor: end; visibility: inherit; font-family: &quot;Helvetica Neue&quot;, sans-serif; font-size: 12px; font-weight: 200;" fill="rgb(50, 49, 63)" stroke="none" stroke-width="1px">0.694</text><text x="0" y="50.8571428571489" dx="0em" dy="0.3em" style="text-anchor: end; visibility: hidden; font-family: &quot;Helvetica Neue&quot;, sans-serif; font-size: 12px; font-weight: 200;" fill="rgb(50, 49, 63)" stroke="none" stroke-width="1px">0.694</text><text x="0" y="38.14285714286521" dx="0em" dy="0.3em" style="text-anchor: end; visibility: inherit; font-family: &quot;Helvetica Neue&quot;, sans-serif; font-size: 12px; font-weight: 200;" fill="rgb(50, 49, 63)" stroke="none" stroke-width="1px">0.694</text><text x="0" y="25.42857142856738" dx="0em" dy="0.3em" style="text-anchor: end; visibility: hidden; font-family: &quot;Helvetica Neue&quot;, sans-serif; font-size: 12px; font-weight: 200;" fill="rgb(50, 49, 63)" stroke="none" stroke-width="1px">0.694</text><text x="0" y="12.714285714283704" dx="0em" dy="0.3em" style="text-anchor: end; visibility: inherit; font-family: &quot;Helvetica Neue&quot;, sans-serif; font-size: 12px; font-weight: 200;" fill="rgb(50, 49, 63)" stroke="none" stroke-width="1px">0.694</text><text x="0" y="0" dx="0em" dy="0.3em" style="text-anchor: end; visibility: hidden; font-family: &quot;Helvetica Neue&quot;, sans-serif; font-size: 12px; font-weight: 200;" fill="rgb(50, 49, 63)" stroke="none" stroke-width="1px">0.694</text></g><line x1="70" y1="0" x2="70" y2="178" fill="rgb(0, 0, 0)" stroke="rgb(204, 204, 204)" stroke-width="1px"></line></g></g><g transform="translate(70, 0)" clip-path="url(#clip_0)"><clipPath id="clip_0"><rect width="260" height="178"></rect></clipPath><g><g><g><line x1="0" y1="0" x2="0" y2="178" fill="rgb(0, 0, 0)" stroke="rgb(60, 60, 60)" stroke-width="1px" opacity="0.25"></line><line x1="23.636363636363637" y1="0" x2="23.636363636363637" y2="178" fill="rgb(0, 0, 0)" stroke="rgb(60, 60, 60)" stroke-width="1px" opacity="0.25"></line><line x1="47.27272727272727" y1="0" x2="47.27272727272727" y2="178" fill="rgb(0, 0, 0)" stroke="rgb(60, 60, 60)" stroke-width="1px" opacity="0.25"></line><line x1="70.9090909090909" y1="0" x2="70.9090909090909" y2="178" fill="rgb(0, 0, 0)" stroke="rgb(60, 60, 60)" stroke-width="1px" opacity="0.25"></line><line x1="94.54545454545455" y1="0" x2="94.54545454545455" y2="178" fill="rgb(0, 0, 0)" stroke="rgb(60, 60, 60)" stroke-width="1px" opacity="0.25"></line><line x1="118.18181818181817" y1="0" x2="118.18181818181817" y2="178" fill="rgb(0, 0, 0)" stroke="rgb(60, 60, 60)" stroke-width="1px" opacity="0.25"></line><line x1="141.8181818181818" y1="0" x2="141.8181818181818" y2="178" fill="rgb(0, 0, 0)" stroke="rgb(60, 60, 60)" stroke-width="1px" opacity="0.25"></line><line x1="165.45454545454544" y1="0" x2="165.45454545454544" y2="178" fill="rgb(0, 0, 0)" stroke="rgb(60, 60, 60)" stroke-width="1px" opacity="0.25"></line><line x1="189.0909090909091" y1="0" x2="189.0909090909091" y2="178" fill="rgb(0, 0, 0)" stroke="rgb(60, 60, 60)" stroke-width="1px" opacity="0.25"></line><line x1="212.72727272727275" y1="0" x2="212.72727272727275" y2="178" fill="rgb(0, 0, 0)" stroke="rgb(60, 60, 60)" stroke-width="1px" opacity="0.25"></line><line x1="236.36363636363635" y1="0" x2="236.36363636363635" y2="178" fill="rgb(0, 0, 0)" stroke="rgb(60, 60, 60)" stroke-width="1px" opacity="0.25"></line><line x1="260" y1="0" x2="260" y2="178" fill="rgb(0, 0, 0)" stroke="rgb(60, 60, 60)" stroke-width="1px" opacity="0.25"></line></g><g><line x1="0" y1="178" x2="260" y2="178" fill="rgb(0, 0, 0)" stroke="rgb(60, 60, 60)" stroke-width="1px" opacity="0.25"></line><line x1="0" y1="165.2857142857163" x2="260" y2="165.2857142857163" fill="rgb(0, 0, 0)" stroke="rgb(60, 60, 60)" stroke-width="1px" opacity="0.25"></line><line x1="0" y1="152.5714285714185" x2="260" y2="152.5714285714185" fill="rgb(0, 0, 0)" stroke="rgb(60, 60, 60)" stroke-width="1px" opacity="0.25"></line><line x1="0" y1="139.8571428571348" x2="260" y2="139.8571428571348" fill="rgb(0, 0, 0)" stroke="rgb(60, 60, 60)" stroke-width="1px" opacity="0.25"></line><line x1="0" y1="127.14285714285108" x2="260" y2="127.14285714285108" fill="rgb(0, 0, 0)" stroke="rgb(60, 60, 60)" stroke-width="1px" opacity="0.25"></line><line x1="0" y1="114.4285714285674" x2="260" y2="114.4285714285674" fill="rgb(0, 0, 0)" stroke="rgb(60, 60, 60)" stroke-width="1px" opacity="0.25"></line><line x1="0" y1="101.71428571428369" x2="260" y2="101.71428571428369" fill="rgb(0, 0, 0)" stroke="rgb(60, 60, 60)" stroke-width="1px" opacity="0.25"></line><line x1="0" y1="89" x2="260" y2="89" fill="rgb(0, 0, 0)" stroke="rgb(60, 60, 60)" stroke-width="1px" opacity="0.25"></line><line x1="0" y1="76.28571428571631" x2="260" y2="76.28571428571631" fill="rgb(0, 0, 0)" stroke="rgb(60, 60, 60)" stroke-width="1px" opacity="0.25"></line><line x1="0" y1="63.57142857143262" x2="260" y2="63.57142857143262" fill="rgb(0, 0, 0)" stroke="rgb(60, 60, 60)" stroke-width="1px" opacity="0.25"></line><line x1="0" y1="50.8571428571489" x2="260" y2="50.8571428571489" fill="rgb(0, 0, 0)" stroke="rgb(60, 60, 60)" stroke-width="1px" opacity="0.25"></line><line x1="0" y1="38.14285714286521" x2="260" y2="38.14285714286521" fill="rgb(0, 0, 0)" stroke="rgb(60, 60, 60)" stroke-width="1px" opacity="0.25"></line><line x1="0" y1="25.42857142856738" x2="260" y2="25.42857142856738" fill="rgb(0, 0, 0)" stroke="rgb(60, 60, 60)" stroke-width="1px" opacity="0.25"></line><line x1="0" y1="12.714285714283704" x2="260" y2="12.714285714283704" fill="rgb(0, 0, 0)" stroke="rgb(60, 60, 60)" stroke-width="1px" opacity="0.25"></line><line x1="0" y1="0" x2="260" y2="0" fill="rgb(0, 0, 0)" stroke="rgb(60, 60, 60)" stroke-width="1px" opacity="0.25"></line></g></g></g><g><g><line x1="0" y1="88275.28571428143" x2="260" y2="88275.28571428143" fill="rgb(0, 0, 0)" stroke="rgb(153, 153, 153)" stroke-width="1.5px"></line></g></g><g><g><line x1="23.636363636363637" y1="0" x2="23.636363636363637" y2="178" fill="rgb(0, 0, 0)" stroke="rgb(153, 153, 153)" stroke-width="1.5px"></line></g></g><g><g><g><g><g><path stroke="rgb(255, 112, 67)" stroke-width="2px" d="M32.807272727272725,-9.447079579300038L32.807272727272725,1.422140834430536L32.807272727272725,2.621730671711674L32.807272727272725,14.444706757264356L32.807272727272725,10.938842967751611L32.807272727272725,14.78515898644173L37.39272727272727,16.428308306231713L37.39272727272727,11.936184614899304L37.39272727272727,8.154576413475326L37.39272727272727,18.283923423207852L37.39272727272727,29.476301305530058L37.39272727272727,39.26681010118489L37.39272727272727,38.57201402901771L37.39272727272727,46.52363374232101L37.39272727272727,45.75975724870753L37.39272727272727,46.68099631084368L37.39272727272727,39.51227505208169L37.39272727272727,42.648490652596706L37.39272727272727,39.11299291363025L37.39272727272727,47.98854908518237L37.39272727272727,54.39329988893981L37.39272727272727,57.08445946697482L37.39272727272727,55.87564751630198L41.97818181818182,62.843088440785024L41.97818181818182,60.990297137412014L41.97818181818182,57.68623921526286L41.97818181818182,59.576336765074444L41.97818181818182,62.22364494252254L41.97818181818182,61.67847437241812L41.97818181818182,60.77702996322826L41.97818181818182,37.48767971756837L41.97818181818182,29.98418461744231L41.97818181818182,34.22422650076743L41.97818181818182,32.71006499747526L41.97818181818182,37.220356291080265L41.97818181818182,40.3238741145872L41.97818181818182,42.67027883343559L46.56363636363636,52.577374605006526L46.56363636363636,55.802986360852856L46.56363636363636,65.00691428333826L46.56363636363636,65.17369818907241L46.56363636363636,70.28152466321863L46.56363636363636,72.5020071543244L46.56363636363636,79.2073226408039L46.56363636363636,82.19047161933555L46.56363636363636,79.13122091577681L46.56363636363636,82.25235877195557L46.56363636363636,86.33768175099225L46.56363636363636,88.04784065195281L46.56363636363636,89.58572179990102L46.56363636363636,87.78622043929495L46.56363636363636,80.21577073222716L46.56363636363636,78.24563294127826L46.56363636363636,82.37901757691439L46.56363636363636,82.19364241377447L51.14909090909091,82.01351340297788L51.14909090909091,80.01727249177446L51.14909090909091,73.75659096572475L51.14909090909091,61.9881978304022L51.14909090909091,67.17384542269738L51.14909090909091,67.26342342550134L51.14909090909091,72.95970367754164L51.14909090909091,74.97193311481418L51.14909090909091,79.89646719995463L51.14909090909091,86.07169439462646L51.14909090909091,84.98712380549445L51.14909090909091,84.74998229656093L51.14909090909091,91.73692376909966L51.14909090909091,96.36706355480047L51.14909090909091,89.26299702638629L51.14909090909091,93.20873792814251L51.14909090909091,94.91939008685391L51.14909090909091,94.57218359897753L51.14909090909091,90.49920334692135L51.14909090909091,94.3083462351383L51.14909090909091,95.65205761860355L51.14909090909091,91.51466865934235L51.14909090909091,79.05471223325299L51.14909090909091,75.78748422816311L51.14909090909091,79.18329755884037L55.734545454545454,85.30715407753107L55.734545454545454,85.32732663923353L55.734545454545454,89.30691811768685L55.734545454545454,91.31140706799896L55.734545454545454,78.65414418836464L55.734545454545454,80.61118311477557L55.734545454545454,85.55673821261638L55.734545454545454,90.9924673948231L55.734545454545454,93.69201160833973L55.734545454545454,96.54581970210289L55.734545454545454,97.4299111044324L55.734545454545454,96.47298848437299L55.734545454545454,96.9609020081605L55.734545454545454,99.9581696906922L55.734545454545454,100.22193319497376L55.734545454545454,97.40768470796797L55.734545454545454,99.29555601963507L55.734545454545454,103.7341100574912L55.734545454545454,98.29708375258872L55.734545454545454,93.44729458953411L55.734545454545454,93.896190981261L55.734545454545454,88.90047789771155L55.734545454545454,94.83148676567268L55.734545454545454,96.860229406928L55.734545454545454,96.63563280096487L55.734545454545454,100.4391125378473L55.734545454545454,104.14424017001278L55.734545454545454,101.23515602804477L60.32,103.28663324855958L60.32,98.88942173186346L60.32,100.7477019689691L60.32,96.7491491185453L60.32,94.52942382301053L60.32,90.5847327425607L60.32,91.39698029021054L60.32,95.3630445244421L60.32,95.40150903177594L60.32,92.1902818289017L60.32,89.89866602358431L60.32,87.36665367349887L60.32,88.33902118644163L60.32,94.00795313776614L60.32,97.00621847813449L60.32,99.30176580467173L60.32,92.10486430170828L60.32,85.49402597484584L60.32,81.19053494199204L60.32,84.50304304627963L60.32,90.15254258369647L64.90545454545455,80.96905140966398L64.90545454545455,89.1092822327258L64.90545454545455,84.09031825313738L64.90545454545455,84.435703671936L64.90545454545455,88.78762434763216L64.90545454545455,97.70886809928867L64.90545454545455,103.00130370359207L64.90545454545455,104.71016101576461L64.90545454545455,104.4145667845496L64.90545454545455,106.64407179312343L64.90545454545455,107.15452058758588L64.90545454545455,104.90744160871114L64.90545454545455,108.8844467104388L64.90545454545455,111.38400335660825L64.90545454545455,111.85586241865542L64.90545454545455,108.89131723573716L64.90545454545455,106.07862374795474L64.90545454545455,98.42059062695338L64.90545454545455,101.0895447225037L64.90545454545455,106.27876484773948L64.90545454545455,111.74876598934758L64.90545454545455,108.89506408935247L64.90545454545455,114.02823168159122L69.49090909090908,116.53271211311218L69.49090909090908,116.73265990742006L69.49090909090908,117.2200009117811L69.49090909090908,116.42917382185789L69.49090909090908,115.25996816755824L69.49090909090908,119.23079819476594L69.49090909090908,119.17607303457774L69.49090909090908,118.91555338812535L69.49090909090908,119.89996285209571L69.49090909090908,118.90355746494166L69.49090909090908,120.41478480819524L69.49090909090908,121.90264830074726L69.49090909090908,118.47168880597047L69.49090909090908,118.96437303595505L69.49090909090908,117.38361417976051L69.49090909090908,119.59138637052692L69.49090909090908,121.70165916269337L69.49090909090908,121.23763882307418L69.49090909090908,121.95315146483067L69.49090909090908,123.18335843797988L69.49090909090908,123.31572255296342L69.49090909090908,122.54859312785464L69.49090909090908,123.04890039862244L69.49090909090908,123.56130512680826L69.49090909090908,116.29895309366604L69.49090909090908,108.49749295633708L69.49090909090908,108.83277778291294L74.07636363636364,107.82178778789144L74.07636363636364,111.5857449297581L74.07636363636364,112.51590813536338L74.07636363636364,113.052393147343L74.07636363636364,114.1196744241091L74.07636363636364,118.0033057188347L74.07636363636364,118.51236785693612L74.07636363636364,114.39688524144358L74.07636363636364,109.0128870143915L74.07636363636364,104.34647678352783L74.07636363636364,92.12261586089024L74.07636363636364,94.97352996201833L74.07636363636364,96.77228105536005L74.07636363636364,98.05820017234608L74.07636363636364,101.93031544031693L74.07636363636364,107.20146548156343L74.07636363636364,111.81094170506545L74.07636363636364,111.18495157135384L74.07636363636364,109.41100425198223L74.07636363636364,110.79127220280849L74.07636363636364,112.41838959714038L78.66181818181819,113.96562058928062L78.66181818181819,116.41744981767644L78.66181818181819,118.73964051057938L78.66181818181819,117.67671438121504L78.66181818181819,119.20899251806229L78.66181818181819,119.58604488593292L78.66181818181819,122.90688342679188L78.66181818181819,122.09117498375701L78.66181818181819,119.79108475803339L78.66181818181819,120.93231769984115L78.66181818181819,118.00310350157051L78.66181818181819,118.69408539917941L78.66181818181819,116.31861392874411L78.66181818181819,117.43440207701558L78.66181818181819,118.22396764986402L78.66181818181819,116.55333109904018L78.66181818181819,116.92194044642552L83.24727272727273,116.54387445492398L83.24727272727273,116.11259047952103L83.24727272727273,118.36843751880636L83.24727272727273,120.81423973934002L83.24727272727273,121.44467816951456L83.24727272727273,123.2540130063609L83.24727272727273,123.03273815101917L83.24727272727273,123.51199946551417L83.24727272727273,123.36947416150217L83.24727272727273,124.65592465194075L83.24727272727273,125.2682782783322L83.24727272727273,127.44054485297697L83.24727272727273,125.0678855697968L83.24727272727273,125.04614642056478L83.24727272727273,113.2202405061621L83.24727272727273,110.93617045407426L83.24727272727273,112.25542658020666L83.24727272727273,113.91709586795952L83.24727272727273,115.20247713011742L83.24727272727273,116.6203070083973L87.83272727272727,119.25962225139396L87.83272727272727,120.71327758605011L87.83272727272727,123.86626470364563L87.83272727272727,124.79114773834215L87.83272727272727,125.54317945383652L87.83272727272727,125.7537642967113L87.83272727272727,126.530012218828L87.83272727272727,126.10672015016937L87.83272727272727,127.73238310866313L87.83272727272727,128.8828630397079L87.83272727272727,129.32278245796704L87.83272727272727,121.34919230002396L87.83272727272727,118.5533427000129L87.83272727272727,117.66711694173078L87.83272727272727,118.84210291726986L87.83272727272727,118.92725891222535L92.41818181818182,114.77881489758795L92.41818181818182,106.3916894117517L92.41818181818182,116.40882345650408L92.41818181818182,116.90182097332116L92.41818181818182,122.3964181412197L92.41818181818182,121.16899368742844L92.41818181818182,118.44707533410948L92.41818181818182,120.76802240194522L92.41818181818182,117.65038076204485L92.41818181818182,119.23945809561474L92.41818181818182,121.3185672579564L92.41818181818182,123.80940547590252L92.41818181818182,126.35074532035199L92.41818181818182,122.92289073129172L92.41818181818182,122.25099994116435L92.41818181818182,123.29886868069673L97.00363636363636,123.92345547596639L97.00363636363636,124.25791786675197L97.00363636363636,125.40608680129765L97.00363636363636,128.11764887306458L97.00363636363636,126.77359640864317L97.00363636363636,127.07912157816719L97.00363636363636,127.44631025212237L97.00363636363636,125.49233597701527L97.00363636363636,125.8085761561901L97.00363636363636,125.85998539089395L97.00363636363636,125.6904359042238L97.00363636363636,127.26294622486076L97.00363636363636,129.21967418721877L97.00363636363636,129.8756599768235L97.00363636363636,130.58232792455345L97.00363636363636,130.01697920125244L97.00363636363636,129.75264218254335L97.00363636363636,128.3422847425611L97.00363636363636,127.80813788969635L97.00363636363636,130.63646016483608L97.00363636363636,129.36156528763857L97.00363636363636,128.13551949433182L101.5890909090909,123.6050048746456L101.5890909090909,126.14630199325047L101.5890909090909,125.85886274742037L101.5890909090909,127.5735043716069L101.5890909090909,129.49994958493986L101.5890909090909,129.4769436375007L101.5890909090909,130.20879105828644L101.5890909090909,130.8927869577795L101.5890909090909,137.21313630124553L101.5890909090909,117.35649645904093L101.5890909090909,120.53668389098448L101.5890909090909,114.76137078789138L101.5890909090909,118.42572315182896L101.5890909090909,119.88398258291636L101.5890909090909,118.47851346654588L101.5890909090909,118.02254465995222L101.5890909090909,103.37721198222887L101.5890909090909,100.16986650961391L101.5890909090909,100.43524481814707L101.5890909090909,104.20025677196563L101.5890909090909,109.38420850094009L101.5890909090909,113.85117434818454L101.5890909090909,115.83481867145571L101.5890909090909,125.17433997701376L101.5890909090909,115.55081697301964L101.5890909090909,116.96718362624065L106.17454545454545,109.32914693194884L106.17454545454545,104.81470857491404L106.17454545454545,106.68985059035882L106.17454545454545,109.18120647523632L106.17454545454545,113.96310736268617L106.17454545454545,116.48212831896375L106.17454545454545,117.55763528434707L106.17454545454545,119.01672693867907L106.17454545454545,122.59390119990896L106.17454545454545,123.99151211461894L106.17454545454545,126.20693938660315L106.17454545454545,126.68945372115527L106.17454545454545,128.51382744660685L106.17454545454545,130.66295216701934L106.17454545454545,132.29889059016477L106.17454545454545,129.47443387126953L106.17454545454545,126.75865454504249L110.75999999999999,122.7490499918889L110.75999999999999,123.86100010571961L110.75999999999999,121.9662910001519L110.75999999999999,126.28733410016966L110.75999999999999,128.3634014391199L110.75999999999999,130.1318672389418L110.75999999999999,131.09194158865847L110.75999999999999,131.99641055547488L110.75999999999999,133.238341779689L110.75999999999999,132.4494694616971L110.75999999999999,131.87596672404382L110.75999999999999,132.2174335245938L110.75999999999999,131.24624931099035L110.75999999999999,130.8830773841355L110.75999999999999,131.32763541172287L110.75999999999999,132.58813143117584L110.75999999999999,131.97477101189247L110.75999999999999,129.95629642158585L110.75999999999999,131.3546507520288L115.34545454545456,132.64611956664055L115.34545454545456,125.89182856913882L115.34545454545456,125.98266677704862L115.34545454545456,119.7911105661638L115.34545454545456,117.18107745265735L115.34545454545456,114.48678657498832L115.34545454545456,112.76634857043516L115.34545454545456,117.52842508372656L115.34545454545456,118.15519826335964L115.34545454545456,118.5459735564588L115.34545454545456,116.18345218392056L115.34545454545456,119.53913769317798L115.34545454545456,121.70684571079009L115.34545454545456,123.91389834662357L115.34545454545456,125.36428297413252L115.34545454545456,123.62513124599022L115.34545454545456,124.94684299466411L115.34545454545456,129.25530516813896L115.34545454545456,131.74114585373442L115.34545454545456,132.8886265654422L115.34545454545456,133.1609395628185L115.34545454545456,134.28667088003974L115.34545454545456,135.7450191697235L115.34545454545456,134.0652865051739L119.9309090909091,131.26040320120592L119.9309090909091,130.47910939132984L119.9309090909091,130.4618543912487L119.9309090909091,130.19038802676903L119.9309090909091,131.8996200244358L119.9309090909091,132.4242981248278L119.9309090909091,133.64734091772573L119.9309090909091,133.72395687659247L119.9309090909091,135.125093938651L119.9309090909091,134.35142737936587L119.9309090909091,136.95933633097656L119.9309090909091,140.14300203247853L119.9309090909091,138.13234206547054L119.9309090909091,136.65719225698706L119.9309090909091,133.8537995143874L119.9309090909091,133.8148563665401L119.9309090909091,132.9319003847152L119.9309090909091,134.18680089074445L119.9309090909091,134.26768376657904L119.9309090909091,130.82060360636194L119.9309090909091,130.83205206517735L119.9309090909091,129.40587989633434L119.9309090909091,130.86430071991458L119.9309090909091,130.34562238330727L119.9309090909091,130.33839251419766L124.51636363636364,130.22651235120702L124.51636363636364,129.52922817297213L124.51636363636364,128.7167697879151L124.51636363636364,127.70607576969445L124.51636363636364,129.81213659492758L124.51636363636364,130.2026107891774L124.51636363636364,129.30852401472094L124.51636363636364,129.48446324385145L124.51636363636364,130.20268145563836L124.51636363636364,132.05041123747299L124.51636363636364,133.05116185828135L124.51636363636364,133.53195789085467L124.51636363636364,136.0173008173884L124.51636363636364,135.50473456282236L124.51636363636364,137.56672459657267L124.51636363636364,135.0876561490881L124.51636363636364,120.48652383961358L124.51636363636364,113.98917849966053L124.51636363636364,112.07725520446968L124.51636363636364,109.37914196264214L124.51636363636364,114.39275906571012L124.51636363636364,116.96074350745604L124.51636363636364,121.26588759705831L124.51636363636364,121.76355794860629L124.51636363636364,123.92895491753362L124.51636363636364,126.03260942962895L129.10181818181817,127.35783705106451L129.10181818181817,130.69757324279144L129.10181818181817,131.97040712350326L129.10181818181817,133.14024032478727L129.10181818181817,133.066676681704L129.10181818181817,134.4052651789456L129.10181818181817,134.99415578918376L129.10181818181817,134.073891509529L129.10181818181817,134.42744032118853L129.10181818181817,134.59963611991452L129.10181818181817,134.71920482729237L129.10181818181817,135.17710276432268L129.10181818181817,135.24180458150192L129.10181818181817,136.87288476301663L129.10181818181817,130.22659147456295L129.10181818181817,128.08941355287428L129.10181818181817,128.89112143808353L129.10181818181817,126.5845271651556L129.10181818181817,127.69630629372276L129.10181818181817,126.35316099195413L129.10181818181817,126.38356159559397L129.10181818181817,126.91562850250244L129.10181818181817,128.6902202887888L129.10181818181817,129.44451855323246L129.10181818181817,125.36608043728322L129.10181818181817,124.71178246897853L129.10181818181817,124.91586135856465L133.68727272727273,124.32584096956785L133.68727272727273,124.14634722503514L133.68727272727273,127.28718954520214L133.68727272727273,128.49942629153333L133.68727272727273,125.41330694051669L133.68727272727273,128.24164653987435L133.68727272727273,130.14055958725118L133.68727272727273,130.11674716059846L133.68727272727273,126.73444553317462L133.68727272727273,126.55521106347003L133.68727272727273,126.81802062689289L133.68727272727273,126.55841337782736L133.68727272727273,124.1909107003812L133.68727272727273,127.50623530251772L133.68727272727273,130.64653781564218L133.68727272727273,130.30479022499816L138.27272727272728,129.91468625802682L138.27272727272728,128.39158997168917L138.27272727272728,119.25681571122053L138.27272727272728,118.01770281530779L138.27272727272728,124.96847596640347L138.27272727272728,124.86052247016121L138.27272727272728,127.19618589867733L138.27272727272728,128.7358182116168L138.27272727272728,125.68578182977083L138.27272727272728,124.76596067434673L138.27272727272728,127.7631767120757L138.27272727272728,128.56041156096728L138.27272727272728,129.99695276976058L138.27272727272728,130.51567077445705L138.27272727272728,131.02006917527862L138.27272727272728,132.06925946794553L138.27272727272728,133.61187839082896L138.27272727272728,134.98541433812443L138.27272727272728,135.91297340665355L142.8581818181818,136.9081360429958L142.8581818181818,135.00487396958619L142.8581818181818,126.41322156008587L142.8581818181818,126.98179498118168L142.8581818181818,122.61988316446688L142.8581818181818,125.20360720644453L142.8581818181818,128.2390937980355L142.8581818181818,130.16579929117742L142.8581818181818,132.61504460501965L142.8581818181818,134.41074947165018L142.8581818181818,135.49568002057399L142.8581818181818,135.97864657405526L142.8581818181818,136.78031092183815L142.8581818181818,137.76266611766658L142.8581818181818,137.92409795586252L142.8581818181818,138.39123582209555L142.8581818181818,139.15901796653418L142.8581818181818,139.3064201042099L142.8581818181818,139.16819511090003L142.8581818181818,139.9776213233095L142.8581818181818,139.25197345701451L142.8581818181818,136.53134187836048L142.8581818181818,132.35871112170372L142.8581818181818,133.70703022679243L142.8581818181818,134.82812401795192L147.44363636363636,136.65106790178854L147.44363636363636,136.31336476279031L147.44363636363636,135.86586991844982L147.44363636363636,136.27176717041317L147.44363636363636,137.0724025156732L147.44363636363636,137.87508651536297L147.44363636363636,137.1364665740395L147.44363636363636,137.54287553736816L147.44363636363636,141.10697019482404L147.44363636363636,140.62682311500555L147.44363636363636,140.7277169606374L147.44363636363636,140.30826391797632L147.44363636363636,138.15087700133284L147.44363636363636,139.99283338468723L147.44363636363636,140.27054198828438L147.44363636363636,140.21685857515575L147.44363636363636,138.9295541906235L147.44363636363636,137.6632675721258L147.44363636363636,137.08977995779986L152.0290909090909,135.04409283374054L152.0290909090909,134.05018338454866L152.0290909090909,132.44417720778358L152.0290909090909,132.39615161556515L152.0290909090909,131.06790365874667L152.0290909090909,131.59674930880038L152.0290909090909,133.5567060495177L152.0290909090909,132.46620210571254L152.0290909090909,133.38985719674722L152.0290909090909,133.5937529481641L152.0290909090909,133.48405057521143L152.0290909090909,133.24320691917885L152.0290909090909,134.4828316082997L152.0290909090909,133.09039665827643L152.0290909090909,131.1746640466406L152.0290909090909,131.18350516091334L152.0290909090909,132.80778830428716L152.0290909090909,134.45126985851698L156.61454545454544,134.0321389554863L156.61454545454544,135.61262969554502L156.61454545454544,136.7830513076177L156.61454545454544,137.31016013615783L156.61454545454544,138.162294913648L156.61454545454544,138.4787284425665L156.61454545454544,130.1320149381117L156.61454545454544,130.12658371191418L156.61454545454544,126.3740091592108L156.61454545454544,117.9883217617442L156.61454545454544,121.11944284248L156.61454545454544,123.78045278669309L156.61454545454544,127.24607371508031L156.61454545454544,129.1819256039229L156.61454545454544,130.98978514037043L156.61454545454544,133.09235396832221L156.61454545454544,135.00933648059404L156.61454545454544,135.8987665793718L156.61454545454544,137.1150257604535L156.61454545454544,138.00618741307886L156.61454545454544,138.87826113673793L156.61454545454544,139.8608643774857L161.2,139.0236740742654L161.2,138.74344670024837L161.2,136.6595487943528L161.2,136.81728627407958L161.2,137.49972383281192L161.2,132.67568707318972L161.2,132.30702487283952L161.2,134.73573787050017L161.2,130.83128825739237L161.2,130.30557146459086L161.2,131.55677207711966L161.2,130.366086808653L161.2,129.2543941923294L161.2,129.817043305796L161.2,131.13260500879528L161.2,132.90499333058884L161.2,134.10010182585046L165.78545454545454,135.01223445402383L165.78545454545454,135.34938436606336L165.78545454545454,132.75602072874852L165.78545454545454,129.57944429579877L165.78545454545454,131.4154120225554L165.78545454545454,132.46737943799562L165.78545454545454,133.40595567223386L165.78545454545454,134.82825446808405L165.78545454545454,135.14005827766704L165.78545454545454,134.05420401326688L165.78545454545454,132.64594529744576L165.78545454545454,131.51933832480015L165.78545454545454,132.41411099275118L165.78545454545454,133.95748001516216L165.78545454545454,136.0742899159697L165.78545454545454,136.82651237602963L165.78545454545454,137.40555542956756L165.78545454545454,137.3959036506513L165.78545454545454,139.53890513988375L165.78545454545454,140.21356290780784L165.78545454545454,141.13523568588192L165.78545454545454,140.86162804324096L165.78545454545454,141.9992584947263L170.37090909090907,139.60370628658137L170.37090909090907,136.36560815670603L170.37090909090907,135.46206030923597L170.37090909090907,134.94838324472033L170.37090909090907,136.06977483090895L170.37090909090907,137.19878422783313L170.37090909090907,134.69327023025642L170.37090909090907,135.18060566217954L170.37090909090907,136.67539085276152L170.37090909090907,137.07398133651137L170.37090909090907,136.74263516861427L170.37090909090907,138.6858762634192L170.37090909090907,139.2492268667528L170.37090909090907,138.82537097137947L170.37090909090907,139.3911358524752L170.37090909090907,134.10848665766727L170.37090909090907,136.4588202382684L174.95636363636365,136.39600974286867L174.95636363636365,135.84710888834672L174.95636363636365,134.9335863220126L174.95636363636365,140.10778339695855L174.95636363636365,134.41656402399502L174.95636363636365,135.32906197314264L174.95636363636365,136.02874711312916L174.95636363636365,135.51086027747502L174.95636363636365,136.83198261633623L174.95636363636365,136.48992541475548L174.95636363636365,137.8562248199452L174.95636363636365,136.4832839505483L174.95636363636365,139.58937477789826L174.95636363636365,139.74619219423133L174.95636363636365,139.92014727825492L174.95636363636365,138.8331416230389L174.95636363636365,139.11998641680378L174.95636363636365,139.66017275008622L179.5418181818182,140.32421794468542L179.5418181818182,140.54171228016L179.5418181818182,139.77145096601646L179.5418181818182,139.89943144955595L179.5418181818182,140.32465162239805L179.5418181818182,140.52235562976284L179.5418181818182,141.01396424842108L179.5418181818182,141.63763161036508L179.5418181818182,141.524238469185L179.5418181818182,140.41348412535763L179.5418181818182,141.9044683687171L179.5418181818182,142.98964383472037L179.5418181818182,142.1844944998056L179.5418181818182,142.13754545292065L179.5418181818182,142.33339800435596L179.5418181818182,141.46397757074664L179.5418181818182,141.11704324629983L179.5418181818182,141.1335340143771L179.5418181818182,141.46046844902673L179.5418181818182,141.64471728743334L179.5418181818182,141.92397886229463L179.5418181818182,140.36193950289467L184.12727272727273,139.78677714575446L184.12727272727273,138.65672511255266L184.12727272727273,138.45443451378245L184.12727272727273,137.94703133425708L184.12727272727273,138.28529832550527L184.12727272727273,138.43920602403927L184.12727272727273,138.93670044174291L184.12727272727273,139.79242558798666L184.12727272727273,131.13598716446063L184.12727272727273,133.57610554163514L184.12727272727273,134.75976013303762L184.12727272727273,134.82305346231368L184.12727272727273,136.06348198494385L184.12727272727273,137.54083631251763L184.12727272727273,139.7306343177341L184.12727272727273,138.6027168843476L184.12727272727273,141.6638363667128L184.12727272727273,141.37999522883302L188.71272727272728,140.76491311095404L188.71272727272728,141.96432505597966L188.71272727272728,141.63402712896777L188.71272727272728,142.2761540457L188.71272727272728,142.34728257668212L188.71272727272728,142.08589659836156L188.71272727272728,143.31363441257042L188.71272727272728,140.66733230859384L188.71272727272728,141.90899532859024L188.71272727272728,140.00589763638908L188.71272727272728,137.49217721009802L188.71272727272728,137.11053640875232L188.71272727272728,135.5229745894819L188.71272727272728,135.58822244610667L188.71272727272728,136.15726112121163L188.71272727272728,136.93078086440462L188.71272727272728,136.6856699076832L188.71272727272728,137.77183032049714L188.71272727272728,135.83678586153178L188.71272727272728,137.27308673867196L193.29818181818183,138.84196552827777L193.29818181818183,134.95291523747315L193.29818181818183,126.74753849426168L193.29818181818183,126.73240813872005L193.29818181818183,127.99952171056606L193.29818181818183,130.27424249270234L193.29818181818183,130.04181416889912L193.29818181818183,129.5360670457775L193.29818181818183,131.4974161170114L193.29818181818183,134.3335879425294L193.29818181818183,136.05385613282863L193.29818181818183,137.61346566210673L193.29818181818183,138.38372008087555L193.29818181818183,138.34818940001233L193.29818181818183,135.6415919263699L193.29818181818183,129.8432746092165L193.29818181818183,132.94206999276628L197.88363636363636,134.46320856837008L197.88363636363636,135.8907963032892L197.88363636363636,136.09921933547128L197.88363636363636,137.4481733155792L197.88363636363636,139.48826555283864L197.88363636363636,140.10484649465022L197.88363636363636,139.9312204225667L197.88363636363636,140.2955190059866L197.88363636363636,140.21410527481595L197.88363636363636,138.80761433395L197.88363636363636,138.9964996397696L197.88363636363636,132.44535508769908L197.88363636363636,130.89052691814072L197.88363636363636,123.91443460475512L197.88363636363636,123.31705401402974L197.88363636363636,127.31489637742749L197.88363636363636,129.7765590381073L197.88363636363636,126.90941502049527L197.88363636363636,128.59127852322567L197.88363636363636,129.365365140782L202.4690909090909,131.64883017677548L202.4690909090909,134.78210195923845L202.4690909090909,135.50781774880713L202.4690909090909,136.3051298987752L202.4690909090909,135.97598792169381L202.4690909090909,135.36104099566222L202.4690909090909,120.13534319320638L202.4690909090909,122.38690868041597L202.4690909090909,122.91500585777571L202.4690909090909,123.21926204422333L202.4690909090909,127.04568951970509L202.4690909090909,129.67789944639958L202.4690909090909,125.61189592954406L202.4690909090909,127.38047790021858L202.4690909090909,131.93730866164532L202.4690909090909,133.6472742157418L207.05454545454546,134.03764533519882L207.05454545454546,131.59143927056795L207.05454545454546,131.99132722277744L207.05454545454546,134.30433175634147L207.05454545454546,132.05184114512113L207.05454545454546,134.6801256631142L207.05454545454546,130.9201766565896L207.05454545454546,129.12323056412203L207.05454545454546,132.5282104801753L207.05454545454546,132.85138744105646L207.05454545454546,134.87415837552732L207.05454545454546,137.04256005417503L207.05454545454546,138.16495436636922L207.05454545454546,139.55242830850977L207.05454545454546,140.9109758608256L207.05454545454546,142.4616061586333L207.05454545454546,142.44865877704723L207.05454545454546,142.4170816182355L211.64,142.8101423181296L211.64,141.39370605355333L211.64,134.9360400643156L211.64,135.43090098521975L211.64,136.66040325386467L211.64,137.08169484996392L211.64,138.0477274282088L211.64,138.98121355332773L211.64,138.6336952351466L211.64,139.44392515501224L211.64,140.3209738969296L211.64,140.78465411863576L211.64,142.0483226056466L211.64,142.5803085296401L211.64,142.95284913498762L211.64,142.33087541219697L211.64,140.6647218283065L211.64,138.62095396760287L211.64,139.58529823768333L211.64,138.897192142395L211.64,139.53346980343647L211.64,138.56169116736842L216.22545454545454,138.3223279018535L216.22545454545454,139.2281758296493L216.22545454545454,137.59903268992298L216.22545454545454,136.6094599983354L216.22545454545454,136.52864683865099L216.22545454545454,136.7398466069211L216.22545454545454,136.15855424280016L216.22545454545454,137.08792844128578L216.22545454545454,137.6859243472114L216.22545454545454,140.3408102207842L216.22545454545454,139.49857040694138L216.22545454545454,140.40864426653707L216.22545454545454,140.81993021206893L220.8109090909091,140.9913302279169L220.8109090909091,140.7571133036418L220.8109090909091,139.484526511737L220.8109090909091,139.0014853996325L220.8109090909091,140.1928555767418L220.8109090909091,141.064106026209L220.8109090909091,141.51708497006672L220.8109090909091,138.85875581763457L220.8109090909091,135.06334977087002L220.8109090909091,136.7028390170912L220.8109090909091,138.31453128556296L220.8109090909091,138.13217830124486L220.8109090909091,137.50431572624092L220.8109090909091,134.59515605041057L220.8109090909091,131.74947225897685L220.8109090909091,132.24203781281332L220.8109090909091,133.63187951128867L220.8109090909091,134.36029064538113L220.8109090909091,135.47198523019455L220.8109090909091,136.04608341687617L220.8109090909091,136.36288983530693L220.8109090909091,137.0861898698639L225.39636363636365,137.57995288335212L225.39636363636365,137.31110379054422L225.39636363636365,138.52983979120916L225.39636363636365,138.9167521364886L225.39636363636365,139.89923548212764L225.39636363636365,140.3972465748812L225.39636363636365,141.00481666255578L225.39636363636365,141.72731584355324L225.39636363636365,142.15981173551933L225.39636363636365,142.687687765144L225.39636363636365,142.4794736265112L225.39636363636365,142.23863492822048L225.39636363636365,141.53670188461854L225.39636363636365,141.64204627527255L225.39636363636365,142.40533790107978L225.39636363636365,144.8908438180875L229.98181818181817,144.26624904434595L229.98181818181817,144.5092470992456L229.98181818181817,139.78987268768503L229.98181818181817,137.9195589941357L229.98181818181817,139.319736147503L229.98181818181817,140.12462038904465L229.98181818181817,140.1410441418684L229.98181818181817,140.41336116951499L229.98181818181817,141.84222790437306L229.98181818181817,142.50334110471852L229.98181818181817,142.40777934652527L229.98181818181817,143.3301505173281L229.98181818181817,141.8021343080877L229.98181818181817,141.6922164905774L229.98181818181817,141.92863368353835L229.98181818181817,142.06168798211422L229.98181818181817,141.57399232186233L229.98181818181817,142.38727060157441L229.98181818181817,141.86931861966917L229.98181818181817,142.27492961736795L229.98181818181817,142.3841945581866L229.98181818181817,142.47918481568294L234.56727272727272,142.8219333519061L234.56727272727272,143.25376092146493L234.56727272727272,139.20380617238982L234.56727272727272,138.89664634455363L234.56727272727272,138.12195280476215L234.56727272727272,141.15797222568406L234.56727272727272,138.05310957136186L234.56727272727272,137.644159311932L234.56727272727272,138.19001982145548L234.56727272727272,138.00074024964317L234.56727272727272,138.70263371669625L234.56727272727272,140.5706482440239L234.56727272727272,138.29409537963343L234.56727272727272,137.49440857996024L234.56727272727272,136.1241105540547L234.56727272727272,137.1619227750882L234.56727272727272,137.42531535020254L239.15272727272728,138.9273725542992L239.15272727272728,137.1431662123054L239.15272727272728,137.51943768960797L239.15272727272728,138.98145117228353L239.15272727272728,136.4634588253503L239.15272727272728,136.03444631944365L239.15272727272728,134.55145926743333L239.15272727272728,134.69430429400327L239.15272727272728,134.47361924152568L239.15272727272728,133.5801635620753L239.15272727272728,136.1574146391665L239.15272727272728,136.11850940036717L239.15272727272728,135.25680299932915L239.15272727272728,136.3104479907161L239.15272727272728,137.01392317485113L239.15272727272728,137.94197761525254L239.15272727272728,135.6000510994324L243.7381818181818,134.87386523888856L243.7381818181818,135.3993490564867L243.7381818181818,136.43357880224784L243.7381818181818,137.6989886183647L243.7381818181818,139.49642885223955L243.7381818181818,140.70551623330613L243.7381818181818,139.4099043142082L243.7381818181818,140.20888021013187L243.7381818181818,140.68436954242472L243.7381818181818,136.04792320700435L243.7381818181818,132.62977304437126L243.7381818181818,128.19164998718472L243.7381818181818,128.04532607365007L243.7381818181818,137.0525459650331L243.7381818181818,138.04714323477975L243.7381818181818,139.87347050823325L243.7381818181818,139.56727163930995L243.7381818181818,139.34504745867287L243.7381818181818,139.84173724454013L243.7381818181818,138.0231927392756L243.7381818181818,135.35431270038038L248.32363636363635,136.54002184828013L248.32363636363635,136.57464560340833L248.32363636363635,136.3643858356634L248.32363636363635,138.6924716343562L248.32363636363635,138.33601261741217L248.32363636363635,138.05842370869266L248.32363636363635,138.59115174336682L248.32363636363635,139.4235313102899L248.32363636363635,140.08640364190254L248.32363636363635,139.60272432015813L248.32363636363635,140.74356711765665L248.32363636363635,141.5077065808667L248.32363636363635,141.9113725989443L248.32363636363635,141.63865065330685L248.32363636363635,145.4203023891082L248.32363636363635,145.02022999199744L248.32363636363635,144.57588787499725L248.32363636363635,143.91273500507222L248.32363636363635,143.8065977799273L248.32363636363635,142.6925542031223L248.32363636363635,142.594010027487L248.32363636363635,142.6925070201348L248.32363636363635,142.8425406797117L248.32363636363635,141.3453573554289L248.32363636363635,140.97213026213265L248.32363636363635,140.80389543066735L248.32363636363635,140.9193916250798L248.32363636363635,141.23610640375577L248.32363636363635,141.03023295364295L248.32363636363635,141.26112170598336" style="fill: none;" fill="none"></path></g></g></g></g><g opacity="0.2"><g><g><g><path stroke="rgb(255, 112, 67)" stroke-width="2px" d="M28.221818181818183,-103.3448216574447L28.221818181818183,21.88666575295838L28.221818181818183,-179.54467678068835L32.807272727272725,-60.18637561797445L32.807272727272725,48.819961139135216L32.807272727272725,-58.90564210073643L32.807272727272725,-23.969656808030976L32.807272727272725,5.58573205130773L32.807272727272725,27.350623539518182L32.807272727272725,25.122601917814166L32.807272727272725,6.533020155773698L32.807272727272725,44.89439923422819L32.807272727272725,7.419681821553866L32.807272727272725,61.73339257921552L32.807272727272725,-3.0838486807649588L32.807272727272725,30.169752938408948L37.39272727272727,23.000676563810373L37.39272727272727,-6.0318092618630885L37.39272727272727,-6.971519061493353L37.39272727272727,58.80058860778881L37.39272727272727,74.24517386300224L37.39272727272727,78.428398132324L37.39272727272727,35.792855126519015L37.39272727272727,78.32988016945956L37.39272727272727,42.704269136702834L37.39272727272727,50.36593532562371L37.39272727272727,10.837497302467142L37.39272727272727,55.193315505982355L37.39272727272727,24.971035821099633L37.39272727272727,83.49070576259022L37.39272727272727,80.01226384299113L37.39272727272727,67.8490845816479L37.39272727272727,51.040404456003486L41.97818181818182,90.71283027103888L41.97818181818182,53.57913657597233L41.97818181818182,44.470014163427436L41.97818181818182,67.13672392708948L41.97818181818182,72.81287424904966L41.97818181818182,59.4977926526758L41.97818181818182,57.17125306810733L41.97818181818182,-55.669705935880614L41.97818181818182,-0.029791831966605287L41.97818181818182,51.18439224788233L41.97818181818182,26.65341949463121L41.97818181818182,55.2615202495039L41.97818181818182,52.737944739206526L41.97818181818182,52.05589730399103L46.56363636363636,92.20575632367728L46.56363636363636,68.70543302808515L46.56363636363636,101.82262516021594L46.56363636363636,65.84083380018002L46.56363636363636,90.71283027103888L46.56363636363636,81.38393701825788L46.56363636363636,106.02858434404492L46.56363636363636,94.12306744711643L46.56363636363636,66.89421817234619L46.56363636363636,94.73691013881039L46.56363636363636,102.67897360665319L46.56363636363636,94.88847623552495L46.56363636363636,95.73724637712645L46.56363636363636,80.58821501050646L46.56363636363636,49.93397194998721L46.56363636363636,70.36508178710956L46.56363636363636,98.91255610329644L46.56363636363636,81.45214176177943L51.14909090909091,81.29299736022914L51.14909090909091,72.03230885096968L51.14909090909091,48.71386487143502L51.14909090909091,14.91462530408873L51.14909090909091,87.9164357866553L51.14909090909091,67.62173543657606L51.14909090909091,95.7448246819622L51.14909090909091,83.0208508627751L51.14909090909091,99.59460353851195L51.14909090909091,110.77260317121055L51.14909090909091,80.64884144919228L51.14909090909091,83.80141626085506L51.14909090909091,119.68468965802653L51.14909090909091,114.88762269701078L51.14909090909091,60.84673091343535L51.14909090909091,108.99170153481451L51.14909090909091,101.76199872153012L51.14909090909091,93.18335764748618L51.14909090909091,74.20728233882359L51.14909090909091,109.54491778782264L51.14909090909091,101.02690315246451L51.14909090909091,74.96511282239638L51.14909090909091,29.21488652910722L51.14909090909091,62.718572207860134L51.14909090909091,92.76655088152114L55.734545454545454,109.8025801522374L55.734545454545454,85.40801688602939L55.734545454545454,105.22528403145776L55.734545454545454,99.32936286926147L55.734545454545454,28.02509266989796L55.734545454545454,88.43933882032053L55.734545454545454,105.33895860399367L55.734545454545454,112.73538412366408L55.734545454545454,104.49018846239214L55.734545454545454,107.96105207715551L55.734545454545454,100.9662767137787L55.734545454545454,92.6452980041495L55.734545454545454,98.91255610329644L55.734545454545454,111.94724042074837L55.734545454545454,101.27698721204354L55.734545454545454,86.15069075993071L55.734545454545454,106.84704126630352L55.734545454545454,121.48832620892976L55.734545454545454,76.5489785330635L55.734545454545454,74.04813793727331L55.734545454545454,95.6917765481121L55.734545454545454,68.91762556348553L55.734545454545454,118.55552223750308L55.734545454545454,104.97519997187874L55.734545454545454,95.73724637712645L55.734545454545454,115.6530314854193L55.734545454545454,118.96475069863237L55.734545454545454,89.59881946018689L60.32,111.4925421306047L60.32,81.30057566506486L60.32,108.18082291739162L60.32,80.75493771689247L60.32,85.65052264077268L60.32,74.80596842084609L60.32,94.64597048078166L60.32,111.22730146135422L60.32,95.55536706106899L60.32,79.34537301744707L60.32,80.73220280238527L60.32,77.23860427311473L60.32,92.22849123818446L60.32,116.68368094307829L60.32,108.99927983965023L60.32,108.48395511082073L60.32,63.317258289882645L60.32,59.05067266736785L60.32,63.97657081059096L60.32,97.75307546343006L60.32,112.75054073333553L64.90545454545455,44.23508671351988L64.90545454545455,121.67020552498724L64.90545454545455,64.0144623347696L64.90545454545455,85.81724534715869L64.90545454545455,106.19530705043091L64.90545454545455,133.39384310585825L64.90545454545455,124.17104612077742L64.90545454545455,111.5455902644548L64.90545454545455,103.23218985966132L64.90545454545455,115.56209182739057L64.90545454545455,109.19631576537915L64.90545454545455,95.91912569318393L64.90545454545455,124.79246711730711L64.90545454545455,121.38222994122957L64.90545454545455,113.74329866681587L64.90545454545455,97.03313650403592L64.90545454545455,94.82784979683912L64.90545454545455,67.78845814296209L64.90545454545455,111.76536110469091L64.90545454545455,127.03564534868256L64.90545454545455,133.6287705557658L64.90545454545455,97.48025648934387L64.90545454545455,134.56090205056034L69.49090909090908,126.55063383919598L69.49090909090908,117.53245108467982L69.49090909090908,119.16936492919703L69.49090909090908,113.26586546216502L69.49090909090908,110.58314555031735L69.49090909090908,135.1141183035685L69.49090909090908,118.95717239379665L69.49090909090908,117.87347480228757L69.49090909090908,123.8376007080054L69.49090909090908,114.91793591635368L69.49090909090908,126.45969418116724L69.49090909090908,127.85410227094118L69.49090909090908,104.7478508268069L69.49090909090908,120.93510995592163L69.49090909090908,111.06057875496822L69.49090909090908,128.42247513362076L69.49090909090908,130.142750331331L69.49090909090908,119.38155746459742L69.49090909090908,124.8152020318143L69.49090909090908,128.10418633052018L69.49090909090908,123.84517901284113L69.49090909090908,119.48007542746188L69.49090909090908,125.05012948172185L69.49090909090908,125.61092403956573L69.49090909090908,87.24954496111125L69.49090909090908,77.29165240696483L69.49090909090908,110.17391708918805L74.07636363636364,103.77782780783373L74.07636363636364,126.64157349722471L74.07636363636364,116.23656095777035L74.07636363636364,115.19833319527564L74.07636363636364,118.38879953111706L74.07636363636364,133.53783089773708L74.07636363636364,120.54861640929951L74.07636363636364,97.93495477948754L74.07636363636364,87.4768941061831L74.07636363636364,85.68083586011558L74.07636363636364,43.22717217036805L74.07636363636364,106.37718636648839L74.07636363636364,103.96728542872692L74.07636363636364,103.20187664031842L74.07636363636364,117.41877651214389L74.07636363636364,128.28606564657767L74.07636363636364,130.24884659903117L74.07636363636364,108.68099103654967L74.07636363636364,102.31521497453825L74.07636363636364,116.31234400612763L74.07636363636364,118.92685917445374L78.66181818181819,120.15454455784166L78.66181818181819,126.22476673125968L78.66181818181819,128.0284032821629L78.66181818181819,113.4250098637153L78.66181818181819,125.33810506547951L78.66181818181819,121.09425435747191L78.66181818181819,136.19023759024182L78.66181818181819,118.82834121158928L78.66181818181819,110.59072385515309L78.66181818181819,125.4972494670298L78.66181818181819,106.28624670845966L78.66181818181819,121.45801298958685L78.66181818181819,106.8167280469606L78.66181818181819,121.89755467005907L78.66181818181819,121.38222994122957L78.66181818181819,109.87078489575894L78.66181818181819,118.39637783595279L83.24727272727273,115.03161048888961L83.24727272727273,114.38745457785275L83.24727272727273,127.39182567596177L83.24727272727273,130.59744862147465L83.24727272727273,123.96643189021277L83.24727272727273,130.49135235377446L83.24727272727273,122.14763872963809L83.24727272727273,125.42904472350826L83.24727272727273,122.79937294551068L83.24727272727273,129.80172661372325L83.24727272727273,127.71769278389806L83.24727272727273,136.129611151556L83.24727272727273,115.57724843706202L83.24727272727273,124.95918982369312L83.24727272727273,65.91661684853729L83.24727272727273,101.79989024570875L83.24727272727273,117.53245108467982L83.24727272727273,120.56377301897096L83.24727272727273,120.34400217873485L83.24727272727273,122.29162652151692L87.83272727272727,129.81688322339468L87.83272727272727,126.5278989246888L87.83272727272727,136.47821317399948L87.83272727272727,128.49067987714233L87.83272727272727,128.55130631582813L87.83272727272727,126.59610366821033L87.83272727272727,129.63500390733722L87.83272727272727,124.41355187552071L87.83272727272727,134.23503494262405L87.83272727272727,133.48478276388698L87.83272727272727,131.08246013096124L87.83272727272727,89.45483166830806L87.83272727272727,107.36994429996874L87.83272727272727,114.12221390860228L87.83272727272727,123.54204681941201L87.83272727272727,119.2678828920615L92.41818181818182,98.18503883906656L92.41818181818182,72.84318746839257L92.41818181818182,156.47735963548533L92.41818181818182,118.87381104060364L92.41818181818182,144.37480681282793L92.41818181818182,116.25929587227753L92.41818181818182,107.55940192086193L92.41818181818182,130.05181067330227L92.41818181818182,105.17981420244338L92.41818181818182,125.59576742989427L92.41818181818182,129.63500390733722L92.41818181818182,133.77275834764464L92.41818181818182,136.51610469817814L92.41818181818182,109.2114723750506L92.41818181818182,119.56343678065488L92.41818181818182,127.49034363882623L97.00363636363636,126.4218026569886L97.00363636363636,125.59576742989427L97.00363636363636,129.99876253945217L97.00363636363636,138.96389716011822L97.00363636363636,121.39738655090102L97.00363636363636,128.3012222562491L97.00363636363636,128.91506494794305L97.00363636363636,117.67643887655865L97.00363636363636,127.0735368728612L97.00363636363636,126.06562232970938L97.00363636363636,125.01223795754322L97.00363636363636,133.55298750740855L97.00363636363636,137.04658603667906L97.00363636363636,132.49960313524235L97.00363636363636,133.40899971552972L97.00363636363636,127.7555843080767L97.00363636363636,128.69529410770696L97.00363636363636,122.70085498264623L97.00363636363636,125.67155047825155L97.00363636363636,141.949749265395L97.00363636363636,124.26198577880616L97.00363636363636,123.23133632114717L101.5890909090909,105.4829463958725L101.5890909090909,136.31149046761348L101.5890909090909,124.70910576411411L101.5890909090909,134.43207086835298L101.5890909090909,137.20573043822935L101.5890909090909,129.3849198477582L101.5890909090909,133.1361807414435L101.5890909090909,133.6287705557658L101.5890909090909,162.49453367505328L101.5890909090909,37.92993709019427L101.5890909090909,133.25743361881513L101.5890909090909,91.66011837550487L101.5890909090909,133.0831326075934L101.5890909090909,125.71702030726593L101.5890909090909,112.85663700103572L101.5890909090909,116.1986694335917L101.5890909090909,44.795881271363726L101.5890909090909,87.34048461913997L101.5890909090909,101.49675805227965L101.5890909090909,119.26030458722576L101.5890909090909,130.1200154168238L101.5890909090909,131.71903773716238L101.5890909090909,123.76939596448386L101.5890909090909,162.5324251992319L101.5890909090909,77.05672495705727L101.5890909090909,122.63265023912467L106.17454545454545,78.77700015476749L106.17454545454545,86.75695514678894L106.17454545454545,114.19041865212382L106.17454545454545,119.14663001468985L106.17454545454545,133.09071091242913L106.17454545454545,126.5582121440317L106.17454545454545,121.85966314588043L106.17454545454545,124.85309355599293L106.17454545454545,136.90259824480023L106.17454545454545,129.58195577348712L106.17454545454545,135.0686484745541L106.17454545454545,128.6195110593497L106.17454545454545,135.81132234845543L106.17454545454545,139.2594510487116L106.17454545454545,138.8426442827466L106.17454545454545,118.17660699571668L106.17454545454545,115.89553724016258L110.75999999999999,106.71063177926041L110.75999999999999,128.30880056108487L110.75999999999999,114.38745457785275L110.75999999999999,143.5715065002408L110.75999999999999,136.66767079489267L110.75999999999999,137.20573043822935L110.75999999999999,134.932238987511L110.75999999999999,135.6142864227265L110.75999999999999,138.20606667654545L110.75999999999999,129.29398018972947L110.75999999999999,129.58195577348712L110.75999999999999,133.58330072675145L110.75999999999999,127.36151245661887L110.75999999999999,129.43038967677256L110.75999999999999,133.1058675221006L110.75999999999999,137.63011550903013L110.75999999999999,129.5213293348013L110.75999999999999,121.88239806038762L110.75999999999999,136.94806807381462L115.34545454545456,137.8119948250876L115.34545454545456,98.87466457911779L115.34545454545456,126.34601960863132L115.34545454545456,95.02488572256804L115.34545454545456,106.74094499860333L115.34545454545456,103.70962306431218L115.34545454545456,105.88459655216607L115.34545454545456,136.57673113686394L115.34545454545456,120.66229098183543L115.34545454545456,120.1090747288273L115.34545454545456,106.7333666937676L115.34545454545456,132.96187973022177L115.34545454545456,130.37767778123856L115.34545454545456,132.74210888998564L115.34545454545456,131.16582148415426L115.34545454545456,116.66852433340684L115.34545454545456,130.23368998935973L115.34545454545456,146.48915386199602L115.34545454545456,141.68450859614452L115.34545454545456,137.47854941231557L115.34545454545456,134.2501915522955L115.34545454545456,138.7895961488965L115.34545454545456,141.57841232844436L115.34545454545456,127.3463558469474L119.9309090909091,120.04086998530573L119.9309090909091,127.35393415178314L119.9309090909091,130.39283439091002L119.9309090909091,129.10452256883627L119.9309090909091,138.7365480150464L119.9309090909091,134.5230105263817L119.9309090909091,138.53951208931747L119.9309090909091,134.0304207120594L119.9309090909091,140.72964218684282L119.9309090909091,131.256761142183L119.9309090909091,147.39097213744762L119.9309090909091,152.8776648385146L119.9309090909091,130.0897021974809L119.9309090909091,130.75659302302495L119.9309090909091,122.6402285439604L119.9309090909091,133.6590837751087L119.9309090909091,129.40007645742966L119.9309090909091,139.2064029148615L119.9309090909091,134.59121526990324L119.9309090909091,117.03228296552177L119.9309090909091,130.8778459003966L119.9309090909091,123.7011912209623L119.9309090909091,136.6979840142356L119.9309090909091,128.2709090369062L119.9309090909091,130.309473037717L124.51636363636364,129.77899169921605L124.51636363636364,126.74009146008918L124.51636363636364,125.46693624768689L124.51636363636364,123.66329969678367L124.51636363636364,138.23637989588835L124.51636363636364,131.76450756617675L124.51636363636364,125.73217691693736L124.51636363636364,130.18822016034534L124.51636363636364,133.07555430275767L124.51636363636364,139.44133036476907L124.51636363636364,137.05416434151482L124.51636363636364,135.45514202117621L124.51636363636364,145.95867252349507L124.51636363636364,133.45446954454405L124.51636363636364,145.8146847316162L124.51636363636364,125.17138235909351L124.51636363636364,62.08199460165899L124.51636363636364,87.9997971398483L124.51636363636364,104.42956202370632L124.51636363636364,98.58668899536015L124.51636363636364,134.44722747802442L124.51636363636364,127.23268127441148L124.51636363636364,138.48646395546737L124.51636363636364,123.7542393548124L124.51636363636364,132.59054279327108L124.51636363636364,134.44722747802442L129.10181818181817,132.65874753679265L129.10181818181817,144.05651800972737L129.10181818181817,137.06174264635052L129.10181818181817,137.81957312992333L129.10181818181817,132.77242210932855L129.10181818181817,139.75961916786966L129.10181818181817,137.34971823010818L129.10181818181817,130.39283439091002L129.10181818181817,135.84163556779833L129.10181818181817,135.28841931479022L129.10181818181817,135.1974796567615L129.10181818181817,137.00869451250043L129.10181818181817,135.50061185019058L129.10181818181817,143.39720548901903L129.10181818181817,103.64141832079063L129.10181818181817,119.5407018661477L129.10181818181817,132.0979529789488L129.10181818181817,117.35815007345806L129.10181818181817,132.14342280796313L129.10181818181817,120.980579784936L129.10181818181817,126.5051640101816L129.10181818181817,129.04389613015044L129.10181818181817,135.78858743394824L129.10181818181817,132.46171161106372L129.10181818181817,109.05232797350033L129.10181818181817,122.09459059578799L129.10181818181817,125.73217691693736L133.68727272727273,121.96575941358063L133.68727272727273,123.42837224687611L133.68727272727273,139.8505588258984L133.68727272727273,133.3483732768439L133.68727272727273,113.0688295364361L133.68727272727273,139.555004937305L133.68727272727273,137.73621177673033L133.68727272727273,130.02149745395934L133.68727272727273,113.2052390234792L133.68727272727273,125.83827318463756L133.68727272727273,127.86925888061262L133.68727272727273,125.51998438153699L133.68727272727273,114.72089999062477L133.68727272727273,140.76753371102146L133.68727272727273,143.20774786812584L133.68727272727273,128.93779986245025L138.27272727272728,128.3542703900992L138.27272727272728,122.29920482635265L138.27272727272728,82.71771866934598L138.27272727272728,113.06125123160038L138.27272727272728,152.7715685708144L138.27272727272728,124.42870848519217L138.27272727272728,136.5388396126853L138.27272727272728,134.89434746333237L138.27272727272728,113.48563630240113L138.27272727272728,121.0866760526362L138.27272727272728,139.75204086303393L138.27272727272728,131.74935095650528L138.27272727272728,135.7431176049339L138.27272727272728,132.59054279327108L138.27272727272728,133.03766277857903L138.27272727272728,136.26602063859912L138.27272727272728,139.78235408237686L138.27272727272728,140.4795581272638L138.27272727272728,139.62320968082656L142.8581818181818,140.8887865883931L142.8581818181818,127.39182567596177L142.8581818181818,92.04661192212698L142.8581818181818,129.25608866555083L142.8581818181818,105.17223589760766L142.8581818181818,135.5385033743692L142.8581818181818,140.38104016439934L142.8581818181818,137.87262126377342L142.8581818181818,142.4120258603744L142.8581818181818,141.5935689381158L142.8581818181818,139.83540221622692L142.8581818181818,137.91051278795206L142.8581818181818,139.98696831294149L142.8581818181818,141.69208690098026L142.8581818181818,138.56982530866037L142.8581818181818,140.25978728702768L142.8581818181818,142.23014654431694L142.8581818181818,139.89602865491275L142.8581818181818,138.61529513767474L142.8581818181818,143.21532617296157L142.8581818181818,136.34938199179211L142.8581818181818,125.64881556374436L142.8581818181818,115.66818809509076L142.8581818181818,139.10030664716135L142.8581818181818,139.3124991825617L147.44363636363636,143.94284343719144L147.44363636363636,134.9625522068539L147.44363636363636,134.07589054107376L147.44363636363636,137.8953561782806L147.44363636363636,140.27494389669914L147.44363636363636,141.08582251412201L147.44363636363636,134.18198680877396L147.44363636363636,139.16851139068288L147.44363636363636,155.36334882463333L147.44363636363636,138.7062347957035L147.44363636363636,141.1312923431364L147.44363636363636,138.6304517473462L147.44363636363636,129.5213293348013L147.44363636363636,147.36065891810472L147.44363636363636,141.38137640271543L147.44363636363636,140.00212492261295L147.44363636363636,133.78033665248037L147.44363636363636,132.59812109810682L147.44363636363636,134.7958295004679L152.0290909090909,126.86134433746082L152.0290909090909,130.07454558780944L152.0290909090909,126.02015250069503L152.0290909090909,132.20404924664896L152.0290909090909,125.75491183144456L152.0290909090909,133.7121319089588L152.0290909090909,141.39653301238687L152.0290909090909,128.10418633052018L152.0290909090909,137.08447756085772L152.0290909090909,134.40933595384578L152.0290909090909,133.04524108341477L152.0290909090909,132.27983229500626L152.0290909090909,139.44133036476907L152.0290909090909,127.52065685816915L152.0290909090909,123.5117336000691L152.0290909090909,131.21886961800436L152.0290909090909,139.30492087772598L152.0290909090909,141.0251960754362L156.61454545454544,132.35561534336352L156.61454545454544,141.93459265572355L156.61454545454544,141.46473775590843L156.61454545454544,139.4185954502619L156.61454545454544,141.5708340236086L156.61454545454544,139.7444625581982L156.61454545454544,96.74516092027827L156.61454545454544,130.10485880715237L156.61454545454544,111.36371094839733L156.61454545454544,84.44557217189194L156.61454545454544,133.64392716543728L156.61454545454544,134.42449256351722L156.61454545454544,141.1085574286292L156.61454545454544,136.92533315930743L156.61454545454544,138.2212232862169L156.61454545454544,141.50262928008706L156.61454545454544,142.6772665296249L156.61454545454544,139.45648697444054L156.61454545454544,141.9800624847379L156.61454545454544,141.5708340236086L156.61454545454544,142.36655603136003L156.61454545454544,143.79127734047688L161.2,135.67491286141234L161.2,137.6225372041944L161.2,128.3239571707563L161.2,137.44823619297267L161.2,140.22947406768478L161.2,113.37954003470094L161.2,130.8323760713822L161.2,144.45058986118522L161.2,115.21348980494709L161.2,128.20270429338467L161.2,136.5615745271925L161.2,125.60334573473L161.2,124.80762372697856L161.2,132.06763975960587L161.2,136.39485182080648L161.2,139.99454661777722L161.2,138.88053580692522L165.78545454545454,138.6607649666891L165.78545454545454,136.6979840142356L165.78545454545454,122.38256617954565L165.78545454545454,116.8731385639715L165.78545454545454,138.7592829295536L165.78545454545454,136.6752490997284L165.78545454545454,137.160260609215L165.78545454545454,140.51744965144243L165.78545454545454,136.38727351597075L165.78545454545454,129.71078695569452L165.78545454545454,127.01291043417538L165.78545454545454,127.01291043417538L165.78545454545454,135.9932016645129L165.78545454545454,140.1309561048203L165.78545454545454,144.54152951921395L165.78545454545454,139.83540221622692L165.78545454545454,139.72172764369103L165.78545454545454,137.3572965349439L165.78545454545454,148.11091109684176L165.78545454545454,142.91219397953245L165.78545454545454,144.82192679813588L165.78545454545454,139.7671974727054L165.78545454545454,146.54978030068182L170.37090909090907,130.02149745395934L170.37090909090907,123.41321563720464L170.37090909090907,131.84786891936977L170.37090909090907,132.8936749867002L170.37090909090907,140.5553411756211L170.37090909090907,141.71482181548745L170.37090909090907,124.67121423993547L170.37090909090907,137.1299473898721L170.37090909090907,142.6545316151177L170.37090909090907,138.66834327152483L170.37090909090907,135.41725049699758L170.37090909090907,146.4588406426531L170.37090909090907,141.50262928008706L170.37090909090907,137.1299473898721L170.37090909090907,141.65419537680162L170.37090909090907,112.97788987840737L170.37090909090907,145.86015456063058L174.95636363636365,136.14476776122746L174.95636363636365,133.65150547027298L174.95636363636365,131.27949605669016L174.95636363636365,160.80457169668594L174.95636363636365,111.65168653215498L174.95636363636365,138.9790537697897L174.95636363636365,138.82748767307513L174.95636363636365,133.43931293487262L174.95636363636365,142.11647197178104L174.95636363636365,135.1216966084042L174.95636363636365,143.32142244066176L174.95636363636365,130.9915204729325L174.95636363636365,152.01373808724162L174.95636363636365,140.3734618595636L174.95636363636365,140.6159676143069L174.95636363636365,134.48511900220305L174.95636363636365,140.26736559186344L174.95636363636365,141.82091808318762L179.5418181818182,142.980398723054L179.5418181818182,141.41168962205833L179.5418181818182,136.69040570939987L179.5418181818182,140.41135338374227L179.5418181818182,142.02553231375228L179.5418181818182,141.31317165919387L179.5418181818182,142.980398723054L179.5418181818182,144.13230105808464L179.5418181818182,141.07066590445058L179.5418181818182,135.97046675000573L179.5418181818182,147.86840534209847L179.5418181818182,147.3303456987618L179.5418181818182,138.96389716011822L179.5418181818182,141.949749265395L179.5418181818182,143.1168082100971L179.5418181818182,137.98629583630932L179.5418181818182,139.72930594852676L179.5418181818182,141.19949708665794L179.5418181818182,142.76820618765362L179.5418181818182,142.3817126410315L179.5418181818182,143.0410251617398L179.5418181818182,134.1137820652524L184.12727272727273,137.4861277171513L184.12727272727273,134.13651697975956L184.12727272727273,137.6452721187016L184.12727272727273,135.91741861615563L184.12727272727273,139.638366290498L184.12727272727273,139.05483681814695L184.12727272727273,140.92667811257175L184.12727272727273,143.21532617296157L184.12727272727273,96.51023347037071L184.12727272727273,143.3365790503332L184.12727272727273,139.49437849861917L184.12727272727273,135.07622677938983L184.12727272727273,141.0251960754362L184.12727272727273,143.45025362286913L184.12727272727273,148.48982633862815L184.12727272727273,134.0910471507452L184.12727272727273,153.9083142961736L184.12727272727273,140.24463067735624L188.71272727272728,138.3045846394099L188.71272727272728,146.7619728360822L188.71272727272728,140.31283542087778L188.71272727272728,144.84466171264305L188.71272727272728,142.63179670061052L188.71272727272728,141.04035268510768L188.71272727272728,148.2245856693777L188.71272727272728,130.08212389264517L188.71272727272728,146.87564740861814L188.71272727272728,132.39350686754216L188.71272727272728,127.43729550497613L188.71272727272728,135.5839732033836L188.71272727272728,129.17272731235784L188.71272727272728,135.84921387263407L188.71272727272728,138.43341582161727L188.71272727272728,140.02485983712012L188.71272727272728,135.70522608075524L188.71272727272728,142.11647197178104L188.71272727272728,128.09660802568447L188.71272727272728,143.01829024723264L193.29818181818183,145.11748068672927L193.29818181818183,119.39671407426886L193.29818181818183,93.9260315213875L193.29818181818183,126.67188671656763L193.29818181818183,133.06797599792196L193.29818181818183,139.37312562124754L193.29818181818183,129.112100873672L193.29818181818183,127.51307855333343L193.29818181818183,139.3428124019046L193.29818181818183,145.67827524457311L193.29818181818183,142.93492889403964L193.29818181818183,143.8519037791627L193.29818181818183,141.46473775590843L193.29818181818183,138.20606667654545L193.29818181818183,124.8152020318143L193.29818181818183,106.6500053405746L193.29818181818183,145.33725152696536L197.88363636363636,140.54776287078536L197.88363636363636,141.60114724295153L197.88363636363636,136.93291146414316L197.88363636363636,142.84398923601088L197.88363636363636,147.64863450186238L197.88363636363636,142.5711702619247L197.88363636363636,139.2367161342044L197.88363636363636,141.7527133396661L197.88363636363636,139.88845035007702L197.88363636363636,133.18165057045786L197.88363636363636,139.75204086303393L197.88363636363636,106.24077687944529L197.88363636363636,124.67121423993547L197.88363636363636,96.01006535121266L197.88363636363636,120.9275316510859L197.88363636363636,143.3062658309903L197.88363636363636,139.62320968082656L197.88363636363636,115.44083895001893L197.88363636363636,135.31873253413312L197.88363636363636,132.46171161106372L202.4690909090909,140.78269032069292L202.4690909090909,147.31518908909035L202.4690909090909,138.41068090711008L202.4690909090909,139.49437849861917L202.4690909090909,134.6594200134248L202.4690909090909,132.90125329153594L202.4690909090909,59.232551983425324L202.4690909090909,131.3931706292261L202.4690909090909,125.02739456721469L202.4690909090909,124.4362867900279L202.4690909090909,142.3513994216886L202.4690909090909,140.2067391531776L202.4690909090909,109.34788186209371L202.4690909090909,134.45480578286015L202.4690909090909,150.16463170732402L202.4690909090909,140.48713643209953L207.05454545454546,135.59912981305504L207.05454545454546,121.80661501203033L207.05454545454546,133.59087903158718L207.05454545454546,143.55634989056932L207.05454545454546,123.04187870025397L207.05454545454546,145.19326373508653L207.05454545454546,115.88038063049115L207.05454545454546,121.93544619423771L207.05454545454546,146.14813014438823L207.05454545454546,134.1440952845953L207.05454545454546,142.96524211338254L207.05454545454546,145.71616676875175L207.05454545454546,142.6545316151177L207.05454545454546,145.1023240770578L207.05454545454546,146.34516607011716L207.05454545454546,148.6641273498499L207.05454545454546,142.39686925070293L207.05454545454546,142.29077298300277L211.64,144.38238511766366L211.64,135.72796099526244L211.64,109.10537610735042L211.64,137.410344668794L211.64,141.57841232844436L211.64,138.7668612343893L211.64,141.91185774121635L211.64,142.71515805380352L211.64,137.24362196240799L211.64,142.68484483446062L211.64,143.82916886465551L211.64,142.63937500544625L211.64,147.10299655368996L211.64,144.70825222559995L211.64,144.44301155634946L211.64,139.84298052106266L211.64,134.00010749271647L211.64,130.44588252476012L211.64,143.4426753180334L211.64,136.14476776122746L211.64,142.07858044760238L211.64,134.67457662309624L216.22545454545454,137.36487483977965L216.22545454545454,142.85156754084662L216.22545454545454,131.08246013096124L216.22545454545454,132.6511692319569L216.22545454545454,136.2053941999133L216.22545454545454,137.58464568001577L216.22545454545454,133.83338478633047L216.22545454545454,140.80542523520012L216.22545454545454,140.07790797097022L216.22545454545454,150.96035371507546L216.22545454545454,136.129611151556L216.22545454545454,144.04893970489164L216.22545454545454,142.4650739942245L220.8109090909091,141.6769302913088L220.8109090909091,139.8202456065555L220.8109090909091,134.39417934417432L220.8109090909091,137.06932095118626L220.8109090909091,144.95833628517897L220.8109090909091,144.54910782404966L220.8109090909091,143.32900074549747L220.8109090909091,128.22543920789184L220.8109090909091,119.88172558375545L220.8109090909091,143.26079600197593L220.8109090909091,144.76130035945005L220.8109090909091,137.40276636395828L220.8109090909091,134.99286542619683L220.8109090909091,122.95851734706096L220.8109090909091,120.36673709324204L220.8109090909091,134.21230002811686L220.8109090909091,139.19124630519008L220.8109090909091,137.27393518175091L220.8109090909091,139.91876356941995L220.8109090909091,138.34247616358854L220.8109090909091,137.63011550903013L220.8109090909091,139.97939000810578L225.39636363636365,139.555004937305L225.39636363636365,136.2357074192562L225.39636363636365,143.40478379385476L225.39636363636365,140.46440151759236L225.39636363636365,143.82916886465551L225.39636363636365,142.38929094586723L225.39636363636365,143.43509701319766L225.39636363636365,144.61731256757122L225.39636363636365,143.88979530334134L225.39636363636365,144.79919188362868L225.39636363636365,141.6466170719659L225.39636363636365,141.27528013501524L225.39636363636365,138.72896971021066L225.39636363636365,142.06342383793094L225.39636363636365,145.45850440433702L225.39636363636365,154.8328674861324L229.98181818181817,141.76786994933752L229.98181818181817,145.4812393188442L229.98181818181817,120.91237504141444L229.98181818181817,130.43830421992436L229.98181818181817,144.92044476100034L229.98181818181817,143.34415735516893L229.98181818181817,140.2067391531776L229.98181818181817,141.50262928008706L229.98181818181817,147.55769484383364L229.98181818181817,145.14779390607217L229.98181818181817,142.02553231375228L229.98181818181817,147.01963520049696L229.98181818181817,135.6900694710838L229.98181818181817,141.25254522050804L229.98181818181817,142.8743024553538L229.98181818181817,142.59390517643186L229.98181818181817,139.62320968082656L229.98181818181817,145.64038372039448L229.98181818181817,139.7975106920483L229.98181818181817,143.89737360817708L229.98181818181817,142.82125432150372L229.98181818181817,142.85914584568235L234.56727272727272,144.19292749677047L234.56727272727272,144.98107119968614L234.56727272727272,123.00398717607534L234.56727272727272,137.66800703320877L234.56727272727272,135.02317864553973L234.56727272727272,153.30204990931537L234.56727272727272,125.6336589540729L234.56727272727272,136.00835827418436L234.56727272727272,140.3734618595636L234.56727272727272,137.24362196240799L234.56727272727272,141.5102075849228L234.56727272727272,148.04270635332023L234.56727272727272,129.18788392202927L234.56727272727272,134.29566138130986L234.56727272727272,130.64291845048902L234.56727272727272,141.31317165919387L234.56727272727272,138.47888565063164L239.15272727272728,144.9356013706718L239.15272727272728,130.00634084428788L239.15272727272728,139.02452359880405L239.15272727272728,144.8295051029716L239.15272727272728,126.3914894376457L239.15272727272728,134.31839629581705L239.15272727272728,128.6195110593497L239.15272727272728,135.26568440028302L239.15272727272728,133.59087903158718L239.15272727272728,130.00634084428788L239.15272727272728,146.46641894748882L239.15272727272728,135.96288844517L239.15272727272728,131.8099773951911L239.15272727272728,140.52502795627817L239.15272727272728,139.8278239113912L239.15272727272728,141.65419537680162L239.15272727272728,126.23234503609541L243.7381818181818,131.9691217967414L243.7381818181818,137.50128432682274L243.7381818181818,140.57049778529253L243.7381818181818,142.7606278828179L243.7381818181818,146.6861897877249L243.7381818181818,145.54186575753002L243.7381818181818,134.2274566377883L243.7381818181818,143.40478379385476L243.7381818181818,142.58632687159616L243.7381818181818,117.50213786533689L243.7381818181818,118.95717239379665L243.7381818181818,110.43915775843853L243.7381818181818,127.46003041948333L243.7381818181818,173.0814255305651L243.7381818181818,142.02553231375228L243.7381818181818,147.17877960204723L243.7381818181818,138.34247616358854L243.7381818181818,138.45615073612447L243.7381818181818,141.82849638802335L243.7381818181818,130.74901471818922L243.7381818181818,124.6787925447712L248.32363636363635,141.28285843985094L248.32363636363635,136.71314062390707L248.32363636363635,135.52334676469778L248.32363636363635,148.00481482914157L248.32363636363635,136.91017654963596L248.32363636363635,136.94806807381462L248.32363636363635,140.7220638820071L248.32363636363635,142.75304957798215L248.32363636363635,142.73789296831072L248.32363636363635,137.66800703320877L248.32363636363635,145.30693830762246L248.32363636363635,144.56426443372112L248.32363636363635,143.5260366712264L248.32363636363635,140.54776287078536L248.32363636363635,160.5469093322712L248.32363636363635,143.4199404035262L248.32363636363635,142.79851940699655L248.32363636363635,141.26012352534377L248.32363636363635,143.38204887934756L248.32363636363635,138.23637989588835L248.32363636363635,142.19983332497404L248.32363636363635,143.0864949907542L248.32363636363635,143.4426753180334L248.32363636363635,135.35662405831175L248.32363636363635,139.47922188894773L248.32363636363635,140.1309561048203L248.32363636363635,141.38137640271543L248.32363636363635,142.50296551840313L248.32363636363635,140.2067391531776L248.32363636363635,142.18467671530257" style="fill: none;" fill="none"></path></g></g></g></g></g></g><g transform="translate(70, 178)" clip-path="url(#clip_1)"><clipPath id="clip_1"><rect width="260" height="22"></rect></clipPath><g><g><line x1="0" y1="0" x2="0" y2="5" style="visibility: inherit;" fill="rgb(0, 0, 0)" stroke="rgb(204, 204, 204)" stroke-width="1px"></line><line x1="23.636363636363637" y1="0" x2="23.636363636363637" y2="5" style="visibility: inherit;" fill="rgb(0, 0, 0)" stroke="rgb(204, 204, 204)" stroke-width="1px"></line><line x1="47.27272727272727" y1="0" x2="47.27272727272727" y2="5" style="visibility: inherit;" fill="rgb(0, 0, 0)" stroke="rgb(204, 204, 204)" stroke-width="1px"></line><line x1="70.9090909090909" y1="0" x2="70.9090909090909" y2="5" style="visibility: inherit;" fill="rgb(0, 0, 0)" stroke="rgb(204, 204, 204)" stroke-width="1px"></line><line x1="94.54545454545455" y1="0" x2="94.54545454545455" y2="5" style="visibility: inherit;" fill="rgb(0, 0, 0)" stroke="rgb(204, 204, 204)" stroke-width="1px"></line><line x1="118.18181818181817" y1="0" x2="118.18181818181817" y2="5" style="visibility: inherit;" fill="rgb(0, 0, 0)" stroke="rgb(204, 204, 204)" stroke-width="1px"></line><line x1="141.8181818181818" y1="0" x2="141.8181818181818" y2="5" style="visibility: inherit;" fill="rgb(0, 0, 0)" stroke="rgb(204, 204, 204)" stroke-width="1px"></line><line x1="165.45454545454544" y1="0" x2="165.45454545454544" y2="5" style="visibility: inherit;" fill="rgb(0, 0, 0)" stroke="rgb(204, 204, 204)" stroke-width="1px"></line><line x1="189.0909090909091" y1="0" x2="189.0909090909091" y2="5" style="visibility: inherit;" fill="rgb(0, 0, 0)" stroke="rgb(204, 204, 204)" stroke-width="1px"></line><line x1="212.72727272727275" y1="0" x2="212.72727272727275" y2="5" style="visibility: inherit;" fill="rgb(0, 0, 0)" stroke="rgb(204, 204, 204)" stroke-width="1px"></line><line x1="236.36363636363635" y1="0" x2="236.36363636363635" y2="5" style="visibility: inherit;" fill="rgb(0, 0, 0)" stroke="rgb(204, 204, 204)" stroke-width="1px"></line><line x1="260" y1="0" x2="260" y2="5" style="visibility: inherit;" fill="rgb(0, 0, 0)" stroke="rgb(204, 204, 204)" stroke-width="1px"></line></g><g transform="translate(0, 8)"><text x="0" y="0" dx="0em" dy="0.95em" style="text-anchor: middle; visibility: hidden; font-family: &quot;Helvetica Neue&quot;, sans-serif; font-size: 12px; font-weight: 200;" fill="rgb(50, 49, 63)" stroke="none" stroke-width="1px">-500</text><text x="23.636363636363637" y="0" dx="0em" dy="0.95em" style="text-anchor: middle; visibility: inherit; font-family: &quot;Helvetica Neue&quot;, sans-serif; font-size: 12px; font-weight: 200;" fill="rgb(50, 49, 63)" stroke="none" stroke-width="1px">0</text><text x="47.27272727272727" y="0" dx="0em" dy="0.95em" style="text-anchor: middle; visibility: hidden; font-family: &quot;Helvetica Neue&quot;, sans-serif; font-size: 12px; font-weight: 200;" fill="rgb(50, 49, 63)" stroke="none" stroke-width="1px">500</text><text x="70.9090909090909" y="0" dx="0em" dy="0.95em" style="text-anchor: middle; visibility: inherit; font-family: &quot;Helvetica Neue&quot;, sans-serif; font-size: 12px; font-weight: 200;" fill="rgb(50, 49, 63)" stroke="none" stroke-width="1px">1k</text><text x="94.54545454545455" y="0" dx="0em" dy="0.95em" style="text-anchor: middle; visibility: hidden; font-family: &quot;Helvetica Neue&quot;, sans-serif; font-size: 12px; font-weight: 200;" fill="rgb(50, 49, 63)" stroke="none" stroke-width="1px">1.5k</text><text x="118.18181818181817" y="0" dx="0em" dy="0.95em" style="text-anchor: middle; visibility: inherit; font-family: &quot;Helvetica Neue&quot;, sans-serif; font-size: 12px; font-weight: 200;" fill="rgb(50, 49, 63)" stroke="none" stroke-width="1px">2k</text><text x="141.8181818181818" y="0" dx="0em" dy="0.95em" style="text-anchor: middle; visibility: hidden; font-family: &quot;Helvetica Neue&quot;, sans-serif; font-size: 12px; font-weight: 200;" fill="rgb(50, 49, 63)" stroke="none" stroke-width="1px">2.5k</text><text x="165.45454545454544" y="0" dx="0em" dy="0.95em" style="text-anchor: middle; visibility: inherit; font-family: &quot;Helvetica Neue&quot;, sans-serif; font-size: 12px; font-weight: 200;" fill="rgb(50, 49, 63)" stroke="none" stroke-width="1px">3k</text><text x="189.0909090909091" y="0" dx="0em" dy="0.95em" style="text-anchor: middle; visibility: hidden; font-family: &quot;Helvetica Neue&quot;, sans-serif; font-size: 12px; font-weight: 200;" fill="rgb(50, 49, 63)" stroke="none" stroke-width="1px">3.5k</text><text x="212.72727272727275" y="0" dx="0em" dy="0.95em" style="text-anchor: middle; visibility: inherit; font-family: &quot;Helvetica Neue&quot;, sans-serif; font-size: 12px; font-weight: 200;" fill="rgb(50, 49, 63)" stroke="none" stroke-width="1px">4k</text><text x="236.36363636363635" y="0" dx="0em" dy="0.95em" style="text-anchor: middle; visibility: hidden; font-family: &quot;Helvetica Neue&quot;, sans-serif; font-size: 12px; font-weight: 200;" fill="rgb(50, 49, 63)" stroke="none" stroke-width="1px">4.5k</text><text x="260" y="0" dx="0em" dy="0.95em" style="text-anchor: middle; visibility: hidden; font-family: &quot;Helvetica Neue&quot;, sans-serif; font-size: 12px; font-weight: 200;" fill="rgb(50, 49, 63)" stroke="none" stroke-width="1px">5k</text></g><line x1="0" y1="0" x2="260" y2="0" fill="rgb(0, 0, 0)" stroke="rgb(204, 204, 204)" stroke-width="1px"></line></g></g></g></g></svg>