<svg viewBox="0 0 330 200" xmlns="http://www.w3.org/2000/svg"><g><g><g><g><g><line x1="82" y1="172.39692190155085" x2="77" y2="172.39692190155085" style="visibility: inherit;" fill="rgb(0, 0, 0)" stroke="rgb(204, 204, 204)" stroke-width="1px"></line><line x1="82" y1="159.59071844936375" x2="77" y2="159.59071844936375" style="visibility: inherit;" fill="rgb(0, 0, 0)" stroke="rgb(204, 204, 204)" stroke-width="1px"></line><line x1="82" y1="146.78451499717664" x2="77" y2="146.78451499717664" style="visibility: inherit;" fill="rgb(0, 0, 0)" stroke="rgb(204, 204, 204)" stroke-width="1px"></line><line x1="82" y1="133.97831154498954" x2="77" y2="133.97831154498954" style="visibility: inherit;" fill="rgb(0, 0, 0)" stroke="rgb(204, 204, 204)" stroke-width="1px"></line><line x1="82" y1="121.17210809280243" x2="77" y2="121.17210809280243" style="visibility: inherit;" fill="rgb(0, 0, 0)" stroke="rgb(204, 204, 204)" stroke-width="1px"></line><line x1="82" y1="108.36590464061533" x2="77" y2="108.36590464061533" style="visibility: inherit;" fill="rgb(0, 0, 0)" stroke="rgb(204, 204, 204)" stroke-width="1px"></line><line x1="82" y1="95.55970118842822" x2="77" y2="95.55970118842822" style="visibility: inherit;" fill="rgb(0, 0, 0)" stroke="rgb(204, 204, 204)" stroke-width="1px"></line><line x1="82" y1="82.7534977362411" x2="77" y2="82.7534977362411" style="visibility: inherit;" fill="rgb(0, 0, 0)" stroke="rgb(204, 204, 204)" stroke-width="1px"></line><line x1="82" y1="69.947294284054" x2="77" y2="69.947294284054" style="visibility: inherit;" fill="rgb(0, 0, 0)" stroke="rgb(204, 204, 204)" stroke-width="1px"></line><line x1="82" y1="57.14109083186692" x2="77" y2="57.14109083186692" style="visibility: inherit;" fill="rgb(0, 0, 0)" stroke="rgb(204, 204, 204)" stroke-width="1px"></line><line x1="82" y1="44.33488737967983" x2="77" y2="44.33488737967983" style="visibility: inherit;" fill="rgb(0, 0, 0)" stroke="rgb(204, 204, 204)" stroke-width="1px"></line><line x1="82" y1="31.528683927492693" x2="77" y2="31.528683927492693" style="visibility: inherit;" fill="rgb(0, 0, 0)" stroke="rgb(204, 204, 204)" stroke-width="1px"></line><line x1="82" y1="18.722480475305616" x2="77" y2="18.722480475305616" style="visibility: inherit;" fill="rgb(0, 0, 0)" stroke="rgb(204, 204, 204)" stroke-width="1px"></line><line x1="82" y1="5.916277023118482" x2="77" y2="5.916277023118482" style="visibility: inherit;" fill="rgb(0, 0, 0)" stroke="rgb(204, 204, 204)" stroke-width="1px"></line></g><g transform="translate(72, 0)"><text x="0" y="172.39692190155085" dx="0em" dy="0.3em" style="text-anchor: end; visibility: inherit; font-family: &quot;Helvetica Neue&quot;, sans-serif; font-size: 12px; font-weight: 200;" fill="rgb(50, 49, 63)" stroke="none" stroke-width="1px">-5e-4</text><text x="0" y="159.59071844936375" dx="0em" dy="0.3em" style="text-anchor: end; visibility: hidden; font-family: &quot;Helvetica Neue&quot;, sans-serif; font-size: 12px; font-weight: 200;" fill="rgb(50, 49, 63)" stroke="none" stroke-width="1px">0</text><text x="0" y="146.78451499717664" dx="0em" dy="0.3em" style="text-anchor: end; visibility: inherit; font-family: &quot;Helvetica Neue&quot;, sans-serif; font-size: 12px; font-weight: 200;" fill="rgb(50, 49, 63)" stroke="none" stroke-width="1px">5e-4</text><text x="0" y="133.97831154498954" dx="0em" dy="0.3em" style="text-anchor: end; visibility: hidden; font-family: &quot;Helvetica Neue&quot;, sans-serif; font-size: 12px; font-weight: 200;" fill="rgb(50, 49, 63)" stroke="none" stroke-width="1px">1e-3</text><text x="0" y="121.17210809280243" dx="0em" dy="0.3em" style="text-anchor: end; visibility: inherit; font-family: &quot;Helvetica Neue&quot;, sans-serif; font-size: 12px; font-weight: 200;" fill="rgb(50, 49, 63)" stroke="none" stroke-width="1px">1.5e-3</text><text x="0" y="108.36590464061533" dx="0em" dy="0.3em" style="text-anchor: end; visibility: hidden; font-family: &quot;Helvetica Neue&quot;, sans-serif; font-size: 12px; font-weight: 200;" fill="rgb(50, 49, 63)" stroke="none" stroke-width="1px">2e-3</text><text x="0" y="95.55970118842822" dx="0em" dy="0.3em" style="text-anchor: end; visibility: inherit; font-family: &quot;Helvetica Neue&quot;, sans-serif; font-size: 12px; font-weight: 200;" fill="rgb(50, 49, 63)" stroke="none" stroke-width="1px">2.5e-3</text><text x="0" y="82.7534977362411" dx="0em" dy="0.3em" style="text-anchor: end; visibility: hidden; font-family: &quot;Helvetica Neue&quot;, sans-serif; font-size: 12px; font-weight: 200;" fill="rgb(50, 49, 63)" stroke="none" stroke-width="1px">3e-3</text><text x="0" y="69.947294284054" dx="0em" dy="0.3em" style="text-anchor: end; visibility: inherit; font-family: &quot;Helvetica Neue&quot;, sans-serif; font-size: 12px; font-weight: 200;" fill="rgb(50, 49, 63)" stroke="none" stroke-width="1px">3.5e-3</text><text x="0" y="57.14109083186692" dx="0em" dy="0.3em" style="text-anchor: end; visibility: hidden; font-family: &quot;Helvetica Neue&quot;, sans-serif; font-size: 12px; font-weight: 200;" fill="rgb(50, 49, 63)" stroke="none" stroke-width="1px">4e-3</text><text x="0" y="44.33488737967983" dx="0em" dy="0.3em" style="text-anchor: end; visibility: inherit; font-family: &quot;Helvetica Neue&quot;, sans-serif; font-size: 12px; font-weight: 200;" fill="rgb(50, 49, 63)" stroke="none" stroke-width="1px">4.5e-3</text><text x="0" y="31.528683927492693" dx="0em" dy="0.3em" style="text-anchor: end; visibility: hidden; font-family: &quot;Helvetica Neue&quot;, sans-serif; font-size: 12px; font-weight: 200;" fill="rgb(50, 49, 63)" stroke="none" stroke-width="1px">5e-3</text><text x="0" y="18.722480475305616" dx="0em" dy="0.3em" style="text-anchor: end; visibility: inherit; font-family: &quot;Helvetica Neue&quot;, sans-serif; font-size: 12px; font-weight: 200;" fill="rgb(50, 49, 63)" stroke="none" stroke-width="1px">5.5e-3</text><text x="0" y="5.916277023118482" dx="0em" dy="0.3em" style="text-anchor: end; visibility: hidden; font-family: &quot;Helvetica Neue&quot;, sans-serif; font-size: 12px; font-weight: 200;" fill="rgb(50, 49, 63)" stroke="none" stroke-width="1px">6e-3</text></g><line x1="82" y1="0" x2="82" y2="178" fill="rgb(0, 0, 0)" stroke="rgb(204, 204, 204)" stroke-width="1px"></line></g></g><g transform="translate(82, 0)" clip-path="url(#clip_0)"><clipPath id="clip_0"><rect width="248" height="178"></rect></clipPath><g><g><g><line x1="3.7499988680384275" y1="0" x2="3.7499988680384275" y2="178" fill="rgb(0, 0, 0)" stroke="rgb(60, 60, 60)" stroke-width="1px" opacity="0.25"></line><line x1="21.592349745242934" y1="0" x2="21.592349745242934" y2="178" fill="rgb(0, 0, 0)" stroke="rgb(60, 60, 60)" stroke-width="1px" opacity="0.25"></line><line x1="39.434700622447444" y1="0" x2="39.434700622447444" y2="178" fill="rgb(0, 0, 0)" stroke="rgb(60, 60, 60)" stroke-width="1px" opacity="0.25"></line><line x1="57.27705149965196" y1="0" x2="57.27705149965196" y2="178" fill="rgb(0, 0, 0)" stroke="rgb(60, 60, 60)" stroke-width="1px" opacity="0.25"></line><line x1="75.11940237685647" y1="0" x2="75.11940237685647" y2="178" fill="rgb(0, 0, 0)" stroke="rgb(60, 60, 60)" stroke-width="1px" opacity="0.25"></line><line x1="92.96175325406098" y1="0" x2="92.96175325406098" y2="178" fill="rgb(0, 0, 0)" stroke="rgb(60, 60, 60)" stroke-width="1px" opacity="0.25"></line><line x1="110.80410413126549" y1="0" x2="110.80410413126549" y2="178" fill="rgb(0, 0, 0)" stroke="rgb(60, 60, 60)" stroke-width="1px" opacity="0.25"></line><line x1="128.64645500846999" y1="0" x2="128.64645500846999" y2="178" fill="rgb(0, 0, 0)" stroke="rgb(60, 60, 60)" stroke-width="1px" opacity="0.25"></line><line x1="146.48880588567448" y1="0" x2="146.48880588567448" y2="178" fill="rgb(0, 0, 0)" stroke="rgb(60, 60, 60)" stroke-width="1px" opacity="0.25"></line><line x1="164.331156762879" y1="0" x2="164.331156762879" y2="178" fill="rgb(0, 0, 0)" stroke="rgb(60, 60, 60)" stroke-width="1px" opacity="0.25"></line><line x1="182.17350764008353" y1="0" x2="182.17350764008353" y2="178" fill="rgb(0, 0, 0)" stroke="rgb(60, 60, 60)" stroke-width="1px" opacity="0.25"></line><line x1="200.01585851728802" y1="0" x2="200.01585851728802" y2="178" fill="rgb(0, 0, 0)" stroke="rgb(60, 60, 60)" stroke-width="1px" opacity="0.25"></line><line x1="217.85820939449255" y1="0" x2="217.85820939449255" y2="178" fill="rgb(0, 0, 0)" stroke="rgb(60, 60, 60)" stroke-width="1px" opacity="0.25"></line><line x1="235.70056027169704" y1="0" x2="235.70056027169704" y2="178" fill="rgb(0, 0, 0)" stroke="rgb(60, 60, 60)" stroke-width="1px" opacity="0.25"></line></g><g><line x1="0" y1="172.39692190155085" x2="248" y2="172.39692190155085" fill="rgb(0, 0, 0)" stroke="rgb(60, 60, 60)" stroke-width="1px" opacity="0.25"></line><line x1="0" y1="159.59071844936375" x2="248" y2="159.59071844936375" fill="rgb(0, 0, 0)" stroke="rgb(60, 60, 60)" stroke-width="1px" opacity="0.25"></line><line x1="0" y1="146.78451499717664" x2="248" y2="146.78451499717664" fill="rgb(0, 0, 0)" stroke="rgb(60, 60, 60)" stroke-width="1px" opacity="0.25"></line><line x1="0" y1="133.97831154498954" x2="248" y2="133.97831154498954" fill="rgb(0, 0, 0)" stroke="rgb(60, 60, 60)" stroke-width="1px" opacity="0.25"></line><line x1="0" y1="121.17210809280243" x2="248" y2="121.17210809280243" fill="rgb(0, 0, 0)" stroke="rgb(60, 60, 60)" stroke-width="1px" opacity="0.25"></line><line x1="0" y1="108.36590464061533" x2="248" y2="108.36590464061533" fill="rgb(0, 0, 0)" stroke="rgb(60, 60, 60)" stroke-width="1px" opacity="0.25"></line><line x1="0" y1="95.55970118842822" x2="248" y2="95.55970118842822" fill="rgb(0, 0, 0)" stroke="rgb(60, 60, 60)" stroke-width="1px" opacity="0.25"></line><line x1="0" y1="82.7534977362411" x2="248" y2="82.7534977362411" fill="rgb(0, 0, 0)" stroke="rgb(60, 60, 60)" stroke-width="1px" opacity="0.25"></line><line x1="0" y1="69.947294284054" x2="248" y2="69.947294284054" fill="rgb(0, 0, 0)" stroke="rgb(60, 60, 60)" stroke-width="1px" opacity="0.25"></line><line x1="0" y1="57.14109083186692" x2="248" y2="57.14109083186692" fill="rgb(0, 0, 0)" stroke="rgb(60, 60, 60)" stroke-width="1px" opacity="0.25"></line><line x1="0" y1="44.33488737967983" x2="248" y2="44.33488737967983" fill="rgb(0, 0, 0)" stroke="rgb(60, 60, 60)" stroke-width="1px" opacity="0.25"></line><line x1="0" y1="31.528683927492693" x2="248" y2="31.528683927492693" fill="rgb(0, 0, 0)" stroke="rgb(60, 60, 60)" stroke-width="1px" opacity="0.25"></line><line x1="0" y1="18.722480475305616" x2="248" y2="18.722480475305616" fill="rgb(0, 0, 0)" stroke="rgb(60, 60, 60)" stroke-width="1px" opacity="0.25"></line><line x1="0" y1="5.916277023118482" x2="248" y2="5.916277023118482" fill="rgb(0, 0, 0)" stroke="rgb(60, 60, 60)" stroke-width="1px" opacity="0.25"></line></g></g></g><g><g><line x1="0" y1="159.59071844936375" x2="248" y2="159.59071844936375" fill="rgb(0, 0, 0)" stroke="rgb(153, 153, 153)" stroke-width="1.5px"></line></g></g><g><g><line x1="39.434700622447444" y1="0" x2="39.434700622447444" y2="178" fill="rgb(0, 0, 0)" stroke="rgb(153, 153, 153)" stroke-width="1.5px"></line></g></g><g><g><g><g><g><path stroke="rgb(255, 112, 67)" stroke-width="2px" d="M44.728427003542485,-67.89545421288341L45.073874741359475,15.638044070586687L45.23098655325042,7.64666790157861L45.335562554225135,27.381927744046806L45.63888251913762,-9.003489971907953L45.67308035831893,36.294126910506776L46.003659470404905,-68.20735402883494L46.16969245773445,-52.267021137248975L46.241557482100966,20.875052801696597L46.27476407956687,54.73093260546497L46.403625502568914,76.64937553847082L47.404779635123155,87.44433510401858L47.68430979886604,92.32645195879827L47.720490121478136,91.91906113126846L47.903869838827184,102.81204405164635L48.24733509321337,52.82516196290976L48.44310533200492,39.575505011532016L48.61359890705377,53.54169705456951L48.725609220894,59.54111357932423L49.141930741362096,87.77271109987159L49.34265718873065,103.31343023891608L49.519593834929594,114.90824027411378L49.62763918190822,110.06783541626628L49.75600498405256,126.12918544585136L49.89824817021249,114.9950498202771L49.972591298867506,96.32556888741374L51.38560636417057,117.42896748251154L51.5342926214806,104.73378650143998L51.57295104838121,96.9990615054381L51.74840083200705,116.22923352561489L51.917903165340505,129.34500354344493L51.99918498600332,130.37388194558446L52.28367135832319,137.87631528842357L52.31985168093531,144.73452243871066L52.568653351500764,142.29149400832523L52.7084184333722,141.03490835261704L53.01124277742697,86.41456310202292L53.28879045773905,50.213852461005274L53.81960039633588,77.64340568849306L53.964321686784324,104.4615877674615L54.17892551816847,107.6014887251787L54.31621249575141,111.98000608481061L54.376678240390824,58.21189653208238L55.56170771115182,85.66812831200184L56.563357464563765,112.68527707432767L56.596564062029685,117.9848236225136L56.658516669242196,65.75136346605873L56.86172122089924,99.42353331222132L57.173466740392634,118.85023310164502L57.24582738561685,51.189274636447294L57.28002522479816,79.13139736226516L57.38212312148438,103.77045712857225L57.601683161445536,92.28663295315206L57.90847247236191,114.3915481133271L58.01602219848285,130.30789478714104L58.05220252109494,140.21380025252867L58.383277254038624,137.80319737518107L59.67883017606676,145.28330381871214L59.751686442148674,91.65872592697849L60.2195525318176,91.67988688934652L60.394506694585736,104.32030585722559L60.458441785229056,73.52251263650416L60.561530923630684,86.20854228598698L60.79595958932285,107.69715725158169L61.0150240084263,126.4846240842933L61.07301164877721,139.05046909568276L61.154293469440034,145.73307393013565L61.341638153650685,125.16781295506412L61.520061662422734,64.99903352067216L61.86749188367052,68.88066308265286L62.05632343045426,72.8422828841673L62.2347469392263,101.64582876229612L62.36757332908994,103.0725540789129L62.57127350160468,120.93518401307878L62.644625388544306,132.63126444613607L63.4232457559912,141.31649733645204L63.478259671195914,144.82530249031234L63.53624731154684,148.05847720849613L63.57292325501663,151.28468880088093L63.74936428035789,130.2530047865745L63.788518328116204,89.98006509262612L64.10472443532889,114.6399957206595L64.30198153669355,131.56593802843443L64.36046479790214,141.84080305161754L64.51807223065079,117.10208783716499L64.70194756885753,130.6306964047431L64.76736952207395,141.65881224725675L65.16683993338026,107.08705288244714L65.41564160394572,102.82205166626996L65.45033506398472,120.85303355469793L65.51674825891654,130.98325792121912L65.58514393727916,72.8815695813621L65.61934177646046,106.48488898282525L65.69170242168468,125.59996596707089L66.07333048211378,134.18689643001684L66.1625422364998,142.49797110200961L66.29289052207493,148.04936781440585L66.38259789731865,151.21624657678052L66.47180965170467,153.35294691291324L66.59174989926811,93.16077161231965L67.42587980277742,110.85796409936948L67.55226312149095,129.24539389109287L67.7470421185671,136.51983820090896L67.78223119946381,143.16167411389378L68.1296614207116,146.9115863790834L68.27636519459082,151.65169704550644L68.39184485443496,154.54959025522442L68.68326991876263,152.91908610299475L68.82600872578028,155.2278873887164L68.9340540727589,154.17350964636412L68.97320812051721,155.27418654158464L69.00988406398702,152.13826889271596L69.25273828426009,148.50553342461168L69.47031584079042,152.46248550952822L69.54416334858776,153.58425687979476L69.57736994605366,153.6128034713889L69.7126744402058,150.9187301717106L69.86532566437744,145.96706266442646L69.96940604449446,99.77350951177162L70.00261264196038,119.60722259882638L70.03433237685317,128.80227546298562L70.16715876671681,124.82654460649769L70.4932772910835,134.9857202113995L70.63353799381262,104.9163038059281L70.66872707470932,126.55938894893194L70.69945556788674,98.89631671070758L70.76983372968016,111.59691656098433L70.80304032714608,119.13563578070548L71.75116302792642,133.9658920719975L71.89340621408634,138.8456197294446L71.92661281155226,146.35340780365885L71.99302600648407,151.20890616963243L72.0564654762697,141.86009549801253L72.16252833981751,135.41976096585174L72.19821304157192,142.22798321090892L72.23389774332632,127.93195436487275L72.27057368679614,138.90785430437168L72.37465406691318,146.8429129460169L72.505497973346,56.6843568814576L72.67747841096795,91.55432113556715L72.70870252500306,113.49880663824628L72.73794415560737,130.72682352549225L72.95948667899931,139.19135633294545L73.57157843825897,141.3426692187106L73.7143172452766,147.9494147232145L73.78915599478934,152.3663177064011L73.96906636613447,155.0144207935784L74.80864809907848,146.41593798687688L74.8725831897218,150.35877420092822L75.75726642071653,153.76621616579706L75.81128909420585,155.80165251119305L75.95402790122348,79.73267999212337L76.02589292559,111.05219691225516L76.28460701330945,130.11244147985664L76.4892984275396,129.73121620382955L76.61667298796854,139.84886363052638L76.85754472481081,127.75183243168183L76.91850609030791,138.3945039096406L77.12815371311507,69.56162213276676L77.19010632032759,102.11223900381873L77.27931807471361,114.86808128301539L77.31302029303721,122.99887077872428L77.38438969654604,136.91616609627556L77.6445906468386,144.189107219528L77.68374469459691,146.88629969128493L77.79030317900244,150.55018560470185L77.99251648894409,153.32156580069707L78.0881713144802,155.68626623885837L78.39892559225818,150.69646997248557L78.52382204839863,149.61505329482623L78.63285863709265,153.13516039191967L78.66953458056246,155.12290595544934L79.74205811662554,155.44090940004162L79.77229098894524,155.7844137100526L79.89669182422797,154.07364844497488L79.92692469654769,151.99168412086527L79.9581488105828,139.48876833387675L79.99779847919879,146.50964450806535L80.13706794021252,149.84394144928578L80.17225702110925,152.30049832120082L80.28178923066096,154.2214805828865L80.31796955327307,154.98552393602893L80.61286396360464,156.3002131470014L80.74866407861448,155.94572119603023L80.8225115864118,69.29436577191737L80.89239412734752,104.08756754948382L80.92907007081735,124.96411461902431L81.24378931545691,138.0350660595232L81.33894852013533,137.18386781473603L81.61897430473591,145.79199410340553L81.68092691194843,151.0909149680978L81.82019637296216,84.45862390649069L81.85935042072047,114.3929783097712L82.03579144606171,132.43030279566972L82.27418507861547,109.97210064046826L82.63747516730966,114.63648798296391L82.70686208738768,125.17888037375978L82.92146591877184,119.98675032944189L83.02009446945416,91.07265632107611L83.82300025892836,96.49466771792893L83.9454186107803,120.27035783038929L84.08220996750553,122.40769695546132L84.14564943729114,135.4831749136238L84.31069118290529,112.76218008956569L84.3389415717942,123.50938589174059L84.36818320239851,132.39587581859294L84.63730532812967,137.98666219354567L84.83951863807133,138.7125899078778L84.97284064879265,145.80101034639748L85.01149907569327,127.92681430705272L85.03925384372447,139.047282036845L85.33067890805214,145.29733073229568L85.50365058738947,143.66667482292186L85.97746412735081,149.7598134043211L86.04883353085962,153.44349481721025L86.7783874333942,148.08287180926325L86.81655023943712,145.06625900582384L86.95829780473936,110.05929465543807L86.99398250649375,129.73025093408418L87.03115407082127,141.4455188439366L88.36685228232312,142.38526974667207L88.54626703281055,148.95860191108898L88.79110373651442,153.09451909714602L88.82728405912654,155.66851724194123L89.01314188076408,157.1949873866682L89.0745988671189,156.7435671212924L89.25153551331783,157.21731653447898L89.31844432910735,56.04648668553715L89.38684000746997,97.18131619324132L89.5320569187761,46.16918575133474L90.09805593826965,90.6846308353881L90.16248664977068,-13.819090284035184L90.2224567735524,49.81013049008803L90.48166648212954,-213.03813248889242L92.85618601137084,-21.421976410634983L92.89187071312524,44.28990190066796L93.1124219948018,83.29602092326631L93.47620770435371,111.48523019400085L93.64769252111795,125.96905250173441L93.68585532716085,130.50714297254282L93.79935250357418,135.86209075348313L94.01990378525073,142.89240186631014L94.09573377647885,148.50779420928342L94.2067528486037,151.65019655565857L94.31578943729772,151.2137707698413L94.42234792170325,152.62692072553597L94.45951948603076,152.81583810759574L95.10531346361401,152.93671577938946L96.2070786302814,154.09074195314622L96.35328678330293,128.7085400197438L96.88211423846897,139.82984910685917L96.96686540513568,146.5882668945696L96.9975938983131,150.6850863092005L97.06648519753341,149.92993944150123L97.09572682813773,144.36694760123999L97.83568876868401,148.51524076193735L97.86889536614991,151.19464948446483L98.03988456205646,153.12620319125818L98.13653062930798,154.50005540954328L98.27827819461022,155.76308824899868L98.35014321897674,156.89484791558473L98.49436888856748,157.34482612453058L98.63710769558512,157.6290418714944L98.77935088174505,154.22327584803196L100.40944788272076,156.1227484244042L100.44513258447516,62.05387410541162L100.78810221800366,99.55831110001861L101.03938199285761,123.34031706072369L101.07457107375431,137.62023946632922L101.16923465757503,146.21702559189401L101.24010844022618,151.40673637798514L101.27728000455367,151.10237722719393L101.55681016829655,143.05755494694995L101.7838045211232,149.59028042724435L102.24671440221512,153.35225100258828L102.27645165367713,155.6521812910277L102.37954079207876,156.01600342498224L102.60455266147461,76.91593792478267L102.9931194139115,102.43697491674601L103.16014364295646,122.98865200408753L103.92984283496475,135.23851744412832L103.98336988759635,126.03316403772135L104.19797371898052,137.79295829590143L104.43190676381498,145.48917345430146L104.46907832814249,150.62578494217783L104.75505156303545,152.49002736215317L104.8769742940297,155.04397399019157L104.94090938467299,154.42461982469416L105.06828394510194,156.0808301830735L105.3671433222951,156.42141041278634L105.61495375114518,157.37527545415995L105.65212531547267,157.8872939833506L105.79932471020962,152.40180817556848L106.06795121508308,154.71514216613508L106.36928869656477,155.68984010583875L106.39654784373826,156.10720105436803L106.51946181644789,156.7603617749529L106.68400794120434,157.37129768589318L106.79254890904068,158.02404893777427L106.8545015162532,158.43319299911656L106.94817385835852,158.76901739745506L107.04779365075623,156.39828730550124L107.88787100455794,152.4221914381493L108.15649750943142,154.83140393812585L108.41818532229706,152.13527460257495L108.54456864101061,153.80135857974034L108.63923222483133,154.63083797413125L108.67739503087425,155.68939582429442L108.86820906108879,108.57992244072022L108.89596382912,128.55264390282733L109.14327863711236,139.90248407484893L109.2706531975413,147.12074951006187L109.3068335201534,151.80359755850756L109.34202260105012,154.59044013341259L109.41240076284352,155.0099180348515L109.51301179695665,155.7688168118261L109.74347549578721,156.29592473542553L109.78114268097241,157.3812485996862L110.0487779441305,158.18678650923823L110.0839670250272,158.66547175086993L110.39719940709367,156.4518295884427L110.5082184792185,150.4219088397853L110.56769298214252,140.49013097548084L110.60288206303922,147.2687607941638L110.66681715368256,151.4876591370692L110.85118811274698,153.50442874516716L110.88736843535911,155.32736120059934L110.96022470144102,155.27394039575913L111.72843703087622,151.9899643788465L111.7571830406228,153.14047893545313L111.91379923165607,151.93078626831382L112.42874930280648,151.04126052204646L112.75982403575017,154.33049875436384L112.9729410045612,156.34109247298008L113.231159471423,157.27429984593277L113.2628792063158,157.84375967144734L113.59296269754407,84.27056312916973L113.85316364783665,114.15833130704866L114.18721210592655,132.01905729062037L114.29823117805137,-21.803519017647716L114.55744088662854,49.81578405370868L114.62980153185275,93.70915702471525L114.78146151430899,119.92199828511724L115.14970781158017,134.8995850690825L115.18588813419228,144.3483007384003L115.99672385738968,150.2567261623264L116.14937508156132,153.91815881180815L116.28864454257507,156.1150770287132L116.73965952308218,156.7852230688409L116.80062088857929,157.15262723445784L116.8303581400413,157.5811485319922L117.02067654939816,158.08999815278355L117.05140504257558,158.26472129908296L117.08857660690308,158.42165405923495L117.16044163126958,158.09696508133104L117.21743802990511,158.54074520663073L117.60402229891122,158.5912186034553L118.18885491099734,158.2368062803297L118.38512077064658,154.20462297180617L118.62054067805414,153.13965847724785L118.81581529598799,155.65230130728187L118.94566796070542,157.13925771673246L119.01406363906804,158.02125507223928L119.08840676772306,158.52950437488806L120.01918273848389,156.27797193750013L120.12425436031633,157.16493746763678L120.19611938468286,157.64788636077037L120.2972260396537,158.13009206034593L120.3814815854627,158.42733449631788L120.48407510300665,158.6374658603191L120.8072199022271,157.4978795611375L120.86867688858194,157.88883088141307L121.26765167903052,157.35785967464403L121.30333638078493,157.9593690309344L121.33604735739314,158.50259630417014L121.77318495388464,158.93158311378627L121.8970901683097,159.15171913772033L122.0269428330271,159.19623351352124L122.14737870144826,159.0321732406698L122.17662033205256,159.0856222662863L122.2811963330273,158.978992360724L122.34959201138992,158.7367842890873L122.41402272289089,158.01153985989134L122.7084215123648,158.3175940608192L122.78821647045451,158.60647751019948L122.89080998799842,158.84280453605214L123.00480278526945,159.0507150506657L123.10690068195571,159.0842507170685L123.8954334665566,158.77336667564325L123.9801846332233,158.9186770460234L124.08872560105965,158.9408036627022L124.66810638371108,158.61708592262244L124.92483798799975,151.8362000819139L125.1136695347835,154.67544831189832L125.1493542365379,156.380573177781L125.18553455915003,157.32899587909878L125.25194775408184,157.84648151503444L125.29110180184016,157.8253003983687L125.36891427649907,158.24518669278152L125.44028368000788,158.4023807831871L125.59293490417953,158.76946465535164L125.73269998605093,158.78839184900153L125.9165753242577,158.11974338621502L125.9730761020355,158.6533138523889L126.18718431256197,158.75880720955735L126.24765005720137,157.85004927917376L126.27689168780567,157.47388882943434L126.42756042854654,157.90024199606756L126.55889995583705,158.51104056614423L126.71848987201652,158.91347517783754L126.78391182523289,121.35438172809509L126.82009214784502,135.79715987260133L127.16801798995053,144.72450585308977L127.92037045193932,145.34273839875098L128.03634573264114,150.4854216529032L128.13546990418115,153.88201154760168L128.2306291088596,156.02699237436474L128.2598707394639,157.34933730260693L128.36246425700784,158.24624118490854L128.39814895876225,158.77669376879228L128.46852712055565,158.1230272743035L128.6405075581776,157.93049289074614L128.67867036422052,158.33532038975454L128.92152458449357,158.71980005042113L128.95027059424018,159.0589067831475L129.0880531926808,159.27584562379332L129.16041383790503,159.266367021824L129.21840147825594,159.3073805566278L129.35519283498118,159.14626179429607L129.66941645876304,154.24198482537315L129.74177710398726,156.09722516859932L129.80769467806138,157.09409218703675L129.84734434667737,96.83132991812191L129.99256125798354,121.50221293983492L130.09614601724286,134.8601751948159L130.36923310983562,144.65064519620927L130.49809453283765,150.5861453409211L130.98479421509919,154.16399079309L131.1300111264053,156.31938464220895L131.92003077357933,142.4182773335212L132.06822141003164,148.20037787357177L132.10440173264377,150.87279548957326L132.166849960714,149.16406403390118L132.2382193642228,151.47874184693168L132.2739040659772,153.86076498495663L132.3457690903437,155.73934935966423L132.41119104356014,157.135994108529L132.44092829502216,157.97580618185623L132.6773394441451,158.59893720452334L132.77348989053894,158.97743924311894L132.9340710484338,159.1843884276572L133.31272538371667,157.14665033757208L133.4400999441456,158.0785314327935L133.54071097825874,158.67142946417906L133.8693076069139,158.96460596671457L134.05268732426296,159.2213637479852L134.08490268001347,159.35290149045704L134.1532983583761,159.4542056952781L134.2469707004814,159.43042830561075L134.34113866344444,159.32451951062762L134.37285839833723,156.06430068236648L134.40160440808384,157.0595675366702L134.73466162445834,155.76527303774682L134.77084194707047,157.0878566471435L134.80702226968256,157.85683174112842L134.87987853576445,158.42318282714453L136.02823206305567,158.85174228353486L136.06094303966387,159.02711516493827L136.1015839499953,159.23156720626707L136.1387555143228,159.36399458868803L136.40986012348478,159.39409115814544L136.72358812640894,156.77366938587343L137.30594263420656,157.6691804925663L137.76290506500612,158.287281609939L137.90366138859292,158.77311644257782L137.93438988177033,158.3616490271646L137.99089065954817,158.82362476309177L138.2585259227062,159.0828471452639L138.31601794219944,152.76765109095865L138.43992315662445,155.40204421696168L138.76306795584495,156.09050836660003L139.0014615883987,157.25432591189326L139.7691782969762,157.97286739015036L140.12552969366257,157.96025871935205L140.37829633108964,158.51898336554234L140.5904220581853,158.86771878420475L140.6246198973666,159.10097750557924L140.6855812628637,159.21174397879312L140.75100321608014,159.1838710881606L140.9180274451251,156.099260688694L141.56283018099296,157.27864382247537L141.7516617277767,158.00061006968807L141.78685080867342,158.6133309242886L142.10603064103228,155.47582143771763L142.17194821510643,154.91113361089864L142.27602859522344,156.15781227360816L142.30527022582774,156.4779685219996L142.33451185643204,141.82634561213007L142.65517855136403,148.25938050275448L142.68392456111064,151.4506983637955L142.77809252407368,154.4195015995454L143.7103553574076,156.48440865619222L143.86102409814842,157.72969172263743L143.92793291393795,157.1329333988861L143.99385048801207,158.091745163844L144.04936002407447,158.6430283868238L144.33384639639436,158.32651168853428L144.466672786258,156.98510612274154L144.59008237982533,156.75635713930834L144.66145178333414,157.64271311184754L144.7645409217358,157.9667814350047L145.02969808060533,158.51380618912418L145.05893971120966,112.12730616329866L145.19920041393877,130.09061137900017L145.40587431159975,140.50659392400394L145.45989698508905,147.39487281463298L145.84945497924133,151.79941602374103L145.88414843928035,141.99005887098468L145.91190320731158,148.1587435250964L145.94114483791586,150.56102678994995L146.0496858057522,152.55495553888898L146.17259977846183,154.63793310760525L146.34804956208765,156.17454087325424L146.38323864298437,157.38560486047473L146.49326647339382,158.1403148806937L146.74900683596707,158.4635068657323L147.6426112424004,158.79226204459013L147.75957776481764,158.8212277596419L147.87208369951554,158.7323753627924L147.90776840126995,155.670026983212L148.08867001433052,154.9122295285259L148.14368392953523,154.31336776065115L148.31863809230336,154.33872425132074L148.4227184724204,150.93048919321353L148.51986016052962,53.914665437180744L148.5550492414263,95.21624897600321L148.68886687300537,118.72717601911313L149.271221380803,135.06227251751778L149.39264849093954,138.62714457658177L149.45311423557894,141.492459092811L149.60526983889287,147.4143394461217L149.75593857963372,152.10439573941184L150.16234768294782,150.77127767351482L150.29715655624227,154.2226781236286L150.40123693635928,156.36758734093428L151.63533287203262,157.4632239252571L151.9792937472765,154.1699599203369L152.0159696907463,155.23019955725272L152.11360699971323,25.119468148216242L152.3341582813898,69.07302669892651L152.56858694708194,93.94871977009709L152.59832419854393,119.01099303290424L152.62508772485978,132.96103264014258L152.65383373460634,35.791607583531714L152.6820841234953,63.90561915680054L152.7098388915265,98.88410685158004L152.96904860010366,-159.0691561453953L153.72933099581562,-52.66830407360524L153.76154635156612,9.957608090122648L153.79921353675132,69.1918222193666L154.0430589987398,104.59332283249122L154.4256783008843,106.33874190277781L154.49209149581614,127.50956728595642L155.70041514688901,138.96201285789462L155.7370910903588,145.53867870559316L155.84414519562208,148.75232864908656L155.9006459733999,152.64186257061755L155.9363306751543,145.31383375312882L156.0086913203785,150.67707452924634L156.69066562057387,154.08655042908416L156.8631416790535,156.20388314171583L156.96474395488204,156.0196494903699L157.06039878041818,157.12677413878095L157.37263992076927,157.44874857882496L157.40882024338134,92.83545623339494L157.6179722453308,114.50570636296229L157.6868635445511,131.10041475916918L157.72254824630554,142.11619081105238L157.9203009685279,148.98681321145216L158.0199207609256,153.10308757631557L158.0476755289568,155.65346207815062L158.22362093344037,157.20096821804904L158.2865647823683,119.74444400266002L158.3599166693079,128.46623196886296L158.46647515371342,139.45744672568267L159.50380960887978,143.70262515889257L159.66786011277853,149.96426295070071L159.73476892856806,153.0326125828986L159.76351493831467,153.78883280958456L159.79325218977664,153.84492616987438L160.14365613617065,155.02881275657293L160.48613014884145,156.84451147877294L160.7666515542997,157.1022310900628L161.35297102895896,156.88824049050095L161.58640845293573,157.53594319029384L161.62258877554783,158.3082525633761L161.72270418880325,158.79880783930744L162.05923075118164,159.07490359862345L162.24360171024608,159.06244260833762L162.3798974461136,157.95613783363277L162.54543481258546,154.53716623207603L162.61531735352116,156.4273671194833L163.41524941784917,157.65862106872316L163.47026333305388,158.40594797842203L163.5252772482586,158.8716793263948L163.67098978042245,159.09449688170574L163.70667448217685,159.2678186977723L163.81224172486696,159.35815081447583L164.02040248510102,152.66588140181486L164.08334633402893,155.3534648198205L164.17156684669956,157.0330820471759L164.43226341784984,158.0361759138684L164.50264157964324,158.6271250535887L164.53981314397078,158.96729332134055L164.57599346658287,159.1829785055342L164.84164624631012,159.29263922790378L165.35213572974126,159.19710706895475L165.42400075410777,158.74511209488384L165.4948745367589,158.3119972129863L165.56673956112544,157.8641539246312L165.63910020634964,151.70490015291378L165.94688075898142,154.82847382784152L166.06087355625243,156.59243996493564L166.50990605332876,157.24683922738535L166.65760106892338,154.07265173904693L167.78117355332958,156.19759366263156L168.08052855138047,156.8605116559661L168.57367130479207,157.91245710225684L168.60687790225796,158.55318949536274L168.81305617906125,158.9449234143257L168.84675839738486,159.1380766348321L168.91218035060126,159.32132351420603L169.01229576385668,159.43740393523882L169.1694075757476,53.64411561693032L169.27646168101086,96.0180010066036L169.31462448705378,121.42124077973638L169.38648951142028,136.66218548146045L169.88310161083584,108.48547070103528L170.12942517711275,124.96678575309312L170.266216533838,131.938602959192L170.51154885839955,134.57602970640616L170.54475545586547,144.50886166512322L171.57366435645093,148.48885586022777L171.68864839543735,143.74217631602195L172.7116098457304,138.6454894804126L172.81469898413206,147.00443638764602L173.0446670621049,151.97232363023744L173.13487005820633,154.9639801865856L173.16609417224143,156.60355737740446L173.22755115859627,157.6230986262118L173.25778403091599,155.16695158152106L173.46644041200773,156.76034150091473L173.52442805235862,157.34231048284698L173.8421210221444,120.4681272416681L173.97792113715425,136.10771797537967L174.2192884948542,145.43020681007835L174.2743024100589,150.74490544805255L174.32782946269054,149.92164456488473L174.44231788081925,149.5563891234242L174.53053839348988,153.0896647062371L175.66848388276938,155.61989359509573L175.69772551337365,157.12429314236073L175.72795838569337,158.07942258964576L175.90043444417304,158.64915893997963L176.15022735645388,158.88204710082184L176.31675596464115,159.1206297230758L176.34302387009922,159.27993302087899L176.37127425898817,156.46787568472303L176.48576267711687,157.70151214065606L176.62602337984603,156.2038101712226L176.81336806405668,157.5053386332548L177.04135365859872,158.23319718083164L177.15385959329663,158.65993312234497L177.26240056113298,158.9977692531749L177.31691885548,159.1732789659346L177.47948249680562,159.28638619199322L177.56076431746843,159.28755354835494L177.61478699095775,159.364711855775L177.66880966444708,159.41174985073957L177.7272929256557,159.46473474620035L177.816009059184,159.49332515065765L177.96667779992487,159.5152979154834L179.13089119466247,159.5270904289053L179.2751168642532,159.53532203080965L179.41835129212853,159.52162156485687L179.91397214982865,159.37525720145265L180.02152187594956,159.11150740230556L180.10181245489701,159.13717095032777L180.23711694904912,159.2687951867922L180.39868934865936,143.24777121387888L180.42545287497518,147.66478841614907L180.5334982219538,152.26276014975124L180.58702527458541,154.94267195522875L180.74859767419565,156.00988882042762L180.77734368394226,157.1382664729854L180.95031536327963,158.05984278967253L181.15203305236355,158.50434944657596L181.3255003525586,90.89608784021232L181.41173838179841,118.35784295886506L181.59164875314357,134.75962147420998L182.72662051727687,135.0428163200352L182.78708626191627,143.374238328317L182.99673388472343,149.57458178330606L183.08792812254026,152.0548551481396L183.18011360207248,154.93645358980936L183.2381012424234,156.468225725567L183.38430939544492,157.37375573603242L183.83928934281363,158.24452478398382L183.89331201630296,69.38209057981936L183.9210667843342,105.44001659365597L184.02812088959737,127.00266885833405L184.05438879505547,139.3229712781927L184.16887721318423,146.48811043154421L184.22686485353512,150.6030059954434L184.4013233954456,153.54991444026075L184.43106064690758,44.79843643525248L184.63525644028005,90.16329267702115L184.96484431065062,117.49597855399135L185.10807873852593,133.5664350114934L185.1933255260504,143.47337800506637L186.23809429408223,149.7531214758124L186.26634468297115,153.56118275358256L186.4343601537315,155.003376452113L186.4631061634781,155.82548482301928L186.86852402507682,157.30413056149735L186.98400368492094,158.1904834239882L187.04149570441416,158.73605891004908L187.09898772390736,159.06788347775904L187.18522575314717,159.26440970316722L187.2734462658178,159.37375242170756L187.53364721611038,159.44891593245617L187.70711451630544,158.8507502138388L187.76708464008712,159.150572423428L188.0793257804382,159.32008161436124L188.1090630319002,159.41989804695086L188.28699091981457,159.46591696821207L188.49069109232934,159.50928459258867L189.95971131455246,159.45065707156942L190.041488756073,159.4615720331912L190.12177933502042,159.45191266279596L190.17629762936744,159.47956582168305L190.74626161572257,159.51356700567902L190.8270478155277,159.03907424968753L190.93608440422173,158.02188822128983L190.96284793053752,158.58859517225395L190.99357642371496,151.72979845439318L191.1680349656254,154.86229542998635L191.2508036488613,156.66091150884648L191.30532194320833,148.62097426918203L191.54668930090827,152.87730688722323L191.65324778531382,150.9033068779289L191.7340339851189,154.15694955448194L191.87032972098646,156.26705646981165L192.08889851923223,157.31769335309346L192.19843072878396,158.16796951948106L192.25245340227326,158.6856965647975L192.30697169662028,158.99060410606785L193.39337261669894,158.87570815467615L193.44838653190368,159.1518134708205L193.5361114237166,159.23157568415795L193.8880022326837,159.25360645629954L194.0000125465239,158.2311940639426L194.13531704067603,152.63142975109352L194.19231343931156,152.687741545163L194.46738301533512,155.451503658148L194.52041444710903,157.0955130006476L194.57939332917536,158.09561289931972L194.93624034671944,158.6829271156757L195.10276895490668,158.52273581464496L195.38626408551113,155.8318256635059L195.5299941342442,157.20989588086917L195.71932130188566,103.93308922189163L195.80159436426388,126.14072827036739L196.6054913954535,139.48568660675005L197.17198603580474,99.79160095511855L197.1992451829782,123.5471410202203L197.22749557186714,136.0399513344013L197.36527817030776,145.4567282252983L197.42425705237406,151.0989867668841L197.5952462482806,154.4969374240805L197.70378721611695,126.46957263622446L197.9193822892165,128.14030001972998L197.9456501946746,139.32183878569452L198.08739775997682,124.21782792623793L198.11663939058116,107.15570953587972L198.23063218785217,80.60175959216805L198.53296091104926,88.8921676918228L198.6965157940903,115.43826410426456L198.86304440227752,133.0269185444856L198.94383060208264,143.4939811428352L199.25805422586453,143.21407493352294L200.12985131455903,147.56608173873275L200.24731345783397,152.23354655048604L200.3062923399003,142.8322229321043L200.45349173463723,149.53461888736672L200.56748453190826,151.58403888390382L200.7151795475029,154.7383272163989L200.85246652508584,155.5177455778345L200.96745056407224,154.92618244757753L200.9971878155343,155.17712676912817L201.057157939316,156.52264896965835L201.32628006504717,157.43364476373495L201.3565129373669,157.79834856312328L201.67222342372185,158.41014838209642L201.73070668493048,158.85587354599656L201.75846145296168,159.1276879818319L201.96067476290332,159.22242095970068L202.01816678239652,159.3535868460859L202.04592155042772,159.11859717953337L202.07565880188974,159.2919206064297L202.10589167420946,159.39586875290098L202.2134414003304,159.45459395628106L202.26845531553508,159.4753884470266L203.63587326192973,159.1764912312704L203.72706749974657,159.16769533608652L204.08044517128675,159.0121175943835L204.13446784477608,158.99550926033052L204.276711030936,159.16278567355772L204.30397017810952,159.30060597314178L204.3579928515988,159.34392913409232L204.587465308714,158.8252417230392L204.73714280773942,159.0735466100885L204.94976415569278,159.2656725588644L205.73581883600517,159.38953102338527L205.92514600364663,159.4573332334874L206.2324309354207,159.5076612200495L207.10621050754602,159.54041399506352L207.35897714497307,159.56056252142534L207.38673191300427,159.56823544331996L207.66328835160095,152.84015244931112L207.69005187791677,154.33438138516203L207.71879788766338,151.22833271170043L207.7767855280143,153.8749198333909L207.8327906849344,156.00657914654315L207.886317737566,157.41852148342235L207.91407250559723,158.26904811559604L207.94380975705923,158.78542163878296L208.00477112255635,159.0973954250466L208.53805916544167,159.26223316051966L208.68922352704018,159.37002052251313L208.84038788863873,152.43679242163532L208.9315821264556,155.08137579121984L209.01881139741081,156.8912431570926L209.16353268785923,157.9798232501899L209.48717310793742,158.6328240112246L209.757286475384,158.56726282819403L209.8390639169045,154.9422988935033L209.86632306407802,156.80296703549195L210.87838085550166,157.8321561433994L211.04144011768503,158.54118714073724L211.45528353386462,158.96955468367884L211.48402954361123,110.92161944805426L211.65303625608698,129.86281344670996L211.7610816030656,141.00360522565578L211.8458327697323,147.7534117343004L212.01434386135037,149.78168886935669L212.06836653483967,153.65974980043353L212.31568134283202,155.16977384877794L212.42372668981065,156.90442525323195L212.5882728145671,157.96674009710105L212.73299410501556,158.04309937967966L212.89704460891426,156.3773143243638L213.00756806018143,157.65884580404332L213.14435941690667,158.2794104429626L214.08256970053299,158.10296071043206L214.19606687694633,158.67403176288335L214.44239044322325,158.23905980120458L214.52565474731688,158.7776339455205L214.85821634283369,159.10208768076942L215.04903037304823,159.30042375020923L215.13279029799955,159.3033301183856L215.19028231749274,159.27608333072567L215.21754146466628,159.27635248653627L215.3280649159334,158.98144479522443L215.3553240631069,153.59427172758987L215.3820875894227,155.84824288456366L215.71514480579722,157.3349856401112L215.87721282626512,158.23840889742243L215.90447197343866,156.44180561000874L215.96196399293183,157.70135496477604L216.09974659137248,158.4423736715658L216.1279969802614,158.884272829L216.21423500950124,159.14019480454857L216.38026799683078,159.30090564081004L216.49426079410176,159.41572618160967L216.69796096661656,159.45786504903433L217.85523566934634,158.91259278753216L218.02572924439517,159.11900802752822L218.13674831652,159.2790121083489L218.22100386232904,159.36631994363822L218.4400682814325,159.42500773209136L218.4980559217834,159.46588236675126L218.8633284939084,159.49154671638763L218.98178187889872,158.6154209501475L219.01102350950302,158.94521065306816L219.54381593153067,41.05161161217046L219.5705794578465,86.70070667778934L219.65483500365548,111.92309995426865L219.85308334673553,130.9683263178855L219.91156660794414,142.39599207316348L220.14748213620942,148.98706706440987L220.20546977656034,153.08647303542514L220.23372016544923,155.2905021612614L221.3518408204207,156.91603992606105L221.4053678730523,157.64162451889166L221.43312264108354,158.00168264815255L221.6556564061909,158.24485279533286L221.6834111742221,158.6475166522958L221.76518861574263,158.77032180299557L221.8202025309473,159.08694172487438L222.0650392346512,159.2851924419534L222.14632105531402,159.3738220454033L222.20133497051876,159.45829264235002L222.25634888572344,159.41857005681413L222.60774407383283,159.47850846808313L223.10138244810219,157.24961762321698L223.24759060112368,158.16377808348616L223.5414937697399,118.27599848910863L223.72289100365813,130.46827000679463L223.84134438864845,137.47480516799908L224.688360434458,146.32332803715983L224.8662883223723,151.55796362231283L224.9252672044386,154.50736253454843L225.03678189742115,153.25913366160353L225.22809154849335,122.6605556390466L225.25535069566692,125.72099107434695L225.28459232627122,139.0777219486882L225.5804779783182,147.16200166437798L226.0473528262717,151.69165176326788L226.18364856213924,152.7411860167193L226.32242240229527,128.0796224824828L226.46367434673982,140.5865697351082L226.4924203564864,148.1457720702459L226.54792989254884,152.71026905620425L226.63416792178865,155.4166901921787L226.91171560210074,156.98535094520116L227.02273467422555,158.00969969150268L227.0490025796837,158.60477589323094L227.2130530835824,158.96193058988848L227.32506339742264,159.19665768432122L227.35232254459615,159.3505561181332L228.33959929313474,159.1394883284547L228.40155190034727,124.89638338086506L228.4298022892362,138.28643255851256L228.4570614364097,134.74922465590504L228.5105884890413,144.64640942167898L228.59484403485035,150.53411332792504L228.62160756116617,153.95339608785986L228.64936232919737,154.4404092208985L228.67612585551316,147.61073630821463L228.7851624442072,151.19996279434366L228.83968073855416,153.95901182870563L228.92393628436326,156.1596549632551L228.95069981067905,157.4555515328047L228.97746333699482,158.2908419248588L229.00472248416835,158.8069344093752L229.05874515765768,159.11090626252349L229.14250508260895,159.26112444674018L229.17174671321325,159.11229705376002L229.33926656311593,151.14354848166866L229.512733863311,150.73811368463808L229.5682433993734,154.27189290246739L229.65002084089394,156.39288925974876L229.9865474032723,148.15443888465504L230.20561182237574,94.13064266071645L230.23237534869156,109.09934097083507L230.26062573758043,129.27266483902736L230.42665872490997,140.94191611418296L230.62094210112846,143.55443908414844L230.7626896664307,149.9480435003225L230.8766824637017,144.14068504948756" style="fill: none;" fill="none"></path></g></g></g></g><g opacity="0.2"><g><g><g><path stroke="rgb(255, 112, 67)" stroke-width="2px" d="M41.956419546425685,-224.08646396820689L42.224550430441454,31.044343244210808L42.46542216728371,57.13100789888793L43.61922752400961,-52.93047519754978L43.70001372381473,-372.403072427585L43.72677725013053,50.744697925813384L43.91957376377588,108.71424552051992L44.062312570793516,-33.895356417154545L44.728427003542485,-117.15042198288995L45.073874741359475,140.9355427904489L45.23098655325042,-4.340238576151421L45.335562554225135,56.98458372478173L45.63888251913762,-63.58135793386364L45.67308035831893,104.24035906048465L46.003659470404905,-224.95930804719922L46.16969245773445,-28.356546272035843L46.241557482100966,130.58809633592756L46.27476407956687,105.51473359948736L46.403625502568914,109.52703266958544L47.404779635123155,103.63677230450459L47.68430979886604,99.64962665814113L47.720490121478136,91.30797491915433L47.903869838827184,119.15151796406795L48.24733509321337,-22.155159881230304L48.44310533200492,19.701019789459366L48.61359890705377,74.49098498947782L48.725609220894,68.5402383330408L49.141930741362096,130.1201072863462L49.34265718873065,126.62450891632173L49.519593834929594,132.30045531296093L49.62763918190822,102.80722813298902L49.75600498405256,150.22121048327273L49.89824817021249,98.29384638480903L49.972591298867506,68.32134749102961L51.38560636417057,149.084065373184L51.5342926214806,85.69101503054524L51.57295104838121,85.3969740116958L51.74840083200705,145.07449155549148L51.917903165340505,149.018658570031L51.99918498600332,131.91719954878624L52.28367135832319,149.12996530264948L52.31985168093531,155.02183316412328L52.568653351500764,138.62695136275093L52.7084184333722,139.15002986905597L53.01124277742697,4.484045226162664L53.28879045773905,-4.087213500508881L53.81960039633588,118.78773552971911L53.964321686784324,144.68886088591086L54.17892551816847,112.3113401617543L54.31621249575141,118.54778212425826L54.376678240390824,-22.440267797008488L55.56170771115182,126.85247598188059L56.563357464563765,153.21100021781612L56.596564062029685,125.93414344479251L56.658516669242196,-12.598826768623383L56.86172122089924,149.9317880814651L57.173466740392634,147.99028278578052L57.24582738561685,-50.30216306134918L57.28002522479816,121.04458145099193L57.38212312148438,140.72904677803285L57.601683161445536,75.06089669002179L57.90847247236191,147.54892085358966L58.01602219848285,154.18241479786195L58.05220252109494,155.07265845061008L58.383277254038624,134.18729305915969L59.67883017606676,156.50346348400873L59.751686442148674,11.221859089378L60.2195525318176,91.71162833289856L60.394506694585736,123.28093430904423L60.458441785229056,27.325822805422035L60.561530923630684,105.23758676021122L60.79595958932285,139.93007969997376L61.0150240084263,154.66582433336077L61.07301164877721,157.89923661276694L61.154293469440034,155.75698118181495L61.341638153650685,94.31992149245687L61.520061662422734,-25.254135630915727L61.86749188367052,74.70310742562397L62.05632343045426,78.78471258643893L62.2347469392263,144.85114757948935L62.36757332908994,105.21264205383807L62.57127350160468,147.7291289143276L62.644625388544306,150.17538509572205L63.4232457559912,154.34434667192596L63.478259671195914,150.08851022110278L63.53624731154684,152.90823928577183L63.57292325501663,156.12400618945816L63.74936428035789,98.70547876511488L63.788518328116204,29.57065555170351L64.10472443532889,151.62989166270955L64.30198153669355,156.9548514900968L64.36046479790214,157.25310058639224L64.51807223065079,79.99401501548614L64.70194756885753,150.92360925611024L64.76736952207395,158.20098601102723L65.16683993338026,55.229413835232734L65.41564160394572,96.42454984200417L65.45033506398472,147.89950638733993L65.51674825891654,146.17859447100088L65.58514393727916,-14.270962928423415L65.61934177646046,156.88986808501994L65.69170242168468,154.27258144343938L66.07333048211378,147.06729212443577L66.1625422364998,154.96458310999876L66.29289052207493,156.37646288300024L66.38259789731865,155.96656472034252L66.47180965170467,156.5579974171123L66.59174989926811,2.8725086614292934L67.42587980277742,137.4037528299442L67.55226312149095,156.826538578678L67.7470421185671,147.43150466563307L67.78223119946381,153.12442798337102L68.1296614207116,152.53645477686777L68.27636519459082,158.76186304514104L68.39184485443496,158.8964300698014L68.68326991876263,150.47332987465026L68.82600872578028,158.6910893172989L68.9340540727589,152.5919430328357L68.97320812051721,156.9252018844154L69.00988406398702,147.43439241941294L69.25273828426009,143.05643022245528L69.47031584079042,158.397913636903L69.54416334858776,155.2669139351946L69.57736994605366,153.65562335878008L69.7126744402058,146.87762022219312L69.86532566437744,138.53956140350033L69.96940604449446,30.483179782789335L70.00261264196038,149.35779222940852L70.03433237685317,142.59485475922446L70.16715876671681,118.86294832176583L70.4932772910835,150.22448361875217L70.63353799381262,59.81217919772101L70.66872707470932,159.02401666343772L70.69945556788674,57.401708353371006L70.76983372968016,130.64781633639944L70.80304032714608,130.44371461028723L71.75116302792642,156.2112765089355L71.89340621408634,146.16521121561527L71.92661281155226,157.61508991498025L71.99302600648407,158.49215371859282L72.0564654762697,127.83687949058265L72.16252833981751,125.75925916761054L72.19821304157192,152.44031657849465L72.23389774332632,106.48791109581853L72.27057368679614,155.3717042136201L72.37465406691318,158.74550090848473L72.505497973346,-78.55347721538135L72.67747841096795,143.8592675167315L72.70870252500306,146.415534892265L72.73794415560737,156.56884885636123L72.95948667899931,151.88815554412517L73.57157843825897,144.56963854735835L73.7143172452766,157.8595329799703L73.78915599478934,158.99167218118103L73.96906636613447,158.98657542434438L74.80864809907848,133.51821377682458L74.8725831897218,156.2730285220052L75.75726642071653,158.87737911310035L75.81128909420585,158.854807029287L75.95402790122348,-34.37077878648108L76.02589292559,158.0314722924528L76.28460701330945,158.70280833125886L76.4892984275396,129.1593782897889L76.61667298796854,155.02533477057165L76.85754472481081,109.60628563341503L76.91850609030791,154.3585111265788L77.12815371311507,-33.68770053254403L77.19010632032759,150.9381643103967L77.27931807471361,134.00184470181037L77.31302029303721,135.19505502228765L77.38438969654604,157.79210907260247L77.6445906468386,155.09851890440672L77.68374469459691,150.93208839892029L77.79030317900244,156.04601447482722L77.99251648894409,157.4786360946899L78.0881713144802,159.23331689610032L78.39892559225818,143.21177557292634L78.52382204839863,147.99292827833725L78.63285863709265,158.4153210375598L78.66953458056246,158.10452430074383L79.74205811662554,155.91791456693L79.77229098894524,156.29967017506908L79.89669182422797,151.50750054735832L79.92692469654769,148.8687376347009L79.9581488105828,120.7343946533939L79.99779847919879,157.04095876934826L80.13706794021252,154.84538686111642L80.17225702110925,155.98533362907338L80.28178923066096,157.10295397541503L80.31796955327307,156.13158896574254L80.61286396360464,158.2722469634601L80.74866407861448,155.41398326957352L80.8225115864118,-60.68266736425193L80.89239412734752,156.2773702158335L80.92907007081735,156.278935223335L81.24378931545691,157.6414932202715L81.33894852013533,135.90707044755527L81.61897430473591,158.70418353640977L81.68092691194843,159.03929626513616L81.82019637296216,-15.489812685919958L81.85935042072047,159.29450991469196L82.03579144606171,159.48628952451747L82.27418507861547,76.28479740766608L82.63747516730966,121.63306899670741L82.70686208738768,140.99246895995356L82.92146591877184,112.19855526296507L83.02009446945416,47.70151530852743L83.82300025892836,104.62768481320816L83.9454186107803,155.93389299907983L84.08220996750553,125.61370564306935L84.14564943729114,155.0963918508675L84.31069118290529,78.68068785347857L84.3389415717942,139.63019459500293L84.36818320239851,145.72561070887147L84.63730532812967,146.37284175597478L84.83951863807133,139.801481479376L84.97284064879265,156.433641004177L85.01149907569327,101.11552024803555L85.03925384372447,155.7279836315334L85.33067890805214,154.67240377547176L85.50365058738947,141.2206909588611L85.97746412735081,158.89952127642L86.04883353085962,158.969016936544L86.7783874333942,140.0419372973427L86.81655023943712,140.5413398006647L86.95829780473936,57.54884812985945L86.99398250649375,159.23668535205334L87.03115407082127,159.01842070871527L88.36685228232312,143.79489610077525L88.54626703281055,158.8186001577143L88.79110373651442,159.2983948762316L88.82728405912654,159.52951445913402L89.01314188076408,159.48469260375867L89.0745988671189,156.06643672322863L89.25153551331783,157.92794065425892L89.31844432910735,-95.70975808787557L89.38684000746997,158.88356045479756L89.5320569187761,-30.349009911525116L90.09805593826965,157.45779846146817L90.16248664977068,-170.57467196316998L90.2224567735524,145.2539616512728L90.48166648212954,-607.3105269573631L92.43738638661424,-312.86543129609834L92.6440602842752,119.6580958721099L92.78432098700434,142.89227849016814L92.82000568875873,21.738602159146893L92.85618601137084,-3.929792903129396L92.89187071312524,142.85771936762237L93.1124219948018,141.80519945716384L93.47620770435371,153.7690441001027L93.64769252111795,147.69478596333477L93.68585532716085,137.31427867875541L93.79935250357418,143.89451242489355L94.01990378525073,153.43786853555065L94.09573377647885,156.93088272374334L94.2067528486037,156.36380007522132L94.31578943729772,150.55913209111534L94.42234792170325,154.746645659078L94.45951948603076,153.0992141806854L95.10531346361401,153.11803228708004L96.2070786302814,155.82178121378135L96.35328678330293,90.63523711964018L96.88211423846897,156.5118127375322L96.96686540513568,156.72589357613526L96.9975938983131,156.8303154311468L97.06648519753341,148.79721913995235L97.09572682813773,136.0224598408481L97.83568876868401,154.7376805029834L97.86889536614991,155.21376256825604L98.03988456205646,156.0235337514482L98.13653062930798,156.56083373697092L98.27827819461022,157.65763750818178L98.35014321897674,158.59248741546378L98.49436888856748,158.0197934379494L98.63710769558512,158.0553654919401L98.77935088174505,149.11462681283834L100.40944788272076,158.9719572889625L100.44513258447516,-79.04943737307724L100.78810221800366,155.8149665919291L101.03938199285761,159.01332600178128L101.07457107375431,159.04012307473752L101.16923465757503,159.1122047802412L101.24010844022618,159.19130255712187L101.27728000455367,150.64583850100712L101.55681016829655,130.99032152658395L101.7838045211232,159.389368647686L102.24671440221512,158.9952068656041L102.27645165367713,159.1020767236868L102.37954079207876,156.5617366259141L102.60455266147461,-41.73416032551668L102.9931194139115,140.718530404691L103.16014364295646,153.81616763509982L103.92984283496475,153.61331560418944L103.98336988759635,112.22513392811092L104.19797371898052,155.4326496831715L104.43190676381498,157.03349619190152L104.46907832814249,158.3307021739924L104.75505156303545,155.28639099211617L104.8769742940297,158.87489393224917L104.94090938467299,153.49558857644809L105.06828394510194,158.56514572064242L105.3671433222951,156.93228075735567L105.61495375114518,158.80607301622032L105.65212531547267,158.65532177713658L105.79932471020962,144.1735794638953L106.06795121508308,158.185143151985L106.36928869656477,157.15188701539427L106.39654784373826,156.73324247716192L106.51946181644789,157.74010285583026L106.68400794120434,158.2877015523036L106.79254890904068,159.0031758155959L106.8545015162532,159.04690909112998L106.94817385835852,159.27275399496278L107.04779365075623,152.84219216757057L107.88787100455794,146.45804763712135L108.15649750943142,158.44522268809067L108.41818532229706,148.0910805992486L108.54456864101061,156.30048454548842L108.63923222483133,155.8750570657176L108.67739503087425,157.27723259953913L108.86820906108879,37.915712365358985L108.89596382912,158.51172609598797L109.14327863711236,156.9272443328813L109.2706531975413,157.9481476628813L109.3068335201534,158.8278696311761L109.34202260105012,158.7707039957701L109.41240076284352,155.63913488700987L109.51301179695665,156.90716497728803L109.74347549578721,157.08658662082468L109.78114268097241,159.00923439607718L110.0487779441305,159.39509337356628L110.0839670250272,159.38349961331753L110.39719940709367,153.13136634480185L110.5082184792185,141.3770277167992L110.56769298214252,125.59246417902413L110.60288206303922,157.43670552218822L110.66681715368256,157.81600665142727L110.85118811274698,156.52958315731414L110.88736843535911,158.06175988374758L110.96022470144102,155.19380918849882L111.72843703087622,147.06400035347758L111.7571830406228,154.8662507703631L111.91379923165607,150.11624726760485L112.42874930280648,149.7069719026454L112.75982403575017,159.2643561028399L112.9729410045612,159.35698305090443L113.231159471423,158.67411090536183L113.2628792063158,158.69794940971914L113.59296269754407,-26.089231684246613L113.85316364783665,158.98998357386705L114.18721210592655,158.8101462659779L114.29823117805137,-252.53738348004975L114.55744088662854,157.24473866074328L114.62980153185275,159.54921648122507L114.78146151430899,159.2412601757202L115.14970781158017,157.36596524503034L115.18588813419228,158.52137424237705L115.99672385738968,159.11936429821554L116.14937508156132,159.41030778603078L116.28864454257507,159.4104543540708L116.73965952308218,157.79044212903244L116.80062088857929,157.70373348288325L116.8303581400413,158.22393047829377L117.02067654939816,158.85327258397058L117.05140504257558,158.5268060185321L117.08857660690308,158.65705319946292L117.16044163126958,157.60993161447516L117.21743802990511,159.20641539458026L117.60402229891122,158.66692869869217L118.18885491099734,157.70518779564125L118.38512077064658,148.15634800902092L118.62054067805414,151.54221173541032L118.81581529598799,159.4212655523329L118.94566796070542,159.36969233090838L119.01406363906804,159.34425110549952L119.08840676772306,159.29187832886123L120.01918273848389,152.90067328141825L120.12425436031633,158.49538576284172L120.19611938468286,158.37230970047074L120.2972260396537,158.85340060970927L120.3814815854627,158.87319815027587L120.48407510300665,158.9526629063209L120.8072199022271,155.78850011236506L120.86867688858194,158.4752578618264L121.26765167903052,156.56140286449053L121.30333638078493,158.86163306536997L121.33604735739314,159.31743721402373L121.77318495388464,159.57506332821046L121.8970901683097,159.4819231736214L122.0269428330271,159.2630050772226L122.14737870144826,158.78608283139263L122.17662033205256,159.16579580471102L122.2811963330273,158.81904750238056L122.34959201138992,158.37347218163225L122.41402272289089,156.92367321609737L122.7084215123648,158.776675362211L122.78821647045451,159.03980268426992L122.89080998799842,159.19729507483112L123.00480278526945,159.36258082258604L123.10690068195571,159.1345542166727L123.8954334665566,158.30704061350536L123.9801846332233,159.13664260159362L124.08872560105965,158.97399358772043L124.66810638371108,158.13150931250283L124.92483798799975,141.66487132085103L125.1136695347835,158.93432065687495L125.1493542365379,158.93826047660502L125.18553455915003,158.75162993107546L125.25194775408184,158.6227099689379L125.29110180184016,157.7935287233701L125.36891427649907,158.87501613440077L125.44028368000788,158.63817191879548L125.59293490417953,159.32009046359846L125.73269998605093,158.81678263947634L125.9165753242577,157.11677069203526L125.9730761020355,159.45366955164968L126.18718431256197,158.91704724531004L126.24765005720137,156.48691238359837L126.27689168780567,156.90964815482525L126.42756042854654,158.53977174601735L126.55889995583705,159.4272384212593L126.71848987201652,159.5171270953775L126.78391182523289,65.01574155348146L126.82009214784502,157.46132708936065L127.16801798995053,158.11552482382243L127.92037045193932,146.27008721724283L128.03634573264114,158.19944653413154L128.13546990418115,158.97689638964934L128.2306291088596,159.24446361450933L128.2598707394639,159.33285469497022L128.36246425700784,159.59159700836096L128.39814895876225,159.57237264461787L128.46852712055565,157.1425275325703L128.6405075581776,157.64169131541013L128.67867036422052,158.94256163826714L128.92152458449357,159.296519541421L128.95027059424018,159.56756688223706L129.0880531926808,159.60125388476206L129.16041383790503,159.25214911887008L129.21840147825594,159.36890085883348L129.35519283498118,158.90458365079846L129.66941645876304,146.88556937198882L129.74177710398726,158.88008568343852L129.80769467806138,158.58939271469293L129.84734434667737,6.437186514749641L129.99256125798354,158.50853747240444L130.09614601724286,154.89711857728733L130.36923310983562,159.33635019829933L130.49809453283765,159.48939555798884L130.98479421509919,159.53075897134335L131.1300111264053,159.5524754158874L131.92003077357933,121.56661637048957L132.06822141003164,156.87352868364763L132.10440173264377,154.8814219135755L132.166849960714,146.60096685039304L132.2382193642228,154.95075856647745L132.2739040659772,157.433799691994L132.3457690903437,158.5572259217257L132.41119104356014,159.23096123182611L132.44092829502216,159.23552429184707L132.6773394441451,159.533633738524L132.77348989053894,159.54519230101235L132.9340710484338,159.4948122044646L133.31272538371667,154.09004320244438L133.4400999441456,159.47635307562567L133.54071097825874,159.56077651125736L133.8693076069139,159.40437072051785L134.05268732426296,159.60650041989112L134.08490268001347,159.55020810416482L134.1532983583761,159.60616200250968L134.2469707004814,159.39476222110972L134.34113866344444,159.16565631815294L134.37285839833723,151.1739724399748L134.40160440808384,158.55246781812576L134.73466162445834,153.82383128936178L134.77084194707047,159.0717320612385L134.80702226968256,159.0102943821058L134.87987853576445,159.27270945616868L136.02823206305567,159.49458146812034L136.06094303966387,159.29017448704337L136.1015839499953,159.53824526826034L136.1387555143228,159.56263566231945L136.40986012348478,159.43923601233155L136.72358812640894,152.8430367274654L137.30594263420656,159.01244715260563L137.76290506500612,159.21443328599804L137.90366138859292,159.50186869153606L137.93438988177033,157.74444790404473L137.99089065954817,159.51658836698255L138.2585259227062,159.47168071852212L138.31601794219944,143.29485700950076L138.43992315662445,159.3536339059662L138.76306795584495,157.1232045910576L139.0014615883987,159.00005222983305L139.7691782969762,159.050679607536L140.12552969366257,157.9413457131546L140.37829633108964,159.35707033482782L140.5904220581853,159.39082191219833L140.6246198973666,159.45086558764095L140.6855812628637,159.37789368861397L140.75100321608014,159.14206175221184L140.9180274451251,151.47234508949404L141.56283018099296,159.04771852314744L141.7516617277767,159.08355944050714L141.78685080867342,159.53241220618935L142.10603064103228,150.7695572078612L142.17194821510643,154.06410187067019L142.27602859522344,158.0278302676724L142.30527022582774,156.9582028945868L142.33451185643204,119.84891124732579L142.65517855136403,157.90893283869107L142.68392456111064,156.23767515535707L142.77809252407368,158.87270645317028L143.7103553574076,159.5817692411624L143.86102409814842,159.5976163223053L143.92793291393795,156.23779591325908L143.99385048801207,159.52996281128085L144.04936002407447,159.4699532212935L144.33384639639436,157.8517366411L144.466672786258,154.97299777405246L144.59008237982533,156.41323366415853L144.66145178333414,158.97224707065635L144.7645409217358,158.4528839197404L145.02969808060533,159.33434332030342L145.05893971120966,42.5475561245604L145.19920041393877,157.03556920255247L145.40587431159975,156.1305677415096L145.45989698508905,157.7272911505765L145.84945497924133,158.40623083740311L145.88414843928035,127.2760231418502L145.91190320731158,157.411770506264L145.94114483791586,154.16445168723024L146.0496858057522,155.54584866229752L146.17259977846183,157.76239946067966L146.34804956208765,158.47945252172775L146.38323864298437,159.20220084130543L146.49326647339382,159.27237991102217L146.74900683596707,158.94829484329023L147.6426112424004,159.28539481287683L147.75957776481764,158.8646763322196L147.87208369951554,158.59909676751812L147.90776840126995,151.0765044138414L148.08867001433052,153.77553334649676L148.14368392953523,153.415075108839L148.31863809230336,154.3767589873251L148.4227184724204,145.81813660605272L148.51986016052962,-91.6090701968684L148.5550492414263,157.1686242842369L148.68886687300537,153.993566583778L149.271221380803,159.56491726512476L149.39264849093954,143.97445266517772L149.45311423557894,145.7904308671549L149.60526983889287,156.29715997608773L149.75593857963372,159.13948017934706L150.16234768294782,148.77160057466926L150.29715655624227,159.39977879879928L150.40123693635928,159.58495116689284L151.63533287203262,159.10667880174128L151.9792937472765,149.23006391295664L152.0159696907463,156.82055901262646L152.11360699971323,-170.0466289653384L152.3341582813898,135.00336452499187L152.56858694708194,131.26225937685294L152.59832419854393,156.604402927115L152.62508772485978,153.88609205100008L152.65383373460634,-109.96253000138461L152.6820841234953,106.07663651670379L152.7098388915265,151.3518383937493L152.96904860010366,-545.9990506408582L153.72933099581562,106.93297403407988L153.76154635156612,103.8964763357144L153.79921353675132,158.0431434132325L154.0430589987398,157.69557375217818L154.4256783008843,108.95687050820769L154.49209149581614,159.26580536072433L155.70041514688901,156.14068121580192L155.7370910903588,155.403677477141L155.84414519562208,153.57280356432668L155.9006459733999,158.47616345291402L155.9363306751543,134.32179052689577L156.0086913203785,158.72193569342258L156.69066562057387,159.20076427884086L156.8631416790535,159.37988221066337L156.96474395488204,155.74329901335093L157.06039878041818,158.78746111139753L157.37263992076927,157.93171023889101L157.40882024338134,-4.084482284750123L157.6179722453308,147.01108155731328L157.6868635445511,155.99247735347953L157.72254824630554,158.63985488887715L157.9203009685279,159.29274681205183L158.0199207609256,159.27749912361068L158.0476755289568,159.47902383090323L158.22362093344037,159.52222742789664L158.2865647823683,63.5596576795765L158.3599166693079,141.54891391816736L158.46647515371342,155.94426886091227L159.50380960887978,150.0703928087074L159.66786011277853,159.35671963841295L159.73476892856806,157.63513703119537L159.76351493831467,154.92316314961354L159.79325218977664,153.92906621030914L160.14365613617065,156.8046426366207L160.48613014884145,159.56805956207296L160.7666515542997,157.48881050699757L161.35297102895896,156.56725459115816L161.58640845293573,158.5074972399832L161.62258877554783,159.46671662299948L161.72270418880325,159.53464075320443L162.05923075118164,159.4890472375975L162.24360171024608,159.0437511229089L162.3798974461136,156.29668067157547L162.54543481258546,149.40870882974093L162.61531735352116,159.2626684505942L163.41524941784917,159.505501992583L163.47026333305388,159.52693834297034L163.5252772482586,159.5702763483539L163.67098978042245,159.42872321467217L163.70667448217685,159.52780142187214L163.81224172486696,159.49364898953112L164.02040248510102,142.6274772828234L164.08334633402893,159.3848399468289L164.17156684669956,159.55250788820905L164.43226341784984,159.54081671390713L164.50264157964324,159.51354876316915L164.53981314397078,159.47754572296833L164.57599346658287,159.50650628182467L164.84164624631012,159.45713031145817L165.35213572974126,159.05380883053118L165.42400075410777,158.06711963377745L165.4948745367589,157.66232489014004L165.56673956112544,157.19238899209856L165.63910020634964,142.4660194953376L165.94688075898142,159.51383434023313L166.06087355625243,159.23838917057685L166.50990605332876,158.22843812105992L166.65760106892338,149.31137050653933L167.78117355332958,159.3850065480085L168.08052855138047,157.85488864596786L168.57367130479207,159.49037527169295L168.60687790225796,159.5142880850216L168.81305617906125,159.53252429277015L168.84675839738486,159.4278064655917L168.91218035060126,159.5961938332669L169.01229576385668,159.611524566788L169.1694075757476,-105.0458168605324L169.27646168101086,159.57882909111353L169.31462448705378,159.52610043943557L169.38648951142028,159.52360253404657L169.88310161083584,66.2203985303975L170.12942517711275,149.6887583311799L170.266216533838,142.39632876834028L170.51154885839955,138.53216982722742L170.54475545586547,159.4081096031988L171.57366435645093,154.45884715288463L171.68864839543735,136.62215699971318L172.7116098457304,131.00045922699857L172.81469898413206,159.54285674849618L173.0446670621049,159.42415449412454L173.13487005820633,159.4514650211078L173.16609417224143,159.0629231636328L173.22755115859627,159.15241049942279L173.25778403091599,151.482731014485L173.46644041200773,159.15042638000523L173.52442805235862,158.21526395574537L173.8421210221444,65.15685237989979L173.97792113715425,159.56710407594704L174.2192884948542,159.41394006212636L174.2743024100589,158.71695340501387L174.32782946269054,148.68675324013296L174.44231788081925,149.00850596123342L174.53053839348988,158.3895780804564L175.66848388276938,159.41523692838368L175.69772551337365,159.38089246325822L175.72795838569337,159.51211676057332L175.90043444417304,159.5037634654804L176.15022735645388,159.23137934208518L176.31675596464115,159.47850365645672L176.34302387009922,159.51888796758377L176.37127425898817,152.2497896804891L176.48576267711687,159.55196682455565L176.62602337984603,153.95725721707242L176.81336806405668,159.4576313263031L177.04135365859872,159.32498500219685L177.15385959329663,159.30003703461495L177.26240056113298,159.50452344941988L177.31691885548,159.43654353507415L177.47948249680562,159.45604703108114L177.56076431746843,159.2893045828975L177.61478699095775,159.4804493169051L177.66880966444708,159.4823068431864L177.7272929256557,159.54421208939152L177.816009059184,159.53621075734367L177.96667779992487,159.54825706272197L179.13089119466247,159.5447791990382L179.2751168642532,159.54766943366616L179.41835129212853,159.5010708659277L179.91397214982865,159.15571065634634L180.02152187594956,158.71588270358495L180.10181245489701,159.17566627236104L180.23711694904912,159.46623154148884L180.39868934865936,119.21623525450894L180.42545287497518,154.29031421955432L180.5334982219538,159.15971775015453L180.58702527458541,158.96253966344497L180.74859767419565,157.61071411822593L180.77734368394226,158.83083295182212L180.95031536327963,159.4422072647032L181.15203305236355,159.17110943193111L181.3255003525586,-10.51630456933313L181.41173838179841,159.55047563684414L181.59164875314357,159.36228924722738L182.72662051727687,135.467608588773L182.78708626191627,155.87137134073967L182.99673388472343,158.87509696578962L183.08792812254026,155.77526519538995L183.18011360207248,159.258851252314L183.2381012424234,158.76588392920348L183.38430939544492,158.73205075173058L183.83928934281363,159.55067835591092L183.89331201630296,-63.91156072642735L183.9210667843342,159.52690561441088L184.02812088959737,159.3466472553512L184.05438879505547,157.8034249079807L184.16887721318423,157.2358191615715L184.22686485353512,156.77534934129216L184.4013233954456,157.97027710748674L184.43106064690758,-118.3287805722598L184.63525644028005,158.2105770396741L184.96484431065062,158.49500736944665L185.10807873852593,157.67211969774652L185.1933255260504,158.33379249542577L186.23809429408223,159.1727366819315L186.26634468297115,159.27327467023775L186.4343601537315,157.16666699990867L186.4631061634781,157.0586473793787L186.86852402507682,159.52209916921447L186.98400368492094,159.52001271772448L187.04149570441416,159.5544221391404L187.09898772390736,159.56562032932396L187.18522575314717,159.5591990412795L187.2734462658178,159.53776649951809L187.53364721611038,159.5616611985791L187.70711451630544,157.95350163591277L187.76708464008712,159.6003057378118L188.0793257804382,159.5743454007611L188.1090630319002,159.56962269583533L188.28699091981457,159.53494535010384L188.49069109232934,159.57433602915356L189.95971131455246,159.36271579004054L190.041488756073,159.4779444756239L190.12177933502042,159.43742360720307L190.17629762936744,159.5210455600137L190.74626161572257,159.56456878167302L190.8270478155277,158.32733511570027L190.93608440422173,156.49610917869325L190.96284793053752,159.43865559870017L190.99357642371496,141.441603377602L191.1680349656254,159.5610408933761L191.2508036488613,159.35883562713667L191.30532194320833,136.56106840968533L191.54668930090827,159.26180581428503L191.65324778531382,147.94230686398748L191.7340339851189,159.03741356931147L191.87032972098646,159.4322168428062L192.08889851923223,158.8936486780162L192.19843072878396,159.44338376906242L192.25245340227326,159.46228713277213L192.30697169662028,159.4479654179734L193.39337261669894,158.7033642275886L193.44838653190368,159.56597144503706L193.5361114237166,159.3512190041641L193.8880022326837,159.28665261451192L194.0000125465239,156.69757547540723L194.13531704067603,144.23178328181987L194.19231343931156,152.77220923626717L194.46738301533512,159.5971468276255L194.52041444710903,159.56152701439703L194.57939332917536,159.59576274732785L194.93624034671944,159.5638984402097L195.10276895490668,158.28244886309886L195.38626408551113,151.7954604367973L195.5299941342442,159.27700120691406L195.71932130188566,24.017879233425333L195.80159436426388,159.45218684308102L196.6054913954535,159.50312411132404L197.17198603580474,40.25047247767131L197.1992451829782,159.1804511178729L197.22749557186714,154.7791668056728L197.36527817030776,159.5818935616438L197.42425705237406,159.5623745792628L197.5952462482806,159.5938634098751L197.70378721611695,84.4285254544404L197.9193822892165,130.64639109498822L197.9456501946746,156.09414693464137L198.08739775997682,101.56181163705303L198.11663939058116,81.56253195034245L198.23063218785217,40.77083467660057L198.53296091104926,101.32777984130495L198.6965157940903,155.25740872292715L198.86304440227752,159.40990020481718L198.94383060208264,159.19457504035958L199.25805422586453,142.79421561955456L200.12985131455903,154.09409194654745L200.24731345783397,159.23474376811595L200.3062923399003,128.73023750453166L200.45349173463723,159.5882128202604L200.56748453190826,154.65816887870943L200.7151795475029,159.46975971514152L200.85246652508584,156.68687311998792L200.96745056407224,154.03883775219205L200.9971878155343,155.55354325145413L201.057157939316,158.5409322704536L201.32628006504717,158.80013845484984L201.3565129373669,158.34540426220582L201.67222342372185,159.32784811055615L201.73070668493048,159.52446129184676L201.75846145296168,159.53540963558495L201.96067476290332,159.36452042650384L202.01816678239652,159.55033567566372L202.04592155042772,158.76611267970455L202.07565880188974,159.5519057467742L202.10589167420946,159.55179097260793L202.2134414003304,159.54268176135116L202.26845531553508,159.5065801831449L203.63587326192973,158.72814540763613L203.72706749974657,159.1545014933107L204.08044517128675,158.77875098182898L204.13446784477608,158.97059675925107L204.276711030936,159.4137002933985L204.30397017810952,159.50733642251785L204.3579928515988,159.40891387551812L204.587465308714,158.04721060645952L204.73714280773942,159.44600394066248L204.94976415569278,159.55386148202825L205.73581883600517,159.5753187201666L205.92514600364663,159.55903654864056L206.2324309354207,159.58315319989265L207.10621050754602,159.58954315758453L207.35897714497307,159.5907853109681L207.38673191300427,159.57974482616189L207.66328835160095,142.74802795829788L207.69005187791677,156.5757247889384L207.71879788766338,146.56925970150803L207.7767855280143,157.8448005159266L207.8327906849344,159.2040681162715L207.886317737566,159.53643498874115L207.91407250559723,159.54483806385656L207.94380975705923,159.55998192356338L208.00477112255635,159.5653561044421L208.53805916544167,159.5094897637292L208.68922352704018,159.53170156550334L208.84038788863873,142.03695027031864L208.9315821264556,159.0482508455966L209.01881139741081,159.6060442059017L209.16353268785923,159.61269338983587L209.48717310793742,159.6123251527767L209.757286475384,158.46892105364813L209.8390639169045,149.50485299146723L209.86632306407802,159.59396924847488L210.87838085550166,159.37593980526063L211.04144011768503,159.60473363674396L211.45528353386462,159.61210599809124L211.48402954361123,38.84971659461743L211.65303625608698,158.27460444469347L211.7610816030656,157.71479289407452L211.8458327697323,157.87812149726733L212.01434386135037,152.82410457194112L212.06836653483967,159.4768411970488L212.31568134283202,157.43480992129452L212.42372668981065,159.50640235991295L212.5882728145671,159.56021236290474L212.73299410501556,158.15763830354757L212.89704460891426,153.87863674139004L213.00756806018143,159.58114302356262L213.14435941690667,159.2102574013415L214.08256970053299,157.83828611163628L214.19606687694633,159.53063834156026L214.44239044322325,157.58660185868644L214.52565474731688,159.58549516199437L214.85821634283369,159.5887682836428L215.04903037304823,159.59792785436898L215.13279029799955,159.30768967065012L215.19028231749274,159.2352131492358L215.21754146466628,159.27675622025217L215.3280649159334,158.53908325825665L215.3553240631069,145.51351212613807L215.3820875894227,159.2291996200243L215.71514480579722,159.56509977343254L215.87721282626512,159.5935437833893L215.90447197343866,153.7469006788882L215.96196399293183,159.590678996927L216.09974659137248,159.55390173175044L216.1279969802614,159.54712156515126L216.21423500950124,159.52407776787146L216.38026799683078,159.54197189520224L216.49426079410176,159.58795699280913L216.69796096661656,159.52107335017132L217.85523566934634,158.0946843952789L218.02572924439517,159.42863088752236L218.13674831652,159.5190182295799L218.22100386232904,159.49728169657217L218.4400682814325,159.5130394147711L218.4980559217834,159.5271943187411L218.8633284939084,159.53004324084222L218.98178187889872,157.30123230078723L219.01102350950302,159.43989520744915L219.54381593153067,-135.78878694917609L219.5705794578465,155.17434927621764L219.65483500365548,149.75668986898762L219.85308334673553,159.53616586331074L219.91156660794414,159.53749070608046L220.14748213620942,158.87367955127945L220.20546977656034,159.235581991948L220.23372016544923,158.59654585001581L221.3518408204207,159.35434657326053L221.4053678730523,158.73000140813758L221.43312264108354,158.54176984204392L221.6556564061909,158.60960801610335L221.6834111742221,159.2515124377402L221.76518861574263,158.95452952904523L221.8202025309473,159.5618716076926L222.0650392346512,159.58256851757193L222.14632105531402,159.50676645057814L222.20133497051876,159.58499853777013L222.25634888572344,159.35898617851026L222.60774407383283,159.5684160849867L223.10138244810219,153.9062813559177L223.24759060112368,159.53501877388993L223.5414937697399,58.44432909754232L223.72289100365813,148.75667728332365L223.84134438864845,147.9846079098058L224.688360434458,159.5961123409009L224.8662883223723,159.40991700004236L224.9252672044386,158.93146090290185L225.03678189742115,151.38679035218615L225.22809154849335,76.76268860521122L225.25535069566692,130.31164422729748L225.28459232627122,159.1128182602001L225.5804779783182,159.28842123791262L226.0473528262717,158.48612691160275L226.18364856213924,154.31548739689637L226.32242240229527,91.08727718112807L226.46367434673982,159.34699061404632L226.4924203564864,159.48457557295242L226.54792989254884,159.5570145351418L226.63416792178865,159.47632189614038L226.91171560210074,159.33834207473487L227.02273467422555,159.5462228109549L227.0490025796837,159.49739019582333L227.2130530835824,159.49766263487479L227.32506339742264,159.5487483259703L227.35232254459615,159.5814037688512L228.33959929313474,158.82288664393693L228.40155190034727,73.5317259594806L228.4298022892362,158.37150632498384L228.4570614364097,129.44341280199376L228.5105884890413,159.49218657033987L228.59484403485035,159.36566918729415L228.62160756116617,159.08232022776207L228.64936232919737,155.17092892045642L228.67612585551316,137.36622693918886L228.7851624442072,156.58380252353714L228.83968073855416,158.09758538024863L228.92393628436326,159.4606196650793L228.95069981067905,159.3993963871291L228.97746333699482,159.54377751293995L229.00472248416835,159.58107313614977L229.05874515765768,159.56686404224595L229.14250508260895,159.48645172306524L229.17174671321325,158.88905596428978L229.33926656311593,139.19042562353164L229.512733863311,150.1299614890922L229.5682433993734,159.57256172921137L229.65002084089394,159.57438379567083L229.9865474032723,135.79676332201444L230.20561182237574,13.094948324808598L230.23237534869156,131.55238843601296L230.26062573758043,159.53265064131577L230.42665872490997,158.44579302691636L230.62094210112846,147.47322353909667L230.7626896664307,159.53845012458356L230.8766824637017,135.42964737323513" style="fill: none;" fill="none"></path></g></g></g></g></g></g><g transform="translate(82, 178)" clip-path="url(#clip_1)"><clipPath id="clip_1"><rect width="248" height="22"></rect></clipPath><g><g><line x1="3.7499988680384275" y1="0" x2="3.7499988680384275" y2="5" style="visibility: inherit;" fill="rgb(0, 0, 0)" stroke="rgb(204, 204, 204)" stroke-width="1px"></line><line x1="21.592349745242934" y1="0" x2="21.592349745242934" y2="5" style="visibility: inherit;" fill="rgb(0, 0, 0)" stroke="rgb(204, 204, 204)" stroke-width="1px"></line><line x1="39.434700622447444" y1="0" x2="39.434700622447444" y2="5" style="visibility: inherit;" fill="rgb(0, 0, 0)" stroke="rgb(204, 204, 204)" stroke-width="1px"></line><line x1="57.27705149965196" y1="0" x2="57.27705149965196" y2="5" style="visibility: inherit;" fill="rgb(0, 0, 0)" stroke="rgb(204, 204, 204)" stroke-width="1px"></line><line x1="75.11940237685647" y1="0" x2="75.11940237685647" y2="5" style="visibility: inherit;" fill="rgb(0, 0, 0)" stroke="rgb(204, 204, 204)" stroke-width="1px"></line><line x1="92.96175325406098" y1="0" x2="92.96175325406098" y2="5" style="visibility: inherit;" fill="rgb(0, 0, 0)" stroke="rgb(204, 204, 204)" stroke-width="1px"></line><line x1="110.80410413126549" y1="0" x2="110.80410413126549" y2="5" style="visibility: inherit;" fill="rgb(0, 0, 0)" stroke="rgb(204, 204, 204)" stroke-width="1px"></line><line x1="128.64645500846999" y1="0" x2="128.64645500846999" y2="5" style="visibility: inherit;" fill="rgb(0, 0, 0)" stroke="rgb(204, 204, 204)" stroke-width="1px"></line><line x1="146.48880588567448" y1="0" x2="146.48880588567448" y2="5" style="visibility: inherit;" fill="rgb(0, 0, 0)" stroke="rgb(204, 204, 204)" stroke-width="1px"></line><line x1="164.331156762879" y1="0" x2="164.331156762879" y2="5" style="visibility: inherit;" fill="rgb(0, 0, 0)" stroke="rgb(204, 204, 204)" stroke-width="1px"></line><line x1="182.17350764008353" y1="0" x2="182.17350764008353" y2="5" style="visibility: inherit;" fill="rgb(0, 0, 0)" stroke="rgb(204, 204, 204)" stroke-width="1px"></line><line x1="200.01585851728802" y1="0" x2="200.01585851728802" y2="5" style="visibility: inherit;" fill="rgb(0, 0, 0)" stroke="rgb(204, 204, 204)" stroke-width="1px"></line><line x1="217.85820939449255" y1="0" x2="217.85820939449255" y2="5" style="visibility: inherit;" fill="rgb(0, 0, 0)" stroke="rgb(204, 204, 204)" stroke-width="1px"></line><line x1="235.70056027169704" y1="0" x2="235.70056027169704" y2="5" style="visibility: inherit;" fill="rgb(0, 0, 0)" stroke="rgb(204, 204, 204)" stroke-width="1px"></line></g><g transform="translate(0, 8)"><text x="3.7499988680384275" y="0" dx="0em" dy="0.95em" style="text-anchor: middle; visibility: hidden; font-family: &quot;Helvetica Neue&quot;, sans-serif; font-size: 12px; font-weight: 200;" fill="rgb(50, 49, 63)" stroke="none" stroke-width="1px">-0.02</text><text x="21.592349745242934" y="0" dx="0em" dy="0.95em" style="text-anchor: middle; visibility: inherit; font-family: &quot;Helvetica Neue&quot;, sans-serif; font-size: 12px; font-weight: 200;" fill="rgb(50, 49, 63)" stroke="none" stroke-width="1px">-0.01</text><text x="39.434700622447444" y="0" dx="0em" dy="0.95em" style="text-anchor: middle; visibility: hidden; font-family: &quot;Helvetica Neue&quot;, sans-serif; font-size: 12px; font-weight: 200;" fill="rgb(50, 49, 63)" stroke="none" stroke-width="1px">0</text><text x="57.27705149965196" y="0" dx="0em" dy="0.95em" style="text-anchor: middle; visibility: inherit; font-family: &quot;Helvetica Neue&quot;, sans-serif; font-size: 12px; font-weight: 200;" fill="rgb(50, 49, 63)" stroke="none" stroke-width="1px">0.01</text><text x="75.11940237685647" y="0" dx="0em" dy="0.95em" style="text-anchor: middle; visibility: hidden; font-family: &quot;Helvetica Neue&quot;, sans-serif; font-size: 12px; font-weight: 200;" fill="rgb(50, 49, 63)" stroke="none" stroke-width="1px">0.02</text><text x="92.96175325406098" y="0" dx="0em" dy="0.95em" style="text-anchor: middle; visibility: inherit; font-family: &quot;Helvetica Neue&quot;, sans-serif; font-size: 12px; font-weight: 200;" fill="rgb(50, 49, 63)" stroke="none" stroke-width="1px">0.03</text><text x="110.80410413126549" y="0" dx="0em" dy="0.95em" style="text-anchor: middle; visibility: hidden; font-family: &quot;Helvetica Neue&quot;, sans-serif; font-size: 12px; font-weight: 200;" fill="rgb(50, 49, 63)" stroke="none" stroke-width="1px">0.04</text><text x="128.64645500846999" y="0" dx="0em" dy="0.95em" style="text-anchor: middle; visibility: inherit; font-family: &quot;Helvetica Neue&quot;, sans-serif; font-size: 12px; font-weight: 200;" fill="rgb(50, 49, 63)" stroke="none" stroke-width="1px">0.05</text><text x="146.48880588567448" y="0" dx="0em" dy="0.95em" style="text-anchor: middle; visibility: hidden; font-family: &quot;Helvetica Neue&quot;, sans-serif; font-size: 12px; font-weight: 200;" fill="rgb(50, 49, 63)" stroke="none" stroke-width="1px">0.06</text><text x="164.331156762879" y="0" dx="0em" dy="0.95em" style="text-anchor: middle; visibility: inherit; font-family: &quot;Helvetica Neue&quot;, sans-serif; font-size: 12px; font-weight: 200;" fill="rgb(50, 49, 63)" stroke="none" stroke-width="1px">0.07</text><text x="182.17350764008353" y="0" dx="0em" dy="0.95em" style="text-anchor: middle; visibility: hidden; font-family: &quot;Helvetica Neue&quot;, sans-serif; font-size: 12px; font-weight: 200;" fill="rgb(50, 49, 63)" stroke="none" stroke-width="1px">0.08</text><text x="200.01585851728802" y="0" dx="0em" dy="0.95em" style="text-anchor: middle; visibility: inherit; font-family: &quot;Helvetica Neue&quot;, sans-serif; font-size: 12px; font-weight: 200;" fill="rgb(50, 49, 63)" stroke="none" stroke-width="1px">0.09</text><text x="217.85820939449255" y="0" dx="0em" dy="0.95em" style="text-anchor: middle; visibility: hidden; font-family: &quot;Helvetica Neue&quot;, sans-serif; font-size: 12px; font-weight: 200;" fill="rgb(50, 49, 63)" stroke="none" stroke-width="1px">0.1</text><text x="235.70056027169704" y="0" dx="0em" dy="0.95em" style="text-anchor: middle; visibility: inherit; font-family: &quot;Helvetica Neue&quot;, sans-serif; font-size: 12px; font-weight: 200;" fill="rgb(50, 49, 63)" stroke="none" stroke-width="1px">0.11</text></g><line x1="0" y1="0" x2="248" y2="0" fill="rgb(0, 0, 0)" stroke="rgb(204, 204, 204)" stroke-width="1px"></line></g></g></g></g></svg>