<svg viewBox="0 0 330 200" xmlns="http://www.w3.org/2000/svg"><g><g><g><g><g><line x1="82" y1="178" x2="77" y2="178" style="visibility: inherit;" fill="rgb(0, 0, 0)" stroke="rgb(204, 204, 204)" stroke-width="1px"></line><line x1="82" y1="158.22222222222223" x2="77" y2="158.22222222222223" style="visibility: inherit;" fill="rgb(0, 0, 0)" stroke="rgb(204, 204, 204)" stroke-width="1px"></line><line x1="82" y1="138.44444444444446" x2="77" y2="138.44444444444446" style="visibility: inherit;" fill="rgb(0, 0, 0)" stroke="rgb(204, 204, 204)" stroke-width="1px"></line><line x1="82" y1="118.66666666666667" x2="77" y2="118.66666666666667" style="visibility: inherit;" fill="rgb(0, 0, 0)" stroke="rgb(204, 204, 204)" stroke-width="1px"></line><line x1="82" y1="98.8888888888889" x2="77" y2="98.8888888888889" style="visibility: inherit;" fill="rgb(0, 0, 0)" stroke="rgb(204, 204, 204)" stroke-width="1px"></line><line x1="82" y1="79.11111111111113" x2="77" y2="79.11111111111113" style="visibility: inherit;" fill="rgb(0, 0, 0)" stroke="rgb(204, 204, 204)" stroke-width="1px"></line><line x1="82" y1="59.33333333333334" x2="77" y2="59.33333333333334" style="visibility: inherit;" fill="rgb(0, 0, 0)" stroke="rgb(204, 204, 204)" stroke-width="1px"></line><line x1="82" y1="39.55555555555557" x2="77" y2="39.55555555555557" style="visibility: inherit;" fill="rgb(0, 0, 0)" stroke="rgb(204, 204, 204)" stroke-width="1px"></line><line x1="82" y1="19.7777777777778" x2="77" y2="19.7777777777778" style="visibility: inherit;" fill="rgb(0, 0, 0)" stroke="rgb(204, 204, 204)" stroke-width="1px"></line><line x1="82" y1="0" x2="77" y2="0" style="visibility: inherit;" fill="rgb(0, 0, 0)" stroke="rgb(204, 204, 204)" stroke-width="1px"></line></g><g transform="translate(72, 0)"><text x="0" y="178" dx="0em" dy="0.3em" style="text-anchor: end; visibility: hidden; font-family: &quot;Helvetica Neue&quot;, sans-serif; font-size: 12px; font-weight: 200;" fill="rgb(50, 49, 63)" stroke="none" stroke-width="1px">-5e-4</text><text x="0" y="158.22222222222223" dx="0em" dy="0.3em" style="text-anchor: end; visibility: inherit; font-family: &quot;Helvetica Neue&quot;, sans-serif; font-size: 12px; font-weight: 200;" fill="rgb(50, 49, 63)" stroke="none" stroke-width="1px">0</text><text x="0" y="138.44444444444446" dx="0em" dy="0.3em" style="text-anchor: end; visibility: hidden; font-family: &quot;Helvetica Neue&quot;, sans-serif; font-size: 12px; font-weight: 200;" fill="rgb(50, 49, 63)" stroke="none" stroke-width="1px">5e-4</text><text x="0" y="118.66666666666667" dx="0em" dy="0.3em" style="text-anchor: end; visibility: inherit; font-family: &quot;Helvetica Neue&quot;, sans-serif; font-size: 12px; font-weight: 200;" fill="rgb(50, 49, 63)" stroke="none" stroke-width="1px">1e-3</text><text x="0" y="98.8888888888889" dx="0em" dy="0.3em" style="text-anchor: end; visibility: hidden; font-family: &quot;Helvetica Neue&quot;, sans-serif; font-size: 12px; font-weight: 200;" fill="rgb(50, 49, 63)" stroke="none" stroke-width="1px">1.5e-3</text><text x="0" y="79.11111111111113" dx="0em" dy="0.3em" style="text-anchor: end; visibility: inherit; font-family: &quot;Helvetica Neue&quot;, sans-serif; font-size: 12px; font-weight: 200;" fill="rgb(50, 49, 63)" stroke="none" stroke-width="1px">2e-3</text><text x="0" y="59.33333333333334" dx="0em" dy="0.3em" style="text-anchor: end; visibility: hidden; font-family: &quot;Helvetica Neue&quot;, sans-serif; font-size: 12px; font-weight: 200;" fill="rgb(50, 49, 63)" stroke="none" stroke-width="1px">2.5e-3</text><text x="0" y="39.55555555555557" dx="0em" dy="0.3em" style="text-anchor: end; visibility: inherit; font-family: &quot;Helvetica Neue&quot;, sans-serif; font-size: 12px; font-weight: 200;" fill="rgb(50, 49, 63)" stroke="none" stroke-width="1px">3e-3</text><text x="0" y="19.7777777777778" dx="0em" dy="0.3em" style="text-anchor: end; visibility: hidden; font-family: &quot;Helvetica Neue&quot;, sans-serif; font-size: 12px; font-weight: 200;" fill="rgb(50, 49, 63)" stroke="none" stroke-width="1px">3.5e-3</text><text x="0" y="0" dx="0em" dy="0.3em" style="text-anchor: end; visibility: hidden; font-family: &quot;Helvetica Neue&quot;, sans-serif; font-size: 12px; font-weight: 200;" fill="rgb(50, 49, 63)" stroke="none" stroke-width="1px">4e-3</text></g><line x1="82" y1="0" x2="82" y2="178" fill="rgb(0, 0, 0)" stroke="rgb(204, 204, 204)" stroke-width="1px"></line></g></g><g transform="translate(82, 0)" clip-path="url(#clip_0)"><clipPath id="clip_0"><rect width="248" height="178"></rect></clipPath><g><g><g><line x1="0" y1="0" x2="0" y2="178" fill="rgb(0, 0, 0)" stroke="rgb(60, 60, 60)" stroke-width="1px" opacity="0.25"></line><line x1="22.545454545454547" y1="0" x2="22.545454545454547" y2="178" fill="rgb(0, 0, 0)" stroke="rgb(60, 60, 60)" stroke-width="1px" opacity="0.25"></line><line x1="45.09090909090909" y1="0" x2="45.09090909090909" y2="178" fill="rgb(0, 0, 0)" stroke="rgb(60, 60, 60)" stroke-width="1px" opacity="0.25"></line><line x1="67.63636363636363" y1="0" x2="67.63636363636363" y2="178" fill="rgb(0, 0, 0)" stroke="rgb(60, 60, 60)" stroke-width="1px" opacity="0.25"></line><line x1="90.18181818181819" y1="0" x2="90.18181818181819" y2="178" fill="rgb(0, 0, 0)" stroke="rgb(60, 60, 60)" stroke-width="1px" opacity="0.25"></line><line x1="112.72727272727272" y1="0" x2="112.72727272727272" y2="178" fill="rgb(0, 0, 0)" stroke="rgb(60, 60, 60)" stroke-width="1px" opacity="0.25"></line><line x1="135.27272727272725" y1="0" x2="135.27272727272725" y2="178" fill="rgb(0, 0, 0)" stroke="rgb(60, 60, 60)" stroke-width="1px" opacity="0.25"></line><line x1="157.8181818181818" y1="0" x2="157.8181818181818" y2="178" fill="rgb(0, 0, 0)" stroke="rgb(60, 60, 60)" stroke-width="1px" opacity="0.25"></line><line x1="180.36363636363637" y1="0" x2="180.36363636363637" y2="178" fill="rgb(0, 0, 0)" stroke="rgb(60, 60, 60)" stroke-width="1px" opacity="0.25"></line><line x1="202.90909090909093" y1="0" x2="202.90909090909093" y2="178" fill="rgb(0, 0, 0)" stroke="rgb(60, 60, 60)" stroke-width="1px" opacity="0.25"></line><line x1="225.45454545454544" y1="0" x2="225.45454545454544" y2="178" fill="rgb(0, 0, 0)" stroke="rgb(60, 60, 60)" stroke-width="1px" opacity="0.25"></line><line x1="248" y1="0" x2="248" y2="178" fill="rgb(0, 0, 0)" stroke="rgb(60, 60, 60)" stroke-width="1px" opacity="0.25"></line></g><g><line x1="0" y1="178" x2="248" y2="178" fill="rgb(0, 0, 0)" stroke="rgb(60, 60, 60)" stroke-width="1px" opacity="0.25"></line><line x1="0" y1="158.22222222222223" x2="248" y2="158.22222222222223" fill="rgb(0, 0, 0)" stroke="rgb(60, 60, 60)" stroke-width="1px" opacity="0.25"></line><line x1="0" y1="138.44444444444446" x2="248" y2="138.44444444444446" fill="rgb(0, 0, 0)" stroke="rgb(60, 60, 60)" stroke-width="1px" opacity="0.25"></line><line x1="0" y1="118.66666666666667" x2="248" y2="118.66666666666667" fill="rgb(0, 0, 0)" stroke="rgb(60, 60, 60)" stroke-width="1px" opacity="0.25"></line><line x1="0" y1="98.8888888888889" x2="248" y2="98.8888888888889" fill="rgb(0, 0, 0)" stroke="rgb(60, 60, 60)" stroke-width="1px" opacity="0.25"></line><line x1="0" y1="79.11111111111113" x2="248" y2="79.11111111111113" fill="rgb(0, 0, 0)" stroke="rgb(60, 60, 60)" stroke-width="1px" opacity="0.25"></line><line x1="0" y1="59.33333333333334" x2="248" y2="59.33333333333334" fill="rgb(0, 0, 0)" stroke="rgb(60, 60, 60)" stroke-width="1px" opacity="0.25"></line><line x1="0" y1="39.55555555555557" x2="248" y2="39.55555555555557" fill="rgb(0, 0, 0)" stroke="rgb(60, 60, 60)" stroke-width="1px" opacity="0.25"></line><line x1="0" y1="19.7777777777778" x2="248" y2="19.7777777777778" fill="rgb(0, 0, 0)" stroke="rgb(60, 60, 60)" stroke-width="1px" opacity="0.25"></line><line x1="0" y1="0" x2="248" y2="0" fill="rgb(0, 0, 0)" stroke="rgb(60, 60, 60)" stroke-width="1px" opacity="0.25"></line></g></g></g><g><g><line x1="0" y1="158.22222222222223" x2="248" y2="158.22222222222223" fill="rgb(0, 0, 0)" stroke="rgb(153, 153, 153)" stroke-width="1.5px"></line></g></g><g><g><line x1="22.545454545454547" y1="0" x2="22.545454545454547" y2="178" fill="rgb(0, 0, 0)" stroke="rgb(153, 153, 153)" stroke-width="1.5px"></line></g></g><g><g><g><g><g><path stroke="rgb(255, 112, 67)" stroke-width="2px" d="M31.293090909090907,-2.9848699198384168L31.293090909090907,2.3014627036224056L31.293090909090907,7.193018786710127L31.293090909090907,8.933903903468376L31.293090909090907,11.764119110471455L31.293090909090907,14.979857799095356L31.293090909090907,19.663539209883226L31.293090909090907,25.32297696418007L35.666909090909094,23.07428178792054L35.666909090909094,28.5038941829298L35.666909090909094,33.3476551861431L35.666909090909094,36.60431858257462L35.666909090909094,35.85369746511685L35.666909090909094,36.37740150502856L35.666909090909094,42.475704571550864L35.666909090909094,46.79730758446988L35.666909090909094,43.75566415041618L35.666909090909094,46.224027799137446L35.666909090909094,49.87332289693697L35.666909090909094,49.50698997117951L35.666909090909094,53.53140378827858L35.666909090909094,51.834968704637504L35.666909090909094,56.45379511778579L35.666909090909094,61.148959869645566L35.666909090909094,62.53436152555945L40.040727272727274,64.18323959830403L40.040727272727274,65.96553869661464L40.040727272727274,70.1747240988335L40.040727272727274,71.9937160138416L40.040727272727274,75.20312500123343L40.040727272727274,78.06512435599544L40.040727272727274,81.79593943356579L40.040727272727274,82.74366976111787L40.040727272727274,82.17879562073398L40.040727272727274,84.23773102667246L40.040727272727274,87.2881425120217L40.040727272727274,87.70166901898162L40.040727272727274,87.05405142150987L40.040727272727274,89.25156509705164L44.414545454545454,86.76366404392638L44.414545454545454,85.8861439010277L44.414545454545454,88.2966414517008L44.414545454545454,89.1617798743583L44.414545454545454,91.40705157121936L44.414545454545454,93.57279338195505L44.414545454545454,94.03204372306563L44.414545454545454,93.85867260452319L44.414545454545454,94.83102375093416L44.414545454545454,95.79989268460243L44.414545454545454,96.78451690787905L44.414545454545454,93.3323506242479L44.414545454545454,96.55872227378396L44.414545454545454,98.65807438300287L44.414545454545454,100.91240351523476L44.414545454545454,102.49875628034793L44.414545454545454,102.96663760593552L44.414545454545454,103.08194067843785L48.788363636363634,104.19257284455854L48.788363636363634,102.95208013789195L48.788363636363634,104.99970782826024L48.788363636363634,107.21809209656983L48.788363636363634,108.88455000480334L48.788363636363634,108.83323187356937L48.788363636363634,108.24304629545595L48.788363636363634,108.01269417422544L48.788363636363634,107.33081177194877L48.788363636363634,107.32114726054245L48.788363636363634,109.05056428701369L48.788363636363634,110.11004288341046L48.788363636363634,109.08595589885608L48.788363636363634,111.27532089284847L48.788363636363634,113.09778272605053L48.788363636363634,113.59613355462187L48.788363636363634,113.48725409346879L48.788363636363634,114.32310884973795L48.788363636363634,114.96257289532844L48.788363636363634,113.58515718580509L48.788363636363634,114.32359792276958L48.788363636363634,115.61933718684703L48.788363636363634,116.3964605973098L48.788363636363634,116.25109528287341L48.788363636363634,114.21277612350177L53.16218181818182,114.1527415770268L53.16218181818182,113.79789863763999L53.16218181818182,113.88295103269495L53.16218181818182,113.97509024773522L53.16218181818182,115.94246343254453L53.16218181818182,117.28010069620551L53.16218181818182,115.82611490935236L53.16218181818182,116.86448231653367L53.16218181818182,117.96469115439717L53.16218181818182,118.5734746552154L53.16218181818182,119.64984872442827L53.16218181818182,121.0423852898783L53.16218181818182,121.3617599439855L53.16218181818182,119.60164378657474L53.16218181818182,118.52683497130494L53.16218181818182,117.79478050514416L53.16218181818182,117.3926466363551L53.16218181818182,118.11558208888329L53.16218181818182,119.02614991498935L53.16218181818182,120.31118086764906L53.16218181818182,120.74106167284242L53.16218181818182,121.42039906127161L53.16218181818182,120.89255684355226L53.16218181818182,120.986117228698L53.16218181818182,121.6122452434881L53.16218181818182,121.15788983183637L53.16218181818182,121.11825054505164L53.16218181818182,122.67375631844789L57.536,122.21467115839454L57.536,123.76152521364165L57.536,123.96813447974276L57.536,124.54218723512412L57.536,124.34322136455322L57.536,123.5225715940694L57.536,123.31053113161525L57.536,123.21940171097916L57.536,123.03553225385807L57.536,124.27305192401968L57.536,123.47708204690717L57.536,123.4478486473936L57.536,123.85769664299613L57.536,123.19703227492704L57.536,124.11354622165389L57.536,124.8975634003532L57.536,125.16721844605755L57.536,123.26072333773695L57.536,121.83403468852153L57.536,123.69587815404695L57.536,123.78947186947474L61.90981818181818,125.34108808248726L61.90981818181818,125.72248876219084L61.90981818181818,126.59730942452191L61.90981818181818,128.26320378493162L61.90981818181818,128.90937004867905L61.90981818181818,127.20166095406947L61.90981818181818,126.34329509771277L61.90981818181818,127.3853301173693L61.90981818181818,127.93984896864298L61.90981818181818,128.1805802644853L61.90981818181818,129.18889594140995L61.90981818181818,129.01748732970665L61.90981818181818,129.45377392828175L61.90981818181818,129.9703593297081L61.90981818181818,129.4418515132571L61.90981818181818,128.7500912214763L61.90981818181818,128.03916364608781L61.90981818181818,129.06488777925267L61.90981818181818,129.85380121796916L61.90981818181818,129.91921460479836L61.90981818181818,129.76040315033103L61.90981818181818,130.36714736359866L61.90981818181818,130.15779038935113L66.28363636363636,130.47960246919294L66.28363636363636,130.49531335276822L66.28363636363636,131.63072593735126L66.28363636363636,132.4172580422826L66.28363636363636,132.50567503965502L66.28363636363636,132.57755893476093L66.28363636363636,132.01129183278312L66.28363636363636,132.57960991202623L66.28363636363636,132.1255848396013L66.28363636363636,132.5831534141188L66.28363636363636,131.56196365554547L66.28363636363636,131.61180177825554L66.28363636363636,132.82718899086905L66.28363636363636,133.03165465271604L66.28363636363636,133.56523192946355L66.28363636363636,133.2971420150107L66.28363636363636,132.21731180881144L66.28363636363636,133.0905663476826L66.28363636363636,132.63905420280028L66.28363636363636,131.93994629376024L66.28363636363636,131.8748779322801L66.28363636363636,131.77969630754276L66.28363636363636,131.60880989571768L66.28363636363636,131.40780477027715L66.28363636363636,131.5764507635484L66.28363636363636,132.55764968703087L66.28363636363636,133.18906164706996L70.65745454545454,133.49010233473115L70.65745454545454,133.1203784934819L70.65745454545454,133.124831596634L70.65745454545454,132.46299135112628L70.65745454545454,133.1532992873085L70.65745454545454,133.6649002666153L70.65745454545454,134.29825692002825L70.65745454545454,134.83060059361043L70.65745454545454,135.98715923876304L70.65745454545454,135.88135304723937L70.65745454545454,136.00975943818497L70.65745454545454,134.26590065452137L70.65745454545454,134.6317616268245L70.65745454545454,135.6993358238023L70.65745454545454,133.78735957036764L70.65745454545454,133.01992460634756L70.65745454545454,134.1055181960231L70.65745454545454,134.7321064710507L70.65745454545454,134.8465507437201L70.65745454545454,134.5050160396459L70.65745454545454,134.3791009179443L75.03127272727274,134.78770412302038L75.03127272727274,135.52728182796952L75.03127272727274,135.03536079861507L75.03127272727274,135.25034961763583L75.03127272727274,135.90878423197418L75.03127272727274,136.6584112172335L75.03127272727274,137.05819478854613L75.03127272727274,138.11485677111955L75.03127272727274,138.76574077103584L75.03127272727274,138.54614330408714L75.03127272727274,138.99059341036306L75.03127272727274,139.87430914291247L75.03127272727274,140.9128217440642L75.03127272727274,139.54305754718888L75.03127272727274,138.58529106438988L75.03127272727274,138.4917797899445L75.03127272727274,139.2405087421091L79.4050909090909,139.15823390827092L79.4050909090909,139.26998392000542L79.4050909090909,139.26757681201775L79.4050909090909,139.46712697096703L79.4050909090909,139.39226809873446L79.4050909090909,139.8445381693947L79.4050909090909,140.1305587115173L79.4050909090909,139.58424589806904L79.4050909090909,139.32746858640797L79.4050909090909,138.25832227128674L79.4050909090909,139.15754438680173L79.4050909090909,139.01294457566482L79.4050909090909,139.63914794400893L79.4050909090909,140.3167526356341L79.4050909090909,141.14225226060657L79.4050909090909,141.35432224231846L79.4050909090909,141.10536168095612L79.4050909090909,141.17185501672787L79.4050909090909,140.57692605150447L79.4050909090909,140.91441799052058L83.77890909090908,140.8811654763801L83.77890909090908,141.13069258613206L83.77890909090908,140.91868700303138L83.77890909090908,141.1385762564325L83.77890909090908,141.67604016252724L83.77890909090908,141.85772368735186L83.77890909090908,140.7656023677361L83.77890909090908,141.49528976253546L83.77890909090908,141.160759213157L83.77890909090908,140.53910456012852L83.77890909090908,140.08528721477194L83.77890909090908,140.10445734578934L83.77890909090908,140.34650215655418L83.77890909090908,141.05163598608107L83.77890909090908,141.15926892328253L83.77890909090908,141.954428971143L88.15272727272728,142.35354121684875L88.15272727272728,142.73959314898445L88.15272727272728,142.5626171680189L88.15272727272728,142.8054449421723L88.15272727272728,142.30545421508094L88.15272727272728,142.12969752270277L88.15272727272728,142.08196784689247L88.15272727272728,141.87575897739043L88.15272727272728,141.98825273204662L88.15272727272728,142.2349158670113L88.15272727272728,142.59753022310065L88.15272727272728,142.3031406386714L88.15272727272728,141.96968102572362L88.15272727272728,142.441493937897L88.15272727272728,142.35639447213563L88.15272727272728,141.98782323879664L92.52654545454546,142.1905577476394L92.52654545454546,142.3816188277055L92.52654545454546,142.66649676072507L92.52654545454546,142.67363460115337L92.52654545454546,143.02862216763342L92.52654545454546,143.4845443539391L92.52654545454546,143.97577266127428L92.52654545454546,143.88475025837485L92.52654545454546,143.61702165776714L92.52654545454546,143.90866977157077L92.52654545454546,143.6928255228707L92.52654545454546,143.43219797574136L92.52654545454546,142.78571244782165L92.52654545454546,143.4407411183766L92.52654545454546,143.38814304278273L92.52654545454546,143.42083021692716L92.52654545454546,142.71941328830678L92.52654545454546,142.08540118763574L92.52654545454546,141.67627759868518L92.52654545454546,141.7404357348948L92.52654545454546,142.6627161295974L92.52654545454546,143.34045905914516L96.90036363636364,144.3283113738915L96.90036363636364,143.3994616152288L96.90036363636364,144.0720546082849L96.90036363636364,144.3192039650966L96.90036363636364,144.65367873063911L96.90036363636364,144.9024186272727L96.90036363636364,145.34006728355956L96.90036363636364,145.5140134481703L96.90036363636364,145.37986174334173L96.90036363636364,145.32112685214082L96.90036363636364,145.75658316633582L96.90036363636364,145.96941852447574L96.90036363636364,145.94785126670862L96.90036363636364,145.94362878983367L96.90036363636364,144.49811956085878L96.90036363636364,144.64154502951183L96.90036363636364,145.43852723106292L96.90036363636364,146.0393691010853L96.90036363636364,145.64662026934135L96.90036363636364,145.3227362356204L96.90036363636364,145.1287550329337L96.90036363636364,145.2186669545209L96.90036363636364,145.47031891835334L96.90036363636364,145.31254767881416L96.90036363636364,145.59927978680216L96.90036363636364,145.87264016581537L101.27418181818182,146.1032143362731L101.27418181818182,146.57917662180012L101.27418181818182,146.54890837278535L101.27418181818182,144.4474669981856L101.27418181818182,144.4821228630472L101.27418181818182,144.95677347775083L101.27418181818182,144.65761024632346L101.27418181818182,144.19266461250402L101.27418181818182,143.80064720764366L101.27418181818182,144.13077307875722L101.27418181818182,144.57576722134598L101.27418181818182,145.4422323633732L101.27418181818182,145.07913059652859L101.27418181818182,144.9025210086014L101.27418181818182,145.27016847725673L101.27418181818182,145.95735274744843L101.27418181818182,146.39176364315963L105.648,147.04982149179182L105.648,147.59696966678638L105.648,147.74382326273792L105.648,147.01194266004634L105.648,146.48473540616814L105.648,145.83351639296754L105.648,145.3349682940642L105.648,145.4872126633058L105.648,145.63656878247565L105.648,145.51544631474314L105.648,146.00221250543558L105.648,145.58534585852988L105.648,145.76657945867862L105.648,145.42128899288448L105.648,146.11730792069048L105.648,146.38957404720588L105.648,146.57626330436676L105.648,146.80110469119543L105.648,146.90160084648699L110.02181818181819,146.87054787798408L110.02181818181819,147.09083554200194L110.02181818181819,147.4340149886785L110.02181818181819,147.51166558514313L110.02181818181819,147.54908782742723L110.02181818181819,147.84807037586728L110.02181818181819,148.27901666922924L110.02181818181819,148.00957946308384L110.02181818181819,148.27686787218528L110.02181818181819,148.13324236062957L110.02181818181819,148.14309278875822L110.02181818181819,146.94824553312299L110.02181818181819,146.92216889467238L110.02181818181819,145.37048625741272L110.02181818181819,145.6899180131622L110.02181818181819,146.29326623165105L110.02181818181819,145.91647800597593L110.02181818181819,143.82380189631817L110.02181818181819,143.2623661077814L110.02181818181819,143.68907808482436L110.02181818181819,144.44049500552728L110.02181818181819,144.6676244628537L110.02181818181819,144.4054887520914L110.02181818181819,144.6651472628149L114.39563636363637,145.43977649953473L114.39563636363637,145.3979316695999L114.39563636363637,144.85783346398358L114.39563636363637,145.83256942092783L114.39563636363637,146.11284127855905L114.39563636363637,145.87935605819956L114.39563636363637,145.8555317951482L114.39563636363637,146.15990529113444L114.39563636363637,146.2581691649415L114.39563636363637,146.62817845229338L114.39563636363637,146.49826094193315L114.39563636363637,146.7881918289656L114.39563636363637,147.222286307055L114.39563636363637,147.4065224563775L114.39563636363637,147.77389293833696L114.39563636363637,147.77260995947782L114.39563636363637,148.07061353539407L114.39563636363637,148.152787454624L114.39563636363637,148.33756634909955L114.39563636363637,148.7633868977327L114.39563636363637,148.77630349274747L114.39563636363637,149.00408150687377L114.39563636363637,148.78293168749394L114.39563636363637,149.07430666670817L114.39563636363637,149.23852753939266L118.76945454545454,149.34798619456345L118.76945454545454,149.41916138348657L118.76945454545454,149.57261322022495L118.76945454545454,149.26177446262932L118.76945454545454,148.5379330863615L118.76945454545454,147.99466287082333L118.76945454545454,148.11633857878928L118.76945454545454,148.48846398875463L118.76945454545454,148.9511861475862L118.76945454545454,149.25017657150866L118.76945454545454,149.2199867339845L118.76945454545454,149.44224862618074L118.76945454545454,149.5633381956945L118.76945454545454,149.6393067222784L118.76945454545454,149.67113508332082L118.76945454545454,149.71294230742276L118.76945454545454,149.8022081236943L118.76945454545454,149.7827185168277L118.76945454545454,149.66574537770074L118.76945454545454,149.5667899867559L118.76945454545454,149.39937892909788L118.76945454545454,149.33288107630656L118.76945454545454,149.2724534892528L118.76945454545454,149.49458437549978L118.76945454545454,149.6084007348753L118.76945454545454,148.70319824136723L123.14327272727273,148.43103190400726L123.14327272727273,148.0960916992524L123.14327272727273,148.02395000586813L123.14327272727273,148.27193918587193L123.14327272727273,148.57852719514915L123.14327272727273,148.59834176736803L123.14327272727273,148.93538548537816L123.14327272727273,149.18090186325358L123.14327272727273,149.47535926792017L123.14327272727273,149.21131595603106L123.14327272727273,145.88579505774064L123.14327272727273,143.03454412440436L123.14327272727273,144.52737461106585L123.14327272727273,144.68485869741312L123.14327272727273,143.56370736403875L123.14327272727273,143.48946684175786L123.14327272727273,144.14256565952545L123.14327272727273,144.67365812818107L123.14327272727273,145.45518536726013L123.14327272727273,146.00291440315132L123.14327272727273,146.45451715197413L123.14327272727273,147.26956753911452L123.14327272727273,147.71159376359319L123.14327272727273,147.80187795855585L123.14327272727273,147.86222059849703L123.14327272727273,147.90225290923775L123.14327272727273,147.6464956248608L127.51709090909091,148.18375655219285L127.51709090909091,148.38673513458932L127.51709090909091,148.77758714930212L127.51709090909091,149.25658789970151L127.51709090909091,149.64956947994327L127.51709090909091,149.5725947844594L127.51709090909091,149.66036210240216L127.51709090909091,150.03475381810665L127.51709090909091,150.36972102679337L127.51709090909091,150.258814614773L127.51709090909091,150.4686088788963L127.51709090909091,150.36272086976663L127.51709090909091,150.40932025030915L127.51709090909091,150.13196169474298L127.51709090909091,149.47228534033755L127.51709090909091,148.15662796882643L131.8909090909091,147.24283859820284L131.8909090909091,146.0049651076063L131.8909090909091,145.8108221018917L131.8909090909091,146.13798369809754L131.8909090909091,146.77563210574476L131.8909090909091,146.97798128490467L131.8909090909091,147.02400571424286L131.8909090909091,146.87079919817364L131.8909090909091,147.41352032518944L131.8909090909091,147.64674334378665L131.8909090909091,148.20864732125204L131.8909090909091,148.8799883738487L131.8909090909091,149.3136157432129L131.8909090909091,149.49353217499106L131.8909090909091,149.99597929851654L131.8909090909091,150.2370361822056L131.8909090909091,149.6163263907837L131.8909090909091,149.22870708351542L131.8909090909091,149.28484810249384L136.26472727272727,149.3485963437261L136.26472727272727,149.99042025429463L136.26472727272727,150.40693380301659L136.26472727272727,150.63262213008764L136.26472727272727,151.02708582271865L136.26472727272727,151.1620452644584L136.26472727272727,151.00456918883418L136.26472727272727,151.13703600445572L136.26472727272727,151.10036857390168L136.26472727272727,150.8088174045207L136.26472727272727,151.06850656698703L136.26472727272727,151.2086543360194L136.26472727272727,151.0700273306181L136.26472727272727,150.89726018214347L136.26472727272727,151.2887598242152L136.26472727272727,151.1316214060023L136.26472727272727,150.69827719846327L136.26472727272727,150.75728340678705L136.26472727272727,151.17205599182358L136.26472727272727,151.37335619499424L136.26472727272727,151.51129969737875L136.26472727272727,151.3804263993739L136.26472727272727,151.30056241521226L136.26472727272727,150.9932786075438L136.26472727272727,150.35706553231415L140.63854545454546,150.58297876771255L140.63854545454546,150.41785935354503L140.63854545454546,150.81936576783932L140.63854545454546,151.19361903312483L140.63854545454546,150.7281019766585L140.63854545454546,150.4441180049568L140.63854545454546,150.92796174292326L140.63854545454546,150.95114184628656L140.63854545454546,150.53554739236876L140.63854545454546,150.69600515061651L140.63854545454546,150.4912864073016L140.63854545454546,150.86012215942284L140.63854545454546,150.63529475868523L140.63854545454546,150.3319940440845L140.63854545454546,150.25638199167713L140.63854545454546,150.45097374878472L140.63854545454546,150.4084785287261L140.63854545454546,151.05143473468559L140.63854545454546,151.4425191403817L145.01236363636366,151.70123566406969L145.01236363636366,151.4753779000233L145.01236363636366,151.41394350226702L145.01236363636366,151.11357830349266L145.01236363636366,151.04144780780345L145.01236363636366,151.4505875959384L145.01236363636366,151.57901957810853L145.01236363636366,151.55627973414914L145.01236363636366,151.50983420185918L145.01236363636366,151.37531177141406L145.01236363636366,151.18751055967158L145.01236363636366,151.12511168198859L145.01236363636366,151.25686643634606L145.01236363636366,151.56008060647832L145.01236363636366,151.63517859260517L145.01236363636366,151.53923007879462L145.01236363636366,151.4368289188271L145.01236363636366,151.5953690340905L149.3861818181818,151.9453142325027L149.3861818181818,151.78382265526145L149.3861818181818,151.92581829194614L149.3861818181818,152.0458261655959L149.3861818181818,152.28361764709197L149.3861818181818,152.53457160508168L149.3861818181818,152.07620261376238L149.3861818181818,150.2308382349464L149.3861818181818,149.08033526096597L149.3861818181818,148.06113096272944L149.3861818181818,148.59057075720204L149.3861818181818,149.23322209191014L149.3861818181818,149.29079052017647L149.3861818181818,149.51335843842483L149.3861818181818,149.45363809741502L149.3861818181818,149.6409785676759L149.3861818181818,149.93001514802467L149.3861818181818,150.17216026311024L149.3861818181818,150.5102144791965L149.3861818181818,150.97666092128702L149.3861818181818,151.29505934601195L149.3861818181818,151.67302508685333L153.76,151.29710671857836L153.76,151.14149171000022L153.76,150.68029831642605L153.76,150.72570225272872L153.76,150.6273989543408L153.76,150.3060714642299L153.76,150.20888121333917L153.76,150.3624804663858L153.76,150.81744038087194L153.76,151.25299174978034L153.76,151.71088416531742L153.76,152.18026234455908L153.76,152.38419815148194L153.76,152.50894503649712L153.76,152.47191462254875L153.76,152.3135774215199L153.76,152.279219011636L158.13381818181819,152.1413684502261L158.13381818181819,152.06347407100859L158.13381818181819,152.2212138080997L158.13381818181819,152.55593846813167L158.13381818181819,152.74371428856367L158.13381818181819,152.9919961126219L158.13381818181819,153.07771849642057L158.13381818181819,153.15509211330024L158.13381818181819,153.36422116357892L158.13381818181819,153.38359799027015L158.13381818181819,153.0507266120508L158.13381818181819,153.11016416153674L158.13381818181819,153.0403095172185L158.13381818181819,153.27340061823506L158.13381818181819,153.25138897985286L158.13381818181819,153.2519186081962L158.13381818181819,153.5473914725211L158.13381818181819,153.6592088776079L158.13381818181819,153.49851368182502L158.13381818181819,153.21108009114496L158.13381818181819,153.4666301310112L158.13381818181819,153.76620602765414L158.13381818181819,153.45371142174537L162.50763636363635,153.38567106636785L162.50763636363635,153.39620058508217L162.50763636363635,153.09905618518707L162.50763636363635,152.667063272105L162.50763636363635,152.79433054376568L162.50763636363635,152.98408534244712L162.50763636363635,153.1595628320974L162.50763636363635,153.00812356282935L162.50763636363635,152.80020356665906L162.50763636363635,152.65728553486966L162.50763636363635,152.45032927495515L162.50763636363635,151.9073547692819L162.50763636363635,151.9596546084707L162.50763636363635,152.2415808015407L162.50763636363635,152.64935078746905L162.50763636363635,152.96875323383762L162.50763636363635,153.20798292096998L166.88145454545455,153.27637967224095L166.88145454545455,153.34363222755982L166.88145454545455,153.18639623556885L166.88145454545455,152.59869657256726L166.88145454545455,152.55339679046708L166.88145454545455,152.58657392460867L166.88145454545455,152.71022963487493L166.88145454545455,152.58543141173698L166.88145454545455,152.72608576520764L166.88145454545455,152.7837761503421L166.88145454545455,152.98433859034623L166.88145454545455,153.32209496487346L166.88145454545455,153.57454712890274L166.88145454545455,153.73979737569954L166.88145454545455,153.9936056999938L166.88145454545455,154.22807376606355L166.88145454545455,154.36986784057726L166.88145454545455,154.4626414391749L171.25527272727274,154.43287567230405L171.25527272727274,154.53214077323508L171.25527272727274,154.50539102440422L171.25527272727274,154.49999051027459L171.25527272727274,154.44732969919545L171.25527272727274,154.40426298019614L171.25527272727274,154.33175274944105L171.25527272727274,154.34328211476335L171.25527272727274,154.12576581817933L171.25527272727274,154.1679884521304L171.25527272727274,154.32879473647313L171.25527272727274,154.4079337557621L171.25527272727274,154.44260369890873L171.25527272727274,154.53987397994152L171.25527272727274,154.5913168323028L171.25527272727274,154.77688533373143L171.25527272727274,154.64612356176633L171.25527272727274,154.62850824859208L171.25527272727274,154.7219071392637L171.25527272727274,154.81362531216666L171.25527272727274,154.8340408784872L171.25527272727274,154.58469778962467L175.6290909090909,154.28107807784926L175.6290909090909,154.04692028467784L175.6290909090909,154.1542096630234L175.6290909090909,154.0968912139683L175.6290909090909,154.31044862143844L175.6290909090909,154.50589999411665L175.6290909090909,154.27684383596187L175.6290909090909,153.856194465597L175.6290909090909,153.567605938334L175.6290909090909,153.46878732497575L175.6290909090909,153.49935540133055L175.6290909090909,153.3667146867899L175.6290909090909,153.2737583516689L175.6290909090909,153.41186625572175L175.6290909090909,153.5136098251597L175.6290909090909,153.7504802650345L175.6290909090909,153.8346942029283L175.6290909090909,153.97410519101118L180.0029090909091,153.72051448612604L180.0029090909091,153.72752373248233L180.0029090909091,153.8915458890336L180.0029090909091,154.08244230436873L180.0029090909091,154.22760456731407L180.0029090909091,154.46398648463L180.0029090909091,154.68302633902982L180.0029090909091,154.95690501495176L180.0029090909091,155.0070045791849L180.0029090909091,155.02637784473168L180.0029090909091,155.04471426754992L180.0029090909091,155.1401555788522L180.0029090909091,155.2687747392327L180.0029090909091,155.2989563642061L180.0029090909091,155.21597430791948L180.0029090909091,155.26379025488706L180.0029090909091,155.4230756453485L180.0029090909091,155.2118239723157L180.0029090909091,155.14071370911563L180.0029090909091,155.0286120959869L184.37672727272727,154.96738477457012L184.37672727272727,154.78902032638885L184.37672727272727,154.37135616056568L184.37672727272727,153.86048474716807L184.37672727272727,153.18769793513837L184.37672727272727,152.87883270644716L184.37672727272727,152.73696175025387L184.37672727272727,152.7717840217921L184.37672727272727,152.99243985926321L184.37672727272727,153.22987928229676L184.37672727272727,153.4503429376765L184.37672727272727,153.72765957953195L184.37672727272727,153.9756532013602L184.37672727272727,154.12980212163527L184.37672727272727,154.35592866789082L184.37672727272727,154.38587515437354L184.37672727272727,154.37420496129553L188.75054545454543,154.35763190397242L188.75054545454543,154.34240625648366L188.75054545454543,154.49194092536632L188.75054545454543,154.62429975210918L188.75054545454543,154.83971014261118L188.75054545454543,155.05471532181755L188.75054545454543,155.0915092925731L188.75054545454543,155.1122796528442L188.75054545454543,155.0349915344009L188.75054545454543,155.02966985047482L188.75054545454543,155.1390902334969L188.75054545454543,155.10273451130544L188.75054545454543,155.18393346958686L188.75054545454543,155.40336709242445L188.75054545454543,155.4789207047257L188.75054545454543,155.32716144649453L188.75054545454543,155.2342308031158L188.75054545454543,155.1303277830414L188.75054545454543,155.2333834221857L188.75054545454543,155.3421854191552L193.12436363636363,155.30810833028428L193.12436363636363,155.20186842943366L193.12436363636363,155.11387021759137L193.12436363636363,154.7223681165607L193.12436363636363,154.58502169018016L193.12436363636363,154.63051830815192L193.12436363636363,154.48918950341695L193.12436363636363,154.27840236860018L193.12436363636363,154.28538080620788L193.12436363636363,154.2766021094672L193.12436363636363,154.47188070865548L193.12436363636363,154.4801931188462L193.12436363636363,154.78792534021719L193.12436363636363,155.03487215887398L193.12436363636363,155.08438413552716L193.12436363636363,155.1553346533331L197.49818181818182,155.154894777548L197.49818181818182,155.18233708286573L197.49818181818182,155.18716523275415L197.49818181818182,155.29472914118L197.49818181818182,155.13393865546763L197.49818181818182,155.30815185222585L197.49818181818182,155.05559464036708L197.49818181818182,154.85084713448845L197.49818181818182,154.75090012237757L197.49818181818182,154.80420562998634L197.49818181818182,154.89749931903563L197.49818181818182,154.84287036982184L197.49818181818182,154.99081159495066L197.49818181818182,155.17491124984645L197.49818181818182,155.26458421737343L197.49818181818182,155.36314303944113L197.49818181818182,155.36925026111155L197.49818181818182,155.39930097718667L201.87199999999999,155.58825205810777L201.87199999999999,155.66931239844658L201.87199999999999,155.728410335896L201.87199999999999,155.84719792716308L201.87199999999999,155.70622622934977L201.87199999999999,155.49978846513278L201.87199999999999,155.6002453269767L201.87199999999999,155.65550093472262L201.87199999999999,155.73531766466445L201.87199999999999,155.83271763279765L201.87199999999999,155.70260859636312L201.87199999999999,155.39486661122206L201.87199999999999,155.11230431389643L201.87199999999999,154.68443527987358L201.87199999999999,154.18403531624566L201.87199999999999,153.95820778770283L201.87199999999999,154.23948622058467L201.87199999999999,154.45677214753368L201.87199999999999,154.56594715206217L201.87199999999999,154.79167635974457L201.87199999999999,154.99026598704407L201.87199999999999,155.19357183268312L206.24581818181818,154.69463841577178L206.24581818181818,154.19967268462327L206.24581818181818,154.1314946264598L206.24581818181818,154.17527524977822L206.24581818181818,154.3525846748222L206.24581818181818,154.56835331581823L206.24581818181818,154.66230048240496L206.24581818181818,154.76077314679387L206.24581818181818,154.98887009022843L206.24581818181818,155.15400934939248L206.24581818181818,155.3602410472106L206.24581818181818,155.6049840099285L206.24581818181818,155.3132107715477L210.61963636363637,155.36554980298132L210.61963636363637,155.36329120885532L210.61963636363637,155.33214300549324L210.61963636363637,155.28342755419197L210.61963636363637,155.3511328260333L210.61963636363637,155.371540275667L210.61963636363637,155.51375289338648L210.61963636363637,155.5216869239516L210.61963636363637,155.46659852668034L210.61963636363637,155.33398882722554L210.61963636363637,155.25013224198418L210.61963636363637,155.32433223987152L210.61963636363637,155.38771528524202L210.61963636363637,155.42301364470094L210.61963636363637,155.38508151991647L210.61963636363637,155.48477808793575L210.61963636363637,155.59203722522003L210.61963636363637,155.539067543143L210.61963636363637,155.53465580729062L210.61963636363637,155.5936769088004L210.61963636363637,155.4920949545574L210.61963636363637,155.2723454418469L214.99345454545457,154.99133151222793L214.99345454545457,154.42565611931224L214.99345454545457,154.6540965872112L214.99345454545457,154.88132616088987L214.99345454545457,154.97452703434314L214.99345454545457,155.06500637520713L214.99345454545457,155.08180016966674L214.99345454545457,155.10026741015378L214.99345454545457,155.1229690665573L214.99345454545457,155.11762959638506L214.99345454545457,155.24935821633454L214.99345454545457,155.36870282738752L214.99345454545457,155.4673197301627L214.99345454545457,155.5290027420175L214.99345454545457,155.55503226331095L214.99345454545457,155.5822052515486L219.36727272727273,155.55760624687906L219.36727272727273,155.32054130496078L219.36727272727273,155.4323341344698L219.36727272727273,155.4037953865338L219.36727272727273,155.53165251657563L219.36727272727273,155.54724964951694L219.36727272727273,155.72581268208629L219.36727272727273,155.76035509128886L219.36727272727273,155.79355478441747L219.36727272727273,155.65216406656566L219.36727272727273,155.49955549887864L219.36727272727273,155.4190683742413L219.36727272727273,155.5126631374215L219.36727272727273,155.60262770565976L219.36727272727273,155.661981059215L219.36727272727273,155.6650036670702L219.36727272727273,155.57941152622777L219.36727272727273,155.48682163457931L219.36727272727273,155.54997728861312L219.36727272727273,155.73614104346632L219.36727272727273,155.85757695666732L219.36727272727273,155.84572198922754L223.7410909090909,155.70542440246612L223.7410909090909,155.59553516351474L223.7410909090909,155.56718561380222L223.7410909090909,155.6173522401369L223.7410909090909,155.86580523473685L223.7410909090909,155.9820334315994L223.7410909090909,156.02924015805917L223.7410909090909,155.99327879267582L223.7410909090909,155.84362105609594L223.7410909090909,155.79235384044324L223.7410909090909,155.67725825690195L223.7410909090909,155.6500233483461L223.7410909090909,155.38378275945985L223.7410909090909,155.19133216511224L223.7410909090909,155.12396292522902L223.7410909090909,155.02640850472525L223.7410909090909,155.01170718003854L228.1149090909091,155.02177275654228L228.1149090909091,154.99818387087714L228.1149090909091,155.00757171507115L228.1149090909091,155.13266355900709L228.1149090909091,155.28700174660077L228.1149090909091,155.1999976378277L228.1149090909091,155.16746369140793L228.1149090909091,155.21318712847162L228.1149090909091,155.25987633668868L228.1149090909091,155.2536049955988L228.1149090909091,155.38161504029694L228.1149090909091,155.120814545326L228.1149090909091,155.385785108171L228.1149090909091,155.58743351964446L228.1149090909091,155.81320397584335L228.1149090909091,155.97268878130748L228.1149090909091,156.11623610724521L232.48872727272726,156.1359739636918L232.48872727272726,156.17155792013327L232.48872727272726,156.16451601947097L232.48872727272726,156.1793090236407L232.48872727272726,155.4456618470498L232.48872727272726,154.93122238498978L232.48872727272726,154.60248553724975L232.48872727272726,154.652553093567L232.48872727272726,154.84549559032368L232.48872727272726,154.8954372644253L232.48872727272726,154.74495908512296L232.48872727272726,154.9163930251139L232.48872727272726,155.0904150769543L232.48872727272726,155.21239892467352L232.48872727272726,155.29232994226646L232.48872727272726,155.11179912749645L232.48872727272726,155.13218753312233L232.48872727272726,155.09143024256232L232.48872727272726,155.2971970572273L232.48872727272726,155.44766693017348L232.48872727272726,155.64180978137665L236.86254545454545,155.56778732674073L236.86254545454545,155.54866583184156L236.86254545454545,155.61049587952138L236.86254545454545,155.62739874746927L236.86254545454545,155.58093612769696L236.86254545454545,155.7206643187769L236.86254545454545,155.80668229213126L236.86254545454545,155.88441242393145L236.86254545454545,155.85518390568708L236.86254545454545,155.94871785995238L236.86254545454545,155.8531123807062L236.86254545454545,155.87566485121198L236.86254545454545,155.86490288820292L236.86254545454545,155.92987929914358L236.86254545454545,156.00606479018342L236.86254545454545,155.82684313895396L236.86254545454545,155.38747484472503L236.86254545454545,154.90714582839257L236.86254545454545,154.96248339440655L236.86254545454545,155.1529952544025L236.86254545454545,155.347658219937L236.86254545454545,155.56228750482273L236.86254545454545,155.70517861820534L236.86254545454545,155.8442854675909L236.86254545454545,155.9989720740432L236.86254545454545,156.04298542642388L236.86254545454545,155.92556550071794L236.86254545454545,155.8396659840417L236.86254545454545,155.711371923413L236.86254545454545,155.7250306635146" style="fill: none;" fill="none"></path></g></g></g></g><g opacity="0.2"><g><g><g><path stroke="rgb(255, 112, 67)" stroke-width="2px" d="M31.293090909090907,-21.63791766431595L31.293090909090907,1.754209541612198L31.293090909090907,2.234700381755829L31.293090909090907,-8.965657881564567L31.293090909090907,11.225778855383396L31.293090909090907,24.133320005403647L31.293090909090907,13.564777909881542L31.293090909090907,23.443279826806673L31.293090909090907,26.756642321745574L31.293090909090907,15.896703879866322L31.293090909090907,23.084016866154144L31.293090909090907,27.84193714625306L31.293090909090907,38.39724483754901L31.293090909090907,47.95974196824764L35.666909090909094,14.079814505245963L35.666909090909094,50.221738340954005L35.666909090909094,52.7222671210766L35.666909090909094,49.630739765034804L35.666909090909094,32.85125584817595L35.666909090909094,38.47219374610319L35.666909090909094,66.86869402064218L35.666909090909094,64.08359331554838L35.666909090909094,31.58916154007119L35.666909090909094,56.09743621779813L35.666909090909094,64.47044867359931L35.666909090909094,48.0416626541151L35.666909090909094,69.62902051044836L35.666909090909094,45.04924136896929L35.666909090909094,74.92907245705527L35.666909090909094,79.92959585206377L35.666909090909094,68.07596271402308L40.040727272727274,70.77874671419463L40.040727272727274,73.09473061478802L40.040727272727274,87.0114572528336L40.040727272727274,79.26968075086674L40.040727272727274,88.04075682494377L40.040727272727274,89.51311883164777L40.040727272727274,96.71919667431051L40.040727272727274,86.5345904475285L40.040727272727274,79.9192993566394L40.040727272727274,92.47347178310157L40.040727272727274,99.48978742543194L40.040727272727274,89.35577493533494L40.040727272727274,84.46358117130067L40.040727272727274,98.04161942005159L44.414545454545454,76.81206017484269L44.414545454545454,82.37606342633566L44.414545454545454,97.93863144144417L44.414545454545454,92.62233350384567L44.414545454545454,100.38813823171789L44.414545454545454,102.23576052693858L44.414545454545454,95.86904507088992L44.414545454545454,93.16518813537228L44.414545454545454,98.72042831405999L44.414545454545454,99.67536840132541L44.414545454545454,100.72301378639209L44.414545454545454,79.52368553065592L44.414545454545454,109.46420884132387L44.414545454545454,107.0554828039474L44.414545454545454,109.92972003047666L44.414545454545454,108.84416733309628L44.414545454545454,104.83816290646793L44.414545454545454,103.5431529680888L48.788363636363634,108.63510150627958L48.788363636363634,97.99010931369332L48.788363636363634,113.19021858647467L48.788363636363634,116.09162916698389L48.788363636363634,115.55038163604009L48.788363636363634,108.62795934867529L48.788363636363634,105.88230398338703L48.788363636363634,107.09128568942349L48.788363636363634,104.60328216312661L48.788363636363634,107.28248921492035L48.788363636363634,115.96823239243693L48.788363636363634,114.34795726877121L48.788363636363634,104.98960796081359L48.788363636363634,120.0327808685187L48.788363636363634,120.38763005865945L48.788363636363634,115.58953686886363L48.788363636363634,113.05173624886407L48.788363636363634,117.66652787476778L48.788363636363634,117.5204290776617L48.788363636363634,108.07549434776108L48.788363636363634,117.27736087060637L48.788363636363634,120.80229424312711L48.788363636363634,119.50495423914658L48.788363636363634,115.66963402513002L48.788363636363634,106.05949948603909L53.16218181818182,113.91260339112746L53.16218181818182,112.37852688009541L53.16218181818182,114.22316061291431L53.16218181818182,114.34364710789589L53.16218181818182,123.8119561717742L53.16218181818182,122.63064975084531L53.16218181818182,110.01017176194324L53.16218181818182,121.01795194525687L53.16218181818182,122.36552650584943L53.16218181818182,121.0086086584876L53.16218181818182,123.95534500127866L53.16218181818182,126.61253155167734L53.16218181818182,122.63925856041412L53.16218181818182,112.56117915693257L53.16218181818182,114.22759971022606L53.16218181818182,114.8665626405014L53.16218181818182,115.7841111611989L53.16218181818182,121.00732389899592L53.16218181818182,122.66842121941349L53.16218181818182,125.45130467828778L53.16218181818182,122.46058489361572L53.16218181818182,124.1377486149884L53.16218181818182,118.78118797267477L53.16218181818182,121.36035876928105L53.16218181818182,124.1167573026485L53.16218181818182,119.34046818522944L53.16218181818182,120.95969339791273L53.16218181818182,128.89577941203282L57.536,120.37833051818113L57.536,129.9489414346301L57.536,124.7945715441472L57.536,126.83839825664958L57.536,123.54735788226955L57.536,120.23997251213424L57.536,122.4623692817986L57.536,122.85488402843475L57.536,122.30005442537367L57.536,129.22313060466615L57.536,120.2932025384572L57.536,123.33091504933934L57.536,125.49708862540623L57.536,120.55437480265068L57.536,127.7796020085613L57.536,128.0336321151505L57.536,126.24583862887489L57.536,115.63474290445447L57.536,116.1272800916599L57.536,131.14325201614864L57.536,124.16384673118591L61.90981818181818,131.54755293453735L61.90981818181818,127.24809148100516L61.90981818181818,130.0965920738462L61.90981818181818,134.92678122657043L61.90981818181818,131.49403510366878L61.90981818181818,120.37082457563116L61.90981818181818,122.909831672286L61.90981818181818,131.55347019599543L61.90981818181818,130.15792437373764L61.90981818181818,129.1435054478546L61.90981818181818,133.22215864910848L61.90981818181818,128.33185288289354L61.90981818181818,131.19892032258213L61.90981818181818,132.03670093541345L61.90981818181818,127.32782024745313L61.90981818181818,125.98305005435316L61.90981818181818,125.19545334453385L61.90981818181818,133.16778431191213L61.90981818181818,133.00945497283504L61.90981818181818,130.1808681521151L61.90981818181818,129.12515733246175L61.90981818181818,132.79412421666913L61.90981818181818,129.320362492361L66.28363636363636,131.7668507885602L66.28363636363636,130.55815688706934L66.28363636363636,136.17237627568346L66.28363636363636,135.56338646200797L66.28363636363636,132.85934302914475L66.28363636363636,132.86509451518458L66.28363636363636,129.74622342487177L66.28363636363636,134.85288222899868L66.28363636363636,130.30948454990155L66.28363636363636,134.41342771218882L66.28363636363636,127.4772046212521L66.28363636363636,131.81115426909594L66.28363636363636,137.68873784132302L66.28363636363636,133.8495173001041L66.28363636363636,135.69954103645352L66.28363636363636,132.22478235719933L66.28363636363636,127.89799098401434L66.28363636363636,136.5835845031672L66.28363636363636,130.83300562327108L66.28363636363636,129.14351465760006L66.28363636363636,131.6146044863595L66.28363636363636,131.3989698085934L66.28363636363636,130.92526424841748L66.28363636363636,130.60378426851497L66.28363636363636,132.2510347366333L66.28363636363636,136.4824453809609L66.28363636363636,135.7147094872263L70.65745454545454,134.69426508537597L70.65745454545454,131.64148312848477L70.65745454545454,133.14264400924247L70.65745454545454,129.81563036909535L70.65745454545454,135.91453103203742L70.65745454545454,135.7113041838424L70.65745454545454,136.83168353368012L70.65745454545454,136.95997528793913L70.65745454545454,140.61339381937353L70.65745454545454,135.45812828114464L70.65745454545454,136.52338500196737L70.65745454545454,127.29046551986701L70.65745454545454,136.09520551603703L70.65745454545454,139.96963261171348L70.65745454545454,126.13945455662906L70.65745454545454,129.9501847502672L70.65745454545454,138.44789255472523L70.65745454545454,137.2384595711612L70.65745454545454,135.30432783439755L70.65745454545454,133.13887722334928L70.65745454545454,133.8754404311379L75.03127272727274,136.42211694332462L75.03127272727274,138.48559264776608L75.03127272727274,133.06767668119736L75.03127272727274,136.11030489371882L75.03127272727274,138.5425226893276L75.03127272727274,139.6569191582708L75.03127272727274,138.6573290737967L75.03127272727274,142.3415047014132L75.03127272727274,141.36927677070102L75.03127272727274,137.66775343629223L75.03127272727274,140.76839383546678L75.03127272727274,143.4091720731101L75.03127272727274,145.06687214867108L75.03127272727274,134.0640007596877L75.03127272727274,134.75422513319387L75.03127272727274,138.11773469216294L75.03127272727274,142.23542455076756L79.4050909090909,138.82913457291824L79.4050909090909,139.7169839669433L79.4050909090909,139.25794838006712L79.4050909090909,140.26532760676412L79.4050909090909,139.09283260980413L79.4050909090909,141.65361845203572L79.4050909090909,141.27464088000772L79.4050909090909,137.39899464427597L79.4050909090909,138.30035933976373L79.4050909090909,133.98173701080185L79.4050909090909,142.75443284886165L79.4050909090909,138.4345453311172L79.4050909090909,142.14396141738527L79.4050909090909,143.02717140213483L79.4050909090909,144.4442507604965L79.4050909090909,142.20260216916603L79.4050909090909,140.10951943550674L79.4050909090909,141.437828359815L79.4050909090909,138.19721019061075L79.4050909090909,142.264385746585L83.77890909090908,140.74815541981823L83.77890909090908,142.1288010251398L83.77890909090908,140.07066467062882L83.77890909090908,142.01813327003686L83.77890909090908,143.8258957869063L83.77890909090908,142.5844577866503L83.77890909090908,136.3971170892732L83.77890909090908,144.41403934173286L83.77890909090908,139.82263701564324L83.77890909090908,138.05248594801458L83.77890909090908,138.27001783334546L83.77890909090908,140.1811378698589L83.77890909090908,141.31468139961362L83.77890909090908,143.87217130418867L83.77890909090908,141.58980067208824L83.77890909090908,145.13506916258484L88.15272727272728,143.94999019967184L88.15272727272728,144.28380087752723L88.15272727272728,141.8547132441567L88.15272727272728,143.7767560387858L88.15272727272728,140.30549130671554L88.15272727272728,141.42667075319008L88.15272727272728,141.8910491436513L88.15272727272728,141.0509234993822L88.15272727272728,142.43822775067142L88.15272727272728,143.22156840686998L88.15272727272728,144.0479876474581L88.15272727272728,141.1255823009544L88.15272727272728,140.63584257393248L88.15272727272728,144.32874558659063L88.15272727272728,142.0159966090901L88.15272727272728,140.5135383054407L92.52654545454546,143.00149578301028L92.52654545454546,143.14586314796986L92.52654545454546,143.80600849280341L92.52654545454546,142.70218596286657L92.52654545454546,144.44857243355364L92.52654545454546,145.30823309916175L92.52654545454546,145.940685890615L92.52654545454546,143.52066064677717L92.52654545454546,142.54610725533632L92.52654545454546,145.07526222678524L92.52654545454546,142.82944852807043L92.52654545454546,142.38968778722403L92.52654545454546,140.19977033614285L92.52654545454546,146.06085580059639L92.52654545454546,143.17775074040725L92.52654545454546,143.5515789135049L92.52654545454546,139.9137455738253L92.52654545454546,139.54935278495154L92.52654545454546,140.03978324288295L92.52654545454546,141.99706827973327L92.52654545454546,146.3518377084078L92.52654545454546,146.05143077733618L96.90036363636364,148.27972063287677L96.90036363636364,139.68406258057803L96.90036363636364,146.76242658050938L96.90036363636364,145.30780139234332L96.90036363636364,145.99157779280924L96.90036363636364,145.89737821380712L96.90036363636364,147.09066190870686L96.90036363636364,146.20979810661328L96.90036363636364,144.84325492402746L96.90036363636364,145.08618728733725L96.90036363636364,147.49840842311582L96.90036363636364,146.8207599570354L96.90036363636364,145.86158223564013L96.90036363636364,145.92673888233386L96.90036363636364,138.7160826449593L96.90036363636364,145.215246904124L96.90036363636364,148.62645603726722L96.90036363636364,148.44273658117487L96.90036363636364,144.0756249423656L96.90036363636364,144.02720010073648L96.90036363636364,144.35283022218695L96.90036363636364,145.5783146408697L96.90036363636364,146.47692677368306L96.90036363636364,144.6814627206574L96.90036363636364,146.74620821875416L96.90036363636364,146.96608168186827L101.27418181818182,147.02551101810403L101.27418181818182,148.4830257639082L101.27418181818182,146.42783537672625L101.27418181818182,136.04170149978665L101.27418181818182,144.62074632249357L101.27418181818182,146.8553759365653L101.27418181818182,143.460957320614L101.27418181818182,142.3328820772262L101.27418181818182,142.23257758820222L101.27418181818182,145.45127656321145L101.27418181818182,146.35574379170106L101.27418181818182,148.90809293148212L101.27418181818182,143.6267235291501L101.27418181818182,144.19608265689266L101.27418181818182,146.74075835187816L101.27418181818182,148.7060898282151L101.27418181818182,148.12940722600453L105.648,149.6820528863205L105.648,149.78556236676457L105.648,148.33123764654414L105.648,144.08442024928002L105.648,144.37590639065536L105.648,143.22864034016513L105.648,143.34077589845077L105.648,146.0961901402722L105.648,146.23399325915508L105.648,145.03095644381312L105.648,147.94927726820526L105.648,143.91787927090706L105.648,146.49151385927365L105.648,144.0401271297079L105.648,148.90138363191443L105.648,147.47863855326756L105.648,147.32302033301028L105.648,147.7004702385101L105.648,147.30358546765314L110.02181818181819,146.74633600397243L110.02181818181819,147.97198619807347L110.02181818181819,148.80673277538477L110.02181818181819,147.82226797100157L110.02181818181819,147.69877679656364L110.02181818181819,149.0440005696275L110.02181818181819,150.00280184267712L110.02181818181819,146.93183063850222L110.02181818181819,149.34602150859104L110.02181818181819,147.55874031440666L110.02181818181819,148.18249450127286L110.02181818181819,142.1688565105821L110.02181818181819,146.81786234087002L110.02181818181819,139.16375570837408L110.02181818181819,146.96764503616012L110.02181818181819,148.70665910560638L110.02181818181819,144.40932510327548L110.02181818181819,135.45309745768708L110.02181818181819,141.01662295363428L110.02181818181819,145.39592599299633L110.02181818181819,147.44616268833892L110.02181818181819,145.57614229215932L110.02181818181819,143.35694590904234L110.02181818181819,145.70378130570882L114.39563636363637,148.53829344641417L114.39563636363637,145.2305523498605L114.39563636363637,142.69744064151826L114.39563636363637,149.7315132487048L114.39563636363637,147.23392870908395L114.39563636363637,144.94541517676166L114.39563636363637,145.76023474294277L114.39563636363637,147.37739927507937L114.39563636363637,146.65122466016976L114.39563636363637,148.10821560170086L114.39563636363637,145.97859090049235L114.39563636363637,147.94791537709534L114.39563636363637,148.95866421941253L114.39563636363637,148.14346705366754L114.39563636363637,149.24337486617475L114.39563636363637,147.76747804404133L114.39563636363637,149.26262783905906L114.39563636363637,148.48148313154363L114.39563636363637,149.07668192700174L114.39563636363637,150.46666909226528L114.39563636363637,148.82796987280665L114.39563636363637,149.91519356337892L114.39563636363637,147.8983324099746L114.39563636363637,150.23980658356516L114.39563636363637,149.89541103013067L118.76945454545454,149.78582081524655L118.76945454545454,149.70386213917908L118.76945454545454,150.1864205671785L118.76945454545454,148.01841943224684L118.76945454545454,145.64256758129017L118.76945454545454,145.8215820086706L118.76945454545454,148.60304141065313L118.76945454545454,149.97696562861609L118.76945454545454,150.8020747829125L118.76945454545454,150.44613826719836L118.76945454545454,149.09922738388804L118.76945454545454,150.33129619496566L118.76945454545454,150.04769647374957L118.76945454545454,149.94318082861395L118.76945454545454,149.7984485274905L118.76945454545454,149.8801712038306L118.76945454545454,150.15927138878033L118.76945454545454,149.70476008936143L118.76945454545454,149.1978528211928L118.76945454545454,149.17096842297664L118.76945454545454,148.72973469846573L118.76945454545454,149.06688966514128L118.76945454545454,149.03074314103773L118.76945454545454,150.38310792048773L118.76945454545454,150.06366617237734L118.76945454545454,145.08238826733498L123.14327272727273,147.34236655456738L123.14327272727273,146.75633088023298L123.14327272727273,147.73538323233112L123.14327272727273,149.2638959058871L123.14327272727273,149.80487923225803L123.14327272727273,148.67760005624345L123.14327272727273,150.28356035741874L123.14327272727273,150.16296737475528L123.14327272727273,150.65318888658658L123.14327272727273,148.15514270847456L123.14327272727273,132.58371146457893L123.14327272727273,131.62954039105938L123.14327272727273,150.4986965577118L123.14327272727273,145.31479504280207L123.14327272727273,139.07910203054132L123.14327272727273,143.1925047526343L123.14327272727273,146.75496093059581L123.14327272727273,146.79802800280353L123.14327272727273,148.5812943235764L123.14327272727273,148.19383054671601L123.14327272727273,148.26092814726547L123.14327272727273,150.52976908767596L123.14327272727273,149.47969866150783L123.14327272727273,148.16301473840656L123.14327272727273,148.10359115826174L123.14327272727273,148.06238215220057L123.14327272727273,146.62346648735306L127.51709090909091,150.3328002615211L127.51709090909091,149.1986494641751L127.51709090909091,150.3409952081533L127.51709090909091,151.1725909012991L127.51709090909091,151.2214958009103L127.51709090909091,149.26469600252392L127.51709090909091,150.01143137417318L127.51709090909091,151.53232068092458L127.51709090909091,151.70958986154034L127.51709090909091,149.8151889666915L127.51709090909091,151.30778593538952L127.51709090909091,149.9391688332479L127.51709090909091,150.59571777247928L127.51709090909091,149.02252747247823L127.51709090909091,146.83357992271584L127.51709090909091,142.89399848278197L131.8909090909091,143.58768111570842L131.8909090909091,141.0534711452201L131.8909090909091,145.03425007903328L131.8909090909091,147.44663008292102L131.8909090909091,149.3262257363337L131.8909090909091,147.7873780015442L131.8909090909091,147.2081034315957L131.8909090909091,146.2579731338968L131.8909090909091,149.58440483325265L131.8909090909091,148.57963541817543L131.8909090909091,150.45626323111355L131.8909090909091,151.56535258423537L131.8909090909091,151.04812522066965L131.8909090909091,150.21319790210367L131.8909090909091,152.00576779261854L131.8909090909091,151.20126371696176L131.8909090909091,147.13348722509625L131.8909090909091,147.67822985444218L131.8909090909091,149.50941217840753L136.26472727272727,149.6035893086551L136.26472727272727,152.55771589656877L136.26472727272727,152.07298799790442L136.26472727272727,151.5353754383719L136.26472727272727,152.60494059324265L136.26472727272727,151.7018830314175L136.26472727272727,150.3746648863372L136.26472727272727,151.66690326694192L136.26472727272727,150.95369885168554L136.26472727272727,149.64261272699676L136.26472727272727,152.10726321685232L136.26472727272727,151.76924541214896L136.26472727272727,150.51551930901286L136.26472727272727,150.2061915882449L136.26472727272727,152.85475839250205L136.26472727272727,150.5030677331508L136.26472727272727,148.9649003683072L136.26472727272727,150.99330824008211L136.26472727272727,152.83114633196965L136.26472727272727,152.17855700767703L136.26472727272727,152.06307370691664L136.26472727272727,150.85693320735461L136.26472727272727,150.9811064785657L136.26472727272727,149.76414337686987L136.26472727272727,147.8122132313955L140.63854545454546,151.4866317093062L140.63854545454546,149.75738169687492L140.63854545454546,152.42539142501644L140.63854545454546,152.69063209426693L140.63854545454546,148.86603375079318L140.63854545454546,149.3081821181501L140.63854545454546,152.863336694789L140.63854545454546,151.0438622597398L140.63854545454546,148.87316957669748L140.63854545454546,151.33783618360758L140.63854545454546,149.67241143404198L140.63854545454546,152.33546516790778L140.63854545454546,149.73598515573474L140.63854545454546,149.1187911856816L140.63854545454546,149.9539337820477L140.63854545454546,151.22934077721504L140.63854545454546,150.23849764849163L140.63854545454546,153.6232595585235L140.63854545454546,153.00685676316627L145.01236363636366,152.73610175882158L145.01236363636366,150.5719468438377L145.01236363636366,151.1682059112419L145.01236363636366,149.91211750839528L145.01236363636366,150.7529258250466L145.01236363636366,153.08714674847823L145.01236363636366,152.09274750678904L145.01236363636366,151.46532035831154L145.01236363636366,151.3240520726993L145.01236363636366,150.83722204963368L145.01236363636366,150.43630571270154L145.01236363636366,150.87551617125672L145.01236363636366,151.78388545377595L145.01236363636366,152.77293728700735L145.01236363636366,151.93557053711265L145.01236363636366,151.1554360235524L145.01236363636366,151.02722427895708L145.01236363636366,152.22952949514405L149.3861818181818,153.3450950261516L149.3861818181818,151.13785634629636L149.3861818181818,152.49380083868488L149.3861818181818,152.52585766019507L149.3861818181818,153.23478357307613L149.3861818181818,153.53838743704063L149.3861818181818,150.24272664848507L149.3861818181818,142.84938071968242L149.3861818181818,144.47832336504428L149.3861818181818,143.9843137697834L149.3861818181818,150.70832993509248L149.3861818181818,151.8038274307425L149.3861818181818,149.52106423324182L149.3861818181818,150.40363011141824L149.3861818181818,149.2147567333757L149.3861818181818,150.39034044871934L149.3861818181818,151.0861614694198L149.3861818181818,151.14074072345264L149.3861818181818,151.86243134354137L149.3861818181818,152.8424466896492L149.3861818181818,152.56865304491174L149.3861818181818,153.18488805021883L153.76,149.7934332454784L153.76,150.5190316756877L153.76,148.83552474212937L153.76,150.90731799793946L153.76,150.23418576078905L153.76,149.02076150378628L153.76,149.8201202097763L153.76,150.97687747857225L153.76,152.63728003881664L153.76,152.9951972254138L153.76,153.54245382746578L153.76,154.05777506152583L153.76,153.19994137917337L153.76,153.00793257655783L153.76,152.32379296675532L153.76,151.68022861740448L153.76,152.14178537210034L158.13381818181819,151.58996620458655L158.13381818181819,151.7518965541385L158.13381818181819,152.8521727564641L158.13381818181819,153.8948371082596L158.13381818181819,153.49481757029167L158.13381818181819,153.98512340885483L158.13381818181819,153.4206080316152L158.13381818181819,153.46458658081895L158.13381818181819,154.20073736469365L158.13381818181819,153.46110529703503L158.13381818181819,151.71924109917342L158.13381818181819,153.34791435948057L158.13381818181819,152.76089093994557L158.13381818181819,154.20576502230122L158.13381818181819,153.16334242632405L158.13381818181819,153.25403712156952L158.13381818181819,154.72928292982073L158.13381818181819,154.10647849795512L158.13381818181819,152.85573289869353L158.13381818181819,152.0613457284247L158.13381818181819,154.48883029047607L158.13381818181819,154.9645096142259L158.13381818181819,152.20373299811035L162.50763636363635,153.11350964485771L162.50763636363635,153.4383186599395L162.50763636363635,151.91047858560665L162.50763636363635,150.93909161977678L162.50763636363635,153.3033996304083L162.50763636363635,153.74310453717288L162.50763636363635,153.86147279069863L162.50763636363635,152.40236648575714L162.50763636363635,151.96852358197793L162.50763636363635,152.085613407712L162.50763636363635,151.62250423529701L162.50763636363635,149.73545674658897L162.50763636363635,152.16885396522574L162.50763636363635,153.3692855738207L162.50763636363635,154.2804307311825L162.50763636363635,154.246363019312L162.50763636363635,154.16490166949936L166.88145454545455,153.54996667732485L166.88145454545455,153.6126424488353L166.88145454545455,152.557452267605L166.88145454545455,150.24789792056092L166.88145454545455,152.37219766206624L166.88145454545455,152.71928246117508L166.88145454545455,153.20485247593996L166.88145454545455,152.08623851918512L166.88145454545455,153.2887031790904L166.88145454545455,153.01453769088L166.88145454545455,153.78658835036265L166.88145454545455,154.6731204629824L166.88145454545455,154.5843557850199L166.88145454545455,154.40079836288675L166.88145454545455,155.00883899717076L166.88145454545455,155.16594603034252L166.88145454545455,154.9370441386321L166.88145454545455,154.8337358335654L171.25527272727274,154.31381260482078L171.25527272727274,154.9292011769592L171.25527272727274,154.39839202908075L171.25527272727274,154.47838845375617L171.25527272727274,154.2366864548789L171.25527272727274,154.23199610419883L171.25527272727274,154.0417118264207L171.25527272727274,154.3893995760526L171.25527272727274,153.25570063184327L171.25527272727274,154.33687898793465L171.25527272727274,154.97201987384403L171.25527272727274,154.72448983291787L171.25527272727274,154.58128347149534L171.25527272727274,154.92895510407268L171.25527272727274,154.7970882417479L171.25527272727274,155.51915933944596L171.25527272727274,154.12307647390602L171.25527272727274,154.55804699589498L171.25527272727274,155.09550270195015L171.25527272727274,155.18049800377855L171.25527272727274,154.91570314376926L171.25527272727274,153.5873254341746L175.6290909090909,153.06659923074767L175.6290909090909,153.11028911199213L175.6290909090909,154.58336717640566L175.6290909090909,153.8676174177478L175.6290909090909,155.16467825131906L175.6290909090909,155.28770548482942L175.6290909090909,153.36061920334276L175.6290909090909,152.17359698413767L175.6290909090909,152.41325182928188L175.6290909090909,153.07351287154273L175.6290909090909,153.6216277067498L175.6290909090909,152.8361518286272L175.6290909090909,152.90193301118495L175.6290909090909,153.9642978719332L175.6290909090909,153.92058410291145L175.6290909090909,154.6979620245337L175.6290909090909,154.17154995450335L175.6290909090909,154.5317491433428L180.0029090909091,152.70615166658536L180.0029090909091,153.75556071790763L180.0029090909091,154.5476345152387L180.0029090909091,154.84602796570914L180.0029090909091,154.80825361909552L180.0029090909091,155.4095141538936L180.0029090909091,155.55918575662912L180.0029090909091,156.0524197186395L180.0029090909091,155.20740283611747L180.0029090909091,155.10387090691881L180.0029090909091,155.1180599588228L180.0029090909091,155.52192082406125L180.0029090909091,155.78325138075485L180.0029090909091,155.41968286409974L180.0029090909091,154.88404608277295L180.0029090909091,155.45505404275738L180.0029090909091,156.0602172071942L180.0029090909091,154.36681728018448L180.0029090909091,154.85627265631533L180.0029090909091,154.58020564347197L184.37672727272727,154.722475488903L184.37672727272727,154.0755625336638L184.37672727272727,152.70069949727298L184.37672727272727,151.8169990935777L184.37672727272727,150.4965506870196L184.37672727272727,151.6433717916823L184.37672727272727,152.16947792548066L184.37672727272727,152.91107310794501L184.37672727272727,153.8750632091477L184.37672727272727,154.17963697443096L184.37672727272727,154.33219755919546L184.37672727272727,154.8369261469537L184.37672727272727,154.96762768867322L184.37672727272727,154.74639780273557L184.37672727272727,155.26043485291302L184.37672727272727,154.5056611003044L184.37672727272727,154.32752418898357L188.75054545454543,154.29133967468L188.75054545454543,154.2815036665286L188.75054545454543,155.0900796008969L188.75054545454543,155.15373505908065L188.75054545454543,155.7013517046192L188.75054545454543,155.91473603864304L188.75054545454543,155.23868517559538L188.75054545454543,155.19536109392843L188.75054545454543,154.72583906062775L188.75054545454543,155.00838311477048L188.75054545454543,155.57677176558516L188.75054545454543,154.95731162253975L188.75054545454543,155.50872930271242L188.75054545454543,156.28110158377484L188.75054545454543,155.78113515393085L188.75054545454543,154.72012441356978L188.75054545454543,154.8625082296009L188.75054545454543,154.71471570274377L188.75054545454543,155.64560597876294L188.75054545454543,155.77739340703314L193.12436363636363,155.1717999748006L193.12436363636363,154.77690882603122L193.12436363636363,154.76187737022218L193.12436363636363,153.15635971243805L193.12436363636363,154.03563598465797L193.12436363636363,154.81250478003898L193.12436363636363,153.92387428447708L193.12436363636363,153.4352538293331L193.12436363636363,154.31329455663865L193.12436363636363,154.24148732250453L193.12436363636363,155.25299510540856L193.12436363636363,154.51344275960906L193.12436363636363,156.01885422570115L193.12436363636363,156.02265943350116L193.12436363636363,155.2824320421399L193.12436363636363,155.4391367245569L197.49818181818182,155.15313527440756L197.49818181818182,155.2921063041366L197.49818181818182,155.20647783230783L197.49818181818182,155.7249847748834L197.49818181818182,154.49077671261816L197.49818181818182,156.00500463925871L197.49818181818182,154.045365792932L197.49818181818182,154.03185711097387L197.49818181818182,154.35111207393413L197.49818181818182,155.01742766042136L197.49818181818182,155.27067407523282L197.49818181818182,154.6243545729667L197.49818181818182,155.58257649546593L197.49818181818182,155.9113098694296L197.49818181818182,155.62327608748132L197.49818181818182,155.757378327712L197.49818181818182,155.3936791477932L197.49818181818182,155.51950384148708L201.87199999999999,156.34405638179226L201.87199999999999,155.99355375980184L201.87199999999999,155.96480208569363L201.87199999999999,156.32234829223145L201.87199999999999,155.1423394380965L201.87199999999999,154.67403740826478L201.87199999999999,156.0020727743524L201.87199999999999,155.87652336570642L201.87199999999999,156.05458458443172L201.87199999999999,156.22231750533035L201.87199999999999,155.18217245062505L201.87199999999999,154.16389867065786L201.87199999999999,153.9820551245939L201.87199999999999,152.97295914378225L201.87199999999999,152.18243546173392L201.87199999999999,153.05489767353154L201.87199999999999,155.36459995211206L201.87199999999999,155.3259158553297L201.87199999999999,155.00264717017612L201.87199999999999,155.69459319047422L201.87199999999999,155.78462449624203L201.87199999999999,156.00679521523932L206.24581818181818,152.69890474812644L206.24581818181818,152.21980976002914L206.24581818181818,153.8587823938061L206.24581818181818,154.35039774305187L206.24581818181818,155.0618223749981L206.24581818181818,155.43142787980227L206.24581818181818,155.03808914875196L206.24581818181818,155.15466380434938L206.24581818181818,155.90125786396675L206.24581818181818,155.81456638604868L206.24581818181818,156.185167838483L206.24581818181818,156.58395586080022L206.24581818181818,154.14611781802444L210.61963636363637,155.57490592871585L210.61963636363637,155.3542568323513L210.61963636363637,155.20755019204483L210.61963636363637,155.0885657489869L210.61963636363637,155.62195391339873L210.61963636363637,155.4531700742017L210.61963636363637,156.0826033642645L210.61963636363637,155.55342304621203L210.61963636363637,155.2462449375954L210.61963636363637,154.80355002940632L210.61963636363637,154.91470590101866L210.61963636363637,155.62113223142094L210.61963636363637,155.64124746672394L210.61963636363637,155.5642070825367L210.61963636363637,155.23335302077857L210.61963636363637,155.88356436001294L210.61963636363637,156.02107377435703L210.61963636363637,155.327188814835L210.61963636363637,155.51700886388102L210.61963636363637,155.82976131483963L210.61963636363637,155.0857671375852L210.61963636363637,154.393347391005L214.99345454545457,153.86727579375213L214.99345454545457,152.16295454764946L214.99345454545457,155.56785845880708L214.99345454545457,155.79024445560452L214.99345454545457,155.34733052815622L214.99345454545457,155.4269237386632L214.99345454545457,155.14897534750506L214.99345454545457,155.174136372102L214.99345454545457,155.2137756921713L214.99345454545457,155.09627171569608L214.99345454545457,155.77627269613248L214.99345454545457,155.84608127159947L214.99345454545457,155.86178734126347L214.99345454545457,155.77573478943668L214.99345454545457,155.65915034848473L214.99345454545457,155.69089720449927L219.36727272727273,155.4592102282008L219.36727272727273,154.37228153728776L219.36727272727273,155.87950545250595L219.36727272727273,155.28964039478967L219.36727272727273,156.043081036743L219.36727272727273,155.6096381812822L219.36727272727273,156.44006481236363L219.36727272727273,155.8985247280992L219.36727272727273,155.92635355693184L219.36727272727273,155.08660119515844L219.36727272727273,154.88912122813053L219.36727272727273,155.09711987569204L219.36727272727273,155.8870421901423L219.36727272727273,155.96248597861268L219.36727272727273,155.89939447343608L219.36727272727273,155.67709409849098L219.36727272727273,155.23704296285803L219.36727272727273,155.11646206798548L219.36727272727273,155.80259990474832L219.36727272727273,156.48079606287905L219.36727272727273,156.34332060947133L219.36727272727273,155.79830211946845L223.7410909090909,155.14423405542038L223.7410909090909,155.15597820770927L223.7410909090909,155.45378741495207L223.7410909090909,155.81801874547577L223.7410909090909,156.85961721313652L223.7410909090909,156.4469462190496L223.7410909090909,156.21806706389827L223.7410909090909,155.8494333311424L223.7410909090909,155.24499010977647L223.7410909090909,155.58728497783238L223.7410909090909,155.21687592273682L223.7410909090909,155.54108371412278L223.7410909090909,154.31882040391469L223.7410909090909,154.42152978772194L223.7410909090909,154.85448596569606L223.7410909090909,154.63619082271018L223.7410909090909,154.95290188129164L228.1149090909091,155.0620350625573L228.1149090909091,154.90382832821666L228.1149090909091,155.04512309184713L228.1149090909091,155.63303093475082L228.1149090909091,155.90435449697543L228.1149090909091,154.85198120273546L228.1149090909091,155.0373279057288L228.1149090909091,155.39608087672644L228.1149090909091,155.44663316955686L228.1149090909091,155.2285196312393L228.1149090909091,155.89365521908945L228.1149090909091,154.0776125654423L228.1149090909091,156.44566735955112L228.1149090909091,156.3940271655382L228.1149090909091,156.71628580063893L228.1149090909091,156.61062800316398L228.1149090909091,156.69042541099608L232.48872727272726,156.2149253894782L232.48872727272726,156.3138937458991L232.48872727272726,156.13634841682182L232.48872727272726,156.23848104031964L232.48872727272726,152.51107314068616L232.48872727272726,152.87346453674965L232.48872727272726,153.2875381462897L232.48872727272726,154.852823318836L232.48872727272726,155.61726557735045L232.48872727272726,155.09520396083178L232.48872727272726,154.14304636791348L232.48872727272726,155.6021287850777L232.48872727272726,155.7865032843159L232.48872727272726,155.7003343155504L232.48872727272726,155.61205401263823L232.48872727272726,154.38967586841642L232.48872727272726,155.21374115562583L232.48872727272726,154.92840108032235L232.48872727272726,156.12026431588714L232.48872727272726,156.04954642195824L232.48872727272726,156.41838118618924L236.86254545454545,155.27169750819706L236.86254545454545,155.47217985224495L236.86254545454545,155.85781607024063L236.86254545454545,155.69501021926084L236.86254545454545,155.39508564860768L236.86254545454545,156.27957708309663L236.86254545454545,156.1507541855487L236.86254545454545,156.19533295113231L236.86254545454545,155.7382698327096L236.86254545454545,156.3228536770136L236.86254545454545,155.47069046372133L236.86254545454545,155.96587473323518L236.86254545454545,155.8218550361667L236.86254545454545,156.18978494290624L236.86254545454545,156.3108067543427L236.86254545454545,155.10995653403614L236.86254545454545,153.63000166780938L236.86254545454545,152.98582976306272L236.86254545454545,155.1838336584624L236.86254545454545,155.91504269438641L236.86254545454545,156.1263100820749L236.86254545454545,156.4208046443657L236.86254545454545,156.27674307173584L236.86254545454545,156.40071286513316L236.86254545454545,156.61771849985234L236.86254545454545,156.21903883594658L236.86254545454545,155.45588579789427L236.86254545454545,155.4960679173366L236.86254545454545,155.19819568089832L236.86254545454545,155.77966562392086" style="fill: none;" fill="none"></path></g></g></g></g></g></g><g transform="translate(82, 178)" clip-path="url(#clip_1)"><clipPath id="clip_1"><rect width="248" height="22"></rect></clipPath><g><g><line x1="0" y1="0" x2="0" y2="5" style="visibility: inherit;" fill="rgb(0, 0, 0)" stroke="rgb(204, 204, 204)" stroke-width="1px"></line><line x1="22.545454545454547" y1="0" x2="22.545454545454547" y2="5" style="visibility: inherit;" fill="rgb(0, 0, 0)" stroke="rgb(204, 204, 204)" stroke-width="1px"></line><line x1="45.09090909090909" y1="0" x2="45.09090909090909" y2="5" style="visibility: inherit;" fill="rgb(0, 0, 0)" stroke="rgb(204, 204, 204)" stroke-width="1px"></line><line x1="67.63636363636363" y1="0" x2="67.63636363636363" y2="5" style="visibility: inherit;" fill="rgb(0, 0, 0)" stroke="rgb(204, 204, 204)" stroke-width="1px"></line><line x1="90.18181818181819" y1="0" x2="90.18181818181819" y2="5" style="visibility: inherit;" fill="rgb(0, 0, 0)" stroke="rgb(204, 204, 204)" stroke-width="1px"></line><line x1="112.72727272727272" y1="0" x2="112.72727272727272" y2="5" style="visibility: inherit;" fill="rgb(0, 0, 0)" stroke="rgb(204, 204, 204)" stroke-width="1px"></line><line x1="135.27272727272725" y1="0" x2="135.27272727272725" y2="5" style="visibility: inherit;" fill="rgb(0, 0, 0)" stroke="rgb(204, 204, 204)" stroke-width="1px"></line><line x1="157.8181818181818" y1="0" x2="157.8181818181818" y2="5" style="visibility: inherit;" fill="rgb(0, 0, 0)" stroke="rgb(204, 204, 204)" stroke-width="1px"></line><line x1="180.36363636363637" y1="0" x2="180.36363636363637" y2="5" style="visibility: inherit;" fill="rgb(0, 0, 0)" stroke="rgb(204, 204, 204)" stroke-width="1px"></line><line x1="202.90909090909093" y1="0" x2="202.90909090909093" y2="5" style="visibility: inherit;" fill="rgb(0, 0, 0)" stroke="rgb(204, 204, 204)" stroke-width="1px"></line><line x1="225.45454545454544" y1="0" x2="225.45454545454544" y2="5" style="visibility: inherit;" fill="rgb(0, 0, 0)" stroke="rgb(204, 204, 204)" stroke-width="1px"></line><line x1="248" y1="0" x2="248" y2="5" style="visibility: inherit;" fill="rgb(0, 0, 0)" stroke="rgb(204, 204, 204)" stroke-width="1px"></line></g><g transform="translate(0, 8)"><text x="0" y="0" dx="0em" dy="0.95em" style="text-anchor: middle; visibility: hidden; font-family: &quot;Helvetica Neue&quot;, sans-serif; font-size: 12px; font-weight: 200;" fill="rgb(50, 49, 63)" stroke="none" stroke-width="1px">-500</text><text x="22.545454545454547" y="0" dx="0em" dy="0.95em" style="text-anchor: middle; visibility: inherit; font-family: &quot;Helvetica Neue&quot;, sans-serif; font-size: 12px; font-weight: 200;" fill="rgb(50, 49, 63)" stroke="none" stroke-width="1px">0</text><text x="45.09090909090909" y="0" dx="0em" dy="0.95em" style="text-anchor: middle; visibility: hidden; font-family: &quot;Helvetica Neue&quot;, sans-serif; font-size: 12px; font-weight: 200;" fill="rgb(50, 49, 63)" stroke="none" stroke-width="1px">500</text><text x="67.63636363636363" y="0" dx="0em" dy="0.95em" style="text-anchor: middle; visibility: inherit; font-family: &quot;Helvetica Neue&quot;, sans-serif; font-size: 12px; font-weight: 200;" fill="rgb(50, 49, 63)" stroke="none" stroke-width="1px">1k</text><text x="90.18181818181819" y="0" dx="0em" dy="0.95em" style="text-anchor: middle; visibility: hidden; font-family: &quot;Helvetica Neue&quot;, sans-serif; font-size: 12px; font-weight: 200;" fill="rgb(50, 49, 63)" stroke="none" stroke-width="1px">1.5k</text><text x="112.72727272727272" y="0" dx="0em" dy="0.95em" style="text-anchor: middle; visibility: inherit; font-family: &quot;Helvetica Neue&quot;, sans-serif; font-size: 12px; font-weight: 200;" fill="rgb(50, 49, 63)" stroke="none" stroke-width="1px">2k</text><text x="135.27272727272725" y="0" dx="0em" dy="0.95em" style="text-anchor: middle; visibility: hidden; font-family: &quot;Helvetica Neue&quot;, sans-serif; font-size: 12px; font-weight: 200;" fill="rgb(50, 49, 63)" stroke="none" stroke-width="1px">2.5k</text><text x="157.8181818181818" y="0" dx="0em" dy="0.95em" style="text-anchor: middle; visibility: inherit; font-family: &quot;Helvetica Neue&quot;, sans-serif; font-size: 12px; font-weight: 200;" fill="rgb(50, 49, 63)" stroke="none" stroke-width="1px">3k</text><text x="180.36363636363637" y="0" dx="0em" dy="0.95em" style="text-anchor: middle; visibility: hidden; font-family: &quot;Helvetica Neue&quot;, sans-serif; font-size: 12px; font-weight: 200;" fill="rgb(50, 49, 63)" stroke="none" stroke-width="1px">3.5k</text><text x="202.90909090909093" y="0" dx="0em" dy="0.95em" style="text-anchor: middle; visibility: inherit; font-family: &quot;Helvetica Neue&quot;, sans-serif; font-size: 12px; font-weight: 200;" fill="rgb(50, 49, 63)" stroke="none" stroke-width="1px">4k</text><text x="225.45454545454544" y="0" dx="0em" dy="0.95em" style="text-anchor: middle; visibility: hidden; font-family: &quot;Helvetica Neue&quot;, sans-serif; font-size: 12px; font-weight: 200;" fill="rgb(50, 49, 63)" stroke="none" stroke-width="1px">4.5k</text><text x="248" y="0" dx="0em" dy="0.95em" style="text-anchor: middle; visibility: hidden; font-family: &quot;Helvetica Neue&quot;, sans-serif; font-size: 12px; font-weight: 200;" fill="rgb(50, 49, 63)" stroke="none" stroke-width="1px">5k</text></g><line x1="0" y1="0" x2="248" y2="0" fill="rgb(0, 0, 0)" stroke="rgb(204, 204, 204)" stroke-width="1px"></line></g></g></g></g></svg>