<svg viewBox="0 0 330 200" xmlns="http://www.w3.org/2000/svg"><g><g><g><g><g><line x1="70" y1="163.92397453316443" x2="65" y2="163.92397453316443" style="visibility: inherit;" fill="rgb(0, 0, 0)" stroke="rgb(204, 204, 204)" stroke-width="1px"></line><line x1="70" y1="144.71466935488377" x2="65" y2="144.71466935488377" style="visibility: inherit;" fill="rgb(0, 0, 0)" stroke="rgb(204, 204, 204)" stroke-width="1px"></line><line x1="70" y1="125.5053641766031" x2="65" y2="125.5053641766031" style="visibility: inherit;" fill="rgb(0, 0, 0)" stroke="rgb(204, 204, 204)" stroke-width="1px"></line><line x1="70" y1="106.29605899832242" x2="65" y2="106.29605899832242" style="visibility: inherit;" fill="rgb(0, 0, 0)" stroke="rgb(204, 204, 204)" stroke-width="1px"></line><line x1="70" y1="87.08675382004178" x2="65" y2="87.08675382004178" style="visibility: inherit;" fill="rgb(0, 0, 0)" stroke="rgb(204, 204, 204)" stroke-width="1px"></line><line x1="70" y1="67.87744864176109" x2="65" y2="67.87744864176109" style="visibility: inherit;" fill="rgb(0, 0, 0)" stroke="rgb(204, 204, 204)" stroke-width="1px"></line><line x1="70" y1="48.66814346348045" x2="65" y2="48.66814346348045" style="visibility: inherit;" fill="rgb(0, 0, 0)" stroke="rgb(204, 204, 204)" stroke-width="1px"></line><line x1="70" y1="29.45883828519976" x2="65" y2="29.45883828519976" style="visibility: inherit;" fill="rgb(0, 0, 0)" stroke="rgb(204, 204, 204)" stroke-width="1px"></line><line x1="70" y1="10.249533106919102" x2="65" y2="10.249533106919102" style="visibility: inherit;" fill="rgb(0, 0, 0)" stroke="rgb(204, 204, 204)" stroke-width="1px"></line></g><g transform="translate(60, 0)"><text x="0" y="163.92397453316443" dx="0em" dy="0.3em" style="text-anchor: end; visibility: inherit; font-family: &quot;Helvetica Neue&quot;, sans-serif; font-size: 12px; font-weight: 200;" fill="rgb(50, 49, 63)" stroke="none" stroke-width="1px">0.01</text><text x="0" y="144.71466935488377" dx="0em" dy="0.3em" style="text-anchor: end; visibility: hidden; font-family: &quot;Helvetica Neue&quot;, sans-serif; font-size: 12px; font-weight: 200;" fill="rgb(50, 49, 63)" stroke="none" stroke-width="1px">0.012</text><text x="0" y="125.5053641766031" dx="0em" dy="0.3em" style="text-anchor: end; visibility: inherit; font-family: &quot;Helvetica Neue&quot;, sans-serif; font-size: 12px; font-weight: 200;" fill="rgb(50, 49, 63)" stroke="none" stroke-width="1px">0.014</text><text x="0" y="106.29605899832242" dx="0em" dy="0.3em" style="text-anchor: end; visibility: hidden; font-family: &quot;Helvetica Neue&quot;, sans-serif; font-size: 12px; font-weight: 200;" fill="rgb(50, 49, 63)" stroke="none" stroke-width="1px">0.016</text><text x="0" y="87.08675382004178" dx="0em" dy="0.3em" style="text-anchor: end; visibility: inherit; font-family: &quot;Helvetica Neue&quot;, sans-serif; font-size: 12px; font-weight: 200;" fill="rgb(50, 49, 63)" stroke="none" stroke-width="1px">0.018</text><text x="0" y="67.87744864176109" dx="0em" dy="0.3em" style="text-anchor: end; visibility: hidden; font-family: &quot;Helvetica Neue&quot;, sans-serif; font-size: 12px; font-weight: 200;" fill="rgb(50, 49, 63)" stroke="none" stroke-width="1px">0.02</text><text x="0" y="48.66814346348045" dx="0em" dy="0.3em" style="text-anchor: end; visibility: inherit; font-family: &quot;Helvetica Neue&quot;, sans-serif; font-size: 12px; font-weight: 200;" fill="rgb(50, 49, 63)" stroke="none" stroke-width="1px">0.022</text><text x="0" y="29.45883828519976" dx="0em" dy="0.3em" style="text-anchor: end; visibility: hidden; font-family: &quot;Helvetica Neue&quot;, sans-serif; font-size: 12px; font-weight: 200;" fill="rgb(50, 49, 63)" stroke="none" stroke-width="1px">0.024</text><text x="0" y="10.249533106919102" dx="0em" dy="0.3em" style="text-anchor: end; visibility: inherit; font-family: &quot;Helvetica Neue&quot;, sans-serif; font-size: 12px; font-weight: 200;" fill="rgb(50, 49, 63)" stroke="none" stroke-width="1px">0.026</text></g><line x1="70" y1="0" x2="70" y2="178" fill="rgb(0, 0, 0)" stroke="rgb(204, 204, 204)" stroke-width="1px"></line></g></g><g transform="translate(70, 0)" clip-path="url(#clip_0)"><clipPath id="clip_0"><rect width="260" height="178"></rect></clipPath><g><g><g><line x1="17.902517826752042" y1="0" x2="17.902517826752042" y2="178" fill="rgb(0, 0, 0)" stroke="rgb(60, 60, 60)" stroke-width="1px" opacity="0.25"></line><line x1="36.60820826253096" y1="0" x2="36.60820826253096" y2="178" fill="rgb(0, 0, 0)" stroke="rgb(60, 60, 60)" stroke-width="1px" opacity="0.25"></line><line x1="55.313898698309885" y1="0" x2="55.313898698309885" y2="178" fill="rgb(0, 0, 0)" stroke="rgb(60, 60, 60)" stroke-width="1px" opacity="0.25"></line><line x1="74.0195891340888" y1="0" x2="74.0195891340888" y2="178" fill="rgb(0, 0, 0)" stroke="rgb(60, 60, 60)" stroke-width="1px" opacity="0.25"></line><line x1="92.72527956986771" y1="0" x2="92.72527956986771" y2="178" fill="rgb(0, 0, 0)" stroke="rgb(60, 60, 60)" stroke-width="1px" opacity="0.25"></line><line x1="111.43097000564663" y1="0" x2="111.43097000564663" y2="178" fill="rgb(0, 0, 0)" stroke="rgb(60, 60, 60)" stroke-width="1px" opacity="0.25"></line><line x1="130.13666044142553" y1="0" x2="130.13666044142553" y2="178" fill="rgb(0, 0, 0)" stroke="rgb(60, 60, 60)" stroke-width="1px" opacity="0.25"></line><line x1="148.84235087720444" y1="0" x2="148.84235087720444" y2="178" fill="rgb(0, 0, 0)" stroke="rgb(60, 60, 60)" stroke-width="1px" opacity="0.25"></line><line x1="167.5480413129834" y1="0" x2="167.5480413129834" y2="178" fill="rgb(0, 0, 0)" stroke="rgb(60, 60, 60)" stroke-width="1px" opacity="0.25"></line><line x1="186.2537317487623" y1="0" x2="186.2537317487623" y2="178" fill="rgb(0, 0, 0)" stroke="rgb(60, 60, 60)" stroke-width="1px" opacity="0.25"></line><line x1="204.9594221845412" y1="0" x2="204.9594221845412" y2="178" fill="rgb(0, 0, 0)" stroke="rgb(60, 60, 60)" stroke-width="1px" opacity="0.25"></line><line x1="223.66511262032014" y1="0" x2="223.66511262032014" y2="178" fill="rgb(0, 0, 0)" stroke="rgb(60, 60, 60)" stroke-width="1px" opacity="0.25"></line><line x1="242.37080305609905" y1="0" x2="242.37080305609905" y2="178" fill="rgb(0, 0, 0)" stroke="rgb(60, 60, 60)" stroke-width="1px" opacity="0.25"></line></g><g><line x1="0" y1="163.92397453316443" x2="260" y2="163.92397453316443" fill="rgb(0, 0, 0)" stroke="rgb(60, 60, 60)" stroke-width="1px" opacity="0.25"></line><line x1="0" y1="144.71466935488377" x2="260" y2="144.71466935488377" fill="rgb(0, 0, 0)" stroke="rgb(60, 60, 60)" stroke-width="1px" opacity="0.25"></line><line x1="0" y1="125.5053641766031" x2="260" y2="125.5053641766031" fill="rgb(0, 0, 0)" stroke="rgb(60, 60, 60)" stroke-width="1px" opacity="0.25"></line><line x1="0" y1="106.29605899832242" x2="260" y2="106.29605899832242" fill="rgb(0, 0, 0)" stroke="rgb(60, 60, 60)" stroke-width="1px" opacity="0.25"></line><line x1="0" y1="87.08675382004178" x2="260" y2="87.08675382004178" fill="rgb(0, 0, 0)" stroke="rgb(60, 60, 60)" stroke-width="1px" opacity="0.25"></line><line x1="0" y1="67.87744864176109" x2="260" y2="67.87744864176109" fill="rgb(0, 0, 0)" stroke="rgb(60, 60, 60)" stroke-width="1px" opacity="0.25"></line><line x1="0" y1="48.66814346348045" x2="260" y2="48.66814346348045" fill="rgb(0, 0, 0)" stroke="rgb(60, 60, 60)" stroke-width="1px" opacity="0.25"></line><line x1="0" y1="29.45883828519976" x2="260" y2="29.45883828519976" fill="rgb(0, 0, 0)" stroke="rgb(60, 60, 60)" stroke-width="1px" opacity="0.25"></line><line x1="0" y1="10.249533106919102" x2="260" y2="10.249533106919102" fill="rgb(0, 0, 0)" stroke="rgb(60, 60, 60)" stroke-width="1px" opacity="0.25"></line></g></g></g><g><g><line x1="0" y1="259.9705004245678" x2="260" y2="259.9705004245678" fill="rgb(0, 0, 0)" stroke="rgb(153, 153, 153)" stroke-width="1.5px"></line></g></g><g><g><line x1="36.60820826253096" y1="0" x2="36.60820826253096" y2="178" fill="rgb(0, 0, 0)" stroke="rgb(153, 153, 153)" stroke-width="1.5px"></line></g></g><g><g><g><g><g><path stroke="rgb(255, 112, 67)" stroke-width="2px" d="M36.60820826253096,150.00521516003494L37.0831249585949,109.00242301044258L37.30811284633635,70.72415846040059L37.856293496607094,27.881944968123236L37.9191654005718,5.370393533545382L38.0236055055049,-7.316330632804863L39.08307502768693,-2.394456315865483L39.251945844121046,4.320620289479336L39.53357040568194,5.430680839326413L39.786097226564955,6.443636380321465L40.99469266972111,11.183652190310937L41.07938787919422,16.179603363224487L41.10692681233579,16.650340407003824L41.30957179205672,16.210765782887336L41.45921731554296,19.885578666288325L41.697714868599135,22.286770269336074L42.15808269432414,25.185923097523016L42.519726042749205,21.98115490728901L42.68392043657437,22.62966524415856L42.79511537416484,21.29568249583096L43.11311211157308,20.146375334699L43.14792547988411,19.286472315706334L43.495539560482335,21.252815527086113L43.6701260045496,23.244850836556026L43.744429163780616,24.780125616648093L43.77924253209165,25.41226541262077L43.914858787751044,27.355369606084253L44.96445586220309,26.79107700390216L45.25803128154239,27.301699702829183L45.29596226492606,27.271718709233795L45.48665638686858,26.49237925803513L45.84778013278154,25.944642440303994L46.052503522550886,23.934885758521744L46.23228599173921,25.49438414541555L46.34919655696283,26.21075104321028L46.784623462106794,26.729162755901427L46.996101684533514,27.164424044676053L47.181599781355,28.97519630906396L47.295392731505984,31.327610373798052L47.42945017962906,31.91371880454065L47.57701729306688,32.32539427869952L47.657036079931046,34.12190771350768L49.13686403440599,34.48068547234121L49.29378399306169,35.10187757894957L49.333793386493774,35.27719392577083L49.51825227829104,34.619351225754656L49.69647593994304,33.82543250478386L49.78117114941615,35.06882407315595L50.080462196388616,37.4250359343869L50.11787357726017,37.83535970283674L50.37767483331266,40.66710408708914L50.52524194675048,41.76869428873334L50.84271908164661,41.87599400262866L51.13265728340118,41.84462623222632L51.690190778889814,41.5838389364888L51.84191471242446,42.33369844418476L52.06690260016592,44.64418749856813L52.20927368848268,45.25916174751089L52.27266519495949,45.53906811233921L53.517113211450884,44.562928310632856L54.565671080878715,46.877824189509795L54.60048444918976,49.742076212092115L54.66491516069076,50.11697661268788L54.878991395678014,49.235423825579346L55.20582137579204,49.70784887878614L55.28168334255937,49.15443554881273L55.31753591589462,49.52898765506899L55.42457403338823,49.78186356051495L55.65527754876285,50.264440709172774L55.97691150375582,51.13648018146132L56.089665248882596,51.99735369285568L56.12707662975415,53.11441847486542L56.47469071035238,53.761815316031175L57.83241207448266,52.877032194233905L57.9093132462742,52.85088383735099L58.399818017701286,55.41474104241561L58.581678896938044,55.06108138315737L58.64974682602378,55.01969987623556L58.75782414854161,55.68686563170185L59.003596136767264,56.38811166681934L59.23274084460556,57.0777826631238L59.29301473600973,57.77432691814083L59.37822954799495,57.644238010832L59.57567850259484,58.47275270037129L59.76325500946473,58.431893111222024L60.12645716542611,58.24605195668741L60.323906120025995,57.72717629584686L60.511482626895884,57.46678032088427L60.65177530516422,60.40795608705773L60.86533193763938,61.639416119611525L60.941193904406695,60.952554576927014L61.7569698484115,60.78978214537304L61.81412612474305,60.08615374521034L61.876998028707746,60.61436822892374L61.91544861460353,60.66845616416663L62.10042710891288,59.77248639463515L62.140956104857075,59.074988868564134L62.47298211009215,59.745823235262165L62.67822510237362,60.99830920884433L62.739018596289895,62.58502326941199L62.90581100267559,62.95596825935172L63.09858353466654,62.34937392907446L63.16613186124019,62.26954010074013L63.586490293533096,64.56178124596607L63.84629154958559,64.8809612211764L63.88318332794504,64.18870742029902L63.95229046205501,64.13254459949827L64.02347600621339,63.77641794166618L64.06036778457283,64.2442601877108L64.13622975134017,64.20495530603773L64.53528448063678,65.21420845129917L64.62881293281566,66.95438369556658L64.76546839349928,66.65187543531103L64.85951644819028,67.31183300834898L64.95304490036918,66.91050484598658L65.07878870829857,66.48547611526959L65.95327973617123,67.18575943299234L66.08889599183063,66.58504390914365L66.29154097155157,65.51591777561428L66.32843274991103,64.08119685481864L66.69319371340873,64.70302087803887L66.84543724945547,65.78459743047648L66.96754383980014,66.03050894425544L67.27255051440575,66.97948042842948L67.4216764353799,67.40525623287233L67.53650859055509,68.39977438781148L67.57703758649926,68.66171933035403L67.61548817239503,70.11964390204365L67.86957380081438,69.99562524418526L68.09871850865265,68.74575842043085L68.1751000779321,67.74637217971653L68.20939384373102,68.15332821417377L68.35176493204779,69.14770359223631L68.51440051833664,68.25188280278759L68.62039943080603,68.54798838812914L68.65469319660498,68.83636973990937L68.68794775737969,68.69364615585184L68.82824043564806,68.44506934298846L69.17065849112522,67.08500237216879L69.31770600205091,66.96909324838207L69.35303897287406,65.91074271442206L69.38577393113667,67.02063577475167L69.45955748785558,65.89215570141887L69.49385125365451,65.91993600389446L70.48889006433554,64.37280545556358L70.63749638279754,65.90490408105025L70.67230975110857,66.91176729997217L70.74141688521854,67.43048524303263L70.80844560928007,69.0696879736283L70.92067975189477,68.25558064775906L70.9580911327663,69.20582768564375L70.99550251363787,68.99186891011733L71.03343349702152,70.09320624645991L71.14203042205146,71.25354920321371L71.27972508775929,71.09888227674867L71.45898795443551,72.38372404697819L71.49172291269812,73.30946399655434L71.52341866593653,72.33608072490233L71.75516138633533,71.67311266312969L72.39635088627286,74.34544494633586L72.5470356147833,74.80237773972341L72.62653479913537,73.57988365746228L72.81411130600527,75.03138605386938L73.69379835899899,75.14823579350914L73.7603074805484,75.01396244091046L74.68727836214367,75.72612843631411L74.74443463847524,77.29177967907818L74.89563896949777,77.67840336459972L74.9704617312409,77.5138479838833L75.24169424255967,75.9682311428424L75.45525087503484,76.46248388673696L75.58878872064581,76.47830471853331L75.84131554152881,74.84233394393723L75.90678545805405,74.65894153231872L76.12501851313814,74.203749588337L76.18996882715126,74.13941857298111L76.28349727933015,74.97328954417992L76.31986945517748,75.50725975091062L76.39417261440852,75.65613345200514L76.66800313828782,75.58532017157125L76.70905173674413,76.51912137733409L76.82024667433458,76.26489631333831L77.03068569173709,76.58098065095386L77.13252778410967,76.9054578983551L77.45831855919948,76.04554670408764L77.59029759727414,75.61782660522964L77.70409054742512,75.81070018229904L77.7425411333209,76.77056321064141L78.86488255946765,77.54734346030891L78.89709791521814,77.67459535020515L79.0280377482686,76.77745531543422L79.0592138989949,76.89983688189795L79.09402726730592,77.13766831306475L79.13455626325012,77.92438784768098L79.28108417166372,77.10990244969254L79.31797595002317,76.5186224533861L79.43280810519836,76.02053361049352L79.47021948606992,77.16910061915564L79.77834377574818,78.03691958316656L79.92175406908915,77.94884801502842L79.99865524088068,78.40348881553626L80.07295840011169,78.13803296406292L80.11140898600745,77.59767256055763L80.43927817114569,78.63480397832014L80.54060066100615,78.98092471365958L80.83313687532126,80.51710582140936L80.89964599687069,82.48145431296075L81.04565430277219,82.61637164548823L81.08670290122848,82.63419160284629L81.27012258800154,81.54384343994758L81.52005139632405,80.18938898712214L81.90247884523328,78.18544587374065L81.97522319692798,76.72927015279008L82.19865227713312,75.88976335806548L82.30361198457832,74.6565885248551L83.14328964413995,74.7864983205032L83.2731902721662,74.46973939193738L83.41556136048297,74.53355113591016L83.4836292895687,75.60304983915144L83.65561772107547,76.43555012426442L83.68523506426544,77.23747101807736L83.71641121499174,77.67962322453472L83.99855537906474,77.20332148767892L84.20951399897935,77.70670675266491L84.351365484784,78.35795903019802L84.38981607067979,77.99323464977282L84.41891381135765,77.5379578384122L84.7259988960117,78.00594829487291L84.90630096771211,79.6153871997481L85.40356057179658,79.95551387628952L85.4783833335397,81.32584286461858L86.24323823135822,83.31456516892543L86.28428682981449,84.04361591026623L86.4318539432523,83.13300889951412L86.46978492663598,82.47705018822761L86.50823551253174,84.13165063174121L87.90856428265464,82.86326480259483L88.09717999454874,82.65884315003636L88.35386363552858,80.70901397191321L88.39023581137594,80.59987534425834L88.58560635592742,80.2532534597672L88.65055666994054,81.1163367265715L88.8350155617378,81.68821466651082L88.90620110589617,82.21791328356379L88.97842585507877,83.03456456238546L89.13014978861342,83.75507232505923L89.72249665241308,83.56090287715912L89.79056458149884,83.92120707568453L89.85395608797565,83.4624191158532L90.12674740683075,81.88243860864046L90.22495228161858,81.36548624321227L90.51281207332475,79.21480696498672L90.613095358161,76.94600635302456L91.50785088400575,76.47465626438546L91.93184653388342,73.19348654179637L92.17554011206066,65.4276039376865L92.39169475709632,57.3290896949939L92.53978147304623,53.508813971606486L92.5777124564299,53.12100959710712L92.61512383730147,50.19874973092479L92.65253521817301,49.27541385831512L92.88427793857184,50.61919700838986L93.26462697743267,55.13653076040089L93.4449290491331,60.31599537901272L93.48545804507728,60.52474743178203L93.6039274178372,61.56616292531358L93.83567013823604,63.17644679390027L93.914649720076,65.47441039653275L94.03156028529962,66.85747501638166L94.1453532354506,66.88394277390474L94.25706777555317,67.2383176672508L94.29603796396104,68.6353003259325L94.97308003723381,72.32160171437873L96.12919562666737,76.91623113984323L96.28143916271412,79.72951991524492L96.83481583810592,82.6063234180488L96.92366786767587,84.79788340128624L96.95692242845058,85.57173096196946L97.02862757512106,86.40592005769528L97.05980372584736,86.5723688550444L97.83505067390797,84.50708294174876L97.86986404221902,83.95614198486034L98.05016611391945,82.70621440620882L98.1509690012678,82.01664038802865L98.29957531972983,81.68856789431855L98.37387847896083,81.87256082987996L98.52664161751969,82.73199191672205L98.67628714100593,83.9569198699532L98.82541306198006,84.69391610868117L100.5343857242933,87.11106908645591L100.57127750265275,89.21849138467891L100.92980323600518,89.0940034758891L101.19480051717872,88.98949157934858L101.23065309051397,89.59573670433655L101.33041677283812,89.78220044516098L101.40471993206913,89.97975060685363L101.44317051796489,90.52412852549764L101.73570673228,88.93325575741363L101.97420428533617,89.67502460744538L102.45951303164222,88.57538661522928L102.49172838739273,89.04115333880382L102.59824690237424,89.58145759728734L102.8351856478941,88.65028036134068L103.24307361989652,88.96355699056511L103.41766006396377,87.77784547918866L104.22356356023859,88.4273654948944L104.27968063154592,88.95365737498616L104.5062273268237,90.11201137194873L104.75096011002513,90.56632375284663L104.78941069592089,90.23156512755745L105.08922134540546,92.06428017804852L105.21652396087119,93.62759092791897L105.28459188995693,94.5607756858566L105.4170905305437,94.84412053194328L105.73145005036721,94.98352828173208L105.99125130641968,95.12745527628256L106.02970189231546,95.49182299850082L106.18506304343487,96.25674880245737L106.46512879745943,96.56197142506143L106.78104712481925,97.61047580340471L106.80962526298501,97.25362862422774L106.93848668598706,96.81180848267901L107.11203392503012,97.1030256896786L107.22478767015689,96.44736385353987L107.29077718919423,96.75779031885392L107.38794285895787,96.05337884905042L107.49290256640306,95.05591719763558L108.37310922190886,93.75191350611976L108.65629259100608,93.6875109413991L108.9306427173975,92.49327889565741L109.06262175547216,91.36757969413708L109.16290504030843,90.93693196805924L109.20083602369209,91.29270907694296L109.40088299085252,90.9023142720466L109.42998073153039,91.42572141127197L109.68926238507076,91.11238277427742L109.82435903821806,92.08437820966438L109.86177041908961,91.99568208219341L109.89866219744906,92.36064812582579L109.97140654914377,92.50303682903746L110.07740546161317,94.60999668853651L110.3195402322541,95.3252483288915L110.35851042066197,95.56549459624911L110.63961537971075,95.57918804238707L110.67702676058231,96.26086466799003L111.00385674069634,96.64000855594226L111.12024770340786,96.42135973954956L111.18363920988466,97.799919731602L111.21949178321991,99.12008430010361L111.28807931481775,99.73205160955509L111.48085184680872,99.461036322701L111.51930243270446,98.93236075196982L111.5951643994718,98.39160122532923L112.39898948569818,98.14946840739414L112.43016563642449,98.50103860662422L112.59487963276176,98.13015305328386L113.13526624535093,95.755519117026L113.48184112092495,95.39174809532409L113.70475059861796,95.19356528514771L113.97494390491255,97.48320147298374L114.01027687573568,100.5979364412411L114.3552929437734,101.73203267626305L114.6280842626285,99.77860850920078L114.97829635578725,99.06734469491505L115.09468731849877,99.88271470933338L115.36643943232967,99.08291499088848L115.4428210016091,97.09848830725215L115.60129976780112,95.18752125118698L115.98788403680722,94.72510698710587L116.02581502019088,94.07583143086173L116.8743259224583,95.0170503792368L117.03540270121084,94.86681625217356L117.18037180208813,92.71352970381433L117.65476889563996,94.22592479441155L117.71712119709254,95.77631627713654L117.74985615535518,96.81881486849241L117.94834431497927,98.85073032120307L117.981598875754,99.19668009798728L118.02004946164976,99.8666364433218L118.09435262088076,100.45504613915926L118.15566571730916,100.30638312649542L118.55939686921472,100.54410826720904L119.17252783349859,100.2015076883093L119.37932963331635,98.20222556574961L119.62510162154199,96.75026333200888L119.83138381884766,95.99881342633175L119.96751967701917,96.12184228140902L120.03922482368966,96.01097693165502L120.11612599548118,96.62367887889957L121.0914199107022,97.00179793419328L121.20313445080478,97.56965390249185L121.27899641757212,97.99989649750908L121.38291691999312,98.92913396855448L121.47176894956306,99.04003322432631L121.580365874593,99.27385199065446L121.91810750746123,100.5020234599561L121.98253821896226,101.35214895045006L122.40185744623096,103.21293805321251L122.43926882710251,103.64614004828975L122.47200378536513,104.2755911594847L122.93029320104169,103.62618635111318L123.06019382906797,102.08583336742765L123.19632968723948,100.94827188298471L123.32259309768098,100.68959343932481L123.35480845343149,100.25354821823117L123.46340537846142,99.87301659374724L123.53614973015613,99.44477978153932L123.60369805672974,99.30684237037582L123.9123419489201,100.21435912427306L123.99599795336903,100.56305174074386L124.10303607086261,100.67417253607323L124.22306425115887,100.67971110175878L124.32958276614042,101.4268170451899L125.15523115787519,101.15672315986865L125.24564199498145,101.50486270309523L125.35891534262036,100.50009194482948L125.96633067927105,101.81933748848189L126.23548478054143,102.82311816918872L126.43397294016553,104.80388007055618L126.47138432103709,106.36292621705097L126.50931530442074,106.97438639447444L126.57842243853072,106.88019273004778L126.61999063949912,107.81783429689871L126.70104863138748,108.08013816538696L126.77639099564271,108.5374509129349L126.93590896685893,106.76163773643654L127.08243687527252,105.35406326774657L127.27468980475136,105.22701015903006L127.33340488861923,103.78283993599433L127.55839277636068,102.56776072577537L127.62126468032537,101.08423214001016L127.65348003607589,100.91834037946509L127.8103999947316,100.85705427046709L127.94913386546362,101.04289935014951L128.1148870668251,99.8938155535082L128.18451380344717,99.54611550519473L128.22244478683083,98.82586124099905L128.5861665453043,100.31521557509248L129.37492315867965,101.93172970205548L129.4970297490243,104.0209905805075L129.6014698539574,105.45022749241089L129.70019433125736,106.45869733798455L129.73189008449577,106.87352203997098L129.8394478045015,106.98966546323933L129.87685918537306,107.7137198035632L129.94960353706776,107.60395110813565L130.1314644163045,107.7638409743944L130.17095420722447,108.82190945305271L130.4250398356438,107.98047713779933L130.4546571788338,107.68543952313466L130.60066548473526,106.06795945111706L130.6760078489905,105.9471490524455L130.73628174039467,105.82713250301627L130.8791724312235,104.7460158740875L131.2096396289223,103.8054445290036L131.28602119820175,102.73756094968847L131.3551283323117,101.27621377030188L131.39617693076798,100.18136857283484L131.54790086430265,98.83683912529054L131.6575369943568,98.02670803340082L131.94227917099033,98.18249609101267L132.07841502916182,98.08848110144118L132.589184298561,101.40137142794553L132.73986902707145,101.45569110759739L133.56811543136675,103.12820027060026L133.72451578751034,104.14047189758406L133.76192716838193,104.33499670345446L133.82843628993135,104.8533434239912L133.90325905167447,105.49825152785169L133.94067043254603,105.45220685676513L134.01549319428915,104.45901060377552L134.0830415208628,105.03320293122609L134.1147372741012,105.41085071799263L134.3636268773995,105.59114707194755L134.46287095721152,106.33499448043622L134.63226137615774,105.77387073583257L135.02819849038173,106.08598307685199L135.16277554101694,105.36135120979162L135.26721564595002,105.09935428473963L135.6111925089635,106.43209753765697L135.8050042459787,108.35566859090392L135.8387784092655,108.81133320564993L135.90944435091177,109.29729808412064L136.00920803323592,109.01809466109404L136.10637370299958,109.82292596819909L136.13962826377426,111.1700720615029L136.16976520947637,111.65292880014017L136.5204969051472,111.9415658617373L136.55894749104297,111.23243182950405L136.59635887191453,112.36904342829878L136.67118163365762,111.46145355001178L137.87562025671696,110.88069014249983L137.9109532275401,110.4257361514724L137.9530410310206,110.84962451267434L137.9920112194285,110.48184144239879L138.27727299857412,110.68503004723932L138.60514218371233,111.14987418374557L139.21463593041148,109.29954155750725L139.6957878566207,107.99713833792691L139.84127656001004,107.99898046169639L139.87297231324845,106.24180774672904L139.93428540967685,105.88677645359508L140.21331195867722,105.59655849272201L140.27358585008142,106.27388721066889L140.40504528564395,107.37800392011408L140.7422673160001,108.95172201928537L140.99219612432256,109.0395127917373L141.7965408130611,109.13779259502661L142.17065462177663,108.19903901162988L142.43669110797438,108.3990984546221L142.65908098315535,108.13420444300371L142.69441395397845,107.69933175745311L142.75832506296734,107.01648182554884L142.82743219707731,107.27060041626193L143.0035774486809,107.53442645738524L143.67854111190525,109.58242760480466L143.87702927152938,110.17683604739283L143.91288184486461,109.49308469951242L144.24750586266018,110.04075355165604L144.31765220179437,110.79363193734167L144.42572952431223,110.33213225466204L144.4558664700143,110.47638233704347L144.48756222325272,110.4722584086227L144.8227058435604,110.61265764519007L144.85388199428672,110.56685434422366L144.95156726656242,111.25131801767918L145.9299787968561,109.16745283152873L146.087937960536,107.86802192834749L146.15808429967018,107.59469500799415L146.22615222875595,107.33836468040582L146.2848673126238,107.18658448257061L146.58259955205995,108.76308817314171L146.72185302530406,108.5626418853413L146.85279285835455,108.14144899889479L146.9276156200976,107.50206467582434L147.03465373759127,107.50227604377486L147.31212147905535,107.41036924216937L147.34277802726953,107.24651084730093L147.49190394824365,107.36123779558716L147.7059801832309,107.12690185931247L147.76313645956245,106.75030894394295L148.17258323910116,106.5531776586766L148.20791620992432,107.16426945955894L148.23701395060215,107.87498616545413L148.26870970384056,107.78569586418128L148.38146344896737,106.77388000147371L148.5103248719694,105.41885718601262L148.69530336627875,104.55696069800725L148.7327147471503,103.59851081609611L148.8465076973013,104.262721092458L149.11618140108376,105.46053218305899L150.05302473040905,105.22844804434601L150.17617052577788,105.23400685918192L150.29256148848944,104.36203162621375L150.3310120743852,103.7470347007955L150.5191081837672,104.00982757674875L150.57678406261087,104.31583336410482L150.76072335189602,103.05453544250616L150.86983987943808,103.98659262360651L150.97272117683485,103.23317601451029L151.00961295519429,102.87622244962427L151.14834682592632,103.4523758936513L151.75887977764967,103.99938122223038L151.88618239311538,104.9663382617609L151.9500935021043,105.62470635778314L152.10961147332048,106.41114740641684L152.26705103448833,107.09729201292556L152.6941642994386,108.3786253058453L152.83549618273116,109.42904702110339L152.943573505249,107.75734315114633L154.2379033629025,110.68118532352895L154.59954671132752,112.54015105336843L154.63643848968698,113.99119810069462L154.7398393895959,113.88401650000499L154.97106250748257,113.27676570016202L155.215795290684,113.26326433421731L155.24697144141032,112.63673277992213L155.27502997706398,111.64275164784353L155.30516692276606,110.91667792688062L155.33478426595607,110.83141766671551L155.36388200663393,110.16790266210114L155.63563412046486,109.04321393658101L156.43218477152178,105.0748979853452L156.4685569473691,103.16958363010532L156.50752713577697,101.9580979256034L156.76265196922049,101.80318748700144L157.16274590354135,102.62186141058324L157.23289224267552,102.78801053863796L158.50124197472374,106.22699412783204L158.5386533555953,107.02204346309846L158.64984829318576,109.44264913433639L158.71012218458995,110.24725999473984L158.74753356546148,109.93524630319399L158.82391513474093,109.27298544683741L159.53836858888528,109.49818869349717L159.7191902630978,110.92410348448485L159.8251891755672,112.66049806537356L159.92495285789136,113.06797477015047L160.2533416455417,113.7951632239115L160.29127262892538,114.66742842343334L160.51054488903367,115.79347860347806L160.58328924072836,116.50258459094464L160.62018101908782,116.85609078588162L160.8280220239298,116.5137135750015L160.93090332132658,116.61676912339587L160.96104026702866,117.15181599573927L161.14445995380174,116.70277008360318L161.2120082803754,116.99060000140676L161.28838984965478,116.33155330324807L161.4006239922695,115.23917507823668L162.48659324256886,114.34805018660184L162.6591012765877,114.26637302763035L162.7282084106977,113.90059818173907L162.75886495891186,115.2070945280613L162.79004110963817,114.4440818222585L163.1584392907206,113.57313547545643L163.51696502407304,113.6244700438706L163.81157964843652,113.77079047747903L164.4257498177446,114.14244789061851L164.6710022034582,114.92269980358746L164.71049199437815,114.64336132700922L164.81441249679912,115.57416138359733L165.1656637949821,115.6589663107069L165.36051473702145,114.9690397908509L165.50340542785034,114.09553118510689L165.67643306438129,112.72358389723185L165.75021662110018,111.63773578005767L166.5872962681013,110.38952544136056L166.64445254443285,110.34102369382407L166.7042068333249,109.63786813740477L166.85696997188379,109.11631285978304L166.89386175024325,108.91693147921883L167.0045370853216,108.97422102783368L167.22173093538146,111.34591314783134L167.2882400569309,113.17602388103258L167.38020970157348,114.46764645329304L167.6545598279649,115.43977560897159L167.7278237821717,116.04365529496248L167.76731357309166,116.74328944543478L167.80472495396322,116.31718140579295L168.0842711054757,118.01374786289878L168.61894209043172,117.83312530720136L168.69480405719904,117.66515998540447L168.76962681894216,116.58378011395043L168.84444958068525,115.40719901221118L168.9197919449405,115.62639542293434L169.2424651049577,115.14132878878601L169.36093447771762,115.37474663819373L169.8316943536847,115.45397472336256L169.98705550480412,115.2891529895316L171.164474797234,114.40666460667904L171.47987352208168,113.42350113471883L171.99583881660192,114.8061395500288L172.03013258240085,114.30908881091003L172.24680682994864,113.59716505227215L172.28162019825965,113.11954293908416L172.35020772985752,112.72591555479302L172.4551674373027,113.04212691509265L172.6204010361521,113.43911007121956L172.73315478127887,115.22945226594152L172.77316417471096,115.55052185561944L172.84954574399038,115.7226293990687L173.37018746111954,118.62284014804757L173.62791030712364,120.49415082614132L173.77028139544038,120.96457978932872L174.02696503642022,122.86027007828743L174.06177840473129,124.23982978575434L175.14047321986118,124.640794661533L175.26206020769376,123.69806779982798L176.33451979267844,119.45153046124892L176.44259711519626,116.97247047534137L176.68265347578875,115.42166789285228L176.77722113299183,115.7552514373752L176.80995609125446,115.29021694771899L176.87438680275548,115.78722052327547L176.90608255599386,115.7462700755855L177.1248352135901,117.03391062926283L177.18562870750634,117.1984690853782L177.51869391776566,116.81597586905991L177.6605454035703,115.3149690024657L177.91411142947752,115.24635999218381L177.97178730832118,115.39009908555349L178.02790437962852,115.75086192743814L178.14845216243685,115.37397791736078L178.23990220456733,115.93283470050174L179.43342917487246,117.04422670991516L179.46408572308664,117.9118277419037L179.49630107883715,117.5325756136603L179.6766031505376,117.22667303188628L179.93796321412637,117.64296371163661L180.11254965819367,116.50799026172291L180.14112779635943,115.9600295186034L180.17022553703728,115.63053031432568L180.29025371733357,116.65373790610442L180.43730122825926,118.1389942337963L180.63371097783494,116.70740288209635L180.87272813340323,115.9887311840726L180.99015830113893,115.55270500520228L181.104470853802,115.77732680454308L181.16162713013358,116.36144450999576L181.3315371515919,116.86344393770003L181.41727156608923,117.87446748729468L181.47390823990867,118.9253383099622L181.5305449137281,119.42742090999204L181.59237761266863,120.2469454953244L181.6848668598233,121.85811283313154L181.8428260235032,122.87625073504901L183.06337232443778,122.93862782824863L183.21509625797245,122.82770613232468L183.36422217894653,123.03746150658863L183.88434429356363,121.74117307090081L183.99709803869038,121.88132823123024L184.0807540431393,122.10041613881961L184.22312513145607,122.70812731481632L184.3919959478902,122.29283329609302L184.42057408605598,122.63603253685119L184.53332783118273,121.99567712609448L184.58944490249007,121.67293412427217L184.7593549239484,121.53563843276578L184.78949186965048,121.34414238861089L184.97083314637513,121.47351563528481L185.18231136880183,120.3574575615749L185.36417224803859,118.61141719204296L185.45458308514486,117.92073901658128L185.64319879703896,115.96418750957363L186.83308854975934,116.52735992010855L186.89648005623616,117.04038200339164L187.11679152136864,117.4991301078169L187.21239838359597,118.10337000966854L187.3080052458233,119.34605121071723L187.36879873973953,119.44755696115638L187.52260108332266,120.30639642571327L187.99959618943498,120.47854371609512L188.05623286325445,121.41725851342153L188.0848110014202,120.84527366274148L188.19756474654696,121.17460229312101L188.22510367968854,121.07480585533867L188.3451318599848,120.78730918693637L188.4059253539011,120.88305473886584L188.58830583564992,120.06249730518479L188.62000158888833,119.97328671295755L188.8345974263877,119.10501842138162L189.17961349442535,120.15310511972584L189.32977862042372,120.83816054983099L189.41915025250574,120.34805719605049L190.51447234802305,121.33702016291515L190.54408969121303,121.08648447568362L190.72023494281663,120.90254764144046L190.74985228600661,121.6106629215693L191.17540674342055,121.75747047199187L191.2959545262289,123.4198659310563L191.35622841763308,124.14326327422826L191.4170219115494,124.11689384145426L191.50743274865565,124.56222066893261L191.59992199581035,124.24332052433135L191.87271331466545,123.82869460426203L192.05457419390217,122.62584217614103L192.1174460978669,121.48470900703225L192.444795680493,121.17457897042681L192.4754522287072,121.90853304120934L192.662509133065,121.85491800321657L192.87606576554015,122.60962178188538L194.41616761141927,124.39794057289505L194.50138242340446,125.77536699095191L194.5860776328776,126.27852084152806L194.64323390920913,125.61477571930979L195.24077679812987,124.72538568498581L195.32547200760297,123.92599840771067L195.43978456026608,123.485323435033L195.46784309591973,124.26864263325352L195.5005780541823,124.46883416403368L195.68295853593116,123.89634258284562L195.7697321554527,123.93671822002085L195.82688843178425,123.23048889267481L196.07941525266727,122.2336396604041L196.19164939528196,123.32474174635189L196.27582500224295,123.25866616861975L196.4192352955839,121.85524369202722L196.64838000342223,121.31599019807936L196.76321215859744,121.39526857271535L196.81984883241685,121.33139483851562L196.8770051087484,122.20634024822974L198.0159738152825,122.66680667333785L198.07364969412617,122.53037358849973L198.16561933876875,122.68557491676296L198.53453712236325,122.42093745875962L198.65196729009898,123.2260177226137L198.79381877590365,124.1328205655866L198.8535730647957,124.56071706859498L199.14143285650184,122.18930503740606L199.19754992780918,120.70215736663934L199.25990222926183,119.68736479236905L199.63349643546528,119.77955774563266L199.80808287953252,119.71195449639887L200.10581511896868,118.99799639315283L200.25598024496702,119.0963657107131L200.4544684045911,120.45425929513623L200.54072242160055,121.88190530813974L201.38403729874693,122.30283060764141L201.9769037650587,123.48779780130046L202.00600150573658,124.41453939175554L202.03613845143863,124.86724420601388L202.18006834729172,124.51229280473099L202.24190104623221,125.3366878013059L202.42116391290844,125.78379091101266L202.53495686305942,125.51201270506738L202.76046435331298,124.71433885492203L202.78852288896664,124.4981280483311L202.93712920742865,122.93878901526011L202.96778575564286,121.35678554158054L203.08781393593912,120.59741845732505L203.40425186581106,119.30766344597433L203.57572069480565,118.43199453222326L203.74978753636086,115.82646586732152L203.83500234834608,115.3246267279936L204.16443034102062,115.07478542104636L205.07841115981324,115.34349371842231L205.20155695518213,117.17194343896472L205.26338965412262,117.38935904296045L205.4177116002178,119.48616925528553L205.53722017800192,120.60214390559779L205.6920617266092,122.33050893441738L205.8359916224623,122.46615161306747L205.95601980275856,123.67856109738558L205.98823515850904,123.56292341938952L206.05006785744953,122.99365676850017L206.33273162403466,122.17154831024214L206.36442737727305,122.34383996489598L206.6954141774839,122.88764317785422L206.7567272739123,122.93704423190508L206.78582501459016,123.02823382522934L206.99730323701692,124.99977801226694L207.0580967309332,125.5101670936424L207.08667486909894,125.68974249882868L207.11837062233732,125.87929540627451L207.14954677306366,126.6809822349138L207.26282012070254,126.88295591719097L207.32049599954618,127.64262561804699L208.7545989329559,127.73420013806415L208.85020579518323,126.76726107026892L209.22016278380198,127.48425933378527L209.27731906013352,128.05929979206593L209.4254057760834,127.641177062552L209.45450351676132,127.56939723303896L209.51114019058076,128.1315822521911L209.75171615368535,129.83577610797443L209.90915571485314,130.32274275462348L210.13154559003408,131.0657880235233L210.95563517423255,129.36802109293404L211.15412333385666,127.78126924942859L211.47575728884965,127.75755480171667L212.3923361202028,129.16348557473702L212.65733340137635,129.50168921424552L212.6859115395421,130.02602062990763L212.97636934380878,131.62248518257869L213.00442787946244,132.85635744095146L213.03404522265242,133.70504088670106L213.09535831908082,134.01703809363798L213.15407340294868,132.92298255456313L213.21019047425602,132.90001119388486L213.2392882149339,132.96959963301708L213.27046436566022,133.0904732738853L213.33437547464914,132.9935249242397L213.8934677776741,131.3075250834761L214.0519465438661,129.7294471772379L214.2104253100581,128.27946039856425L214.3060321722854,127.31706975176928L214.3969626119038,128.06261600183586L214.5492061479505,128.0205039245525L214.88798698584299,129.1230582346501L215.1716899574523,127.60798956890014L215.2579439744617,127.29920638168234L215.28600251011537,127.39570132933432L216.34755044234583,127.82628759659158L216.51798006631626,128.0750109268933L216.95184816392393,129.59917471815433L216.981985109626,130.19070374776072L217.15916956625378,130.3626237463343L217.2724429138927,130.1483917769214L217.36077534095054,131.14623579095309L217.53795979757834,131.10511495341572L217.59459647139778,131.05625151236273L217.85387812493815,129.50951648631755L217.96715147257706,128.27589178541595L218.13965950659588,127.80246133085508L218.29138344013055,126.3484360993507L218.46337187163726,126.16626597224297L218.57924323183667,125.769635227474L218.72265352517766,126.24051103235684L219.70574147808028,127.46963534647182L219.8252500558644,128.68074210564123L220.0829729018685,128.58276744395732L220.1707857264142,128.62841050258265L220.51891940952456,128.99677013884443L220.71896637668493,130.13266209818352L220.8072988037428,130.79203148999807L220.86757269514698,131.53489560304155L220.89563123080066,131.44810929218295L221.01202219351214,131.86545477833695L221.04060033167792,132.0166259096766L221.0681392648195,132.09359617876584L221.41783175546612,131.26394185059874L221.58774177692445,130.33609369006265L221.61631991509023,129.510264627852L221.6765938064944,128.56277125785127L221.8210433048596,129.0770174202513L221.85066064804957,128.8771188910965L221.94107148515585,129.09459345283875L222.1146187241989,130.69688981147934L222.23464690449515,131.66615714292755L222.44768393445818,132.08738325005078L223.66147540273542,132.3757594909706L223.8402186668995,131.024773998157L223.956609629611,130.21154570769042L224.04494205666884,129.68065112240652L224.27460636701926,130.34253972702845L224.33591946344765,130.0582834574866L224.7183469123569,130.20791166963295L224.84253191275,131.0406985503678L224.87318846096417,131.3384527326329L225.43176116147706,131.54436969275406L225.45981969713068,131.4348231268581L225.54815212418853,130.9797001510418L225.75599312903054,130.2339781481272L225.817825827971,130.65109638643165L226.06463702122088,129.53417319808597L226.12543051513717,127.65181389570088L226.15504785832715,127.4591003645092L227.32727112563595,128.24662685635562L227.3833881969433,128.26702516638417L227.41248593762117,127.8934578620694L227.6457874655563,128.62084681107922L227.6748852062342,128.92633210056482L227.7601000182194,129.5161927677079L227.81829549957516,130.25665252877934L228.07497914055503,131.2598102679151L228.15967435002813,132.0371849275617L228.2178698313839,131.7389098616979L228.27554571022753,131.8302349979636L228.64394389130996,132.23816196528327L229.1614679933665,131.19250457194585L229.31475073443747,130.26749826120673L229.62339462662783,129.5418089945589L229.81304954354613,128.1228357403438L229.93723454393924,128.37106429837579L230.8262744421508,128.23379626043072L231.0117725389723,127.84790195321423L231.07308563540067,127.99780290667289L231.19051580313638,127.96697126470278L231.39108237280894,128.31527932660504L231.4196605109747,127.44114628809524L231.4503170591889,127.59897902437748L231.76051975891556,127.97269561298178L232.24946572280632,129.13734159274742L232.39287601614728,129.94736241489727L232.5383647195367,130.52880048585467L232.68645143548662,129.97726378703916L232.71658838118867,130.00982126375692L232.77478386254447,130.20475347167877L232.86519469965074,129.8218645324593L233.1561721064295,128.71762212172595L233.2720434666289,127.4253966711093L233.30010200228259,127.50633689924226L233.47209043378933,127.08185923738698L233.58900099901294,126.3056774042394L233.61861834220295,126.56158532458176L234.65470575134023,125.4157321151493L234.71809725781702,124.29865839149772L234.74719499849493,123.53792265806462L234.77629273917285,122.88068676756897L234.83240981048013,122.72763204450465L234.92074223753798,122.23562720251124L234.9488007731917,122.51503869818094L234.97737891135742,122.44746709255085L235.00595704952318,123.32195773927889L235.12026960218628,123.01108973976577L235.17742587851782,123.65250300621352L235.2652387030636,123.38564114256921L235.29329723871726,123.59918296427658L235.321875376883,123.8981044558746L235.3504535150488,124.75380536436577L235.40709018886824,125.11408342165599L235.49490301341393,125.80759998110607L235.52555956162814,126.43389664847837L235.70118521071961,127.43774812573037L235.88304608995642,127.79641786901105L235.94124157131213,128.09713062164147L236.02697598580951,128.39331411456575L236.37978609152873,127.48885092981371L236.60945040187914,126.98588895117504L236.63750893753277,127.17672170986839L236.66712628072275,126.54290521997332L236.8411931222779,126.0536469732855L237.0448773070231,126.92350048820772L237.1934836254851,126.82149319216117L237.31247260075716,125.69497870416336" style="fill: none;" fill="none"></path></g></g></g></g><g opacity="0.2"><g><g><g><path stroke="rgb(255, 112, 67)" stroke-width="2px" d="M36.60820826253096,150.00521516003494L37.0831249585949,84.40074772068719L37.30811284633635,33.97702449236024L37.856293496607094,-22.500498098794935L38.427336657410464,-14.73172184688508L38.97188009009646,1.4171339919361685L39.08307502768693,4.348831721427217L39.251945844121046,14.35669204714813L39.53357040568194,7.092147123801908L39.786097226564955,7.961085206458051L40.99469266972111,18.28810419464392L41.07938787919422,23.670006590757083L41.10692681233579,17.356246772532103L41.30957179205672,15.551515454661995L41.45921731554296,25.39723817063401L41.697714868599135,25.888338195484124L42.15808269432414,29.534493343372077L42.519726042749205,17.174108076200497L42.68392043657437,23.60241794575751L42.79511537416484,19.294724175636958L43.11311211157308,18.422422761784446L43.14792547988411,17.996621454310883L43.495539560482335,24.20232531282238L43.6701260045496,26.232900742517472L43.744429163780616,27.08303637258112L43.77924253209165,26.360474757205708L43.914858787751044,30.270025251925006L44.96445586220309,25.94463821290438L45.25803128154239,28.067633690261687L45.29596226492606,27.22674722098813L45.48665638686858,25.32337011473055L45.84778013278154,25.123037227831333L46.052503522550886,20.92025076694253L46.23228599173921,27.83363171127951L46.34919655696283,27.285301385912305L46.784623462106794,27.506780323205817L46.996101684533514,27.817315976965176L47.181599781355,31.691354703467397L47.295392731505984,34.85623146920108L47.42945017962906,32.79288145040084L47.57701729306688,32.942907489830844L47.657036079931046,36.81667786543974L49.13686403440599,35.01885211055793L49.29378399306169,36.03366573882727L49.333793386493774,35.540168445996784L49.51825227829104,33.632587175743765L49.69647593994304,32.63455442333722L49.78117114941615,36.93391142570505L50.080462196388616,40.95935372622304L50.11787357726017,38.450845355510495L50.37767483331266,44.91472066346324L50.52524194675048,43.42107959119869L50.84271908164661,42.036943573471575L51.13265728340118,41.79757457662288L51.690190778889814,41.192657992882516L51.84191471242446,43.45848770572863L52.06690260016592,48.10992108014298L52.20927368848268,46.18162312092505L52.27266519495949,45.958927659581775L53.517113211450884,43.09871860807334L54.565671080878715,50.35016800782516L54.60048444918976,54.038454245965625L54.66491516069076,50.67932721358149L54.878991395678014,47.913094644916555L55.20582137579204,50.416486458596324L55.28168334255937,48.32431555385264L55.31753591589462,50.090815814453265L55.42457403338823,50.16117741868392L55.65527754876285,50.98830643215953L55.97691150375582,52.44453938989413L56.089665248882596,53.288663959947215L56.12707662975415,54.790015647880054L56.47469071035238,54.73291057777982L57.83241207448266,51.549857511538036L57.9093132462742,52.81166130202662L58.399818017701286,59.26052685001255L58.581678896938044,54.530591894269946L58.64974682602378,54.95762761585283L58.75782414854161,56.687614264901256L59.003596136767264,57.43998071949565L59.23274084460556,58.11228915758046L59.29301473600973,58.8191433006664L59.37822954799495,57.449104649868815L59.57567850259484,59.71552473468023L59.76325500946473,58.37060372749815L60.12645716542611,57.967290224885474L60.323906120025995,56.948862804586L60.511482626895884,57.07618635844044L60.65177530516422,64.81971973631786L60.86533193763938,63.486606168442236L60.941193904406695,59.92226226290025L61.7569698484115,60.54562349804202L61.81412612474305,59.03071114496633L61.876998028707746,61.40668995449387L61.91544861460353,60.749588067030984L62.10042710891288,58.42853174033792L62.140956104857075,58.02874257945763L62.47298211009215,60.75207478530915L62.67822510237362,62.87703816921753L62.739018596289895,64.96509436026352L62.90581100267559,63.512385744261294L63.09858353466654,61.43948243365857L63.16613186124019,62.149789358238664L63.586490293533096,68.00014296380502L63.84629154958559,65.35973118399191L63.88318332794504,63.150326718982924L63.95229046205501,64.04830036829719L64.02347600621339,63.24222795491805L64.06036778457283,64.94602355677766L64.13622975134017,64.14599798352819L64.53528448063678,66.72808816919132L64.62881293281566,69.56464656196776L64.76546839349928,66.19811304492777L64.85951644819028,68.30176936790589L64.95304490036918,66.30851260244296L65.07878870829857,65.84793301919406L65.95327973617123,68.23618440957647L66.08889599183063,65.68397062337054L66.29154097155157,63.912228575320256L66.32843274991103,61.92911547362513L66.69319371340873,65.63575691286927L66.84543724945547,67.4069622591329L66.96754383980014,66.39937621492389L67.27255051440575,68.4029376546906L67.4216764353799,68.04391993953662L67.53650859055509,69.89155162022014L67.57703758649926,69.05463674416782L67.61548817239503,72.30653075957805L67.86957380081438,69.80959725739771L68.09871850865265,66.87095818479924L68.1751000779321,66.24729281864504L68.20939384373102,68.76376226585964L68.35176493204779,70.63926665933018L68.51440051833664,66.90815161861451L68.62039943080603,68.99214676614146L68.65469319660498,69.26894176757969L68.68794775737969,68.47956077976558L68.82824043564806,68.07220412369341L69.17065849112522,65.0449019159393L69.31770600205091,66.79522956270203L69.35303897287406,64.3232169134821L69.38577393113667,68.68547536524603L69.45955748785558,64.1994355914196L69.49385125365451,65.96160645760786L70.48889006433554,62.052109633067204L70.63749638279754,68.20305201928024L70.67230975110857,68.42206212835511L70.74141688521854,68.20856215762323L70.80844560928007,71.52849206952192L70.92067975189477,67.0344196589552L70.9580911327663,70.63119824247077L70.99550251363787,68.67093074682765L71.03343349702152,71.74521225097375L71.14203042205146,72.99406363834434L71.27972508775929,70.86688188705111L71.45898795443551,74.31098670232251L71.49172291269812,74.6980739209186L71.52341866593653,70.87600581742427L71.75516138633533,70.67866057047075L72.39635088627286,78.35394337114505L72.5470356147833,75.48777692980472L72.62653479913537,71.74614253407061L72.81411130600527,77.20863964848L73.69379835899899,75.3235104029688L73.7603074805484,74.81255241201242L74.68727836214367,76.79437742941955L74.74443463847524,79.64025654322427L74.89563896949777,78.25833889288201L74.9704617312409,77.26701491280866L75.24169424255967,73.64980588128103L75.45525087503484,77.20386300257877L75.58878872064581,76.50203596622785L75.84131554152881,72.38837778204312L75.90678545805405,74.3838529148909L76.12501851313814,73.52096167236441L76.18996882715126,74.04292204994724L76.28349727933015,76.2240960009781L76.31986945517748,76.30821506100669L76.39417261440852,75.87944400364695L76.66800313828782,75.47910025092045L76.70905173674413,77.9198231859783L76.82024667433458,75.88355871734467L77.03068569173709,77.0551071573772L77.13252778410967,77.39217376945692L77.45831855919948,74.75567991268639L77.59029759727414,74.97624645694259L77.70409054742512,76.10001054790317L77.7425411333209,78.21035775315494L78.86488255946765,78.71251383481014L78.89709791521814,77.86547318504958L79.0280377482686,75.43174526327782L79.0592138989949,77.08340923159354L79.09402726730592,77.49441545981496L79.13455626325012,79.10446714960527L79.28108417166372,75.8881743527099L79.31797595002317,75.63170245892641L79.43280810519836,75.27340034615465L79.47021948606992,78.89195113214892L79.77834377574818,79.33864802918298L79.92175406908915,77.81674066282119L79.99865524088068,79.08545001629807L80.07295840011169,77.7398491868529L80.11140898600745,76.78713195529969L80.43927817114569,80.19050110496389L80.54060066100615,79.50010581666874L80.83313687532126,82.82137748303408L80.89964599687069,85.42797705028785L81.04565430277219,82.81874764427945L81.08670290122848,82.66092153888339L81.27012258800154,79.90832119559954L81.52005139632405,78.15770730788394L81.90247884523328,75.17953120366845L81.97522319692798,74.54500657136423L82.19865227713312,74.63050316597858L82.30361198457832,72.80682627503951L83.14328964413995,74.98136301397538L83.2731902721662,73.9946009990886L83.41556136048297,74.62926875186928L83.4836292895687,77.20729789401337L83.65561772107547,77.68430055193394L83.68523506426544,78.44035235879672L83.71641121499174,78.34285153422081L83.99855537906474,76.48886888239522L84.20951399897935,78.46178465014385L84.351365484784,79.33483744649772L84.38981607067979,77.446148079135L84.41891381135765,76.85504262137127L84.7259988960117,78.707933979564L84.90630096771211,82.02954555706089L85.40356057179658,80.46570389110168L85.4783833335397,83.38133634711218L86.24323823135822,86.29764862538575L86.28428682981449,85.13719202227745L86.4318539432523,81.76709838338594L86.46978492663598,81.49311212129788L86.50823551253174,86.61355129701167L87.90856428265464,80.96068605887527L88.09717999454874,82.35221067119866L88.35386363552858,77.78427020472847L88.39023581137594,80.43616740277604L88.58560635592742,79.73332063303047L88.65055666994054,82.41096162677798L88.8350155617378,82.54603157641982L88.90620110589617,83.01246120914328L88.97842585507877,84.2595414806179L89.13014978861342,84.83583396906992L89.72249665241308,83.26964870530898L89.79056458149884,84.46166337347269L89.85395608797565,82.77423717610608L90.12674740683075,79.5124678478214L90.22495228161858,80.59005769506994L90.51281207332475,75.9887880476484L90.613095358161,73.54280543508133L91.50785088400575,75.7676311314269L91.93184653388342,68.27173195791268L92.17554011206066,53.77878003152176L92.39169475709632,45.18131833095498L92.53978147304623,47.77840038652539L92.5777124564299,52.53930303535809L92.61512383730147,45.815359931651216L92.65253521817301,47.89041004940057L92.88427793857184,52.634871733502024L93.26462697743267,61.91253138841746L93.4449290491331,68.0851923069305L93.48545804507728,60.83787551093593L93.6039274178372,63.128286165610916L93.83567013823604,65.59187259678033L93.914649720076,68.92135580048149L94.03156028529962,68.93207194615506L94.1453532354506,66.92364441018933L94.25706777555317,67.7698800072699L94.29603796396104,70.73077431395507L94.97308003723381,77.85105379704808L96.12919562666737,83.80817527803994L96.28143916271412,83.94945307834745L96.83481583810592,86.92152867225461L96.92366786767587,88.08522337614242L96.95692242845058,86.73250230299426L97.02862757512106,87.65720370128399L97.05980372584736,86.82204205106808L97.83505067390797,81.40915407180529L97.86986404221902,83.12973054952768L98.05016611391945,80.83132303823153L98.1509690012678,80.98227936075841L98.29957531972983,81.19645915375338L98.37387847896083,82.14855023322215L98.52664161751969,84.02113854698517L98.67628714100593,85.7943117997999L98.82541306198006,85.79941046677314L100.5343857242933,90.73679855311798L100.57127750265275,92.37962483201342L100.92980323600518,88.90727161270435L101.19480051717872,88.83272373453778L101.23065309051397,90.50510439181843L101.33041677283812,90.06189605639764L101.40471993206913,90.27607584939263L101.44317051796489,91.34069540346367L101.73570673228,86.54694660528762L101.97420428533617,90.787677882493L102.45951303164222,86.9259296269052L102.49172838739273,89.73980342416563L102.59824690237424,90.39191398501262L102.8351856478941,87.25351450742066L103.24307361989652,89.43347193440177L103.41766006396377,85.99927821212395L104.22356356023859,89.40164551845304L104.27968063154592,89.7430951951238L104.5062273268237,91.84954236739253L104.75096011002513,91.24779232419345L104.78941069592089,89.7294271896236L105.08922134540546,94.8133527537852L105.21652396087119,95.97255705272462L105.28459188995693,95.96055282276309L105.4170905305437,95.2691378010733L105.73145005036721,95.19263990641522L105.99125130641968,95.3433457681083L106.02970189231546,96.03837458182825L106.18506304343487,97.40413750839215L106.46512879745943,97.01980535896757L106.78104712481925,99.18323237091965L106.80962526298501,96.71835785546226L106.93848668598706,96.1490782703559L107.11203392503012,97.53985150017799L107.22478767015689,95.46387109933177L107.29077718919423,97.22343001682498L107.38794285895787,94.99676164434521L107.49290256640306,93.55972472051336L108.37310922190886,91.79590796884601L108.65629259100608,93.59090709431808L108.9306427173975,90.70193082704488L109.06262175547216,89.67903089185658L109.16290504030843,90.29096037894257L109.20083602369209,91.82637474026853L109.40088299085252,90.31672206470208L109.42998073153039,92.21083212011001L109.68926238507076,90.64237481878557L109.82435903821806,93.5423713627448L109.86177041908961,91.86263789098695L109.89866219744906,92.90809719127436L109.97140654914377,92.71661988385493L110.07740546161317,97.7704364777851L110.3195402322541,96.39812578942399L110.35851042066197,95.92586399728553L110.63961537971075,95.59972821159404L110.67702676058231,97.28337960639448L111.00385674069634,97.20872438787059L111.12024770340786,96.09338651496053L111.18363920988466,99.86775971968068L111.21949178321991,101.10033115285604L111.28807931481775,100.65000257373228L111.48085184680872,99.0545133924199L111.51930243270446,98.1393473958731L111.5951643994718,97.5804619353683L112.39898948569818,97.78626918049146L112.43016563642449,99.0283939054693L112.59487963276176,97.57382472327333L113.13526624535093,92.19356821263924L113.48184112092495,94.84609156277122L113.70475059861796,94.89629106988316L113.97494390491255,100.91765575473778L114.01027687573568,105.27003889362724L114.3552929437734,103.43317702879597L114.6280842626285,96.8484722586073L114.97829635578725,98.00044897348644L115.09468731849877,101.10576973096082L115.36643943232967,97.88321541322115L115.4428210016091,94.12184828179764L115.60129976780112,92.32107066708922L115.98788403680722,94.03148559098426L116.02581502019088,93.10191809649551L116.8743259224583,96.4288788017994L117.03540270121084,94.64146506157873L117.18037180208813,89.48359988127545L117.65476889563996,96.49451743030747L117.71712119709254,98.10190350122404L117.74985615535518,98.3825627555262L117.94834431497927,101.8986035002691L117.981598875754,99.71560476316361L118.02004946164976,100.87157096132356L118.09435262088076,101.33766068291547L118.15566571730916,100.08338860749964L118.55939686921472,100.90069597827944L119.17252783349859,99.68760681995971L119.37932963331635,95.20330238191012L119.62510162154199,94.57231998139784L119.83138381884766,94.87163856781608L119.96751967701917,96.30638556402486L120.03922482368966,95.84467890702399L120.11612599548118,97.54273179976639L121.0914199107022,97.56897651713388L121.20313445080478,98.42143785493967L121.27899641757212,98.6452603900349L121.38291691999312,100.32299017512258L121.47176894956306,99.20638210798408L121.580365874593,99.62458014014669L121.91810750746123,102.3442806639085L121.98253821896226,102.62733718619106L122.40185744623096,106.0041217073562L122.43926882710251,104.29594304090557L122.47200378536513,105.2197678262771L122.93029320104169,102.65207913855592L123.06019382906797,99.77530389189936L123.19632968723948,99.2419296563203L123.32259309768098,100.30157577383498L123.35480845343149,99.59948038659074L123.46340537846142,99.30221915702136L123.53614973015613,98.80242456322743L123.60369805672974,99.09993625363059L123.9123419489201,101.57563425511889L123.99599795336903,101.08609066545009L124.10303607086261,100.84085372906726L124.22306425115887,100.6880189502871L124.32958276614042,102.54747596033658L125.15523115787519,100.75158233188677L125.24564199498145,102.02707201793507L125.35891534262036,98.99293580743087L125.96633067927105,103.7982058039605L126.23548478054143,104.32878919024893L126.43397294016553,107.7750229226074L126.47138432103709,108.70149543679311L126.50931530442074,107.8915766606096L126.57842243853072,106.73890223340781L126.61999063949912,109.22429664717504L126.70104863138748,108.47359396811929L126.77639099564271,109.22342003425683L126.93590896685893,104.09791797168894L127.08243687527252,103.24270156471165L127.27468980475136,105.0364304959553L127.33340488861923,101.61658460144075L127.55839277636068,100.74514191044689L127.62126468032537,98.85893926136235L127.65348003607589,100.66950273864745L127.8103999947316,100.76512510697006L127.94913386546362,101.3216669696731L128.1148870668251,98.17018985854628L128.18451380344717,99.02456543272449L128.22244478683083,97.74547984470559L128.5861665453043,102.54924707623256L129.37492315867965,104.35650089249995L129.4970297490243,107.15488189818558L129.6014698539574,107.59408286026601L129.70019433125736,107.97140210634495L129.73189008449577,107.49575909295058L129.8394478045015,107.16388059814186L129.87685918537306,108.79980131404899L129.94960353706776,107.43929806499432L130.1314644163045,108.00367577378256L130.17095420722447,110.4090121710402L130.4250398356438,106.71832866491933L130.4546571788338,107.24288310113766L130.60066548473526,103.64173934309062L130.6760078489905,105.76593345443813L130.73628174039467,105.64710767887242L130.8791724312235,103.12434093069437L131.2096396289223,102.39458751137776L131.28602119820175,101.1357355807158L131.3551283323117,99.084193001222L131.39617693076798,98.53910077663429L131.54790086430265,96.82004495397408L131.6575369943568,96.81151139556624L131.94227917099033,98.41617817743042L132.07841502916182,97.94745861708391L132.589184298561,106.37070691770202L132.73986902707145,101.53717062707517L133.56811543136675,105.63696401510461L133.72451578751034,105.65887933805975L133.76192716838193,104.62678391226008L133.82843628993135,105.63086350479628L133.90325905167447,106.46561368364242L133.94067043254603,105.38313985013528L134.01549319428915,102.96921622429113L134.0830415208628,105.89449142240187L134.1147372741012,105.9773223981425L134.3636268773995,105.86159160287984L134.46287095721152,107.45076559316921L134.63226137615774,104.93218511892708L135.02819849038173,106.55415158838116L135.16277554101694,104.27440340920108L135.26721564595002,104.70635889716166L135.6111925089635,108.431212417033L135.8050042459787,111.24102517077439L135.8387784092655,109.49483012776894L135.90944435091177,110.02624540182669L136.00920803323592,108.59928952655419L136.10637370299958,111.03017292885669L136.13962826377426,113.1907912014586L136.16976520947637,112.37721390809605L136.5204969051472,112.374521454133L136.55894749104297,110.16873078115417L136.59635887191453,114.0739608264909L136.67118163365762,110.10006873258128L137.87562025671696,110.00954503123191L137.9109532275401,109.74330516493126L137.9530410310206,111.48545705447724L137.9920112194285,109.93016683698544L138.27727299857412,110.98981295450012L138.60514218371233,111.84714038850494L139.21463593041148,106.52404261814975L139.6957878566207,106.04353350855634L139.84127656001004,108.0017436473506L139.87297231324845,103.60604867427797L139.93428540967685,105.35422951389407L140.21331195867722,105.16123155141246L140.27358585008142,107.28988028758921L140.40504528564395,109.03417898428181L140.7422673160001,111.31229916804236L140.99219612432256,109.17119895041517L141.7965408130611,109.28521229996053L142.17065462177663,106.79090863653482L142.43669110797438,108.69918761911049L142.65908098315535,107.73686342557615L142.69441395397845,107.04702272912722L142.75832506296734,105.99220692769244L142.82743219707731,107.65177830233156L143.0035774486809,107.93016551907019L143.67854111190525,112.65442932593382L143.87702927152938,111.06844871127505L143.91288184486461,108.46745767769184L144.24750586266018,110.86225682987147L144.31765220179437,111.92294951587014L144.42572952431223,109.63988273064258L144.4558664700143,110.69275746061562L144.48756222325272,110.46607251599156L144.8227058435604,110.82325650004111L144.85388199428672,110.49814939277404L144.95156726656242,112.27801352786241L145.9299787968561,106.04165505230303L146.087937960536,105.91887557357563L146.15808429967018,107.18470462746411L146.22615222875595,106.95386918902324L146.2848673126238,106.9589141858178L146.58259955205995,111.12784370899836L146.72185302530406,108.2619724536407L146.85279285835455,107.50965966922497L146.9276156200976,106.54298819121871L147.03465373759127,107.50259309570066L147.31212147905535,107.27250903976109L147.34277802726953,107.00072325499833L147.49190394824365,107.5333282180165L147.7059801832309,106.77539795490046L147.76313645956245,106.18541957088871L148.17258323910116,106.2574807307771L148.20791620992432,108.0809071608824L148.23701395060215,108.94106122429694L148.26870970384056,107.65176041227201L148.38146344896737,105.2561562074124L148.5103248719694,103.38632296282088L148.69530336627875,103.26411596599922L148.7327147471503,102.16083599322938L148.8465076973013,105.25903650700079L149.11618140108376,107.2572488189605L150.05302473040905,104.88032183627654L150.17617052577788,105.24234508143577L150.29256148848944,103.0540687767615L150.3310120743852,102.82453931266815L150.5191081837672,104.40401689067859L150.57678406261087,104.774842045139L150.76072335189602,101.16258856010816L150.86983987943808,105.38467839525703L150.97272117683485,102.10305110086604L151.00961295519429,102.34079210229525L151.14834682592632,104.31660605969184L151.75887977764967,104.81988921509902L151.88618239311538,106.4167738210567L151.9500935021043,106.61225850181648L152.10961147332048,107.5908089793674L152.26705103448833,108.12650892268864L152.6941642994386,110.30062524522496L152.83549618273116,111.0046795939905L152.943573505249,105.24978734621074L154.2379033629025,115.06694858210288L154.59954671132752,115.32859964812762L154.63643848968698,116.16776867168389L154.7398393895959,113.72324409897055L154.97106250748257,112.3658895003976L155.215795290684,113.24301228530025L155.24697144141032,111.6969354484794L155.27502997706398,110.15177994972561L155.30516692276606,109.8275673454363L155.33478426595607,110.70352727646787L155.36388200663393,109.17263015517959L155.63563412046486,107.35618084830081L156.43218477152178,99.12242405849149L156.4685569473691,100.31161209724546L156.50752713577697,100.14086936885053L156.76265196922049,101.57082182909853L157.16274590354135,103.84987229595593L157.23289224267552,103.03723423072005L158.50124197472374,111.38546951162316L158.5386533555953,108.21461746599805L158.64984829318576,113.0735576411933L158.71012218458995,111.45417628534496L158.74753356546148,109.46722576587524L158.82391513474093,108.27959416230257L159.53836858888528,109.83599356348681L159.7191902630978,113.0629756709664L159.8251891755672,115.26508993670663L159.92495285789136,113.67918982731585L160.2533416455417,114.88594590455304L160.29127262892538,115.97582622271604L160.51054488903367,117.48255387354521L160.58328924072836,117.56624357214451L160.62018101908782,117.38635007828708L160.8280220239298,116.00014775868135L160.93090332132658,116.77135244598736L160.96104026702866,117.95438630425436L161.14445995380174,116.02920121539901L161.2120082803754,117.42234487811216L161.28838984965478,115.34298325601002L161.4006239922695,113.6006077407196L162.48659324256886,113.01136284914962L162.6591012765877,114.14385728917313L162.7282084106977,113.35193591290216L162.75886495891186,117.16683904754464L162.79004110963817,113.29956276355428L163.1584392907206,112.2667159552533L163.51696502407304,113.70147189649187L163.81157964843652,113.99027112789163L164.4257498177446,114.69993401032774L164.6710022034582,116.0930776730409L164.71049199437815,114.22435361214178L164.81441249679912,116.97036146847954L165.1656637949821,115.78617370137125L165.36051473702145,113.93415001106693L165.50340542785034,112.78526827649085L165.67643306438129,110.66566296541926L165.75021662110018,110.00896360429635L166.5872962681013,108.51720993331489L166.64445254443285,110.26827107251935L166.7042068333249,108.58313480277583L166.85696997188379,108.33397994335041L166.89386175024325,108.6178594083725L167.0045370853216,109.06015535075598L167.22173093538146,114.90345132782781L167.2882400569309,115.92118998083443L167.38020970157348,116.40508031168376L167.6545598279649,116.89796934248938L167.7278237821717,116.94947482394883L167.76731357309166,117.79274067114325L167.80472495396322,115.67801934633022L168.0842711054757,120.5585975485575L168.61894209043172,117.56219147365525L168.69480405719904,117.41321200270923L168.76962681894216,114.96171030676936L168.84444958068525,113.64232735960235L168.9197919449405,115.9551900390191L169.2424651049577,114.41372883756347L169.36093447771762,115.72487341230533L169.8316943536847,115.5728168511158L169.98705550480412,115.04192038878514L171.164474797234,113.08293203240022L171.47987352208168,111.94875592677853L171.99583881660192,116.88009717299373L172.03013258240085,113.56351270223186L172.24680682994864,112.52927941431535L172.28162019825965,112.40310976930222L172.35020772985752,112.13547447835626L172.4551674373027,113.5164439555421L172.6204010361521,114.03458480540989L172.73315478127887,117.91496555802445L172.77316417471096,116.03212624013628L172.84954574399038,115.98079071424262L173.37018746111954,122.97315627151586L173.62791030712364,123.30111684328199L173.77028139544038,121.67022323410986L174.02696503642022,125.70380551172546L174.06177840473129,126.30916934695469L175.14047321986118,125.24224197520101L175.26206020769376,122.28397750727048L176.33451979267844,113.08172445338025L176.44259711519626,113.25388049648005L176.68265347578875,113.09546401911867L176.77722113299183,116.25562675415954L176.80995609125446,114.5926652132347L176.87438680275548,116.5327258866102L176.90608255599386,115.68484440405054L177.1248352135901,118.96537145977888L177.18562870750634,117.44530676955128L177.51869391776566,116.24223604458246L177.6605454035703,113.06345870257438L177.91411142947752,115.14344647676097L177.97178730832118,115.60570772560806L178.02790437962852,116.29200619026506L178.14845216243685,114.80865190224475L178.23990220456733,116.77111987521315L179.43342917487246,118.71131472403533L179.46408572308664,119.21322928988654L179.49630107883715,116.96369742129522L179.6766031505376,116.76781915922523L179.93796321412637,118.2673997312621L180.11254965819367,114.80553008685237L180.14112779635943,115.13808840392419L180.17022553703728,115.1362815079091L180.29025371733357,118.1885492937725L180.43730122825926,120.36687872533409L180.63371097783494,114.56001585454644L180.87272813340323,114.91072363703701L180.99015830113893,114.89866573689679L181.104470853802,116.11425950355427L181.16162713013358,117.23762106817483L181.3315371515919,117.61644307925641L181.41727156608923,119.39100281168666L181.47390823990867,120.5016445439635L181.5305449137281,120.18054481003679L181.59237761266863,121.47623237332293L181.6848668598233,124.27486383984233L181.8428260235032,124.40345758792517L183.06337232443778,123.03219346804805L183.21509625797245,122.66132358843876L183.36422217894653,123.35209456798455L183.88434429356363,119.79674041736907L183.99709803869038,122.0915609717244L184.0807540431393,122.42904800020368L184.22312513145607,123.61969407881139L184.3919959478902,121.66989226800808L184.42057408605598,123.15083139798844L184.53332783118273,121.03514400995942L184.58944490249007,121.1888196215387L184.7593549239484,121.3296948955062L184.78949186965048,121.05689832237857L184.97083314637513,121.66757550529567L185.18231136880183,118.68337045101009L185.36417224803859,115.99235663774505L185.45458308514486,116.88472175338875L185.64319879703896,113.02936024906215L186.83308854975934,117.37211853591091L186.89648005623616,117.80991512831625L187.11679152136864,118.18725226445474L187.21239838359597,119.00972986244602L187.3080052458233,121.21007301229028L187.36879873973953,119.59981558681508L187.52260108332266,121.59465562254866L187.99959618943498,120.73676465166784L188.05623286325445,122.82533070941115L188.0848110014202,119.9872963867214L188.19756474654696,121.66859523869033L188.22510367968854,120.92511119866509L188.3451318599848,120.35606418433295L188.4059253539011,121.02667306676003L188.58830583564992,118.83166115466322L188.62000158888833,119.83947082461668L188.8345974263877,117.80261598401772L189.17961349442535,121.72523516724213L189.32977862042372,121.86574369498877L189.41915025250574,119.61290216537972L190.51447234802305,122.82046461321214L190.54408969121303,120.71068094483635L190.72023494281663,120.62664239007574L190.74985228600661,122.67283584176253L191.17540674342055,121.9776817976257L191.2959545262289,125.91345911965297L191.35622841763308,125.22835928898618L191.4170219115494,124.07733969229324L191.50743274865565,125.23021091015013L191.59992199581035,123.76497030742948L191.87271331466545,123.20675572415803L192.05457419390217,120.82156353395955L192.1174460978669,119.77300925336908L192.444795680493,120.7093839155186L192.4754522287072,123.00946414738316L192.662509133065,121.7744954462274L192.87606576554015,123.74167744988861L194.41616761141927,127.0804187594096L194.50138242340446,127.84150661803716L194.5860776328776,127.03325161739228L194.64323390920913,124.61915803598237L195.24077679812987,123.3913006334998L195.32547200760297,122.72691749179793L195.43978456026608,122.8243109760165L195.46784309591973,125.44362143058424L195.5005780541823,124.76912146020392L195.68295853593116,123.0376052110635L195.7697321554527,123.99728167578368L195.82688843178425,122.17114490165577L196.07941525266727,120.73836581199804L196.19164939528196,124.96139487527356L196.27582500224295,123.15955280202161L196.4192352955839,119.75010997713841L196.64838000342223,120.50710995715761L196.76321215859744,121.5141861346693L196.81984883241685,121.23558423721602L196.8770051087484,123.5187583628009L198.0159738152825,123.35750631100001L198.07364969412617,122.32572396124256L198.16561933876875,122.9183769091578L198.53453712236325,122.0239812717546L198.65196729009898,124.43363811839482L198.79381877590365,125.49302483004595L198.8535730647957,125.20256182310756L199.14143285650184,118.63218699062263L199.19754992780918,118.47143586048928L199.25990222926183,118.16517593096361L199.63349643546528,119.91784717552807L199.80808287953252,119.6105496225482L200.10581511896868,117.92705923828376L200.25598024496702,119.2439196870535L200.4544684045911,122.49109967177093L200.54072242160055,124.02337432764494L201.38403729874693,122.93421855689394L201.9769037650587,125.26524859178902L202.00600150573658,125.80465177743818L202.03613845143863,125.54630142740139L202.18006834729172,123.97986570280668L202.24190104623221,126.57328029616826L202.42116391290844,126.45444557557278L202.53495686305942,125.10434539614945L202.76046435331298,123.51782807970403L202.78852288896664,124.17381183844472L202.93712920742865,120.5997804656536L202.96778575564286,118.98378033106118L203.08781393593912,119.45836783094181L203.40425186581106,117.37303092894822L203.57572069480565,117.1184911615967L203.74978753636086,111.9181728699689L203.83500234834608,114.57186801900176L204.16443034102062,114.70002346062552L205.07841115981324,115.74655616448624L205.20155695518213,119.91461801977836L205.26338965412262,117.71548244895408L205.4177116002178,122.6313845737731L205.53722017800192,122.27610588106619L205.6920617266092,124.92305647764672L205.8359916224623,122.6696156310426L205.95601980275856,125.49717532386278L205.98823515850904,123.38946690239538L206.05006785744953,122.13975679216614L206.33273162403466,120.93838562285507L206.36442737727305,122.60227744687677L206.6954141774839,123.70334799729156L206.7567272739123,123.01114581298134L206.78582501459016,123.16501821521571L206.99730323701692,127.95709429282337L207.0580967309332,126.27575071570556L207.08667486909894,125.95910560660809L207.11837062233732,126.16362476744325L207.14954677306366,127.88351247787278L207.26282012070254,127.18591644060666L207.32049599954618,128.78213016933103L208.7545989329559,127.8715619180899L208.85020579518323,125.31685246857603L209.22016278380198,128.55975672905976L209.27731906013352,128.921860479487L209.4254057760834,127.0139929682811L209.45450351676132,127.46172748876936L209.51114019058076,128.9748597809193L209.75171615368535,132.39206689164945L209.90915571485314,131.05319272459704L210.13154559003408,132.1803559268731L210.95563517423255,126.82137069705014L211.15412333385666,125.40114148417041L211.47575728884965,127.7219831301488L212.3923361202028,131.27238173426747L212.65733340137635,130.00899467350825L212.6859115395421,130.81251775340078L212.97636934380878,134.01718201158525L213.00442787946244,134.70716582851063L213.03404522265242,134.9780660553254L213.09535831908082,134.48503390404335L213.15407340294868,131.28189924595085L213.21019047425602,132.86555415286745L213.2392882149339,133.07398229171542L213.27046436566022,133.27178373518763L213.33437547464914,132.84810239977134L213.8934677776741,128.77852532233067L214.0519465438661,127.3623303178806L214.2104253100581,126.10448023055373L214.3060321722854,125.87348378157685L214.3969626119038,129.1809353769358L214.5492061479505,127.95733580862736L214.88798698584299,130.77688969979658L215.1716899574523,125.33538657027522L215.2579439744617,126.83603160085565L215.28600251011537,127.54044375081229L216.34755044234583,128.47216699747744L216.51798006631626,128.44809592234589L216.95184816392393,131.8854204050459L216.981985109626,131.07799729217032L217.15916956625378,130.6205037441947L217.2724429138927,129.827043822802L217.36077534095054,132.64300181200062L217.53795979757834,131.04343369710966L217.59459647139778,130.98295635078327L217.85387812493815,127.1894139472497L217.96715147257706,126.42545473406355L218.13965950659588,127.09231564901381L218.29138344013055,124.16739825209419L218.46337187163726,125.89301078158138L218.57924323183667,125.17468911032054L218.72265352517766,126.94682473968106L219.70574147808028,129.31332181764435L219.8252500558644,130.4974022443953L220.0829729018685,128.43580545143146L220.1707857264142,128.69687509052068L220.51891940952456,129.54930959323713L220.71896637668493,131.83650003719217L220.8072988037428,131.7810855777199L220.86757269514698,132.64919177260674L220.89563123080066,131.31792982589505L221.01202219351214,132.49147300756798L221.04060033167792,132.2433826066861L221.0681392648195,132.20905158239964L221.41783175546612,130.01946035834806L221.58774177692445,128.94432144925855L221.61631991509023,128.27152103453597L221.6765938064944,127.14153120285019L221.8210433048596,129.84838666385136L221.85066064804957,128.5772710973643L221.94107148515585,129.42080529545206L222.1146187241989,133.10033434944026L222.23464690449515,133.12005814009987L222.44768393445818,132.7192224107356L223.66147540273542,132.80832385235033L223.8402186668995,128.99829575893665L223.956609629611,128.99170327199056L224.04494205666884,128.88430924448062L224.27460636701926,131.33537263396138L224.33591946344765,129.63189905317375L224.7183469123569,130.43235398785257L224.84253191275,132.28987887147008L224.87318846096417,131.78508400603047L225.43176116147706,131.85324513293585L225.45981969713068,131.2705032780142L225.54815212418853,130.29701568731738L225.75599312903054,129.11539514375528L225.817825827971,131.27677374388827L226.06463702122088,127.85878841556749L226.12543051513717,124.82827494212322L226.15504785832715,127.17003006772165L227.32727112563595,129.42791659412524L227.3833881969433,128.29762263142703L227.41248593762117,127.33310690559716L227.6457874655563,129.71193023459398L227.6748852062342,129.3845600347932L227.7601000182194,130.4009837684225L227.81829549957516,131.36734217038654L228.07497914055503,132.76454687661874L228.15967435002813,133.2032469170316L228.2178698313839,131.29149726290223L228.27554571022753,131.9672227023621L228.64394389130996,132.85005241626286L229.1614679933665,129.6240184819397L229.31475073443747,128.87998879509803L229.62339462662783,128.45327509458713L229.81304954354613,125.99437585902119L229.93723454393924,128.74340713542378L230.8262744421508,128.0278942035131L231.0117725389723,127.26906049238951L231.07308563540067,128.2226543368609L231.19051580313638,127.92072380174763L231.39108237280894,128.8377414194584L231.4196605109747,126.12994673033057L231.4503170591889,127.83572812880081L231.76051975891556,128.53327049588825L232.24946572280632,130.88431056239585L232.39287601614728,131.16239364812205L232.5383647195367,131.40095759229078L232.68645143548662,129.14995873881594L232.71658838118867,130.05865747883354L232.77478386254447,130.49715178356152L232.86519469965074,129.24753112363004L233.1561721064295,127.06125850562597L233.2720434666289,125.4870584951843L233.30010200228259,127.62774724144171L233.47209043378933,126.44514274460406L233.58900099901294,125.14140465451808L233.61861834220295,126.94544720509532L234.65470575134023,123.69695230100058L234.71809725781702,122.6230478060204L234.74719499849493,122.39681905791497L234.77629273917285,121.89483293182553L234.83240981048013,122.49804995990812L234.92074223753798,121.49761993952119L234.9488007731917,122.9341559416855L234.97737891135742,122.34610968410573L235.00595704952318,124.63369370937097L235.12026960218628,122.5447877404961L235.17742587851782,124.61462290588511L235.2652387030636,122.98534834710273L235.29329723871726,123.91949569683761L235.321875376883,124.34648669327163L235.3504535150488,126.03735672710258L235.40709018886824,125.65450050759131L235.49490301341393,126.84787482028119L235.52555956162814,127.37334164953684L235.70118521071961,128.94352534160836L235.88304608995642,128.3344224839321L235.94124157131213,128.5481997505871L236.02697598580951,128.83758935395218L236.37978609152873,126.13215615268565L236.60945040187914,126.23144598321707L236.63750893753277,127.46297084790845L236.66712628072275,125.59218048513073L236.8411931222779,125.31975960325374L237.0448773070231,128.22828076059102L237.1934836254851,126.66848224809131L237.31247260075716,124.00520697216663" style="fill: none;" fill="none"></path></g></g></g></g></g></g><g transform="translate(70, 178)" clip-path="url(#clip_1)"><clipPath id="clip_1"><rect width="260" height="22"></rect></clipPath><g><g><line x1="17.902517826752042" y1="0" x2="17.902517826752042" y2="5" style="visibility: inherit;" fill="rgb(0, 0, 0)" stroke="rgb(204, 204, 204)" stroke-width="1px"></line><line x1="36.60820826253096" y1="0" x2="36.60820826253096" y2="5" style="visibility: inherit;" fill="rgb(0, 0, 0)" stroke="rgb(204, 204, 204)" stroke-width="1px"></line><line x1="55.313898698309885" y1="0" x2="55.313898698309885" y2="5" style="visibility: inherit;" fill="rgb(0, 0, 0)" stroke="rgb(204, 204, 204)" stroke-width="1px"></line><line x1="74.0195891340888" y1="0" x2="74.0195891340888" y2="5" style="visibility: inherit;" fill="rgb(0, 0, 0)" stroke="rgb(204, 204, 204)" stroke-width="1px"></line><line x1="92.72527956986771" y1="0" x2="92.72527956986771" y2="5" style="visibility: inherit;" fill="rgb(0, 0, 0)" stroke="rgb(204, 204, 204)" stroke-width="1px"></line><line x1="111.43097000564663" y1="0" x2="111.43097000564663" y2="5" style="visibility: inherit;" fill="rgb(0, 0, 0)" stroke="rgb(204, 204, 204)" stroke-width="1px"></line><line x1="130.13666044142553" y1="0" x2="130.13666044142553" y2="5" style="visibility: inherit;" fill="rgb(0, 0, 0)" stroke="rgb(204, 204, 204)" stroke-width="1px"></line><line x1="148.84235087720444" y1="0" x2="148.84235087720444" y2="5" style="visibility: inherit;" fill="rgb(0, 0, 0)" stroke="rgb(204, 204, 204)" stroke-width="1px"></line><line x1="167.5480413129834" y1="0" x2="167.5480413129834" y2="5" style="visibility: inherit;" fill="rgb(0, 0, 0)" stroke="rgb(204, 204, 204)" stroke-width="1px"></line><line x1="186.2537317487623" y1="0" x2="186.2537317487623" y2="5" style="visibility: inherit;" fill="rgb(0, 0, 0)" stroke="rgb(204, 204, 204)" stroke-width="1px"></line><line x1="204.9594221845412" y1="0" x2="204.9594221845412" y2="5" style="visibility: inherit;" fill="rgb(0, 0, 0)" stroke="rgb(204, 204, 204)" stroke-width="1px"></line><line x1="223.66511262032014" y1="0" x2="223.66511262032014" y2="5" style="visibility: inherit;" fill="rgb(0, 0, 0)" stroke="rgb(204, 204, 204)" stroke-width="1px"></line><line x1="242.37080305609905" y1="0" x2="242.37080305609905" y2="5" style="visibility: inherit;" fill="rgb(0, 0, 0)" stroke="rgb(204, 204, 204)" stroke-width="1px"></line></g><g transform="translate(0, 8)"><text x="17.902517826752042" y="0" dx="0em" dy="0.95em" style="text-anchor: middle; visibility: inherit; font-family: &quot;Helvetica Neue&quot;, sans-serif; font-size: 12px; font-weight: 200;" fill="rgb(50, 49, 63)" stroke="none" stroke-width="1px">-0.01</text><text x="36.60820826253096" y="0" dx="0em" dy="0.95em" style="text-anchor: middle; visibility: hidden; font-family: &quot;Helvetica Neue&quot;, sans-serif; font-size: 12px; font-weight: 200;" fill="rgb(50, 49, 63)" stroke="none" stroke-width="1px">0</text><text x="55.313898698309885" y="0" dx="0em" dy="0.95em" style="text-anchor: middle; visibility: inherit; font-family: &quot;Helvetica Neue&quot;, sans-serif; font-size: 12px; font-weight: 200;" fill="rgb(50, 49, 63)" stroke="none" stroke-width="1px">0.01</text><text x="74.0195891340888" y="0" dx="0em" dy="0.95em" style="text-anchor: middle; visibility: hidden; font-family: &quot;Helvetica Neue&quot;, sans-serif; font-size: 12px; font-weight: 200;" fill="rgb(50, 49, 63)" stroke="none" stroke-width="1px">0.02</text><text x="92.72527956986771" y="0" dx="0em" dy="0.95em" style="text-anchor: middle; visibility: inherit; font-family: &quot;Helvetica Neue&quot;, sans-serif; font-size: 12px; font-weight: 200;" fill="rgb(50, 49, 63)" stroke="none" stroke-width="1px">0.03</text><text x="111.43097000564663" y="0" dx="0em" dy="0.95em" style="text-anchor: middle; visibility: hidden; font-family: &quot;Helvetica Neue&quot;, sans-serif; font-size: 12px; font-weight: 200;" fill="rgb(50, 49, 63)" stroke="none" stroke-width="1px">0.04</text><text x="130.13666044142553" y="0" dx="0em" dy="0.95em" style="text-anchor: middle; visibility: inherit; font-family: &quot;Helvetica Neue&quot;, sans-serif; font-size: 12px; font-weight: 200;" fill="rgb(50, 49, 63)" stroke="none" stroke-width="1px">0.05</text><text x="148.84235087720444" y="0" dx="0em" dy="0.95em" style="text-anchor: middle; visibility: hidden; font-family: &quot;Helvetica Neue&quot;, sans-serif; font-size: 12px; font-weight: 200;" fill="rgb(50, 49, 63)" stroke="none" stroke-width="1px">0.06</text><text x="167.5480413129834" y="0" dx="0em" dy="0.95em" style="text-anchor: middle; visibility: inherit; font-family: &quot;Helvetica Neue&quot;, sans-serif; font-size: 12px; font-weight: 200;" fill="rgb(50, 49, 63)" stroke="none" stroke-width="1px">0.07</text><text x="186.2537317487623" y="0" dx="0em" dy="0.95em" style="text-anchor: middle; visibility: hidden; font-family: &quot;Helvetica Neue&quot;, sans-serif; font-size: 12px; font-weight: 200;" fill="rgb(50, 49, 63)" stroke="none" stroke-width="1px">0.08</text><text x="204.9594221845412" y="0" dx="0em" dy="0.95em" style="text-anchor: middle; visibility: inherit; font-family: &quot;Helvetica Neue&quot;, sans-serif; font-size: 12px; font-weight: 200;" fill="rgb(50, 49, 63)" stroke="none" stroke-width="1px">0.09</text><text x="223.66511262032014" y="0" dx="0em" dy="0.95em" style="text-anchor: middle; visibility: hidden; font-family: &quot;Helvetica Neue&quot;, sans-serif; font-size: 12px; font-weight: 200;" fill="rgb(50, 49, 63)" stroke="none" stroke-width="1px">0.1</text><text x="242.37080305609905" y="0" dx="0em" dy="0.95em" style="text-anchor: middle; visibility: inherit; font-family: &quot;Helvetica Neue&quot;, sans-serif; font-size: 12px; font-weight: 200;" fill="rgb(50, 49, 63)" stroke="none" stroke-width="1px">0.11</text></g><line x1="0" y1="0" x2="260" y2="0" fill="rgb(0, 0, 0)" stroke="rgb(204, 204, 204)" stroke-width="1px"></line></g></g></g></g></svg>