<svg viewBox="0 0 330 200" xmlns="http://www.w3.org/2000/svg"><g><g><g><g><g><line x1="70" y1="158.55259591032174" x2="65" y2="158.55259591032174" style="visibility: inherit;" fill="rgb(0, 0, 0)" stroke="rgb(204, 204, 204)" stroke-width="1px"></line><line x1="70" y1="138.1542748230728" x2="65" y2="138.1542748230728" style="visibility: inherit;" fill="rgb(0, 0, 0)" stroke="rgb(204, 204, 204)" stroke-width="1px"></line><line x1="70" y1="117.75595373582387" x2="65" y2="117.75595373582387" style="visibility: inherit;" fill="rgb(0, 0, 0)" stroke="rgb(204, 204, 204)" stroke-width="1px"></line><line x1="70" y1="97.35763264857492" x2="65" y2="97.35763264857492" style="visibility: inherit;" fill="rgb(0, 0, 0)" stroke="rgb(204, 204, 204)" stroke-width="1px"></line><line x1="70" y1="76.95931156132599" x2="65" y2="76.95931156132599" style="visibility: inherit;" fill="rgb(0, 0, 0)" stroke="rgb(204, 204, 204)" stroke-width="1px"></line><line x1="70" y1="56.560990474077016" x2="65" y2="56.560990474077016" style="visibility: inherit;" fill="rgb(0, 0, 0)" stroke="rgb(204, 204, 204)" stroke-width="1px"></line><line x1="70" y1="36.1626693868281" x2="65" y2="36.1626693868281" style="visibility: inherit;" fill="rgb(0, 0, 0)" stroke="rgb(204, 204, 204)" stroke-width="1px"></line><line x1="70" y1="15.764348299579154" x2="65" y2="15.764348299579154" style="visibility: inherit;" fill="rgb(0, 0, 0)" stroke="rgb(204, 204, 204)" stroke-width="1px"></line></g><g transform="translate(60, 0)"><text x="0" y="158.55259591032174" dx="0em" dy="0.3em" style="text-anchor: end; visibility: inherit; font-family: &quot;Helvetica Neue&quot;, sans-serif; font-size: 12px; font-weight: 200;" fill="rgb(50, 49, 63)" stroke="none" stroke-width="1px">-0.05</text><text x="0" y="138.1542748230728" dx="0em" dy="0.3em" style="text-anchor: end; visibility: hidden; font-family: &quot;Helvetica Neue&quot;, sans-serif; font-size: 12px; font-weight: 200;" fill="rgb(50, 49, 63)" stroke="none" stroke-width="1px">0</text><text x="0" y="117.75595373582387" dx="0em" dy="0.3em" style="text-anchor: end; visibility: inherit; font-family: &quot;Helvetica Neue&quot;, sans-serif; font-size: 12px; font-weight: 200;" fill="rgb(50, 49, 63)" stroke="none" stroke-width="1px">0.05</text><text x="0" y="97.35763264857492" dx="0em" dy="0.3em" style="text-anchor: end; visibility: hidden; font-family: &quot;Helvetica Neue&quot;, sans-serif; font-size: 12px; font-weight: 200;" fill="rgb(50, 49, 63)" stroke="none" stroke-width="1px">0.1</text><text x="0" y="76.95931156132599" dx="0em" dy="0.3em" style="text-anchor: end; visibility: inherit; font-family: &quot;Helvetica Neue&quot;, sans-serif; font-size: 12px; font-weight: 200;" fill="rgb(50, 49, 63)" stroke="none" stroke-width="1px">0.15</text><text x="0" y="56.560990474077016" dx="0em" dy="0.3em" style="text-anchor: end; visibility: hidden; font-family: &quot;Helvetica Neue&quot;, sans-serif; font-size: 12px; font-weight: 200;" fill="rgb(50, 49, 63)" stroke="none" stroke-width="1px">0.2</text><text x="0" y="36.1626693868281" dx="0em" dy="0.3em" style="text-anchor: end; visibility: inherit; font-family: &quot;Helvetica Neue&quot;, sans-serif; font-size: 12px; font-weight: 200;" fill="rgb(50, 49, 63)" stroke="none" stroke-width="1px">0.25</text><text x="0" y="15.764348299579154" dx="0em" dy="0.3em" style="text-anchor: end; visibility: hidden; font-family: &quot;Helvetica Neue&quot;, sans-serif; font-size: 12px; font-weight: 200;" fill="rgb(50, 49, 63)" stroke="none" stroke-width="1px">0.3</text></g><line x1="70" y1="0" x2="70" y2="178" fill="rgb(0, 0, 0)" stroke="rgb(204, 204, 204)" stroke-width="1px"></line></g></g><g transform="translate(70, 0)" clip-path="url(#clip_0)"><clipPath id="clip_0"><rect width="260" height="178"></rect></clipPath><g><g><g><line x1="10.511863606662216" y1="0" x2="10.511863606662216" y2="178" fill="rgb(0, 0, 0)" stroke="rgb(60, 60, 60)" stroke-width="1px" opacity="0.25"></line><line x1="45.27304748193662" y1="0" x2="45.27304748193662" y2="178" fill="rgb(0, 0, 0)" stroke="rgb(60, 60, 60)" stroke-width="1px" opacity="0.25"></line><line x1="80.03423135721101" y1="0" x2="80.03423135721101" y2="178" fill="rgb(0, 0, 0)" stroke="rgb(60, 60, 60)" stroke-width="1px" opacity="0.25"></line><line x1="114.79541523248541" y1="0" x2="114.79541523248541" y2="178" fill="rgb(0, 0, 0)" stroke="rgb(60, 60, 60)" stroke-width="1px" opacity="0.25"></line><line x1="149.55659910775984" y1="0" x2="149.55659910775984" y2="178" fill="rgb(0, 0, 0)" stroke="rgb(60, 60, 60)" stroke-width="1px" opacity="0.25"></line><line x1="184.31778298303422" y1="0" x2="184.31778298303422" y2="178" fill="rgb(0, 0, 0)" stroke="rgb(60, 60, 60)" stroke-width="1px" opacity="0.25"></line><line x1="219.07896685830863" y1="0" x2="219.07896685830863" y2="178" fill="rgb(0, 0, 0)" stroke="rgb(60, 60, 60)" stroke-width="1px" opacity="0.25"></line><line x1="253.84015073358304" y1="0" x2="253.84015073358304" y2="178" fill="rgb(0, 0, 0)" stroke="rgb(60, 60, 60)" stroke-width="1px" opacity="0.25"></line></g><g><line x1="0" y1="158.55259591032174" x2="260" y2="158.55259591032174" fill="rgb(0, 0, 0)" stroke="rgb(60, 60, 60)" stroke-width="1px" opacity="0.25"></line><line x1="0" y1="138.1542748230728" x2="260" y2="138.1542748230728" fill="rgb(0, 0, 0)" stroke="rgb(60, 60, 60)" stroke-width="1px" opacity="0.25"></line><line x1="0" y1="117.75595373582387" x2="260" y2="117.75595373582387" fill="rgb(0, 0, 0)" stroke="rgb(60, 60, 60)" stroke-width="1px" opacity="0.25"></line><line x1="0" y1="97.35763264857492" x2="260" y2="97.35763264857492" fill="rgb(0, 0, 0)" stroke="rgb(60, 60, 60)" stroke-width="1px" opacity="0.25"></line><line x1="0" y1="76.95931156132599" x2="260" y2="76.95931156132599" fill="rgb(0, 0, 0)" stroke="rgb(60, 60, 60)" stroke-width="1px" opacity="0.25"></line><line x1="0" y1="56.560990474077016" x2="260" y2="56.560990474077016" fill="rgb(0, 0, 0)" stroke="rgb(60, 60, 60)" stroke-width="1px" opacity="0.25"></line><line x1="0" y1="36.1626693868281" x2="260" y2="36.1626693868281" fill="rgb(0, 0, 0)" stroke="rgb(60, 60, 60)" stroke-width="1px" opacity="0.25"></line><line x1="0" y1="15.764348299579154" x2="260" y2="15.764348299579154" fill="rgb(0, 0, 0)" stroke="rgb(60, 60, 60)" stroke-width="1px" opacity="0.25"></line></g></g></g><g><g><line x1="0" y1="138.1542748230728" x2="260" y2="138.1542748230728" fill="rgb(0, 0, 0)" stroke="rgb(153, 153, 153)" stroke-width="1.5px"></line></g></g><g><g><line x1="45.27304748193662" y1="0" x2="45.27304748193662" y2="178" fill="rgb(0, 0, 0)" stroke="rgb(153, 153, 153)" stroke-width="1.5px"></line></g></g><g><g><g><g><g><path stroke="rgb(255, 112, 67)" stroke-width="2px" d="M53.03734413585555,-3.5948325879021468L53.30964007621186,6.208442788544801L53.34488405430763,1.4860237577256612L53.52255232744792,3.158830313423863L53.858094310688415,10.716359294830937L54.04831523356144,8.895100792102767L54.21487923963047,8.948644367198739L54.32399073346119,21.825105882780946L54.728572290231746,31.36644280729263L54.92506953797115,28.27082147964714L55.09694428046556,30.41244567718158L55.20267621475285,28.557424996673518L55.32723712363926,28.921870578350365L55.465316270699354,26.272262327721307L55.53870099221384,35.20972173081975L56.914181726389636,39.76478830805988L57.05998558097758,45.01108985305882L57.097160735955306,44.67524665785032L57.26855268422923,47.7031435574232L57.43366830763678,47.97031498441589L57.51236376557663,48.557901054724084L57.790453236578834,52.98361317148158L57.8252144204541,52.44236789450957L58.06709432491955,53.350141525928876L58.203725089318205,52.057769471409514L58.49871235803755,57.291516753123744L58.76859432729141,62.98093761403929L59.286149731656614,58.62000820393483L59.42712564403966,59.442764800791934L59.636175541511804,61.871273755815494L59.76942674636702,64.26309824265782L59.82784484704631,58.46569090126728L60.983654210899175,63.51164096674212L61.958415742068325,69.258478769985L61.99076295484116,70.22895110442623L62.05062943818191,75.40720146142871L62.24905786280327,74.21200576031539L62.55273542749142,77.44991588480073L62.62370617790344,71.12276357323759L62.65653618489676,67.91207652941785L62.756474588538175,68.69578412693346L62.97035242821521,75.54169985989054L63.26920205069847,74.38549000734668L63.373968396544775,77.09065426721865L63.40872958042006,73.92209727466863L63.731718913927814,79.43592542342512L64.99326021206798,75.99161509167308L65.06471375670048,79.04360293384286L65.52047150084297,84.37452349159885L65.69041506645543,86.82244016251606L65.75269552089863,90.90624387505542L65.85359951298103,91.87559568934313L66.08147838505228,91.53219975153073L66.29487343050882,89.11659664044937L66.35087756008564,87.6310661236679L66.43053860646647,88.19106657314464L66.61351761603217,88.3536122195326L66.78732353540853,85.30454972258539L67.12527948975148,90.08062047053578L67.30922408775814,89.53305507868755L67.4830300071345,93.72896497222708L67.61290165244631,93.70718789322561L67.81084728284716,97.60897922890557L67.88230082747968,94.2826619401257L68.64077054786935,87.96402971357881L68.69387791212323,88.1527466053982L68.75133042436154,88.70497330593246L68.78705719667778,91.07263666992235L68.95893193917222,92.8319273241286L68.99707268259091,93.3884100903618L69.30509539526348,91.60831582943155L69.4962819065775,93.58308253084756L69.5532516245953,88.5461006662935L69.70774577515208,89.96575808372059L69.88637963673334,92.43928025114103L69.950108473838,84.97899142191166L70.33972340977337,91.78093103436744L70.58160331423883,91.01740576035525L70.61539890967313,88.3047270059576L70.68009333521877,89.6027949079727L70.74671893764639,86.40164701799837L70.78051453308068,89.04728805413285L70.8510024892722,90.42402810124962L71.22178845060847,92.58330780887398L71.30917420451715,90.63507368663572L71.4356662902855,92.86703923859453L71.52305204419417,94.69966264396052L71.60995500388235,93.39187550514607L71.72679120524093,89.09338141376465L72.53933387832546,90.83959617245475L72.66437758143235,96.49520716389428L72.85315012164392,95.03539332785029L72.8874285112987,94.38294139748155L73.22586725986214,97.97639759092367L73.36829155490668,96.30272579918154L73.48126540250131,94.36476898304595L73.76466560992888,97.40182102514565L73.90371034542997,96.7496159006117L74.00992507393777,95.95522903865296L74.04806581735647,95.03166460306296L74.08330979545224,99.17522664926352L74.3198789634923,99.24957827254049L74.53230842050786,98.1628696645312L74.60376196514038,94.388157924802L74.63562638369271,96.84570087422533L74.76791200010695,99.77514548991958L74.91854379689981,97.5420367428503L75.01751661210025,91.80318434683917L75.04986382487307,97.93883982885866L75.08076265498441,90.96714920660723L75.2106343002962,90.25618177749584L75.52831289737858,91.96049263779294L75.66494366177723,92.21512270934905L75.69873925721153,90.57939820776568L75.72915529310238,93.31220593562786L75.79722927819147,93.73289836725507L75.82909369674378,92.29151507679744L76.753644628982,94.6408668848026L76.89172377604213,96.9583551011501L76.92407098881495,99.46587061290349L76.9882826201401,93.02232999582327L77.0505630745833,96.32677304034847L77.15388103776814,98.80209264871074L77.18912501586391,101.70753251796447L77.22388619973917,101.10346101575371L77.25913017783495,102.85114175998076L77.36051696413783,102.54122638160304L77.48845743256767,95.08655419005666L77.6550214386367,97.37755107022113L77.68543747452755,100.98374931866326L77.71488792197742,94.04745267287865L77.93021414431594,94.79585952540086L78.52646500662101,101.97168956885226L78.66599253634259,104.01900020966184L78.73937725785706,105.74374867157611L78.9141487656744,100.83157097658837L79.73151938096385,104.43745767099927L79.79379983540704,103.83088058060775L80.65510472476105,103.06618062503107L80.70772929479446,103.40481689320679L80.84773961873654,103.55023191668108L80.91726198648709,103.94624214836617L81.16976336380333,104.21821263884114L81.36867458264517,102.7698765799902L81.49226990309057,107.98801146603134L81.7269078942487,103.29847167972407L81.78677437758942,102.07138045679585L81.99051353863618,99.37810119653041L82.05086281619742,96.16939750140925L82.13776577588561,101.17470045775974L82.17107857709942,99.50132488914277L82.24060094484996,105.7030276859268L82.49455070482766,104.74025294187084L82.53269144824638,105.3332326343809L82.6360094114312,105.60383177702852L82.8325066591706,106.65561688702108L82.92665153216615,107.7715105434743L83.22888071419283,104.94970571253144L83.35151044619727,104.60556221407812L83.45724238048456,101.02581087537453L83.49296915280082,102.48288072549481L84.53677025750002,104.86799054618812L84.56622070494991,103.65552301701405L84.68788484851338,106.49063873172231L84.71685250174276,106.00892745020705L84.74823412607464,105.76242814681957L84.78685766371382,107.07790232520887L84.92252283967147,105.5383758657008L84.95680122932626,105.50816838726354L85.06349875205453,104.8398519870835L85.0987427301503,104.79842823261562L85.38503970290083,108.8858873708621L85.51780811353557,105.19478120732695L85.58974445238854,103.88161880367568L85.65830123169813,99.5969637931599L85.69402800401437,100.41800790125602L85.9996367455845,102.60657663209277L86.09281603013906,104.30704510953862L86.36559476471587,103.16286568266061L86.42642683649758,104.66057585346866L86.56209201245524,102.35268357967703L86.60023275587396,107.48698812265908L86.77162470414787,103.38426938912868L87.00384872420354,106.74505402454552L87.35821968204314,103.900966690035L87.42581087291174,105.15873261924975L87.63389518194289,106.21950530644081L87.73093682026136,108.16013763835711L88.51209786901406,112.24974476499744L88.63231362991604,110.62060365143546L88.76459924633029,108.24167254659085L88.82736249499398,106.63841056933563L88.98765017619662,106.86690630057214L89.01516944676456,110.58211159040506L89.04413709999395,105.54461884128969L89.30581156749949,104.11770316810453L89.50279160945938,108.04387170230568L89.63314604899165,108.00500343748605L89.66983840974888,108.0343536528714L89.69687488609632,106.75288576231621L89.98172347618538,107.81260580032634L90.14973586491587,108.9394222637606L90.61128713970425,106.40242217908622L90.68080950745478,106.48831669095182L91.39196539423645,102.0361865316493L91.42962334343464,102.13430749565131L91.5667369020538,104.03137742954412L91.60198088014954,101.73786520701569L91.63770765246582,103.77279666504367L92.93883807668614,108.76865717681326L93.114092378724,106.45386104934916L93.35259272364601,108.12642592317145L93.3868711133008,110.09304452109514L93.568401740205,108.08983160279789L93.62875101776626,104.15896412296291L93.80062576026066,109.56314199352862L93.8662857742473,110.5674514765378L93.9329113766749,109.75600319316881L94.07388728905796,113.4414247389584L94.62475549463694,112.27203899736901L94.68800153752113,113.48177323117764L94.74641963820041,108.90879284649041L94.99940380973713,109.5952706168909L95.0916175058507,110.70175025901614L95.35908550400212,104.61125935215304L95.4517819943362,108.27650783852806L96.28411923046083,110.40402542212098L96.67711372593962,106.33344944999897L96.90402700956987,101.9076774900885L97.1053521995142,98.44183739745043L97.24246575813332,98.15572475764263L97.2772269420086,100.92446338142382L97.31198812588387,100.90427284497875L97.34674930975913,104.11228330531914L97.56207553209764,101.56167141811285L97.91596369571675,99.5058302627247L98.08301049600628,98.71395320118715L98.12066844520449,101.8836428010413L98.23074552747619,103.92490428818456L98.44607174981469,106.8370573444669L98.51993926554965,108.46297969689842L98.62808517093939,111.15253295103972L98.73381710522669,107.80437426199225L98.8381006568525,106.55447114407247L98.87431022338926,107.3597860923622L99.50290829846713,111.58158160134924L100.57712543905721,108.51040997495042L100.71906693988124,108.45568430304537L101.2337255789235,109.64614151226411L101.31580059640679,109.53739302457174L101.34621663229765,110.19660510664959L101.41332502894575,112.37671383356252L101.44229268217515,111.25209083540673L102.16262165914611,111.56273159325963L102.19496887191895,111.125856088904L102.36201567220844,111.93298261564588L102.4556777509835,112.30471661806486L102.59423969226411,110.07129070632861L102.66376206001466,111.30554138572931L102.80473797239772,110.86412418602869L102.94378270789882,112.43467601776501L103.08234464917942,111.80645631329504L104.67025484037077,112.61296143416779L104.70453323002556,113.65378001464322L105.0381440363841,113.54831441547066L105.28436908883394,114.66055813157399L105.31768189004775,113.84872961328148L105.40989558616133,114.41171487414087L105.47941795391188,113.66381672431226L105.51514472622813,112.55685654905474L105.78695787236396,109.09390560255477L106.00856041956884,111.39506759725515L106.45949022150641,111.7340175769058L106.4889406689563,112.6663795473335L106.58839627837723,112.22387174577386L106.80855044292063,110.43124222867829L107.18706111178474,110.89232514599495L107.34976276408983,109.80204357464206L108.0985766000697,107.602543887136L108.1512011701031,112.42842029791187L108.36073386179574,112.23366399540964L108.58861273386697,112.99312792460113L108.62433950618323,115.82015444085681L108.90291177140594,115.08855882921785L109.02119635542594,116.97079036115201L109.08444239831012,113.33430292383262L109.20755492453505,112.12043371889L109.49916263371098,114.46385833724136L109.74104253817643,114.82185570908086L109.77676931049268,115.4920170482872L109.92064198819867,117.87287507077181L110.18135086726322,116.85034315417187L110.4748897533211,114.43060249295061L110.50144343544805,116.27474245176549L110.62117640212954,113.02896015862623L110.7819468775527,112.57072534685952L110.88719601761949,110.80584592740152L110.94851088362172,110.85277584778295L111.03879340285334,115.69129800466075L111.13680062961276,111.94411231088573L111.95417124490221,112.82986160299838L112.21681130084876,113.96355421901302L112.47172664926741,116.41088640899241L112.59435638127187,116.73318827835712L112.68705287160594,116.27149165518698L112.72326243814267,114.54991921799495L112.90913821303131,114.47876299704262L112.93665748359923,115.28416137301168L113.17757179962368,114.4013566361684L113.30213270851007,115.68856911800067L113.33689389238536,114.14132902373152L113.37117228204016,113.5635550919949L113.43924626712923,113.48241261382519L113.53773628810916,108.13766249917605L113.762235600637,109.56099783802631L113.79892796139423,112.1235750455006L114.06011963467925,113.25456935304294L114.09439802433407,113.39442715811876L114.39904117746318,115.23910937282326L114.50718708285294,115.05751814204058L114.56512238931174,118.73083968579002L114.59891798474602,118.28964018402544L114.6621640276302,113.6930954351367L114.84128068343195,111.59072111403589L114.87749024996869,112.81535625073312L114.94749541193974,114.39738990744371L115.69534365947862,112.29920983383388L115.72334572426705,110.53655230070908L115.87639149216237,111.57823010184711L116.37849748147188,113.53035316592761L116.70100402075916,111.48999725909455L116.90812274134932,111.60921538399577L117.15965853022458,112.44826135556895L117.1915229487769,113.33960342560826L117.5120983111822,112.30237576164222L117.76604807115991,113.37467805446212L118.09096858154963,113.01721349961844L118.19959728115985,115.98667630877085L118.4516158642556,114.54097067900082L118.5225866146676,115.20133902262188L118.66983885191704,115.87318731962975L119.02952054618204,116.88381666902055L119.06428173005732,118.38160961651681L119.85365028055834,120.20108866298513L120.00235090046921,119.97076499729991L120.13753328220642,118.69814901372112L120.57784161129321,116.38799393748727L120.63674250619299,115.50735437301327L120.66619295364286,114.89889272255797L120.85110314009052,116.59429988734183L120.88151917598138,118.60410663505644L120.91724594829763,119.87200433166204L120.9867683160482,117.91112132972225L121.04325523984551,116.20369305905837L121.41886914338667,115.50778684746895L121.98856632356478,112.84179031563886L122.18071842331976,113.73868277163899L122.40908008961149,115.46320176414665L122.60026660092551,117.16581492075302L122.72675868669387,117.8530282770514L122.79338428912146,117.8473894099723L122.86580342219496,117.26031790206618L123.77152537983406,117.82459610554157L123.8748433430189,118.23113244179547L123.94484850498993,117.41928602082055L124.04237293752891,118.1219325888002L124.12493074923267,118.49371021431861L124.22535194709458,120.41790459052928L124.53965098463351,121.99975853501121L124.59951746797428,123.57678112446932L124.98864960968915,122.78435746541592L125.02341079356442,116.92824390462044L125.05479241789627,117.14133886251494L125.4801341261479,113.7118362050161L125.60131547549085,117.12700348611227L125.72780756125923,118.41775493580832L125.84512655683828,114.86506780049663L125.87409421006767,115.91616663666963L125.97548099637054,116.50786877139669L126.04210659879816,112.35021445873166L126.10535264168233,116.25979518885075L126.39213240865334,115.5415812592421L126.46986227815222,116.08981502836893L126.56980068179364,116.65509835417393L126.68084335250633,118.7403637962858L126.77981616770677,120.78475063004922L127.54745897828575,120.33973223336557L127.63098237843047,121.79939611460199L127.7367143127178,120.58655216495933L128.30061796225002,118.03439649035363L128.55070536846378,119.594673411404L128.73513276069093,117.53760959483859L128.76989394456623,117.55588468010106L128.805137922662,116.49577475779701L128.86983234820764,119.10183350728303L128.90797309162633,117.28891286077507L128.98328899002277,117.0317135581995L129.05329415199378,118.08164722580659L129.2019947719047,117.5399464496327L129.33814274208285,117.90068470901083L129.5167766036641,117.06069681200856L129.5713323505795,117.72196854428114L129.78086504227213,117.29325460811458L129.8388003487309,117.38654287451351L129.8682507961808,118.8494572359075L130.01453744498926,117.45855864170976L130.14296070763953,115.92653646626607L130.29745485819632,119.4386563746605L130.36214928374199,121.44298846047539L130.39691046761726,123.02716587661232L130.7358320104012,119.87096879659194L131.46871363710488,121.93264892331116L131.58168748469953,122.7936990305142L131.67872912301803,122.93120387665984L131.77046002491107,117.59232911546954L131.79942767814046,119.0880174598496L131.8998488760024,119.83818437559381L131.93461005987766,120.99325283018771L132.00268404496674,121.59590145764486L132.17069643369726,118.55089571833837L132.20787158867495,121.46109089176079L132.44395796249452,122.82250726374312L132.47147723306244,118.21771011067273L132.60665961479964,118.27757684093984L132.67714757099117,120.22099559565495L132.733151700568,118.3784560239107L132.8664029054232,120.87890159162015L133.17297723543433,119.39372577627378L133.24346519162583,121.52191653601798L133.307676822951,119.81549548531439L133.3458175663697,118.02428216926448L133.48727627297325,116.99162692298498L133.58866305927612,111.39193236181177L133.85371708632508,114.35231914423662L133.97972637787296,115.07391128554957L134.45431309661458,119.42603732695409L134.5952890089976,120.00398324853694L135.36486299645856,119.06673758133277L135.50970126260555,117.86267749896783L135.54446244648082,115.09199588640509L135.60577731248304,116.64931290729903L135.67481688601308,118.34758469451941L135.71006086410884,118.99236674041151L135.78006602607988,118.89523771340376L135.84331206896405,120.21689436295314L135.87227972219347,121.53196654947915L136.10305535958764,118.93383243340955L136.1957518499217,118.24772126093998L136.35314276580144,115.27132606872658L136.72151475603525,118.92192351898326L136.84607566492164,119.27863671869667L136.94311730324011,120.97455556115978L137.26320987142492,123.07627485983551L137.44280932144719,123.25839085167111L137.47370815155853,122.91516750843769L137.53985095976566,120.31545623345292L137.63206465587922,118.99423276946555L137.72331276355186,120.50805623542243L137.7537287994427,122.73566651098919L137.7822136584516,120.99602746131453L138.10713416884133,119.73928572354515L138.14286094115758,121.90918448694946L138.17762212503283,124.55351678721563L138.24811008122438,123.66690203539605L139.36674429009955,123.11755039584976L139.39909150287235,122.95090989295353L139.43868062895254,120.98222659104636L139.47440740126876,121.01983616646721L139.73946142831775,120.89037272719527L140.0445873756674,121.7494466530493L140.61138779052254,120.58559716688899L141.05748965025523,121.26163417266378L141.1931548262129,119.76110723607128L141.22308806788328,117.01768600192861L141.2790921974601,115.42216213500973L141.53931828230418,119.69686591903988L141.595322411881,118.3492859845183L141.71650376122398,119.70748187468448L142.03032000454243,119.38210879060446L142.26302681881856,121.39138653709813L143.01039227213698,121.10411063145739L143.3580041108897,122.52399671691389L143.60422916333957,122.16938266274164L143.81134788392973,123.80371149560519L143.84417789092308,126.26631339850115L143.90356158004332,123.43160072201937L143.9677732113685,123.41529443902007L144.13095765789407,122.31610151666538L144.75859014453098,122.5346779846644L144.94253474253765,120.35708268202488L144.97633033797194,121.34506512687209L145.28724981596744,119.46842444329148L145.3519442415131,117.75168663014495L145.4528482335955,120.75836706722616L145.48085029838387,123.79464201762762L145.51030074583375,119.23713518028106L145.82218581227028,122.26125180366299L145.85067067127918,123.15882406468022L145.9419187789518,120.08828982916893L146.8505375019138,119.70949563553658L146.99730694494275,118.89256726258125L147.0620013704884,118.8432840530003L147.12621300181357,118.58862786833004L147.18028595450843,118.23556794781308L147.45740983706963,119.05111351798234L147.5867986881609,118.24844994066137L147.70749724328343,119.06293886073641L147.77701961103398,119.3684551674454L147.87695801467538,120.7516837499804L148.1352529226375,118.96310084483278L148.16325498742592,122.9950257304863L148.30133413448598,119.282248535405L148.50121094176885,119.35068358443672L148.55383551180225,121.04376242026305L148.9337945633278,119.21672318230051L148.96759015876214,121.96048521098442L148.99414384088905,123.13460798452414L149.02311149411844,122.87985191553955L149.12884342840573,123.55045696410608L149.24809360086675,121.98434655945047L149.41996834336118,119.97315305269368L149.45424673301596,120.46358410678897L149.56094425574423,116.62938914290983L149.8105488677375,120.11998029704512L150.68102684728083,120.11775452650028L150.79544907753697,120.37332979590741L150.9040777771472,120.62023586803326L150.93932175524296,123.31712767689206L151.1150588515013,122.89582652925503L151.16816621575518,121.19047963474307L151.33907536980863,120.36091931165691L151.4404621561115,119.80718724358904L151.535572617548,121.43508263437448L151.5698510072028,121.06733650284437L151.6997226525146,122.27889952560298L152.26652306736975,121.35524631485066L152.38529044561028,121.34258897970108L152.44419134051006,121.40946323707485L152.59240916620044,122.65235346691765L152.7391786092294,122.11697415038701L153.1355526642516,120.70667176245118L153.26687269222487,122.57398531057555L153.36729389008678,124.19419335071548L154.56993429332718,125.60461259571295L154.90547627656764,124.79423041993232L154.94072025466346,125.3510349886862L155.03631351032044,121.90189279270851L155.25067414421798,120.21856325734919L155.4790358105097,122.93077684941306L155.50752066951864,122.65464559487023L155.53407435164556,121.69417935775073L155.56207641643397,122.97584212621311L155.58959568700192,122.4425246076622L155.61663216334935,123.80075921951853L155.86913354066556,123.74540126553482L156.6092570806766,125.03995760351876L156.64160429344946,122.49915334142888L156.67829665420666,122.02677691283873L156.91583141068767,122.34059519213496L157.28758296046493,124.17267398115467L157.3527601802311,122.88698310366303L158.530295284006,124.63401510287868L158.56602205632223,123.98814253681564L158.6693400195071,124.42931732669896L158.72486135486344,123.53396758176922L158.7596225387387,123.56554039718087L158.83011049493024,125.30916686054735L159.49443534232438,123.77633852691193L159.66244773105484,124.14246816431337L159.7614205462553,123.2658813103423L159.85411703658934,123.17669774634673L160.159242983939,123.75831046601311L160.19400416781426,122.44380895244927L160.39774332886105,122.61878834027439L160.4653345197296,125.65999484598908L160.5000957036049,125.02324015775199L160.6927305975804,124.63802374296608L160.7892894416783,125.6352310045537L160.8163259180258,125.6037113536749L160.9877178662997,125.70145494946311L161.0495155265224,125.39685468971223L161.12096907115492,123.49908372464088L161.22476982856023,122.51597989820559L162.23477533782517,124.17443544957112L162.39458022480733,122.56011478084805L162.45927465035302,122.21476531699604L162.48727671514143,124.4718057255093L162.5167271625913,124.84447812065693L162.85854547069815,122.53744872101296L163.1916734828362,123.78099087156424L163.4649350116335,121.87229128360934L164.03608057447303,122.41661060346053L164.26395944654433,124.64242715691219L164.2996862188606,123.56597585770047L164.39672785717906,123.51329258220585L164.72357954445073,126.04891998050789L164.90414458291397,121.20746026513865L165.03691299354873,123.08112477567106L165.19816626319232,124.68203219969507L165.26624024828138,125.27858067480395L166.04450453171117,124.15016401895787L166.09809469018552,121.29650185237125L166.1526504371009,121.60925654679991L166.29459193792493,121.88870001864106L166.3288703275797,123.34471559629446L166.43170549654405,123.13159427413679L166.63447906914988,122.5347412162964L166.69579393515204,123.97647931120025L166.7817313063993,122.46806271247576L167.03568106637695,123.17429401861389L167.10423784568655,120.84313804255719L167.14093020644378,124.00119709724882L167.17569139031903,123.70088617308602L167.43495188672213,122.30835316587239L167.93222993382673,123.62455618283934L168.0022350957978,123.0454560483455L168.07175746354832,125.00391459087285L168.1412798312989,125.02653345637731L168.21128499326989,125.95705446562457L168.51110020419418,125.55581027853495L168.62166008068635,127.65825744919849L169.05955443867072,126.62220915394578L169.20342711637673,123.01160137356563L170.29743882000687,122.91466940365714L170.59001211762376,121.4858778991959L171.06990957279075,124.60485506376477L171.10225678556358,123.36346596795494L171.30309918128742,121.35524653361973L171.3359291882807,123.71273480920237L171.39917523116492,122.87356815764805L171.49669966370382,121.97364222892575L171.6502282258196,123.59803472032979L171.75451177744546,125.28012854974918L171.79168693242318,124.91537736780626L171.86217488861473,123.06686805204288L172.34641749176612,125.98715288858435L172.58588342512908,126.25750217045109L172.71865183576384,125.21604999399167L172.95715218068588,123.21544593910711L172.9899821876792,121.01714342053174L173.99226298941625,121.27084285526189L174.10427124856992,123.51061479869169L175.10124131388162,122.58407022509533L175.201179717523,123.13572936199478L175.42471344160987,123.99217515842255L175.512581989739,121.55568603757243L175.54348081985037,119.18388802918503L175.60334730319113,123.43359323719828L175.632797750641,120.25185464499097L175.83557132324677,118.48343188944855L175.89205824704408,116.23006022813064L176.20201213659863,118.23186613773834L176.33381495879235,120.74177140243424L176.56941853839143,121.75500545912661L176.6230086968658,122.7480676079719L176.67515047267875,125.28881332721862L176.78667593761193,125.4412311382417L176.87213051463863,124.0511562605426L177.9806260448835,123.36398598731148L178.00959369811292,124.82060714504117L178.0390441455628,125.76572683779011L178.20657374007277,123.73282615685119L178.4499020271997,122.13482073314944L178.61212088528433,124.0275850780192L178.63819177319075,123.82083392499058L178.66522824953822,124.78439902957194L178.7767537144714,123.51849196408939L178.91338447887003,121.3182754216509L179.0963634884357,122.96971689030946L179.31796603564058,120.98947725790097L179.4275603236918,121.30876604818187L179.5337750521996,124.18204326587767L179.586399622233,125.90723059847497L179.74475612655368,127.46505798824467L179.823934378714,122.91594181853455L179.8765589487474,120.4540171464923L179.92966631300132,122.10335873616793L179.98663603101912,123.04118372251841L180.07305619648685,124.14564249046815L180.21934284529527,123.99380699662598L181.35342646922612,124.61416808246554L181.49440238160918,123.7970458249074L181.63344711711028,124.06050972838378L182.11672413182066,125.32479397916234L182.2210076834465,124.21039916555941L182.29922034716583,126.7812215666836L182.43150596358007,127.71332344256948L182.58841408523932,126.24696599235573L182.61496776736624,125.14470848790535L182.71973411321258,125.43891615302402L182.77187588902547,125.34208524836413L182.9292668049052,126.09050243526727L182.95726886969362,125.43097261754033L183.1262468468651,124.84682770740945L183.32226130038399,125.62570771280642L183.49123927755545,121.51692151631872L183.57572826614123,122.44676601897018L183.75049977395855,125.52039729637646L184.85658133310096,125.67697807026659L184.91499943378025,124.90387500398123L185.11970418326797,126.28712258792373L185.20853831983814,125.20643374450174L185.29785525062877,126.77861087178398L185.35434217442608,126.27720645010669L185.49676646947063,124.99781049942554L185.94045435810085,125.00556481063936L185.99307892813428,125.09193486220774L186.0196326102612,125.49133606465492L186.12391616188702,123.52774695225936L186.14998704979345,122.6853790599087L186.26151251472666,121.6094589035572L186.31799943852397,123.9349742403921L186.48746020991595,125.64766523195058L186.51691065736583,127.4222029394193L186.71582187620768,126.41936889849589L187.03639723861298,126.92676381375736L187.17640756255506,124.03597019582936L187.25944816847934,122.87104448704403L188.2766955910516,122.19080562087402L188.30421486161953,122.34781387326248L188.46836489658608,122.26269901488952L188.49588416715403,123.67062624751347L188.89080983951473,126.23253296139106L189.00330089288892,125.52343791583914L189.05930502246574,124.61863928079867L189.11579194626307,124.71278330744677L189.1997981406283,125.02805132078721L189.28525271765506,125.88038398902L189.53920247763273,123.33950113815624L189.7076976605837,125.46946895599078L189.76659855548348,125.095622118412L190.07075891439214,124.39536337108464L190.09924377340104,125.61057993645855L190.2730496927774,124.66549700714799L190.47147811739882,127.21906872927718L191.9019973927104,128.01307183976687L191.98165843909123,128.05301701926965L192.05987110281063,127.50826408008794L192.11297846706452,127.26420488323697L192.66819182062792,126.01753594035235L192.74737007278824,126.94002790090427L192.85310200707556,128.40560334927693L192.87917289498202,125.91113959660723L192.90958893087284,123.41485617376318L193.07904970226483,123.41766259800856L193.16015913130713,123.89020275001651L193.21278370134053,125.62104732841374L193.44790448671912,124.82664864041573L193.55170524412446,126.05826323559019L193.63040070206435,127.72379012017598L193.76365190691953,125.40309730601386L193.9765641581556,123.74735857366747L194.08326168088388,123.53543563059887L194.1354034566968,126.03437018636572L194.18851082095068,126.83272714761917L195.2472785464851,128.4390252470771L195.30038591073898,125.73194478711906L195.38584048776568,126.06995915742328L195.72910717853406,126.32465686822349L195.83821867236477,124.17296602387682L195.9700214945585,123.41144022645457L196.0250600356943,123.07836541333113L196.29301082806626,123.6127485001542L196.34515260387917,125.27610666088532L196.40260511611746,125.00168004376008L196.7502169548702,124.10855915518245L196.91243581295484,124.79889966930483L197.18859410707503,123.53302835440475L197.3286044310171,124.77265815580171L197.51254902902377,126.59098586562382L197.5926928696251,127.05900035067464L198.37578509525977,125.36472572265865L198.92761888927976,127.54783660453285L198.95417257140673,128.12606458287507L198.98217463619514,129.37301904207902L199.11590863527084,129.3040343948444L199.17384394172961,127.28720435185384L199.34040794779864,128.30895934001688L199.44565708786544,123.27309667447827L199.65567257377853,124.24986267476352L199.68174346168502,121.23080496033236L199.81982260874514,122.22160422269062L199.84830746775404,123.66568717115626L199.95935013846673,120.6522923564218L200.25385461296557,121.10040450599729L200.41269391150672,121.93698999484766L200.57491276959135,121.89006305537424L200.65360822753124,125.45423879273085L200.9601825575423,126.6980099725587L201.80893479716363,123.93678567501674L201.9233570274197,125.19633757572758L201.98080953965805,124.52650498268619L202.12419942314352,123.00861995190058L202.23524209385621,123.56755099082847L202.37911477156217,122.61209562273521L202.5128487706379,124.14263495355499L202.6248570297916,125.85047265746434L202.65430747724147,126.96015908452438L202.71224278370025,127.05366053405984L202.9748828396468,125.53402567326616L203.0038504928762,124.76217638622434L203.31139041132826,125.30577215582812L203.36836012934606,123.73457795333638L203.39539660569346,123.73140680144137L203.5923766476534,127.1702633727438L203.6488635714507,126.02529111562058L203.67541725357762,127.43479034968072L203.70486770102752,127.52595869205794L203.7338353542569,127.306236690902L203.8390844943237,126.9762078469578L203.89267465279812,126.61008467801986L205.2247039071298,127.67853564574824L205.31353804369996,127.72653696227573L205.65728752868876,126.59220980721398L205.71039489294267,124.79441706787243L205.8484740400028,126.17743035533346L205.87551051635023,125.94203705169929L205.92765229216317,127.47565407501398L206.15166881047048,128.04062669737658L206.29747266505842,128.52365354916583L206.5041085914281,128.31916507905214L207.27030301934562,126.7703082491003L207.45473041157274,124.2653672378183L207.75358003405606,123.54270709270591L208.60474624477976,123.59510505281268L208.85097129722965,124.78562122061052L208.87800777357708,122.85658990553767L209.14788974283093,124.68921620673899L209.1734778365169,124.03746237252304L209.2014799013053,125.48570684599663L209.2579668251026,125.95189339755436L209.31300536623849,126.91618712559888L209.3646643478309,126.955380494553L209.39170082417832,127.5359788971874L209.42115127162822,126.6499338132436L209.48053496074849,128.22291355855936L210.0000215419956,129.98020620914045L210.14727377924504,126.05193306044458L210.29452601649444,127.24832961923343L210.38336015306461,127.2680878647113L210.46784914165036,127.07896807462205L210.60882505403342,124.08406861355347L210.92408968001334,124.58919701169678L211.18721253018035,125.28987114113032L211.26735637078167,125.32161552107601L211.29391005290861,123.67089680377686L212.27977585114905,123.59229781516366L212.4386151496902,124.4727227139488L212.84174832379932,125.24390689402345L212.86926759436724,125.4730905148225L213.03438321777477,123.16423978407724L213.1391495636211,123.00253868292667L213.22170737532488,124.0008577124136L213.38634020451195,119.45181511057108L213.4384819803249,121.155945916843L213.67987909056984,123.28614949473459L213.78464543641616,125.01422409323541L213.9449331176188,123.931858058366L214.08639182422237,124.70792861291396L214.2461967112045,125.43945119378765L214.35385982237375,126.89461195472838L214.48711102722896,126.05504598676109L215.4005576923959,126.75621316627496L215.51160036310858,127.66112753918242L215.75106629647155,127.40292560772264L215.83217572551385,127.99503029941107L216.15613064746262,126.45120736595432L216.34200642235123,125.24504852325947L216.42408143983454,126.8579464380277L216.4796027751909,127.02562462747719L216.50615645731781,124.57709522034122L216.61430236270755,123.43300666171095L216.64085604483455,125.65315740231668L216.66644413852046,127.50268064311365L216.9913646489102,128.57024859020177L217.14923835901044,126.17754414214988L217.17579204113736,128.49773769732363L217.23131337649366,128.2125939281995L217.36553016978988,128.25647544546095L217.39304944035783,127.70973952369681L217.47753842894355,129.17596448342607L217.63879169858717,129.09438852113755L217.74983436929986,128.33487784761522L217.94826279392123,128.2583659642549L219.0760700929857,126.11680970057944L219.2421513048342,127.28572243577982L219.35029721022397,126.89188145418206L219.43237222770728,128.74771041289847L219.6457672731638,125.41422951773296L219.70225419696112,121.35784476814025L220.0580735374622,121.8479011881378L220.1734613561593,122.23851243646497L220.20146342094768,121.78731256225862L220.72095000219485,121.77851625586447L220.7470208901013,121.9078143496863L220.8290959075846,125.45977516072648L221.0217308015601,120.96120756058986L221.07918331379838,123.43170701026654L221.3085105685311,124.85184135671909L221.3649974923284,125.50171406688801L221.39299955711678,125.74226723495667L222.48218331854207,124.03327041372492L222.53432509435498,125.5448928491812L222.56087877648196,126.47145675073413L222.7781361757024,126.08531713842237L222.80517265204986,127.10899392710459L222.8843509042102,126.88594736192593L222.93842385690505,126.88043679144928L223.17644140760657,127.58714841970544L223.25561965976692,127.33652818473928L223.30969261246182,127.62315225719092L223.36279997671573,128.28286182310134L223.70510107904303,126.4547089020109L224.185964122651,123.81526519482898L224.32887121191607,125.61740706469394L224.61516818466657,124.73932930605145L224.79187086936588,126.11198816625986L224.90725868806297,128.2152443183344L225.73235401088024,128.04602015946517L225.9056771360361,127.70139654107933L225.96264685405396,126.41058659887166L226.07127555366418,127.45031868951463L226.2581169169938,127.61417272829385L226.28467059912072,128.8223045209303L226.31315545812961,129.0835150097352L226.6009008135416,128.11623496665746L227.0556929692431,127.68992991280028L227.18846137987785,128.8033040915737L227.32364376161502,129.20075249319063L227.46172290867514,128.92229118140978L227.48972497346355,128.63719970485084L227.54379792615842,127.07907228378232L227.62780412052368,126.70661055936156L227.89816888399804,124.06420063608513L228.00583199516726,126.72368524103143L228.03142008885328,127.35322999529984L228.1912249758354,125.05725188070925L228.30033646966612,124.2115829588361L228.3273729460136,122.28603324797241L229.2890990332295,121.30888034665878L229.34944831079073,123.18980228973346L229.37648478713817,123.73529767820244L229.40303846926514,125.17314742896625L229.45566303929849,123.96547440630059L229.5377380567818,123.89235919350764L229.56380894468828,125.82996016446515L229.5903626268152,125.44657235832662L229.61691630894214,127.23073669938212L229.72313103744995,128.25280009777185L229.77623840170384,129.14596857054067L229.85783062496662,128.08813713871785L229.88390151287308,126.96169394231944L229.91045519500005,127.01163208858038L229.93652608290648,126.60691371214094L229.9896334471604,126.63676097009028L230.07122567042316,127.35140825295929L230.0992277352116,128.85695288765453L230.2628949759577,127.49250937820229L230.43139015890867,124.88562979270964L230.485945905824,126.10200075977205L230.56512415798437,127.59561950230707L230.892941433697,128.87658297145907L231.10633647915355,129.13771603447412L231.13240736706,128.13111321234155L231.16040943184845,128.15416749542206L231.32166270149207,129.5005910482843L231.51140083014462,125.4659197163333L231.64899718298426,126.06208484269789L231.76003985369692,126.7452519204883" style="fill: none;" fill="none"></path></g></g></g></g><g opacity="0.2"><g><g><g><path stroke="rgb(255, 112, 67)" stroke-width="2px" d="M52.061617016245414,-5.956044672970137L53.03734413585555,13.369380120463006L53.30964007621186,20.913354682901115L53.34488405430763,-5.597604450245939L53.52255232744792,5.66804007507929L53.858094310688415,22.052652572062613L54.04831523356144,6.163213066188405L54.21487923963047,9.028959729345615L54.32399073346119,41.139798084435085L54.728572290231746,45.67844816217419L54.92506953797115,23.627389494385966L55.09694428046556,33.62488197090681L55.20267621475285,25.774893977250457L55.32723712363926,29.468538950707796L55.465316270699354,22.29784995246621L55.53870099221384,48.61591083407393L56.914181726389636,46.597388173493954L57.05998558097758,52.880542170262686L57.097160735955306,44.171481865048946L57.26855268422923,52.24498890672136L57.43366830763678,48.371072124901644L57.51236376557663,49.43928016018205L57.790453236578834,59.62218134659854L57.8252144204541,51.63049997905297L58.06709432491955,54.71180197305638L58.203725089318205,50.1192113896317L58.49871235803755,65.14213767569211L58.76859432729141,71.51506890541073L59.286149731656614,52.078614088779034L59.42712564403966,60.6768996960775L59.636175541511804,65.51403718835068L59.76942674636702,67.85083497292113L59.82784484704631,49.76957988918164L60.983654210899175,71.08056606495437L61.958415742068325,77.87873547484932L61.99076295484116,71.68465960608806L62.05062943818191,83.17457699693244L62.24905786280327,72.4192122086454L62.55273542749142,82.30678107152869L62.62370617790344,61.63203510589287L62.65653618489676,63.096045963688255L62.756474588538175,69.87134552320688L62.97035242821521,85.81057345932616L63.26920205069847,72.65117522853087L63.373968396544775,81.14840065702661L63.40872958042006,69.16926178584355L63.731718913927814,87.7066676465599L64.99326021206798,70.825149594045L65.06471375670048,83.62158469709752L65.52047150084297,92.37090432823287L65.69041506645543,90.49431516889186L65.75269552089863,97.03194944386449L65.85359951298103,93.32962341077467L66.08147838505228,91.01710584481215L66.29487343050882,85.4931919738273L66.35087756008564,85.40277034849574L66.43053860646647,89.03106724735972L66.61351761603217,88.59743068911455L66.78732353540853,80.73095597716458L67.12527948975148,97.24472659246136L67.30922408775814,88.71170699091519L67.4830300071345,100.02282981253633L67.61290165244631,93.67452227472342L67.81084728284716,103.46166623242553L67.88230082747968,89.29318600695589L68.64077054786935,78.4860813737585L68.69387791212323,88.43582194312731L68.75133042436154,89.53331335673381L68.78705719667778,94.62413171590718L68.95893193917222,95.470863305438L68.99707268259091,94.2231342397116L69.30509539526348,88.93817443803613L69.4962819065775,96.5452325829716L69.5532516245953,80.9906278694624L69.70774577515208,92.09524420986124L69.88637963673334,96.1495635022717L69.950108473838,73.78855817806757L70.33972340977337,101.98384045305116L70.58160331423883,89.87211784933692L70.61539890967313,84.23570887436117L70.68009333521877,91.54989676099535L70.74671893764639,81.59992518303686L70.78051453308068,93.01574960833459L70.8510024892722,92.48913817192478L71.22178845060847,95.82222737031051L71.30917420451715,87.71272250327836L71.4356662902855,96.21498756653271L71.52305204419417,97.44859775200952L71.60995500388235,91.43019479692441L71.72679120524093,82.6456402766925L72.53933387832546,93.4589183104899L72.66437758143235,104.97862365105357L72.85315012164392,92.84567257378428L72.8874285112987,93.40426350192843L73.22586725986214,103.36658188108687L73.36829155490668,93.79221811156836L73.48126540250131,91.45783375884251L73.76466560992888,101.95739908829523L73.90371034542997,95.77130821381078L74.00992507393777,94.76364874571486L74.04806581735647,93.64631794967798L74.08330979545224,105.39056971856435L74.3198789634923,99.36110570745592L74.53230842050786,96.53280675251725L74.60376196514038,88.72609031520822L74.63562638369271,100.53201529836035L74.76791200010695,104.16931241346091L74.91854379689981,94.19237362224638L75.01751661210025,83.19490575282249L75.04986382487307,107.1423230518879L75.08076265498441,80.50961327323004L75.2106343002962,89.18973063382879L75.52831289737858,94.5169589282386L75.66494366177723,92.5970678166832L75.69873925721153,88.1258114553906L75.72915529310238,97.41141752742112L75.79722927819147,94.36393701469594L75.82909369674378,90.12944014111096L76.753644628982,98.16489459681034L76.89172377604213,100.43458742567134L76.92407098881495,103.22714388053356L76.9882826201401,83.35701907020295L77.0505630745833,101.28343760713626L77.15388103776814,102.51507206125414L77.18912501586391,106.06569232184502L77.22388619973917,100.19735376243757L77.25913017783495,105.47266287632134L77.36051696413783,102.07635331403648L77.48845743256767,83.90454590273707L77.6550214386367,100.81404639046787L77.68543747452755,106.39304669132645L77.71488792197742,83.64300770420174L77.93021414431594,95.91846980418416L78.52646500662101,112.73543463402933L78.66599253634259,107.08996617087621L78.73937725785706,108.33087136444753L78.9141487656744,93.46330443410673L79.73151938096385,109.84628771261562L79.79379983540704,102.92101494502049L80.65510472476105,101.91913069166607L80.70772929479446,103.91277129547034L80.84773961873654,103.7683544518925L80.91726198648709,104.54025749589381L81.16976336380333,104.62616837455359L81.36867458264517,100.59737249171381L81.49226990309057,115.815213795093L81.7269078942487,96.26416200026318L81.78677437758942,100.23074362240354L81.99051353863618,95.33818230613224L82.05086281619742,91.35634195872751L82.13776577588561,108.68265489228548L82.17107857709942,96.99126153621731L82.24060094484996,115.00558188110287L82.49455070482766,103.29609082578689L82.53269144824638,106.222702173146L82.6360094114312,106.00973049099994L82.8325066591706,108.23329455200994L82.92665153216615,109.44535102815414L83.22888071419283,100.7169984661171L83.35151044619727,104.08934696639818L83.45724238048456,95.65618386731914L83.49296915280082,104.6684855006752L84.53677025750002,108.44565527722808L84.56622070494991,101.83682172325295L84.68788484851338,110.74331230378473L84.71685250174276,105.28636052793415L84.74823412607464,105.39267919173835L84.78685766371382,109.0511135927928L84.92252283967147,103.22908617643873L84.95680122932626,105.46285716960762L85.06349875205453,103.83737738681349L85.0987427301503,104.73629260091376L85.38503970290083,115.01707607823181L85.51780811353557,99.65812196202427L85.58974445238854,101.91187519819873L85.65830123169813,93.16998127738624L85.69402800401437,101.64957406340018L85.9996367455845,105.88942972834792L86.09281603013906,106.85774782570743L86.36559476471587,101.4465965423436L86.42642683649758,106.90714110968072L86.56209201245524,98.89084516898957L86.60023275587396,115.18844493713218L86.77162470414787,97.23019128883303L87.00384872420354,111.78623097767081L87.35821968204314,99.63483568826922L87.42581087291174,107.04538151307187L87.63389518194289,107.81066433722738L87.73093682026136,111.07108613623159L88.51209786901406,118.38415545495793L88.63231362991604,108.17689198109247L88.76459924633029,104.67327588932395L88.82736249499398,104.23351760345281L88.98765017619662,107.2096498974269L89.01516944676456,116.15491952515445L89.04413709999395,97.98837971761662L89.30581156749949,101.9773296583268L89.50279160945938,113.9331245036074L89.63314604899165,107.94670104025663L89.66983840974888,108.0783789759494L89.69687488609632,104.83068392648343L89.98172347618538,109.40218585734152L90.14973586491587,110.629646958912L90.61128713970425,102.59692205207465L90.68080950745478,106.61715845875018L91.39196539423645,95.35799129269556L91.42962334343464,102.28148894165436L91.5667369020538,106.8769823303833L91.60198088014954,98.29759687322306L91.63770765246582,106.82519385208563L92.93883807668614,116.26244794446767L93.114092378724,102.981666858153L93.35259272364601,110.6352732339049L93.3868711133008,113.04297241798066L93.568401740205,105.085012225352L93.62875101776626,98.26266290321043L93.80062576026066,117.66940879937721L93.8662857742473,112.07391570105159L93.9329113766749,108.53883076811532L94.07388728905796,118.96955705764279L94.62475549463694,110.51796038498492L94.68800153752113,115.29637458189057L94.74641963820041,102.04932226945958L94.99940380973713,110.62498727249164L95.0916175058507,112.36146972220399L95.35908550400212,95.47552299185838L95.4517819943362,113.7743805680906L96.28411923046083,113.59530179751034L96.67711372593962,100.22758549181594L96.90402700956987,95.26901955022278L97.1053521995142,93.24307725849333L97.24246575813332,97.72655579793093L97.2772269420086,105.0775713170956L97.31198812588387,100.87398704031116L97.34674930975913,108.92429899582972L97.56207553209764,97.73575358730344L97.91596369571675,96.42206852964246L98.08301049600628,97.52613760888084L98.12066844520449,106.63817720082253L98.23074552747619,106.98679651889947L98.44607174981469,111.20528692889037L98.51993926554965,110.90186322554568L98.62808517093939,115.18686283225168L98.73381710522669,102.78213622842108L98.8381006568525,104.67961646719276L98.87431022338926,108.56775851479681L99.50290829846713,117.91427486482985L100.57712543905721,103.9036525353522L100.71906693988124,108.37359579518777L101.2337255789235,111.43182732609226L101.31580059640679,109.37427029303318L101.34621663229765,111.18542322976634L101.41332502894575,115.64687692393191L101.44229268217515,109.56515633817308L102.16262165914611,112.02869273003897L102.19496887191895,110.47054283237054L102.36201567220844,113.14367240575874L102.4556777509835,112.86231762169331L102.59423969226411,106.72115183872427L102.66376206001466,113.15691740483034L102.80473797239772,110.20199838647777L102.94378270789882,114.79050376536951L103.08234464917942,110.86412675659008L104.67025484037077,113.82271911547691L104.70453323002556,115.21500788535634L105.0381440363841,113.39011601671181L105.28436908883394,116.32892370572898L105.31768189004775,112.6309868358427L105.40989558616133,115.25619276542996L105.47941795391188,112.54196949956933L105.51514472622813,110.89641628616845L105.78695787236396,103.89947918280478L106.00856041956884,114.84681058930573L106.45949022150641,112.2424425463818L106.4889406689563,114.06492250297507L106.58839627837723,111.56011004343436L106.80855044292063,107.7422979530349L107.18706111178474,111.58394952196993L107.34976276408983,108.16662121761273L108.0985766000697,104.30329435587689L108.1512011701031,119.66723491407569L108.36073386179574,111.9415295416563L108.58861273386697,114.13232381838836L108.62433950618323,120.06069421524029L108.90291177140594,113.99116541175941L109.02119635542594,119.79413765905326L109.08444239831012,107.87957176785352L109.20755492453505,110.29962991147609L109.49916263371098,117.9789952647684L109.74104253817643,115.35885176684008L109.77676931049268,116.4972590570967L109.92064198819867,121.44416210449876L110.18135086726322,115.31654527927192L110.4748897533211,110.80099150111873L110.50144343544805,119.04095238998782L110.62117640212954,108.16028671891732L110.7819468775527,111.88337312920945L110.88719601761949,108.15852679821451L110.94851088362172,110.92317072835509L111.03879340285334,122.94908123997749L111.13680062961276,106.3233337702232L111.95417124490221,114.15848554116732L112.21681130084876,115.66409314303499L112.47172664926741,120.08188469396151L112.59435638127187,117.21664108240417L112.68705287160594,115.57894672043177L112.72326243814267,111.9675605622069L112.90913821303131,114.37202866561414L112.93665748359923,116.49225893696526L113.17757179962368,113.07714953090348L113.30213270851007,117.61938784074908L113.33689389238536,111.82046888232775L113.37117228204016,112.69689419438997L113.43924626712923,113.36069889657067L113.53773628810916,100.12053732720229L113.762235600637,111.69600084630173L113.79892796139423,115.96744085671203L114.06011963467925,114.95106081435645L114.09439802433407,113.60421386573248L114.39904117746318,118.00613269488002L114.50718708285294,114.78513129586656L114.56512238931174,124.24082200141416L114.59891798474602,117.62784093137861L114.6621640276302,106.79827831180357L114.84128068343195,108.43715963238468L114.87749024996869,114.65230895577898L114.94749541193974,116.77044039250956L115.69534365947862,109.15193972341918L115.72334572426705,107.89256600102188L115.87639149216237,113.14074680355415L116.37849748147188,116.45853776204834L116.70100402075916,108.42946339884496L116.90812274134932,111.78804257134762L117.15965853022458,113.70683031292872L117.1915229487769,114.67661653066725L117.5120983111822,110.74653426569314L117.76604807115991,114.98313149369199L118.09096858154963,112.48101666735292L118.19959728115985,120.44087052249944L118.4516158642556,112.37241223434577L118.5225866146676,116.19189153805348L118.66983885191704,116.88095976514151L119.02952054618204,118.39976069310678L119.06428173005732,120.62829903776122L119.85365028055834,122.93030723268757L120.00235090046921,119.6252794987721L120.13753328220642,116.78922503835294L120.57784161129321,112.92276132313646L120.63674250619299,114.18639502630228L120.66619295364286,113.98620024687509L120.85110314009052,119.13741063451761L120.88151917598138,121.61881675662836L120.91724594829763,121.77385087657042L120.9867683160482,114.96979682681254L121.04325523984551,113.64255065306253L121.41886914338667,114.46392753008485L121.98856632356478,108.84279551789369L122.18071842331976,115.08402145563919L122.40908008961149,118.04998025290814L122.60026660092551,119.71973465566259L122.72675868669387,118.88384831149895L122.79338428912146,117.83893110935364L122.86580342219496,116.37971064020701L123.77152537983406,118.67101341075465L123.8748433430189,118.8409369461763L123.94484850498993,116.2015163893582L124.04237293752891,119.17590244076968L124.12493074923267,119.05137665259622L124.22535194709458,123.30419615484527L124.53965098463351,124.3725394517341L124.59951746797428,125.9423150086565L124.98864960968915,121.59572197683579L125.02341079356442,108.14407356342726L125.05479241789627,117.46098129935666L125.4801341261479,108.56758221876784L125.60131547549085,122.24975440775654L125.72780756125923,120.35388211035234L125.84512655683828,109.53603709752913L125.87409421006767,117.49281489092913L125.97548099637054,117.39542197348723L126.04210659879816,106.11373298973413L126.10535264168233,122.12416628402934L126.39213240865334,114.46426036482916L126.46986227815222,116.91216568205918L126.56980068179364,117.50302334288139L126.68084335250633,121.86826195945368L126.77981616770677,123.8513308806943L127.54745897828575,119.67220463834009L127.63098237843047,123.98889193645664L127.7367143127178,118.76728624049537L128.30061796225002,114.20616297844506L128.55070536846378,121.93508879297953L128.73513276069093,114.45201386999048L128.76989394456623,117.58329730799481L128.805137922662,114.9056098743409L128.86983234820764,123.01092163151208L128.90797309162633,114.56953189101311L128.98328899002277,116.64591460433611L129.05329415199378,119.65654772721723L129.2019947719047,116.72739528537184L129.33814274208285,118.44179209807804L129.5167766036641,115.80071496650515L129.5713323505795,118.71387614269001L129.78086504227213,116.65018370386477L129.8388003487309,117.52647527411192L129.8682507961808,121.04382877799844L130.01453744498926,115.37221075041316L130.14296070763953,113.62850320310052L130.29745485819632,124.70683623725213L130.36214928374199,124.44948658919775L130.39691046761726,125.4034320008177L130.7358320104012,115.13667317656137L131.46871363710488,125.02516911339L131.58168748469953,124.08527419131877L131.67872912301803,123.13746114587826L131.77046002491107,109.58401697368413L131.79942767814046,121.33154997641968L131.8998488760024,120.96343474921014L131.93461005987766,122.72585551207857L132.00268404496674,122.4998743988306L132.17069643369726,113.98338710937864L132.20787158867495,125.82638365189442L132.44395796249452,124.86463182171664L132.47147723306244,111.31051438106711L132.60665961479964,118.36737693634053L132.67714757099117,123.13612372772761L132.733151700568,115.61464666629433L132.8664029054232,124.62956994318435L133.17297723543433,117.1659620532542L133.24346519162583,124.71420267563425L133.307676822951,117.25586390925903L133.3458175663697,115.3374621951896L133.48727627297325,115.44264405356574L133.58866305927612,102.99239052005194L133.85371708632508,118.79289931787389L133.97972637787296,116.156299497519L134.45431309661458,125.95422638906084L134.5952890089976,120.87090213091122L135.36486299645856,117.66086908052654L135.50970126260555,116.0565873754204L135.54446244648082,110.93597346756098L135.60577731248304,118.98528843863994L135.67481688601308,120.89499237535001L135.71006086410884,119.95953980924966L135.78006602607988,118.74954417289216L135.84331206896405,122.19937933727718L135.87227972219347,123.50457482926817L136.10305535958764,115.03663125930517L136.1957518499217,117.21855450223563L136.35314276580144,110.80673328040645L136.72151475603525,124.39781969436831L136.84607566492164,119.81370651826681L136.94311730324011,123.51843382485441L137.26320987142492,126.22885380784908L137.44280932144719,123.53156483942453L137.47370815155853,122.40033249358754L137.53985095976566,116.41588932097577L137.63206465587922,117.01239757348452L137.72331276355186,122.77879143435777L137.7537287994427,126.0770819243393L137.7822136584516,118.38656888680254L138.10713416884133,117.85417311689113L138.14286094115758,125.16403263205588L138.17762212503283,128.5200152376149L138.24811008122438,122.33697990766669L139.36674429009955,122.29352293653031L139.39909150287235,122.70094913860919L139.43868062895254,118.02920163818558L139.47440740126876,121.07625052959851L139.73946142831775,120.69617756828737L140.0445873756674,123.03805754183033L140.61138779052254,118.83982293764853L141.05748965025523,122.27568968132591L141.1931548262129,117.51031683118256L141.22308806788328,112.90255415071465L141.2790921974601,113.02887633463136L141.53931828230418,126.10892159508516L141.595322411881,116.32791608273592L141.71650376122398,121.7447757099337L142.03032000454243,118.89404916448444L142.26302681881856,124.40530315683861L143.01039227213698,120.67319677299628L143.3580041108897,124.65382584509864L143.60422916333957,121.63746158148328L143.81134788392973,126.25520474490051L143.84417789092308,129.9602162528451L143.90356158004332,119.17953170729669L143.9677732113685,123.39083501452114L144.13095765789407,120.66731213313336L144.75859014453098,122.86254268666292L144.94253474253765,117.0906897280656L144.97633033797194,122.8270387941429L145.28724981596744,116.65346341792059L145.3519442415131,115.17657991042509L145.4528482335955,125.26838772284799L145.48085029838387,128.34905444322982L145.51030074583375,112.40087492426122L145.82218581227028,126.79742673873588L145.85067067127918,124.50518245620606L145.9419187789518,115.48248847590199L146.8505375019138,119.14130434508806L146.99730694494275,117.66717470314825L147.0620013704884,118.76935923862888L147.12621300181357,118.20664359132464L147.18028595450843,117.70597806703768L147.45740983706963,120.27443187323628L147.5867986881609,117.04445457467986L147.70749724328343,120.28467224084896L147.77701961103398,119.82672962750888L147.87695801467538,122.82652662378294L148.1352529226375,116.28022648711135L148.16325498742592,129.04291305896658L148.30133413448598,113.71308274278306L148.50121094176885,119.45333615798428L148.55383551180225,123.58338067400257L148.9337945633278,116.47616432535673L148.96759015876214,126.07612825401026L148.99414384088905,124.8957921448337L149.02311149411844,122.49771781206266L149.12884342840573,124.55636453695585L149.24809360086675,119.63518095246704L149.41996834336118,116.9563627925585L149.45424673301596,121.19923068793193L149.56094425574423,110.87809669709108L149.8105488677375,125.35586702824808L150.68102684728083,120.114415870683L150.79544907753697,120.7566927000181L150.9040777771472,120.99059497622204L150.93932175524296,127.36246539018025L151.1150588515013,122.26387480779951L151.16816621575518,118.63245929297511L151.33907536980863,119.1165788270277L151.4404621561115,118.97658914148724L151.535572617548,123.8769257205526L151.5698510072028,120.5157173055492L151.6997226525146,124.09624405974091L152.26652306736975,119.96976649872217L152.38529044561028,121.3236029769767L152.44419134051006,121.50977462313554L152.59240916620044,124.5166888116818L152.7391786092294,121.31390517559106L153.1355526642516,118.59121818054744L153.26687269222487,125.37495563276207L153.36729389008678,126.62450541092541L154.56993429332718,127.72024146320916L154.90547627656764,123.57865715626136L154.94072025466346,126.18624184181698L155.03631351032044,116.72817949874201L155.25067414421798,117.69356895431022L155.4790358105097,126.99909723750886L155.50752066951864,122.24044871305597L155.53407435164556,120.25348000207148L155.56207641643397,124.89833627890667L155.58959568700192,121.64254832983585L155.61663216334935,125.83811113730303L155.86913354066556,123.66236433455927L156.6092570806766,126.98179211049467L156.64160429344946,118.68794694829406L156.67829665420666,121.31821226995353L156.91583141068767,122.81132261107928L157.28758296046493,126.9207921646843L157.3527601802311,120.9584467874255L158.530295284006,127.25456310170219L158.56602205632223,123.01933368772106L158.6693400195071,125.09107951152399L158.72486135486344,122.19094296437456L158.7596225387387,123.61289962029838L158.83011049493024,127.92460655559705L159.49443534232438,121.47709602645881L159.66244773105484,124.69166262041554L159.7614205462553,121.9510010293857L159.85411703658934,123.04292240035336L160.159242983939,124.63072954551272L160.19400416781426,120.4720566821035L160.39774332886105,122.88125742201206L160.4653345197296,130.2218046045611L160.5000957036049,124.06810812539635L160.6927305975804,124.06019912078722L160.7892894416783,127.1310418969351L160.8163259180258,125.55643187735673L160.9877178662997,125.8480703431454L161.0495155265224,124.9399543000859L161.12096907115492,120.65242727703384L161.22476982856023,121.04132415855265L162.23477533782517,126.66211877661942L162.39458022480733,120.13863377776346L162.45927465035302,121.696741121218L162.48727671514143,127.85736633827918L162.5167271625913,125.40348671337841L162.85854547069815,119.07690462154699L163.1916734828362,125.64630409739118L163.4649350116335,119.00924190167697L164.03608057447303,123.2330895832373L164.26395944654433,127.9811519870897L164.2996862188606,121.95129890888289L164.39672785717906,123.43426766896388L164.72357954445073,129.852361077961L164.90414458291397,113.94527069208478L165.03691299354873,125.89162154146968L165.19816626319232,127.08339333573107L165.26624024828138,126.17340338746729L166.04450453171117,122.45753903518874L166.09809469018552,117.0160086024913L166.1526504371009,122.07838858844289L166.29459193792493,122.3078652264028L166.3288703275797,125.52873896277458L166.43170549654405,122.81191229090024L166.63447906914988,121.63946162953584L166.69579393515204,126.13908645355599L166.7817313063993,120.205437814389L167.03568106637695,124.2336409778211L167.10423784568655,117.34640407847213L167.14093020644378,128.7382856792863L167.17569139031903,123.25041978684183L167.43495188672213,120.21955365505191L167.93222993382673,125.5988607082898L168.0022350957978,122.17680584660471L168.07175746354832,127.94160240466393L168.1412798312989,125.06046175463395L168.21128499326989,127.35283597949548L168.51110020419418,124.9539439979005L168.62166008068635,130.8119282051938L169.05955443867072,125.06813671106673L169.20342711637673,117.59568970299537L170.29743882000687,122.76927144879443L170.59001211762376,119.34269064250402L171.06990957279075,129.28332081061814L171.10225678556358,121.50138232424014L171.30309918128742,118.34291738211695L171.3359291882807,127.24896722257635L171.39917523116492,121.61481818031655L171.49669966370382,120.62375333584232L171.6502282258196,126.03462345743583L171.75451177744546,127.80326929387826L171.79168693242318,124.36825059489186L171.86217488861473,120.29410407839782L172.34641749176612,130.3675801433965L172.58588342512908,126.66302609325118L172.71865183576384,123.65387172930255L172.95715218068588,120.21453985678028L172.9899821876792,117.71968964266867L173.99226298941625,121.6513920073571L174.10427124856992,126.87027271383641L175.10124131388162,121.19425336470076L175.201179717523,123.96321806734399L175.42471344160987,125.27684385306421L175.512581989739,117.90095235629722L175.54348081985037,115.6261910166039L175.60334730319113,129.8081510492182L175.632797750641,115.47924675668L175.83557132324677,115.83079775613493L175.89205824704408,112.85000273615375L176.20201213659863,121.23457500214988L176.33381495879235,124.50662929947812L176.56941853839143,123.27485654416512L176.6230086968658,124.23766083123985L176.67515047267875,129.09993190608867L176.78667593761193,125.66985785477635L176.87213051463863,121.96604394399392L177.9806260448835,122.33323057746478L178.00959369811292,127.00553888163566L178.0390441455628,127.18340637691358L178.20657374007277,120.68347513544279L178.4499020271997,119.73781259759681L178.61212088528433,126.86673159532386L178.63819177319075,123.51070719544762L178.66522824953822,126.22974668644397L178.7767537144714,121.61963136586559L178.91338447887003,118.01795060799313L179.0963634884357,125.4468790932973L179.31796603564058,118.01911780928825L179.4275603236918,121.78769923360318L179.5337750521996,128.49195909242138L179.586399622233,128.49501159737093L179.74475612655368,129.8017990728992L179.823934378714,116.09226756396936L179.8765589487474,116.76113013842894L179.92966631300132,124.57737112068136L179.98663603101912,124.44792120204413L180.07305619648685,125.80233064239277L180.21934284529527,123.76605375586274L181.35342646922612,125.54470971122485L181.49440238160918,122.57136243857019L181.63344711711028,124.45570558359833L182.11672413182066,127.22122035533019L182.2210076834465,122.53880694515505L182.29922034716583,130.63745516836985L182.43150596358007,129.11147625639828L182.58841408523932,124.0474298170351L182.61496776736624,123.49132223122979L182.71973411321258,125.88022765070204L182.77187588902547,125.19683889137427L182.9292668049052,127.21312821562199L182.95726886969362,124.4416778909499L183.1262468468651,123.9706103422131L183.32226130038399,126.79402772090185L183.49123927755545,115.3537422215872L183.57572826614123,123.84153277294736L183.75049977395855,130.13084421248587L184.85658133310096,125.91184923110177L184.91499943378025,123.74422040455318L185.11970418326797,128.36199396383748L185.20853831983814,123.58540047936873L185.29785525062877,129.13687656270736L185.35434217442608,125.52509981759077L185.49676646947063,123.0787165734038L185.94045435810085,125.01719627746004L185.99307892813428,125.22148993956034L186.0196326102612,126.09043786832567L186.12391616188702,120.58236328366604L186.14998704979345,121.4218272213827L186.26151251472666,119.99557866902995L186.31799943852397,127.42324724564443L186.48746020991595,128.2167017192883L186.51691065736583,130.0840095006224L186.71582187620768,124.91511783711077L187.03639723861298,127.68785618664955L187.17640756255506,119.69977976893736L187.25944816847934,121.12365592386607L188.2766955910516,121.170447321619L188.30421486161953,122.5833262518452L188.46836489658608,122.13502672733006L188.49588416715403,125.78251709644938L188.89080983951473,130.07539303220742L189.00330089288892,124.45979534751132L189.05930502246574,123.26144132823796L189.11579194626307,124.85399934741889L189.1997981406283,125.50095334079792L189.28525271765506,127.15888299136915L189.53920247763273,119.52817686186063L189.7076976605837,128.6644206827426L189.76659855548348,124.53485186204381L190.07075891439214,123.34497525009363L190.09924377340104,127.43340478451938L190.2730496927774,123.24787261318215L190.47147811739882,131.04942631247098L191.9019973927104,129.2040765055014L191.98165843909123,128.11293478852383L192.05987110281063,126.69113467131537L192.11297846706452,126.89811608796049L192.66819182062792,124.14753252602543L192.74737007278824,128.32376584173215L192.85310200707556,130.60396652183596L192.87917289498202,122.16944396760266L192.90958893087284,119.67043103949712L193.07904970226483,123.42187223437662L193.16015913130713,124.59901297802844L193.21278370134053,128.21731419600957L193.44790448671912,123.63505060841871L193.55170524412446,127.9056851283519L193.63040070206435,130.22208044705465L193.76365190691953,121.9220580847707L193.9765641581556,121.26375047514789L194.08326168088388,123.21755121599597L194.1354034566968,129.782772020016L194.18851082095068,128.03026258949933L195.2472785464851,130.84847239626396L195.30038591073898,121.67132409718201L195.38584048776568,126.57698071287965L195.72910717853406,126.70670343442376L195.83821867236477,120.94542975735685L195.9700214945585,122.2691515303212L196.0250600356943,122.57875319364594L196.29301082806626,124.41432313038882L196.34515260387917,127.77114390198201L196.40260511611746,124.59004011807218L196.7502169548702,122.76887782231599L196.91243581295484,125.8344104404884L197.18859410707503,121.63422138205462L197.3286044310171,126.63210285789718L197.51254902902377,129.31847743035698L197.5926928696251,127.76102207825087L198.37578509525977,122.82331378063463L198.92761888927976,130.82250292734415L198.95417257140673,128.99340655038847L198.98217463619514,131.2434507308849L199.11590863527084,129.20055742399245L199.17384394172961,124.26195928736803L199.34040794779864,129.84159182226148L199.44565708786544,115.71930267617032L199.65567257377853,125.7150116751914L199.68174346168502,116.70221838868562L199.81982260874514,123.707803116228L199.84830746775404,125.83181159385474L199.95935013846673,116.1322001343201L200.25385461296557,121.77257273036054L200.41269391150672,123.1918682281232L200.57491276959135,121.81967264616412L200.65360822753124,130.80050239876573L200.9601825575423,128.56366674230048L201.80893479716363,119.79494922870379L201.9233570274197,127.08566542679384L201.98080953965805,123.52175609312411L202.12419942314352,120.73179240572216L202.23524209385621,124.40594754922029L202.37911477156217,121.17891257059533L202.5128487706379,126.43844394978467L202.6248570297916,128.41222921332835L202.65430747724147,128.62468872511445L202.71224278370025,127.19391270836303L202.9748828396468,123.25457338207565L203.0038504928762,123.6044024556616L203.31139041132826,126.1211658102338L203.36836012934606,121.37778664959875L203.39539660569346,123.72665007359885L203.5923766476534,132.32854822969747L203.6488635714507,124.30783272993571L203.67541725357762,129.54903920077095L203.70486770102752,127.66271120562376L203.7338353542569,126.97665368916807L203.8390844943237,126.48116458104153L203.89267465279812,126.06089992461295L205.2247039071298,129.2812120973408L205.31353804369996,127.79853893706698L205.65728752868876,124.89071907462132L205.71039489294267,122.09772795886012L205.8484740400028,128.25195028652502L205.87551051635023,125.58894709624802L205.92765229216317,129.77607960998597L206.15166881047048,128.88808563092053L206.29747266505842,129.24819382684967L206.5041085914281,128.01243237388167L207.27030301934562,124.4470230041725L207.45473041157274,120.5079557208953L207.75358003405606,122.45871687503734L208.60474624477976,123.67370199297282L208.85097129722965,126.57139547230727L208.87800777357708,119.96304293292837L209.14788974283093,127.43815565854095L209.1734778365169,123.05983162119912L209.2014799013053,127.658073556207L209.2579668251026,126.65117322489094L209.31300536623849,128.36262771766567L209.3646643478309,127.01417054798418L209.39170082417832,128.406876501139L209.42115127162822,125.32086618732792L209.48053496074849,130.58238317653297L210.0000215419956,132.6161451850121L210.14727377924504,120.15952333740077L210.29452601649444,129.04292445741672L210.38336015306461,127.2977252329281L210.46784914165036,126.79528838948818L210.60882505403342,119.5917194219506L210.92408968001334,125.34688960891177L211.18721253018035,126.34088233528061L211.26735637078167,125.36923209099459L211.29391005290861,121.19481872782809L212.27977585114905,123.47439933224386L212.4386151496902,125.79336006212654L212.84174832379932,126.40068316413542L212.86926759436724,125.8168659460211L213.03438321777477,119.70096368795939L213.1391495636211,122.75998703120081L213.22170737532488,125.49833625664401L213.38634020451195,112.62825120780725L213.4384819803249,123.71214212625088L213.67987909056984,126.48145486157196L213.78464543641616,127.60633599098666L213.9449331176188,122.30830900606189L214.08639182422237,125.8720344447359L214.2461967112045,126.5367350650982L214.35385982237375,129.07735309613946L214.48711102722896,124.79569703481015L215.4005576923959,127.80796393554576L215.51160036310858,129.0184990985436L215.75106629647155,127.01562271053298L215.83217572551385,128.88318733694373L216.15613064746262,124.13547296576917L216.34200642235123,123.43581025921722L216.42408143983454,129.27729331018003L216.4796027751909,127.2771419116514L216.50615645731781,120.90430110963729L216.61430236270755,121.71687382376552L216.64085604483455,128.98338351322528L216.66644413852046,130.27696550430912L216.9913646489102,130.17160051083394L217.14923835901044,122.58848747007207L217.17579204113736,131.97802803008423L217.23131337649366,127.78487827451332L217.36553016978988,128.32229772135315L217.39304944035783,126.88963564105062L217.47753842894355,131.3753019230199L217.63879169858717,128.97202457770476L217.74983436929986,127.19561183733171L217.94826279392123,128.14359813921445L219.0760700929857,122.90447530506621L219.2421513048342,129.0390915385804L219.35029721022397,126.3011199817854L219.43237222770728,131.53145385097312L219.6457672731638,120.41400817498473L219.70225419696112,115.27326764375118L220.0580735374622,122.58298581813412L220.1734613561593,122.82442930895576L220.20146342094768,121.1105127509491L220.72095000219485,121.76532179627324L220.7470208901013,122.10176149041905L220.8290959075846,130.78771637728676L221.0217308015601,114.21335616038493L221.07918331379838,127.13745618478154L221.3085105685311,126.98204287639791L221.3649974923284,126.47652313214138L221.39299955711678,126.1030969870597L222.48218331854207,121.46977518187728L222.53432509435498,127.81232650236562L222.56087877648196,127.86130260306352L222.7781361757024,125.5061077199547L222.80517265204986,128.64450911012793L222.8843509042102,126.5513775141579L222.93842385690505,126.87217093573432L223.17644140760657,128.64721586208967L223.25561965976692,126.96059783229005L223.30969261246182,128.0530883658684L223.36279997671573,129.27242617196697L223.70510107904303,123.71247952037525L224.185964122651,119.8560996340561L224.32887121191607,128.3206198694914L224.61516818466657,123.4222126680877L224.79187086936588,128.17097645657253L224.90725868806297,131.3701285464462L225.73235401088024,127.7921839211613L225.9056771360361,127.18446111350056L225.96264685405396,124.47437168556017L226.07127555366418,129.00991682547908L226.2581169169938,127.85995378646271L226.28467059912072,130.63450220988494L226.31315545812961,129.47533074294262L226.6009008135416,126.66531490204083L227.0556929692431,127.05047233201452L227.18846137987785,130.4733653597338L227.32364376161502,129.79692509561607L227.46172290867514,128.5045992137385L227.48972497346355,128.20956249001247L227.54379792615842,124.74188115217953L227.62780412052368,126.14791797273043L227.89816888399804,120.10058575117048L228.00583199516726,130.71291214845087L228.03142008885328,128.29754712670245L228.1912249758354,121.61328470882336L228.30033646966612,122.9430795760264L228.3273729460136,119.39770868167687L229.2890990332295,119.84315099468832L229.34944831079073,126.01118520434548L229.37648478713817,124.55354076090595L229.40303846926514,127.32992205511192L229.45566303929849,122.1539648723021L229.5377380567818,123.78268637431825L229.56380894468828,128.73636162090136L229.5903626268152,124.87149064911884L229.61691630894214,129.9069832109654L229.72313103744995,129.7858951953565L229.77623840170384,130.4857212796939L229.85783062496662,126.50138999098357L229.88390151287308,125.27202914772182L229.91045519500005,127.08653930797183L229.93652608290648,125.99983614748177L229.9896334471604,126.68153185701428L230.07122567042316,128.42337917726283L230.0992277352116,131.11526983969742L230.2628949759577,125.44584411402388L230.43139015890867,120.97531041447067L230.485945905824,127.92655721036567L230.56512415798437,129.83604761610962L230.892941433697,130.79802817518703L231.10633647915355,129.5294156289967L231.13240736706,126.6212089791427L231.16040943184845,128.1887489200428L231.32166270149207,131.52022637757764L231.51140083014462,119.41391271840682L231.64899718298426,126.95633253224479L231.76003985369692,127.7700025371739" style="fill: none;" fill="none"></path></g></g></g></g></g></g><g transform="translate(70, 178)" clip-path="url(#clip_1)"><clipPath id="clip_1"><rect width="260" height="22"></rect></clipPath><g><g><line x1="10.511863606662216" y1="0" x2="10.511863606662216" y2="5" style="visibility: inherit;" fill="rgb(0, 0, 0)" stroke="rgb(204, 204, 204)" stroke-width="1px"></line><line x1="45.27304748193662" y1="0" x2="45.27304748193662" y2="5" style="visibility: inherit;" fill="rgb(0, 0, 0)" stroke="rgb(204, 204, 204)" stroke-width="1px"></line><line x1="80.03423135721101" y1="0" x2="80.03423135721101" y2="5" style="visibility: inherit;" fill="rgb(0, 0, 0)" stroke="rgb(204, 204, 204)" stroke-width="1px"></line><line x1="114.79541523248541" y1="0" x2="114.79541523248541" y2="5" style="visibility: inherit;" fill="rgb(0, 0, 0)" stroke="rgb(204, 204, 204)" stroke-width="1px"></line><line x1="149.55659910775984" y1="0" x2="149.55659910775984" y2="5" style="visibility: inherit;" fill="rgb(0, 0, 0)" stroke="rgb(204, 204, 204)" stroke-width="1px"></line><line x1="184.31778298303422" y1="0" x2="184.31778298303422" y2="5" style="visibility: inherit;" fill="rgb(0, 0, 0)" stroke="rgb(204, 204, 204)" stroke-width="1px"></line><line x1="219.07896685830863" y1="0" x2="219.07896685830863" y2="5" style="visibility: inherit;" fill="rgb(0, 0, 0)" stroke="rgb(204, 204, 204)" stroke-width="1px"></line><line x1="253.84015073358304" y1="0" x2="253.84015073358304" y2="5" style="visibility: inherit;" fill="rgb(0, 0, 0)" stroke="rgb(204, 204, 204)" stroke-width="1px"></line></g><g transform="translate(0, 8)"><text x="10.511863606662216" y="0" dx="0em" dy="0.95em" style="text-anchor: middle; visibility: hidden; font-family: &quot;Helvetica Neue&quot;, sans-serif; font-size: 12px; font-weight: 200;" fill="rgb(50, 49, 63)" stroke="none" stroke-width="1px">-0.02</text><text x="45.27304748193662" y="0" dx="0em" dy="0.95em" style="text-anchor: middle; visibility: inherit; font-family: &quot;Helvetica Neue&quot;, sans-serif; font-size: 12px; font-weight: 200;" fill="rgb(50, 49, 63)" stroke="none" stroke-width="1px">0</text><text x="80.03423135721101" y="0" dx="0em" dy="0.95em" style="text-anchor: middle; visibility: inherit; font-family: &quot;Helvetica Neue&quot;, sans-serif; font-size: 12px; font-weight: 200;" fill="rgb(50, 49, 63)" stroke="none" stroke-width="1px">0.02</text><text x="114.79541523248541" y="0" dx="0em" dy="0.95em" style="text-anchor: middle; visibility: inherit; font-family: &quot;Helvetica Neue&quot;, sans-serif; font-size: 12px; font-weight: 200;" fill="rgb(50, 49, 63)" stroke="none" stroke-width="1px">0.04</text><text x="149.55659910775984" y="0" dx="0em" dy="0.95em" style="text-anchor: middle; visibility: inherit; font-family: &quot;Helvetica Neue&quot;, sans-serif; font-size: 12px; font-weight: 200;" fill="rgb(50, 49, 63)" stroke="none" stroke-width="1px">0.06</text><text x="184.31778298303422" y="0" dx="0em" dy="0.95em" style="text-anchor: middle; visibility: inherit; font-family: &quot;Helvetica Neue&quot;, sans-serif; font-size: 12px; font-weight: 200;" fill="rgb(50, 49, 63)" stroke="none" stroke-width="1px">0.08</text><text x="219.07896685830863" y="0" dx="0em" dy="0.95em" style="text-anchor: middle; visibility: inherit; font-family: &quot;Helvetica Neue&quot;, sans-serif; font-size: 12px; font-weight: 200;" fill="rgb(50, 49, 63)" stroke="none" stroke-width="1px">0.1</text><text x="253.84015073358304" y="0" dx="0em" dy="0.95em" style="text-anchor: middle; visibility: hidden; font-family: &quot;Helvetica Neue&quot;, sans-serif; font-size: 12px; font-weight: 200;" fill="rgb(50, 49, 63)" stroke="none" stroke-width="1px">0.12</text></g><line x1="0" y1="0" x2="260" y2="0" fill="rgb(0, 0, 0)" stroke="rgb(204, 204, 204)" stroke-width="1px"></line></g></g></g></g></svg>