<svg viewBox="0 0 330 200" xmlns="http://www.w3.org/2000/svg"><g><g><g><g><g><line x1="58" y1="178" x2="53" y2="178" style="visibility: inherit;" fill="rgb(0, 0, 0)" stroke="rgb(204, 204, 204)" stroke-width="1px"></line><line x1="58" y1="155.75000000001236" x2="53" y2="155.75000000001236" style="visibility: inherit;" fill="rgb(0, 0, 0)" stroke="rgb(204, 204, 204)" stroke-width="1px"></line><line x1="58" y1="133.50000000000495" x2="53" y2="133.50000000000495" style="visibility: inherit;" fill="rgb(0, 0, 0)" stroke="rgb(204, 204, 204)" stroke-width="1px"></line><line x1="58" y1="111.2500000000173" x2="53" y2="111.2500000000173" style="visibility: inherit;" fill="rgb(0, 0, 0)" stroke="rgb(204, 204, 204)" stroke-width="1px"></line><line x1="58" y1="89.00000000000988" x2="53" y2="89.00000000000988" style="visibility: inherit;" fill="rgb(0, 0, 0)" stroke="rgb(204, 204, 204)" stroke-width="1px"></line><line x1="58" y1="66.75000000000247" x2="53" y2="66.75000000000247" style="visibility: inherit;" fill="rgb(0, 0, 0)" stroke="rgb(204, 204, 204)" stroke-width="1px"></line><line x1="58" y1="44.50000000001481" x2="53" y2="44.50000000001481" style="visibility: inherit;" fill="rgb(0, 0, 0)" stroke="rgb(204, 204, 204)" stroke-width="1px"></line><line x1="58" y1="22.250000000007418" x2="53" y2="22.250000000007418" style="visibility: inherit;" fill="rgb(0, 0, 0)" stroke="rgb(204, 204, 204)" stroke-width="1px"></line><line x1="58" y1="0" x2="53" y2="0" style="visibility: inherit;" fill="rgb(0, 0, 0)" stroke="rgb(204, 204, 204)" stroke-width="1px"></line></g><g transform="translate(48, 0)"><text x="0" y="178" dx="0em" dy="0.3em" style="text-anchor: end; visibility: hidden; font-family: &quot;Helvetica Neue&quot;, sans-serif; font-size: 12px; font-weight: 200;" fill="rgb(50, 49, 63)" stroke="none" stroke-width="1px">2.08</text><text x="0" y="155.75000000001236" dx="0em" dy="0.3em" style="text-anchor: end; visibility: inherit; font-family: &quot;Helvetica Neue&quot;, sans-serif; font-size: 12px; font-weight: 200;" fill="rgb(50, 49, 63)" stroke="none" stroke-width="1px">2.08</text><text x="0" y="133.50000000000495" dx="0em" dy="0.3em" style="text-anchor: end; visibility: hidden; font-family: &quot;Helvetica Neue&quot;, sans-serif; font-size: 12px; font-weight: 200;" fill="rgb(50, 49, 63)" stroke="none" stroke-width="1px">2.08</text><text x="0" y="111.2500000000173" dx="0em" dy="0.3em" style="text-anchor: end; visibility: inherit; font-family: &quot;Helvetica Neue&quot;, sans-serif; font-size: 12px; font-weight: 200;" fill="rgb(50, 49, 63)" stroke="none" stroke-width="1px">2.08</text><text x="0" y="89.00000000000988" dx="0em" dy="0.3em" style="text-anchor: end; visibility: hidden; font-family: &quot;Helvetica Neue&quot;, sans-serif; font-size: 12px; font-weight: 200;" fill="rgb(50, 49, 63)" stroke="none" stroke-width="1px">2.08</text><text x="0" y="66.75000000000247" dx="0em" dy="0.3em" style="text-anchor: end; visibility: inherit; font-family: &quot;Helvetica Neue&quot;, sans-serif; font-size: 12px; font-weight: 200;" fill="rgb(50, 49, 63)" stroke="none" stroke-width="1px">2.08</text><text x="0" y="44.50000000001481" dx="0em" dy="0.3em" style="text-anchor: end; visibility: hidden; font-family: &quot;Helvetica Neue&quot;, sans-serif; font-size: 12px; font-weight: 200;" fill="rgb(50, 49, 63)" stroke="none" stroke-width="1px">2.08</text><text x="0" y="22.250000000007418" dx="0em" dy="0.3em" style="text-anchor: end; visibility: inherit; font-family: &quot;Helvetica Neue&quot;, sans-serif; font-size: 12px; font-weight: 200;" fill="rgb(50, 49, 63)" stroke="none" stroke-width="1px">2.08</text><text x="0" y="0" dx="0em" dy="0.3em" style="text-anchor: end; visibility: hidden; font-family: &quot;Helvetica Neue&quot;, sans-serif; font-size: 12px; font-weight: 200;" fill="rgb(50, 49, 63)" stroke="none" stroke-width="1px">2.08</text></g><line x1="58" y1="0" x2="58" y2="178" fill="rgb(0, 0, 0)" stroke="rgb(204, 204, 204)" stroke-width="1px"></line></g></g><g transform="translate(58, 0)" clip-path="url(#clip_0)"><clipPath id="clip_0"><rect width="272" height="178"></rect></clipPath><g><g><g><line x1="0" y1="0" x2="0" y2="178" fill="rgb(0, 0, 0)" stroke="rgb(60, 60, 60)" stroke-width="1px" opacity="0.25"></line><line x1="24.727272727272727" y1="0" x2="24.727272727272727" y2="178" fill="rgb(0, 0, 0)" stroke="rgb(60, 60, 60)" stroke-width="1px" opacity="0.25"></line><line x1="49.45454545454545" y1="0" x2="49.45454545454545" y2="178" fill="rgb(0, 0, 0)" stroke="rgb(60, 60, 60)" stroke-width="1px" opacity="0.25"></line><line x1="74.18181818181817" y1="0" x2="74.18181818181817" y2="178" fill="rgb(0, 0, 0)" stroke="rgb(60, 60, 60)" stroke-width="1px" opacity="0.25"></line><line x1="98.9090909090909" y1="0" x2="98.9090909090909" y2="178" fill="rgb(0, 0, 0)" stroke="rgb(60, 60, 60)" stroke-width="1px" opacity="0.25"></line><line x1="123.63636363636363" y1="0" x2="123.63636363636363" y2="178" fill="rgb(0, 0, 0)" stroke="rgb(60, 60, 60)" stroke-width="1px" opacity="0.25"></line><line x1="148.36363636363635" y1="0" x2="148.36363636363635" y2="178" fill="rgb(0, 0, 0)" stroke="rgb(60, 60, 60)" stroke-width="1px" opacity="0.25"></line><line x1="173.0909090909091" y1="0" x2="173.0909090909091" y2="178" fill="rgb(0, 0, 0)" stroke="rgb(60, 60, 60)" stroke-width="1px" opacity="0.25"></line><line x1="197.8181818181818" y1="0" x2="197.8181818181818" y2="178" fill="rgb(0, 0, 0)" stroke="rgb(60, 60, 60)" stroke-width="1px" opacity="0.25"></line><line x1="222.54545454545456" y1="0" x2="222.54545454545456" y2="178" fill="rgb(0, 0, 0)" stroke="rgb(60, 60, 60)" stroke-width="1px" opacity="0.25"></line><line x1="247.27272727272725" y1="0" x2="247.27272727272725" y2="178" fill="rgb(0, 0, 0)" stroke="rgb(60, 60, 60)" stroke-width="1px" opacity="0.25"></line><line x1="272" y1="0" x2="272" y2="178" fill="rgb(0, 0, 0)" stroke="rgb(60, 60, 60)" stroke-width="1px" opacity="0.25"></line></g><g><line x1="0" y1="178" x2="272" y2="178" fill="rgb(0, 0, 0)" stroke="rgb(60, 60, 60)" stroke-width="1px" opacity="0.25"></line><line x1="0" y1="155.75000000001236" x2="272" y2="155.75000000001236" fill="rgb(0, 0, 0)" stroke="rgb(60, 60, 60)" stroke-width="1px" opacity="0.25"></line><line x1="0" y1="133.50000000000495" x2="272" y2="133.50000000000495" fill="rgb(0, 0, 0)" stroke="rgb(60, 60, 60)" stroke-width="1px" opacity="0.25"></line><line x1="0" y1="111.2500000000173" x2="272" y2="111.2500000000173" fill="rgb(0, 0, 0)" stroke="rgb(60, 60, 60)" stroke-width="1px" opacity="0.25"></line><line x1="0" y1="89.00000000000988" x2="272" y2="89.00000000000988" fill="rgb(0, 0, 0)" stroke="rgb(60, 60, 60)" stroke-width="1px" opacity="0.25"></line><line x1="0" y1="66.75000000000247" x2="272" y2="66.75000000000247" fill="rgb(0, 0, 0)" stroke="rgb(60, 60, 60)" stroke-width="1px" opacity="0.25"></line><line x1="0" y1="44.50000000001481" x2="272" y2="44.50000000001481" fill="rgb(0, 0, 0)" stroke="rgb(60, 60, 60)" stroke-width="1px" opacity="0.25"></line><line x1="0" y1="22.250000000007418" x2="272" y2="22.250000000007418" fill="rgb(0, 0, 0)" stroke="rgb(60, 60, 60)" stroke-width="1px" opacity="0.25"></line><line x1="0" y1="0" x2="272" y2="0" fill="rgb(0, 0, 0)" stroke="rgb(60, 60, 60)" stroke-width="1px" opacity="0.25"></line></g></g></g><g><g><line x1="0" y1="92693.49999999991" x2="272" y2="92693.49999999991" fill="rgb(0, 0, 0)" stroke="rgb(153, 153, 153)" stroke-width="1.5px"></line></g></g><g><g><line x1="24.727272727272727" y1="0" x2="24.727272727272727" y2="178" fill="rgb(0, 0, 0)" stroke="rgb(153, 153, 153)" stroke-width="1.5px"></line></g></g><g><g><g><g><g><path stroke="rgb(255, 112, 67)" stroke-width="2px" d="M29.524363636363635,-4.3347889374381054L29.524363636363635,12.039566607469936L29.524363636363635,17.033237296261575L29.524363636363635,21.51022475672579L34.32145454545454,19.56883688512653L34.32145454545454,23.097268495150473L34.32145454545454,29.806424643447485L34.32145454545454,30.672217072399633L34.32145454545454,27.425152618745216L34.32145454545454,16.16393191340768L34.32145454545454,11.158790619628178L34.32145454545454,18.959161989757547L34.32145454545454,21.548795639341392L34.32145454545454,22.489272132568885L34.32145454545454,33.799094087949754L34.32145454545454,34.45594137199734L34.32145454545454,43.25099644942517L34.32145454545454,39.92717731203706L34.32145454545454,47.45164873830717L39.118545454545455,42.761475685138834L39.118545454545455,42.12868414421118L39.118545454545455,45.33801357440345L39.118545454545455,50.99926782847737L39.118545454545455,59.92704362764172L39.118545454545455,67.8776885139149L39.118545454545455,67.16362745043541L39.118545454545455,67.84856763139041L39.118545454545455,70.37840588418226L39.118545454545455,71.99910490136324L39.118545454545455,71.93550370904583L39.118545454545455,78.68116600709688L39.118545454545455,69.34301214634559L39.118545454545455,67.68021409174001L39.118545454545455,70.6680999548343L39.118545454545455,76.02273995353376L39.118545454545455,75.04831490891777L43.91563636363637,83.31242668399456L43.91563636363637,88.38319565597256L43.91563636363637,84.62475569847197L43.91563636363637,86.65545668541333L43.91563636363637,90.70325661732839L43.91563636363637,89.90983718634196L43.91563636363637,88.82525345122009L43.91563636363637,86.90086756196239L43.91563636363637,83.35826119664273L43.91563636363637,81.9034278349883L43.91563636363637,54.43617272871455L43.91563636363637,17.09750699335254L43.91563636363637,-2.1807730460470225L43.91563636363637,5.858732670656735L48.71272727272727,29.2551308177824L48.71272727272727,43.1109180095541L48.71272727272727,55.39231357361781L48.71272727272727,67.75949655678154L48.71272727272727,78.66752321104646L48.71272727272727,84.45932169894924L48.71272727272727,91.69424097323679L48.71272727272727,95.08864456064039L48.71272727272727,97.2800518586109L48.71272727272727,87.12493256254086L48.71272727272727,85.63397581550906L48.71272727272727,92.68276851398008L48.71272727272727,97.21415762983678L48.71272727272727,99.94381641867025L48.71272727272727,98.80036448913346L48.71272727272727,103.24558639543304L48.71272727272727,107.70570412044046L48.71272727272727,109.29192001730094L53.50981818181818,113.68648878245837L53.50981818181818,117.86206257913013L53.50981818181818,111.35254411946617L53.50981818181818,109.94741958780952L53.50981818181818,113.27087550552774L53.50981818181818,116.40070766812516L53.50981818181818,118.26587386637522L53.50981818181818,115.63934971233593L53.50981818181818,115.74917660824137L53.50981818181818,114.28166684038601L53.50981818181818,116.1611096107228L53.50981818181818,117.41003278446038L53.50981818181818,117.34184287031536L53.50981818181818,117.47402037016352L53.50981818181818,118.18451109596084L53.50981818181818,121.6005275016917L53.50981818181818,120.26773164794957L53.50981818181818,120.44918707312203L53.50981818181818,99.53212034922356L53.50981818181818,104.19171838940535L53.50981818181818,107.97456688073116L53.50981818181818,112.90209079099513L53.50981818181818,117.42763939152178L53.50981818181818,117.49597522935639L53.50981818181818,121.56320474404546L58.306909090909095,130.00933969705218L58.306909090909095,125.14234057020046L58.306909090909095,122.88686764200219L58.306909090909095,123.6181900974901L58.306909090909095,112.30773452733057L58.306909090909095,98.44259951761805L58.306909090909095,97.46146582166872L58.306909090909095,103.99507941088851L58.306909090909095,101.19260474269377L58.306909090909095,105.104208534777L58.306909090909095,107.61813321575477L58.306909090909095,97.27330162418015L58.306909090909095,87.90040094290045L58.306909090909095,86.21191201714332L58.306909090909095,93.08145969795271L58.306909090909095,93.75396151292561L58.306909090909095,102.31496272841247L58.306909090909095,104.18360489495085L58.306909090909095,98.26238951593393L58.306909090909095,102.81945026326147L58.306909090909095,106.9276785883161L58.306909090909095,110.46040458940055L58.306909090909095,116.55647236079604L58.306909090909095,116.06061158156268L58.306909090909095,116.32808559398711L58.306909090909095,121.60922254929984L58.306909090909095,125.37155238634557L58.306909090909095,122.06232255178617L63.104000000000006,122.71241068424888L63.104000000000006,123.90513152743432L63.104000000000006,123.98931880685294L63.104000000000006,118.66061245514403L63.104000000000006,121.28117322218534L63.104000000000006,123.99298018846372L63.104000000000006,125.95023322607813L63.104000000000006,129.60825405522934L63.104000000000006,130.61220634783464L63.104000000000006,130.75332747146572L63.104000000000006,123.04056366479233L63.104000000000006,121.46644293622211L63.104000000000006,121.8155657717167L63.104000000000006,124.6539060170332L63.104000000000006,126.92882206398647L63.104000000000006,123.3633083530793L63.104000000000006,118.8855025631984L63.104000000000006,123.66788767678105L63.104000000000006,126.6492694767457L63.104000000000006,126.01275321264748L63.104000000000006,127.82068268791747L67.90109090909091,126.54671796430439L67.90109090909091,129.01599146739238L67.90109090909091,125.4828920508647L67.90109090909091,112.74277726374028L67.90109090909091,115.52413704841271L67.90109090909091,115.62305567143872L67.90109090909091,121.55446069619836L67.90109090909091,125.40413221662828L67.90109090909091,125.33917605834633L67.90109090909091,126.21237058605462L67.90109090909091,126.36346946689613L67.90109090909091,128.15642575052442L67.90109090909091,129.19611266157048L67.90109090909091,130.6432205430724L67.90109090909091,132.9806973451041L67.90109090909091,134.47721992442473L67.90109090909091,136.66325520283917L67.90109090909091,138.47361926084076L67.90109090909091,136.41648982243947L67.90109090909091,136.71022604527406L67.90109090909091,136.94097117283764L67.90109090909091,134.41374667246362L67.90109090909091,136.10321451630935L72.69818181818182,136.66755448506626L72.69818181818182,134.34142617167677L72.69818181818182,136.14508860732198L72.69818181818182,135.87986864586898L72.69818181818182,135.330306545416L72.69818181818182,136.3272003297261L72.69818181818182,137.34963944470258L72.69818181818182,137.61801206998092L72.69818181818182,138.04278078025789L72.69818181818182,136.87602874712877L72.69818181818182,136.263037849088L72.69818181818182,136.6999265103511L72.69818181818182,133.14509478798652L72.69818181818182,135.08404915803152L72.69818181818182,134.8188445510362L72.69818181818182,136.86440944211196L72.69818181818182,136.78846759428353L72.69818181818182,133.39416938487668L72.69818181818182,124.66731628945816L72.69818181818182,122.69145572322249L72.69818181818182,122.55155458559075L72.69818181818182,118.22761184779552L72.69818181818182,121.70290971444409L72.69818181818182,125.79237595118731L72.69818181818182,126.8677561991839L72.69818181818182,126.45702711052886L72.69818181818182,130.19405281787633L77.49527272727272,131.27394056515473L77.49527272727272,137.17954540410258L77.49527272727272,131.9946378720508L77.49527272727272,133.04542896371495L77.49527272727272,132.79114835437633L77.49527272727272,130.28967870852313L77.49527272727272,132.64269381825267L77.49527272727272,135.29324288418962L77.49527272727272,132.9109565357548L77.49527272727272,135.03254177890634L77.49527272727272,135.54153177517748L77.49527272727272,133.53397271933397L77.49527272727272,131.73270834209083L77.49527272727272,130.76276426888123L77.49527272727272,134.00997948150496L77.49527272727272,134.6131418188442L77.49527272727272,133.12228110949198L77.49527272727272,132.02507918294037L77.49527272727272,119.94991754862838L77.49527272727272,115.73889255026083L77.49527272727272,116.11739272673373L82.29236363636365,119.00681987443883L82.29236363636365,124.56278545888676L82.29236363636365,129.0118017771452L82.29236363636365,132.52645439932974L82.29236363636365,134.01621700150923L82.29236363636365,135.8912870472618L82.29236363636365,138.08733459997325L82.29236363636365,139.4303971980958L82.29236363636365,138.54843210021804L82.29236363636365,140.614094534241L82.29236363636365,142.40879348018552L82.29236363636365,142.83876001914328L82.29236363636365,137.27529306476657L82.29236363636365,136.9877370458011L82.29236363636365,121.11910237162394L82.29236363636365,117.71186190675331L82.29236363636365,122.4701002584444L87.08945454545454,126.15574119461115L87.08945454545454,121.48654192266261L87.08945454545454,123.68196386954867L87.08945454545454,128.66362796515529L87.08945454545454,130.05596645902807L87.08945454545454,130.92369391307366L87.08945454545454,132.0931871556189L87.08945454545454,128.0422571677301L87.08945454545454,132.0754732909405L87.08945454545454,134.55725039026134L87.08945454545454,136.46840468231602L87.08945454545454,138.9946330323416L87.08945454545454,139.92070222971185L87.08945454545454,142.71558133027594L87.08945454545454,141.69645111769313L87.08945454545454,142.00152353453697L87.08945454545454,142.6423815092187L87.08945454545454,135.18723818468337L87.08945454545454,137.99516293849933L87.08945454545454,138.3445014750647L91.88654545454546,139.55337560937863L91.88654545454546,139.57197428359L91.88654545454546,131.2752716113298L91.88654545454546,129.15761047754992L91.88654545454546,127.83694043283467L91.88654545454546,127.82439167121262L91.88654545454546,129.2890907829477L91.88654545454546,129.44656975312586L91.88654545454546,131.72842908893634L91.88654545454546,131.15189705685626L91.88654545454546,132.73832939779805L91.88654545454546,133.88015974931523L91.88654545454546,133.77509986061497L91.88654545454546,136.5386757747201L91.88654545454546,139.08480071193685L91.88654545454546,136.9075569086545L96.68363636363637,138.4844531197066L96.68363636363637,135.64641030460479L96.68363636363637,137.11056467556625L96.68363636363637,140.07279317112264L96.68363636363637,141.37736943985777L96.68363636363637,143.68994181652837L96.68363636363637,145.05195688645975L96.68363636363637,144.61166076215224L96.68363636363637,147.07521880748916L96.68363636363637,145.82922640707693L96.68363636363637,129.31267044756655L96.68363636363637,133.86842859437508L96.68363636363637,127.15803938429471L96.68363636363637,122.46025642810355L96.68363636363637,126.94358813808992L96.68363636363637,129.46292505300715L101.48072727272726,130.6232586672932L101.48072727272726,133.5036968843898L101.48072727272726,136.42128388538208L101.48072727272726,134.61972097121443L101.48072727272726,132.28726199119865L101.48072727272726,132.59202444433203L101.48072727272726,130.73725023172886L101.48072727272726,133.7455468360805L101.48072727272726,133.38731538328685L101.48072727272726,123.06402329662924L101.48072727272726,118.04556964286317L101.48072727272726,114.72892016131365L101.48072727272726,116.8393229958128L101.48072727272726,122.92639652227011L101.48072727272726,123.25513508586761L101.48072727272726,120.7426475736927L101.48072727272726,125.60769571092146L101.48072727272726,130.3357728101978L101.48072727272726,133.02332100696077L101.48072727272726,136.14095752578115L101.48072727272726,137.35554575237308L101.48072727272726,138.9128677313517L106.27781818181818,136.3626008562374L106.27781818181818,137.58590855060004L106.27781818181818,140.57401801633182L106.27781818181818,140.79377595176732L106.27781818181818,139.72825596800763L106.27781818181818,141.40729692834628L106.27781818181818,141.6938108703035L106.27781818181818,140.28065179988212L106.27781818181818,142.65342330299757L106.27781818181818,143.07053660839517L106.27781818181818,143.58883475851556L106.27781818181818,143.67881869945717L106.27781818181818,143.10786246993544L106.27781818181818,143.4489414194314L106.27781818181818,144.97161861252857L106.27781818181818,145.03755489979406L106.27781818181818,146.62657788589738L106.27781818181818,141.33255922949195L106.27781818181818,142.18359937791888L106.27781818181818,144.04422199348664L106.27781818181818,144.46539163286894L106.27781818181818,145.79326648471044L106.27781818181818,147.11656318471032L106.27781818181818,147.61925610195723L106.27781818181818,146.76523062620026L106.27781818181818,149.33067796256282L111.07490909090909,134.63043516180784L111.07490909090909,124.29617475908262L111.07490909090909,125.34614066633753L111.07490909090909,126.73569205883639L111.07490909090909,123.65865252402386L111.07490909090909,129.24336183856454L111.07490909090909,130.35212145480102L111.07490909090909,134.30955513503383L111.07490909090909,132.8603144342616L111.07490909090909,136.5643747850168L111.07490909090909,139.48306263319876L111.07490909090909,141.16021605199123L111.07490909090909,142.79052063517372L111.07490909090909,143.11867863887394L111.07490909090909,144.07295270723938L111.07490909090909,144.0215526260061L111.07490909090909,141.003371289352L115.872,138.1665630745622L115.872,135.04410251043262L115.872,135.57836539000056L115.872,128.38594174743477L115.872,124.1470575361291L115.872,119.2408954643297L115.872,123.16496769133877L115.872,125.10533764794174L115.872,130.1036403881225L115.872,131.98460107698307L115.872,128.87418198310905L115.872,131.6800504662575L115.872,131.490896871718L115.872,132.5087548661504L115.872,134.00205737496972L115.872,136.23007702942903L115.872,138.26712379548877L115.872,139.90100505903666L115.872,141.02350256408457L120.66909090909091,141.70506418199867L120.66909090909091,142.80201406837887L120.66909090909091,143.39099212934246L120.66909090909091,144.3311200813403L120.66909090909091,145.7388973773218L120.66909090909091,147.14521336084738L120.66909090909091,147.62095698932686L120.66909090909091,148.68268993076148L120.66909090909091,149.60634367129143L120.66909090909091,148.78777345388835L120.66909090909091,148.74827563261914L120.66909090909091,145.04574651317702L120.66909090909091,135.45907226241127L120.66909090909091,138.07046120195153L120.66909090909091,139.35748456978212L120.66909090909091,135.9925958558966L120.66909090909091,133.88209243178528L120.66909090909091,137.60884319592603L120.66909090909091,140.7472662834349L120.66909090909091,140.1430183337643L120.66909090909091,140.18585746182077L120.66909090909091,141.33201764974422L120.66909090909091,141.6866355812759L120.66909090909091,143.36867873479773L125.46618181818182,129.54466890184523L125.46618181818182,132.8169448764177L125.46618181818182,135.52176459558984L125.46618181818182,136.52280527694526L125.46618181818182,138.77079091344444L125.46618181818182,140.80683506230804L125.46618181818182,137.91596937736273L125.46618181818182,140.08053932634678L125.46618181818182,141.38568828937923L125.46618181818182,143.3825519437569L125.46618181818182,144.56202357251632L125.46618181818182,142.38637060513813L125.46618181818182,144.62233634465468L125.46618181818182,142.66166683573908L125.46618181818182,144.08504597774817L125.46618181818182,145.35530866331158L125.46618181818182,146.18054552989798L125.46618181818182,147.28421742213814L125.46618181818182,148.57244267854895L125.46618181818182,150.07196838692036L125.46618181818182,151.053030642163L125.46618181818182,150.87452633561958L125.46618181818182,153.9358301749426L125.46618181818182,151.85668454095668L125.46618181818182,150.49468143403254L130.26327272727272,146.88423162794447L130.26327272727272,146.6864731319589L130.26327272727272,144.37663402620257L130.26327272727272,142.70700447134175L130.26327272727272,144.50114072460093L130.26327272727272,146.21866579928687L130.26327272727272,146.42987076504542L130.26327272727272,147.63857816111812L130.26327272727272,148.9917344923971L130.26327272727272,148.7459342858138L130.26327272727272,148.64690268682745L130.26327272727272,149.71776094950448L130.26327272727272,149.37768166000373L130.26327272727272,150.37665151544752L130.26327272727272,150.53712786825133L130.26327272727272,150.45756026579014L130.26327272727272,150.09047085820256L130.26327272727272,149.6376549305743L130.26327272727272,150.4212418796299L130.26327272727272,150.80409002316784L130.26327272727272,151.2249525071144L130.26327272727272,147.9458816910569L130.26327272727272,146.49392783361714L130.26327272727272,147.12963552251057L130.26327272727272,146.97191711247203L130.26327272727272,144.9508630433157L135.06036363636363,145.50899327583676L135.06036363636363,145.83242579132138L135.06036363636363,147.38766819501336L135.06036363636363,146.85156674595765L135.06036363636363,148.58280559708513L135.06036363636363,145.9722112363938L135.06036363636363,147.26820668747695L135.06036363636363,146.44831836360194L135.06036363636363,145.75421304812983L135.06036363636363,146.87100597470723L135.06036363636363,147.69653870464103L135.06036363636363,147.96016484737748L135.06036363636363,148.68457169724743L135.06036363636363,129.16946407471062L135.06036363636363,120.52153698853385L135.06036363636363,114.90605748695083L135.06036363636363,109.4906363566769L135.06036363636363,118.04475212734323L135.06036363636363,120.85426464591487L135.06036363636363,123.28860409191267L135.06036363636363,127.47046304647702L135.06036363636363,130.96872883561284L135.06036363636363,127.554344030402L135.06036363636363,132.7652027862739L135.06036363636363,133.1759599890384L135.06036363636363,135.69014886587405L135.06036363636363,137.20921328520575L139.85745454545454,140.45514738446073L139.85745454545454,142.91396951583866L139.85745454545454,144.32296085284588L139.85745454545454,146.2458759302071L139.85745454545454,146.33068912460732L139.85745454545454,147.46799005852571L139.85745454545454,148.38419658174615L139.85745454545454,150.3436346549328L139.85745454545454,147.94318470147903L139.85745454545454,148.93622824976336L139.85745454545454,148.8670394693231L139.85745454545454,148.07325842177752L139.85745454545454,147.36184427100483L139.85745454545454,144.78537156549106L139.85745454545454,144.52782995197154L139.85745454545454,139.58565927103103L144.65454545454546,133.05590534651L144.65454545454546,134.821724322986L144.65454545454546,138.25869629189046L144.65454545454546,140.87247064434592L144.65454545454546,143.08868372220837L144.65454545454546,145.06748094384068L144.65454545454546,145.93755180218935L144.65454545454546,147.34657540782547L144.65454545454546,148.6223290670988L144.65454545454546,148.3443136778829L144.65454545454546,150.39236149527855L144.65454545454546,150.5603054788743L144.65454545454546,149.7015996000771L144.65454545454546,149.50479965381422L144.65454545454546,148.08269218582944L144.65454545454546,143.9870422679602L144.65454545454546,145.92409292844053L144.65454545454546,146.30879643748062L144.65454545454546,146.87331221255505L149.45163636363634,148.08033025863207L149.45163636363634,148.86770296576134L149.45163636363634,148.7230983772375L149.45163636363634,149.20155380554743L149.45163636363634,149.57158659607924L149.45163636363634,147.46134947706034L149.45163636363634,146.06174162998974L149.45163636363634,147.68358290971815L149.45163636363634,147.8012654366668L149.45163636363634,148.54684254189308L149.45163636363634,148.65950524537305L149.45163636363634,143.06287545942263L149.45163636363634,139.0842240888611L149.45163636363634,134.94855850844834L149.45163636363634,132.60974593090577L149.45163636363634,136.2429702371658L149.45163636363634,139.44449730636453L149.45163636363634,141.78716065026506L149.45163636363634,141.66668149262182L149.45163636363634,143.71768662475523L149.45163636363634,145.66404798144248L149.45163636363634,147.26357557387234L149.45163636363634,146.93053437876932L149.45163636363634,145.69013768521097L149.45163636363634,145.43412842821155L154.24872727272728,145.72160770472908L154.24872727272728,146.8512874760447L154.24872727272728,146.91474885291953L154.24872727272728,147.201051668702L154.24872727272728,147.64016453137037L154.24872727272728,147.8832366284509L154.24872727272728,142.18935144875053L154.24872727272728,143.52046423700102L154.24872727272728,144.93759407636605L154.24872727272728,141.9844697160545L154.24872727272728,144.430253079982L154.24872727272728,144.06549343384376L154.24872727272728,143.5721028082949L154.24872727272728,142.0442821688098L154.24872727272728,142.39649426989263L154.24872727272728,144.75775079769457L154.24872727272728,143.8033760455709L154.24872727272728,143.8228666994915L154.24872727272728,144.7678625276817L159.0458181818182,147.41449468064735L159.0458181818182,148.53661741199207L159.0458181818182,149.55102149154595L159.0458181818182,150.82300255700397L159.0458181818182,151.25493601167713L159.0458181818182,150.80688269301032L159.0458181818182,150.74126573692547L159.0458181818182,150.83730694682993L159.0458181818182,151.62710683371859L159.0458181818182,152.05524190923722L159.0458181818182,151.58929640978457L159.0458181818182,149.49990239882536L159.0458181818182,150.40440456981082L159.0458181818182,150.94552072615883L159.0458181818182,151.253220055351L159.0458181818182,152.46909940548056L159.0458181818182,153.0259055162034L159.0458181818182,155.37047359661912L163.84290909090907,152.70308587803726L163.84290909090907,152.71232031070778L163.84290909090907,144.1577390534424L163.84290909090907,144.93815184456614L163.84290909090907,145.20387669263056L163.84290909090907,143.47913872287654L163.84290909090907,136.61841515768913L163.84290909090907,98.86808322325594L163.84290909090907,77.9512410994804L163.84290909090907,81.31876627894688L163.84290909090907,92.46017125679776L163.84290909090907,94.95234911785867L163.84290909090907,101.77134966172021L163.84290909090907,110.32031726294713L163.84290909090907,111.53638915582621L163.84290909090907,117.33874877583051L163.84290909090907,121.7684439364296L163.84290909090907,125.15517758870865L163.84290909090907,130.47453269596852L163.84290909090907,132.9751845140231L163.84290909090907,134.39005457075382L163.84290909090907,136.78874005248264L168.64,140.4497891535029L168.64,139.5697724238821L168.64,138.50927558071677L168.64,136.75269405466292L168.64,136.96009210287073L168.64,137.76258814763418L168.64,139.3509636913307L168.64,140.90600212372837L168.64,143.28314100868064L168.64,144.72227238945777L168.64,146.01574649280167L168.64,147.04840385011883L168.64,147.22946442836724L168.64,147.2809481753977L168.64,148.18151494138573L168.64,149.4833759011772L168.64,150.02833413616554L173.43709090909093,150.41125259030218L173.43709090909093,150.7324408310816L173.43709090909093,151.43287382269986L173.43709090909093,151.67917526360583L173.43709090909093,152.13933516021524L173.43709090909093,152.96155510326358L173.43709090909093,153.02519195858508L173.43709090909093,153.6808501687413L173.43709090909093,154.01015960428606L173.43709090909093,154.1441697061395L173.43709090909093,153.8864066267257L173.43709090909093,153.7035373420926L173.43709090909093,153.1222472168193L173.43709090909093,153.23013496218172L173.43709090909093,153.51378421640192L173.43709090909093,153.4351463687936L173.43709090909093,150.47792990784168L173.43709090909093,150.0855473182919L173.43709090909093,150.90474938570995L173.43709090909093,148.96711825704764L173.43709090909093,146.93958014946693L173.43709090909093,146.0644673880157L173.43709090909093,147.12769714802008L178.2341818181818,148.94375699209536L178.2341818181818,145.24669203320394L178.2341818181818,140.9034228099025L178.2341818181818,138.31577222925083L178.2341818181818,134.24467615589984L178.2341818181818,133.60837710940598L178.2341818181818,128.77061015004688L178.2341818181818,127.80531239219883L178.2341818181818,127.81818656690581L178.2341818181818,128.85761970335142L178.2341818181818,133.1075879578082L178.2341818181818,135.25138275180726L178.2341818181818,138.38598664883116L178.2341818181818,140.50747935201366L178.2341818181818,142.77122758409453L178.2341818181818,142.67037142578985L178.2341818181818,144.22993479780297L183.03127272727272,144.60971802562193L183.03127272727272,144.99417777133715L183.03127272727272,146.73616710720015L183.03127272727272,147.20672104691465L183.03127272727272,148.3619108036057L183.03127272727272,150.05419958710795L183.03127272727272,150.92847548389696L183.03127272727272,148.71661461563878L183.03127272727272,149.40219355561078L183.03127272727272,149.42229729444932L183.03127272727272,150.2319803679176L183.03127272727272,150.68450969411992L183.03127272727272,150.43966250382877L183.03127272727272,151.38750251740393L183.03127272727272,152.04180018591393L183.03127272727272,151.3472531675316L183.03127272727272,151.32634074203077L183.03127272727272,151.20563645928783L187.82836363636363,151.6628955504925L187.82836363636363,152.5125018041612L187.82836363636363,152.8335814222853L187.82836363636363,153.20290716054282L187.82836363636363,153.22888323118642L187.82836363636363,150.32352902451805L187.82836363636363,148.15414621004538L187.82836363636363,149.54423600490315L187.82836363636363,146.16843571707903L187.82836363636363,145.37965023077723L187.82836363636363,145.48492993957515L187.82836363636363,147.59983627039128L187.82836363636363,148.5618190132708L187.82836363636363,149.2635035962265L187.82836363636363,150.60571979287639L187.82836363636363,151.66251734735633L187.82836363636363,152.9917543716611L187.82836363636363,153.4928337722899L187.82836363636363,154.30110696076568L187.82836363636363,154.78645918463803L187.82836363636363,153.57905309752104L187.82836363636363,153.29426626647455L192.62545454545455,153.02824214525344L192.62545454545455,152.62232764106218L192.62545454545455,153.30551058086104L192.62545454545455,151.2017721655453L192.62545454545455,151.00625110646524L192.62545454545455,149.76977425400926L192.62545454545455,150.86432346967234L192.62545454545455,151.62750079844852L192.62545454545455,152.5181368082059L192.62545454545455,153.10333009476759L192.62545454545455,152.85215202900568L192.62545454545455,153.63790486600402L192.62545454545455,153.4771509039053L192.62545454545455,153.5862033738827L192.62545454545455,153.67768920058052L192.62545454545455,153.861217980347L192.62545454545455,153.6770206489316L192.62545454545455,152.9652306396224L197.42254545454546,153.33581156399876L197.42254545454546,153.46888805124945L197.42254545454546,154.2925600107033L197.42254545454546,154.0178504224968L197.42254545454546,154.19700471848827L197.42254545454546,153.76104253364628L197.42254545454546,153.44834551678287L197.42254545454546,154.58592708482252L197.42254545454546,154.61751524268084L197.42254545454546,154.60459111259937L197.42254545454546,153.30836504401177L197.42254545454546,153.2517137026915L197.42254545454546,152.50615726281399L197.42254545454546,151.10338047639448L197.42254545454546,153.0812919894625L197.42254545454546,151.7162668831976L197.42254545454546,151.8549635035119L197.42254545454546,152.77649628499677L197.42254545454546,153.44157704814063L197.42254545454546,153.87178924166352L202.21963636363637,154.38571302480216L202.21963636363637,154.59739106804858L202.21963636363637,154.85373244214404L202.21963636363637,154.40100868167525L202.21963636363637,154.9448917994599L202.21963636363637,154.6458121211983L202.21963636363637,154.6908863760453L202.21963636363637,154.73967733202718L202.21963636363637,154.6471507248842L202.21963636363637,154.4012534854876L202.21963636363637,154.52070257171687L202.21963636363637,152.19938886249383L202.21963636363637,151.70461397237798L202.21963636363637,152.36339096122128L202.21963636363637,153.12594626660223L202.21963636363637,153.68294237704504L202.21963636363637,154.17734354854926L207.01672727272725,141.13471121883802L207.01672727272725,139.6126918418973L207.01672727272725,142.26122433532794L207.01672727272725,138.59780374041975L207.01672727272725,140.85517475503272L207.01672727272725,143.02392080225778L207.01672727272725,145.05174333889036L207.01672727272725,146.0416676126993L207.01672727272725,146.41983158771174L207.01672727272725,146.14307714607864L207.01672727272725,146.75346833155353L207.01672727272725,147.26936630953156L207.01672727272725,149.47935546674736L207.01672727272725,149.94024077446153L207.01672727272725,151.0537448198922L207.01672727272725,151.03212015400712L207.01672727272725,151.5792525654641L207.01672727272725,151.87266757056136L207.01672727272725,152.93282853735067L207.01672727272725,153.32474335967126L211.8138181818182,153.55127627800567L211.8138181818182,153.13199773750193L211.8138181818182,153.5838092114344L211.8138181818182,153.03495241370877L211.8138181818182,152.66376858684848L211.8138181818182,145.718829391266L211.8138181818182,146.9763803465026L211.8138181818182,148.40892810684667L211.8138181818182,150.0239118183647L211.8138181818182,150.9721468802384L211.8138181818182,149.48573790518935L211.8138181818182,149.81590927861296L211.8138181818182,150.74208708780898L211.8138181818182,151.11593624893104L211.8138181818182,151.15401875928222L211.8138181818182,151.58765058481603L216.6109090909091,147.48700050325877L216.6109090909091,149.12085955789L216.6109090909091,149.2905948118449L216.6109090909091,150.75470828661528L216.6109090909091,152.7493061037851L216.6109090909091,153.87179500358204L216.6109090909091,154.00377107062022L216.6109090909091,153.8271358521722L216.6109090909091,154.13991970317062L216.6109090909091,154.1418815175509L216.6109090909091,154.55722641307798L216.6109090909091,154.6476028391511L216.6109090909091,154.6116857869396L216.6109090909091,154.81424200876867L216.6109090909091,154.96567735945797L216.6109090909091,154.7939999411608L216.6109090909091,154.533586335979L216.6109090909091,155.129465161005L221.408,155.56585163931155L221.408,156.2374934757654L221.408,156.73661228856037L221.408,156.12162701955876L221.408,156.21529020207046L221.408,155.00221205820338L221.408,155.06724911586363L221.408,155.62217507089866L221.408,156.11067626735684L221.408,155.47022150246957L221.408,153.31760939191471L221.408,153.96358839854315L221.408,154.50371278274787L221.408,154.86154490270962L221.408,154.9695688689506L221.408,154.36848422723824L221.408,151.62140023579215L221.408,152.56206064120312L221.408,151.93533748544516L221.408,151.56339640742908L221.408,152.32680622200633L221.408,152.3433949745628L226.2050909090909,150.02254808719582L226.2050909090909,149.22258940359222L226.2050909090909,148.99851982610198L226.2050909090909,149.77837442412354L226.2050909090909,151.93004435741173L226.2050909090909,152.1893737351415L226.2050909090909,151.1364135770391L226.2050909090909,151.05157280194445L226.2050909090909,151.68817939939015L226.2050909090909,152.9337727751979L226.2050909090909,153.56527631493964L226.2050909090909,153.01163839508112L226.2050909090909,153.075868218821L231.0021818181818,153.7022938487361L231.0021818181818,154.16948354700807L231.0021818181818,153.4483218229715L231.0021818181818,153.4061176329354L231.0021818181818,153.60152221915476L231.0021818181818,154.12493897435317L231.0021818181818,154.57762318418386L231.0021818181818,154.716968389878L231.0021818181818,154.633227421861L231.0021818181818,155.13066679161244L231.0021818181818,155.284596871715L231.0021818181818,155.74512706706787L231.0021818181818,155.65945919760912L231.0021818181818,154.79095904356686L231.0021818181818,154.03886693577493L231.0021818181818,154.73156771548378L231.0021818181818,152.60573661714392L231.0021818181818,151.85145044635382L231.0021818181818,152.53390827426392L231.0021818181818,151.73245193679162L231.0021818181818,151.8530580689051L231.0021818181818,150.97982308781218L235.79927272727275,151.37827051094996L235.79927272727275,152.07260923712283L235.79927272727275,153.2943647792223L235.79927272727275,153.8516279928249L235.79927272727275,153.89002889572242L235.79927272727275,154.56581492566553L235.79927272727275,153.61048637503148L235.79927272727275,153.92203968901606L235.79927272727275,154.3940845023662L235.79927272727275,154.37067646114753L235.79927272727275,154.4919971015289L235.79927272727275,154.9158301183625L235.79927272727275,155.28672541214337L235.79927272727275,155.70863524304244L235.79927272727275,155.9464326161156L235.79927272727275,155.8353571143135L240.59636363636363,155.36667207450114L240.59636363636363,155.52857115722216L240.59636363636363,155.7281139600811L240.59636363636363,156.17208619981267L240.59636363636363,155.6402991936164L240.59636363636363,155.46313485508574L240.59636363636363,155.07950389389688L240.59636363636363,152.6846245766099L240.59636363636363,153.23652030948685L240.59636363636363,153.20909139255355L240.59636363636363,153.90860287936823L240.59636363636363,153.00832742526924L240.59636363636363,153.32997241080201L240.59636363636363,154.30449916887366L240.59636363636363,154.53878575935195L240.59636363636363,154.52887597381223L240.59636363636363,154.11566040276966L240.59636363636363,154.75480783272332L240.59636363636363,154.68047437897323L240.59636363636363,155.1811959094381L240.59636363636363,154.6544917540945L240.59636363636363,152.61409938471857L245.39345454545455,153.82940931429897L245.39345454545455,151.49569755641733L245.39345454545455,151.84401821968416L245.39345454545455,153.2918556203696L245.39345454545455,152.23059162061801L245.39345454545455,151.32004458555457L245.39345454545455,151.74381242472398L245.39345454545455,152.0149250847472L245.39345454545455,152.91295325138918L245.39345454545455,153.80325173838102L245.39345454545455,154.10171508394373L245.39345454545455,154.6693841902645L245.39345454545455,154.51877074942607L245.39345454545455,154.64017948712757L245.39345454545455,154.95798671408542L245.39345454545455,154.28070726526374L245.39345454545455,154.6173608027482L250.19054545454546,153.60716264428328L250.19054545454546,153.35070470954446L250.19054545454546,154.22347644158737L250.19054545454546,152.66608717590765L250.19054545454546,152.8609630787444L250.19054545454546,154.15421579075593L250.19054545454546,154.59043501052813L250.19054545454546,154.79087561157354L250.19054545454546,155.12946982214223L250.19054545454546,155.00142322406026L250.19054545454546,154.71013458907254L250.19054545454546,155.8542332358309L250.19054545454546,155.5409173732772L250.19054545454546,155.35816629455053L250.19054545454546,154.00246797978699L250.19054545454546,153.48446339750308L250.19054545454546,154.55752940482478L254.98763636363637,155.10405918364754L254.98763636363637,155.73225628857398L254.98763636363637,155.555797859226L254.98763636363637,154.93083213503076L254.98763636363637,154.5030050177186L254.98763636363637,153.75969943195818L254.98763636363637,152.87859504057118L254.98763636363637,153.22618650303963L254.98763636363637,150.1091791066081L254.98763636363637,147.74288871070314L254.98763636363637,148.07575609032926L254.98763636363637,149.4645485062943L254.98763636363637,150.13422196543743L254.98763636363637,151.64180254489366L254.98763636363637,151.29037379861185L254.98763636363637,151.45907897662732L254.98763636363637,151.21634040604678L254.98763636363637,149.54953335389573L254.98763636363637,150.63083876503134L254.98763636363637,150.84869586097258L254.98763636363637,151.46646393669658L259.78472727272725,151.73575430975137L259.78472727272725,152.19732994927546L259.78472727272725,152.57507816230284L259.78472727272725,153.2528575203874L259.78472727272725,153.86934839424913L259.78472727272725,154.28190792988636L259.78472727272725,154.84536734732077L259.78472727272725,155.2897691052063L259.78472727272725,155.85111727087283L259.78472727272725,153.4971324107511L259.78472727272725,154.62495659999317L259.78472727272725,154.13098906845622L259.78472727272725,151.83456992603914L259.78472727272725,152.03660487729928L259.78472727272725,152.51864356675014L259.78472727272725,153.2437825749554L259.78472727272725,152.77990650734571L259.78472727272725,153.1175287214953L259.78472727272725,153.3430660603848L259.78472727272725,153.61473872173045L259.78472727272725,154.4962394865944L259.78472727272725,154.68156838676248L259.78472727272725,154.46273842066614L259.78472727272725,153.68929149795204L259.78472727272725,154.17605706921287L259.78472727272725,150.01181771652915L259.78472727272725,148.00450765528058L259.78472727272725,149.89983644039216L259.78472727272725,151.37790481210143L259.78472727272725,152.39272740650253" style="fill: none;" fill="none"></path></g></g></g></g><g opacity="0.2"><g><g><g><path stroke="rgb(255, 112, 67)" stroke-width="2px" d="M29.524363636363635,-92.48165512084131L29.524363636363635,8.405285835274327L29.524363636363635,21.773415565498937L29.524363636363635,14.378505706795323L29.524363636363635,17.285543441780675L29.524363636363635,41.85743904114588L29.524363636363635,31.62975883484708L29.524363636363635,3.1959590911947373L29.524363636363635,60.84867095948081L29.524363636363635,77.4102983474813L29.524363636363635,36.977010726936896L29.524363636363635,39.39600563050135L34.32145454545454,11.810976028450597L34.32145454545454,37.19981288910731L34.32145454545454,56.62603950501304L34.32145454545454,34.13363075257166L34.32145454545454,14.44216346741544L34.32145454545454,-28.86633300780423L34.32145454545454,-8.85657691954745L34.32145454545454,50.154167175301154L34.32145454545454,31.90560913086759L34.32145454545454,26.25067806244718L34.32145454545454,79.03357124329428L34.32145454545454,37.08310699463709L34.32145454545454,78.42882251740316L34.32145454545454,26.632624626167882L34.32145454545454,77.54822349549156L39.118545454545455,24.001437187203038L39.118545454545455,39.59758853913172L39.118545454545455,58.17504501343589L39.118545454545455,73.64388084412437L39.118545454545455,95.63763713837483L39.118545454545455,99.67990493775227L39.118545454545455,64.30740928650718L39.118545454545455,70.58830833435874L39.118545454545455,80.49769973755697L39.118545454545455,78.48187065125326L39.118545454545455,71.68109989167075L39.118545454545455,105.66373443604328L39.118545454545455,31.990486145027745L39.118545454545455,61.029034614571145L39.118545454545455,82.61962509156088L39.118545454545455,97.44127368927815L39.118545454545455,71.15061855316978L43.91563636363637,116.36884784699299L43.91563636363637,108.66625881195881L43.91563636363637,69.5910034179769L43.91563636363637,94.77825737000325L43.91563636363637,106.89445114136555L43.91563636363637,86.73616027832846L43.91563636363637,84.48691940308431L43.91563636363637,79.20332527161459L43.91563636363637,69.18783760071616L43.91563636363637,76.08409500122886L43.91563636363637,-55.432838439933136L43.91563636363637,-79.29388904570703L43.91563636363637,38.01675415039881L48.71272727272727,122.84072017670489L48.71272727272727,98.53406524659016L48.71272727272727,104.51789474488118L48.71272727272727,117.22822761536456L48.71272727272727,122.2996292114339L48.71272727272727,107.6265153884969L48.71272727272727,120.63391780854083L48.71272727272727,108.66625881195881L48.71272727272727,106.04568099976399L48.71272727272727,46.504455566414435L48.71272727272727,79.67014884949545L48.71272727272727,120.87793922425128L48.71272727272727,115.3397140503011L48.71272727272727,110.86245155335286L48.71272727272727,94.22655677796224L48.71272727272727,121.02647399903155L48.71272727272727,125.54617500305987L48.71272727272727,115.63678359986164L53.50981818181818,131.26476383210039L53.50981818181818,134.56435775757646L53.50981818181818,85.31447029114584L53.50981818181818,104.32692146302082L53.50981818181818,126.56469917298175L53.50981818181818,128.92003631592607L53.50981818181818,125.7265386581502L53.50981818181818,105.13325309754231L53.50981818181818,116.18848419190266L53.50981818181818,108.41162776947834L53.50981818181818,123.67888069153643L53.50981818181818,122.40572547913409L53.50981818181818,117.06908321381427L53.50981818181818,118.00273036957599L53.50981818181818,121.02647399903155L53.50981818181818,135.26459312439775L53.50981818181818,114.93654823304036L53.50981818181818,121.17500877381183L53.50981818181818,15.863853454598058L53.50981818181818,122.83011054993487L53.50981818181818,123.10596084595538L53.50981818181818,132.61218643189287L53.50981818181818,135.52983379364824L53.50981818181818,117.76931858063556L53.50981818181818,137.83212280274248L58.306909090909095,163.79387950898024L58.306909090909095,105.6743440628133L58.306909090909095,113.86497592926838L58.306909090909095,126.54347991944171L58.306909090909095,67.06591224671226L58.306909090909095,42.98205947876795L58.306909090909095,93.53693103791097L58.306909090909095,130.1295337677083L58.306909090909095,89.98270606995443L58.306909090909095,120.75062370301104L58.306909090909095,117.67383193970538L58.306909090909095,55.89397525788169L58.306909090909095,50.40879821778162L58.306909090909095,79.45795631409506L58.306909090909095,120.55965042115069L58.306909090909095,96.44396877289631L58.306909090909095,136.55896759034013L58.306909090909095,111.65817356110432L58.306909090909095,74.57752799988609L58.306909090909095,121.04769325257159L58.306909090909095,123.36059188843585L58.306909090909095,124.59130859375811L58.306909090909095,140.9407434463582L58.306909090909095,114.07716846466877L58.306909090909095,117.39798164368487L58.306909090909095,142.7337703704915L58.306909090909095,140.42087173462724L58.306909090909095,108.8254032135091L63.104000000000006,125.31276321411944L63.104000000000006,128.67601490021562L63.104000000000006,124.32606792450763L63.104000000000006,97.34578704834797L63.104000000000006,131.7634162902913L63.104000000000006,134.84020805359697L63.104000000000006,133.77924537659501L63.104000000000006,144.24033737183427L63.104000000000006,134.62801551819658L63.104000000000006,131.31781196595048L63.104000000000006,92.1895084381185L63.104000000000006,115.16996002198078L63.104000000000006,123.21205711365558L63.104000000000006,136.00726699829912L63.104000000000006,136.02848625183915L63.104000000000006,109.10125350952961L63.104000000000006,100.97427940369465L63.104000000000006,142.79742813111162L63.104000000000006,138.57479667664384L63.104000000000006,123.46668815613604L63.104000000000006,135.05240058899736L67.90109090909091,121.45085906983233L67.90109090909091,138.89308547974443L67.90109090909091,111.35049438477375L67.90109090909091,61.78231811524253L67.90109090909091,126.6495761871419L67.90109090909091,116.01873016358235L67.90109090909091,145.2800807952962L67.90109090909091,140.80281829834794L67.90109090909091,125.07935142517901L67.90109090909091,129.70514869690751L67.90109090909091,126.96786499024249L67.90109090909091,135.32825088501787L67.90109090909091,133.35486030579423L67.90109090909091,136.4316520690999L67.90109090909091,142.33060455323076L67.90109090909091,140.46331024170732L67.90109090909091,145.40739631653642L67.90109090909091,145.715075492867L67.90109090909091,128.18797206879472L67.90109090909091,137.88517093659257L67.90109090909091,137.86395168305253L67.90109090909091,124.30484867096759L67.90109090909091,142.86108589173173L72.69818181818182,138.9249143600545L72.69818181818182,125.03691291809893L72.69818181818182,143.35973834992265L72.69818181818182,134.81898880005693L72.69818181818182,133.13205814362382L72.69818181818182,140.31477546692705L72.69818181818182,141.43939590454912L72.69818181818182,138.69150257111406L72.69818181818182,139.741855621346L72.69818181818182,132.20902061463212L72.69818181818182,133.81107425690507L72.69818181818182,138.4474811554036L72.69818181818182,118.92576789856768L72.69818181818182,142.8398666381917L72.69818181818182,133.75802612305498L72.69818181818182,145.04666900635576L72.69818181818182,136.48470020295L72.69818181818182,119.81697654724933L72.69818181818182,89.75990390778402L72.69818181818182,114.78801345826008L72.69818181818182,121.99195003510333L72.69818181818182,100.93184089661457L72.69818181818182,135.60410118103837L72.69818181818182,142.15024089814042L72.69818181818182,131.1692771911702L72.69818181818182,124.81411075592852L72.69818181818182,145.14215564728593L77.49527272727272,135.59349155426835L77.49527272727272,160.80196475983473L77.49527272727272,111.25500774384358L77.49527272727272,137.2485933303914L77.49527272727272,131.77402591706132L77.49527272727272,120.28380012513018L77.49527272727272,142.05475425721025L77.49527272727272,145.89543914795732L77.49527272727272,123.38181114197589L77.49527272727272,143.51888275147294L77.49527272727272,137.577491760262L77.49527272727272,125.5037364959798L77.49527272727272,124.527650833138L77.49527272727272,126.88298797608233L77.49527272727272,146.99884033203935L77.49527272727272,137.025791168221L77.49527272727272,127.15883827210284L77.49527272727272,127.63627147675372L77.49527272727272,71.6492710113607L77.49527272727272,98.89479255677082L77.49527272727272,117.6313934326253L82.29236363636365,130.5645284652791L82.29236363636365,146.78664779663896L82.29236363636365,146.807867050179L82.29236363636365,146.5850648880086L82.29236363636365,139.97526741028642L82.29236363636365,143.3915672302327L82.29236363636365,146.87152481079912L82.29236363636365,144.8026475906453L82.29236363636365,135.0205717086873L82.29236363636365,148.87674427033278L82.29236363636365,149.5875892639241L82.29236363636365,144.55862617493486L82.29236363636365,115.02142524720051L82.29236363636365,135.8375129699788L82.29236363636365,57.644563674934915L82.29236363636365,104.08290004731037L82.29236363636365,141.50305366516923L87.08945454545454,140.89830493927812L87.08945454545454,102.80974483490803L87.08945454545454,132.4636516571126L87.08945454545454,148.59028434754225L87.08945454545454,135.6253204345784L87.08945454545454,134.39460372925615L87.08945454545454,136.77116012574052L87.08945454545454,111.83853721619465L87.08945454545454,148.20833778382155L87.08945454545454,144.48435878754472L87.08945454545454,144.11302185059404L87.08945454545454,149.0995464325032L87.08945454545454,143.62497901917314L87.08945454545454,153.89509773255202L87.08945454545454,137.61993026734208L87.08945454545454,143.2218132019124L87.08945454545454,145.20581340790605L87.08945454545454,105.36666488648274L87.08945454545454,149.22686195374342L87.08945454545454,139.741855621346L91.88654545454546,144.38887214661455L91.88654545454546,139.64636898041582L91.88654545454546,98.08846092224934L91.88654545454546,120.68696594239093L91.88654545454546,122.55426025391436L91.88654545454546,127.77419662476397L91.88654545454546,135.14788722992753L91.88654545454546,130.0764856338582L91.88654545454546,140.85586643219804L91.88654545454546,128.84576892853593L91.88654545454546,139.08405876160478L91.88654545454546,138.4474811554036L91.88654545454546,133.35486030579423L91.88654545454546,147.59297943116042L91.88654545454546,149.2693004608235L91.88654545454546,128.19858169556474L96.68363636363637,144.7920379638753L96.68363636363637,124.29423904419757L96.68363636363637,142.96718215943193L96.68363636363637,151.92170715332838L96.68363636363637,146.5956745147786L96.68363636363637,152.94023132325026L96.68363636363637,150.50001716614577L96.68363636363637,142.8504762649617L96.68363636363637,156.9294509887776L96.68363636363637,140.84525680542802L96.68363636363637,63.24644660950523L96.68363636363637,152.0914611816487L96.68363636363637,100.31648254395344L96.68363636363637,103.66912460327961L96.68363636363637,144.87691497803544L96.68363636363637,139.54027271271562L101.48072727272726,135.26459312439775L101.48072727272726,145.02544975281572L101.48072727272726,148.09163188935133L101.48072727272726,127.41346931458331L101.48072727272726,122.9574260711751L101.48072727272726,133.81107425690507L101.48072727272726,123.31815338135577L101.48072727272726,145.7787332534871L101.48072727272726,131.95438957215165L101.48072727272726,81.77085494995931L101.48072727272726,97.97175502777912L101.48072727272726,101.46232223511555L101.48072727272726,125.28093433380938L101.48072727272726,147.27469062805986L101.48072727272726,124.57008934021808L101.48072727272726,110.69269752503254L101.48072727272726,145.0678882598958L101.48072727272726,149.24808120728346L101.48072727272726,143.7735137939534L101.48072727272726,148.6115036010823L101.48072727272726,142.21389865876054L101.48072727272726,145.14215564728593L106.27781818181818,126.161533355721L106.27781818181818,142.47913932801103L106.27781818181818,152.5264558792195L106.27781818181818,141.67280769348955L106.27781818181818,135.46617603302812L106.27781818181818,148.1234607696614L106.27781818181818,142.8398666381917L106.27781818181818,134.62801551819658L106.27781818181818,152.1445093154988L106.27781818181818,144.7389898300252L106.27781818181818,145.6620273590169L106.27781818181818,144.0387544632039L106.27781818181818,140.82403755188798L106.27781818181818,144.81325721741533L106.27781818181818,151.0623273849568L106.27781818181818,145.30130004883623L106.27781818181818,152.98266983033034L106.27781818181818,120.15648460388995L106.27781818181818,145.58775997162675L106.27781818181818,151.48671245575758L106.27781818181818,146.1500701904378L106.27781818181818,151.10476589203688L106.27781818181818,152.40974998474928L106.27781818181818,149.63002777100417L106.27781818181818,143.34912872315263L106.27781818181818,159.5924673080525L111.07490909090909,75.82946395874839L111.07490909090909,82.9591331482015L111.07490909090909,129.54600429535722L111.07490909090909,132.29389762879228L111.07490909090909,111.35049438477375L111.07490909090909,151.58219909668776L111.07490909090909,134.78715991974687L111.07490909090909,150.1392898559651L111.07490909090909,127.06335163117267L111.07490909090909,151.3806161880574L111.07490909090909,151.15781402588698L111.07490909090909,147.86882972718092L111.07490909090909,149.31173896790358L111.07490909090909,144.43131065369462L111.07490909090909,147.89004898072096L111.07490909090909,143.8159523010335L111.07490909090909,128.9306459426961L115.872,126.81933021546222L115.872,122.55426025391436L115.872,137.71541690827226L115.872,99.61624717713215L115.872,107.1915206909261L115.872,99.61624717713215L115.872,138.86125659943437L115.872,132.86681747437333L115.872,150.09685134888502L115.872,139.50844383240556L115.872,116.43250560761311L115.872,142.9035243988118L115.872,130.7342824935994L115.872,136.58018684388017L115.872,139.97526741028642L115.872,145.14215564728593L115.872,146.41531085968828L115.872,146.43653011322832L115.872,145.51349258423662L120.66909090909091,144.43131065369462L120.66909090909091,147.1898136138997L120.66909090909091,145.74690437317705L120.66909090909091,148.09163188935133L120.66909090909091,151.37000656128737L120.66909090909091,152.77047729492995L120.66909090909091,149.52393150330397L120.66909090909091,152.92962169648024L120.66909090909091,153.30095863343092L120.66909090909091,145.51349258423662L120.66909090909091,148.59028434754225L120.66909090909091,130.2356300354085L120.66909090909091,97.11237525940754L120.66909090909091,148.51601696015211L120.66909090909091,144.50557804108476L120.66909090909091,122.53304100037433L120.66909090909091,125.44007873535968L120.66909090909091,152.51584625244948L120.66909090909091,153.30095863343092L120.66909090909091,137.72602653504228L120.66909090909091,140.35721397400712L120.66909090909091,145.91665840149736L120.66909090909091,143.10510730744218L120.66909090909091,150.09685134888502L125.46618181818182,74.24862957001548L125.46618181818182,145.90604877472734L125.46618181818182,146.34104347229814L125.46618181818182,140.52696800232744L125.46618181818182,147.76273345948073L125.46618181818182,148.95101165772292L125.46618181818182,126.35250663758136L125.46618181818182,148.73881912232252L125.46618181818182,146.60628414154863L125.46618181818182,151.37000656128737L125.46618181818182,149.27991008759352L125.46618181818182,133.68375873566484L125.46618181818182,153.5661993026814L125.46618181818182,134.81898880005693L125.46618181818182,149.77856254578444L125.46618181818182,150.43635940552565L125.46618181818182,149.4814929962239L125.46618181818182,151.69890499115797L125.46618181818182,153.7253437042317L125.46618181818182,156.07007122040602L125.46618181818182,154.977279663094L125.46618181818182,150.16050910950514L125.46618181818182,166.18104553223463L125.46618181818182,143.54010200501298L125.46618181818182,145.04666900635576L130.26327272727272,132.44243240357255L130.26327272727272,145.89543914795732L130.26327272727272,135.13727760315751L130.26327272727272,136.02848625183915L130.26327272727272,151.67768573761794L130.26327272727272,153.08876609803053L130.26327272727272,147.27469062805986L130.26327272727272,152.4734077453694L130.26327272727272,154.40435981751295L130.26327272727272,147.76273345948073L130.26327272727272,148.25077629090163L130.26327272727272,154.0011940002522L130.26327272727272,148.0173645019612L130.26327272727272,154.3725309372029L130.26327272727272,151.17903327942702L130.26327272727272,150.1392898559651L130.26327272727272,148.6221132278523L130.26327272727272,147.82639122010085L130.26327272727272,153.5555896759114L130.26327272727272,152.33548259735915L130.26327272727272,152.9084024429402L130.26327272727272,134.82959842682695L130.26327272727272,140.68611240387773L130.26327272727272,149.67246627808424L130.26327272727272,146.34104347229814L130.26327272727272,136.8666467666707L135.06036363636363,147.7415142059407L135.06036363636363,147.12615585327958L135.06036363636363,153.6086378097615L135.06036363636363,144.70716094971513L135.06036363636363,155.507761001595L135.06036363636363,135.52983379364824L135.06036363636363,152.45218849182936L135.06036363636363,143.1687650680623L135.06036363636363,142.97779178620195L135.06036363636363,151.3381776809773L135.06036363636363,150.99866962433669L135.06036363636363,149.01466941834303L135.06036363636363,151.58219909668776L135.06036363636363,51.10903358460291L135.06036363636363,85.92982864380697L135.06036363636363,92.44413948059896L135.06036363636363,87.82895183564047L135.06036363636363,152.261215209969L135.06036363636363,132.0923147201619L135.06036363636363,133.02596187592363L135.06036363636363,144.1978988647542L135.06036363636363,144.9617919921956L135.06036363636363,113.89680480957844L135.06036363636363,153.6086378097615L135.06036363636363,134.81898880005693L135.06036363636363,145.74690437317705L135.06036363636363,143.28547096253251L139.85745454545454,153.43888378144118L139.85745454545454,152.7492580413899L139.85745454545454,149.95892620087477L139.85745454545454,153.9375362396321L139.85745454545454,146.66994190216874L139.85745454545454,152.01719379425856L139.85745454545454,152.04902267456862L139.85745454545454,158.1813869476399L139.85745454545454,138.3413848877034L139.85745454545454,152.9084024429402L139.85745454545454,148.59028434754225L139.85745454545454,144.89813423157548L139.85745454545454,144.51618766785478L139.85745454545454,134.4794807434163L139.85745454545454,143.4976634979329L139.85745454545454,119.81697654724933L144.65454545454546,106.93688964844563L144.65454545454546,141.88500022888994L144.65454545454546,152.00658416748854L144.65454545454546,151.3275680542073L144.65454545454546,151.95353603363844L144.65454545454546,152.98266983033034L144.65454545454546,149.41783523560377L144.65454545454546,152.98266983033034L144.65454545454546,153.7253437042317L144.65454545454546,147.23225212097978L144.65454545454546,158.58455276490065L144.65454545454546,151.23208141327711L144.65454545454546,146.266776084908L144.65454545454546,148.7175998687825L144.65454545454546,142.39426231385087L144.65454545454546,127.60444259644366L144.65454545454546,153.6722955703816L144.65454545454546,147.84761047364088L144.65454545454546,149.13137531281325L149.45163636363634,152.9084024429402L149.45163636363634,152.01719379425856L149.45163636363634,148.14468002320143L149.45163636363634,151.1153755188069L149.45163636363634,151.05171775818678L149.45163636363634,139.02040100098466L149.45163636363634,140.46331024170732L149.45163636363634,154.17094802857252L149.45163636363634,148.27199554444167L149.45163636363634,151.52915096283766L149.45163636363634,149.1101560592732L149.45163636363634,120.67635631562091L149.45163636363634,123.1696186065755L149.45163636363634,118.40589618683673L149.45163636363634,123.25449562073565L149.45163636363634,150.77586746216627L149.45163636363634,152.250605583199L149.45163636363634,151.15781402588698L149.45163636363634,141.18476486206865L149.45163636363634,151.92170715332838L149.45163636363634,153.4494934082112L149.45163636363634,153.6616859436116L149.45163636363634,145.59836959839677L149.45163636363634,140.7285509109578L149.45163636363634,144.41009140015458L154.24872727272728,146.87152481079912L154.24872727272728,151.37000656128737L154.24872727272728,147.16859436035966L154.24872727272728,148.3462629318318L154.24872727272728,149.39661598206374L154.24872727272728,148.85552501679274L154.24872727272728,119.41381072998858L154.24872727272728,148.84491539002272L154.24872727272728,150.60611343384596L154.24872727272728,130.17197227478837L154.24872727272728,154.2133865356526L154.24872727272728,142.60645484925126L154.24872727272728,141.5985403060994L154.24872727272728,135.93299961090898L154.24872727272728,143.80534267426347L154.24872727272728,154.20277690888258L154.24872727272728,139.98587703705644L154.24872727272728,143.90082931519365L154.24872727272728,148.54784584046217L159.0458181818182,158.00102329254958L159.0458181818182,153.02510833741042L159.0458181818182,153.6086378097615L159.0458181818182,155.91092681885573L159.0458181818182,152.98266983033034L159.0458181818182,149.01466941834303L159.0458181818182,150.47879791260573L159.0458181818182,151.2214717865071L159.0458181818182,154.78630638123366L159.0458181818182,153.76778221131178L159.0458181818182,149.72551441193434L159.0458181818182,141.14232635498857L159.0458181818182,154.02241325379225L159.0458181818182,153.10998535157057L159.0458181818182,152.48401737213942L159.0458181818182,157.33261680603835L159.0458181818182,155.25312995911452L159.0458181818182,164.748745918282L163.84290909090907,142.0335350036702L163.84290909090907,152.7492580413899L163.84290909090907,109.93941402436116L163.84290909090907,148.05980300904127L163.84290909090907,146.266776084908L163.84290909090907,136.58018684388017L163.84290909090907,109.17552089691975L163.84290909090907,-52.13324451445706L163.84290909090907,-5.716127395621669L163.84290909090907,94.78886699677327L163.84290909090907,137.025791168221L163.84290909090907,104.92106056214192L163.84290909090907,129.0473518371663L163.84290909090907,144.51618766785478L163.84290909090907,116.40067672730305L163.84290909090907,140.54818725586748L163.84290909090907,139.48722457886552L163.84290909090907,138.70211219788408L163.84290909090907,151.75195312500807L163.84290909090907,142.97779178620195L163.84290909090907,140.04953479767656L163.84290909090907,146.38348197937822L168.64,155.09398555756422L168.64,136.0497055053792L168.64,134.2672882080159L168.64,129.72636795044755L168.64,137.7896842956624L168.64,140.97257232666826L168.64,145.70446586609697L168.64,147.12615585327958L168.64,152.79169654847L168.64,150.47879791260573L168.64,151.18964290619704L168.64,151.17903327942702L168.64,147.95370674134108L168.64,147.48688316346022L168.64,151.78378200531813L168.64,154.69081974030348L168.64,152.2081670761189L173.43709090909093,151.94292640686842L173.43709090909093,152.01719379425856L173.43709090909093,154.23460578919264L173.43709090909093,152.66438102722975L173.43709090909093,153.97997474671217L173.43709090909093,156.25043487549635L173.43709090909093,153.27973937989088L173.43709090909093,156.30348300934645L173.43709090909093,155.32739734650465L173.43709090909093,154.68021011353346L173.43709090909093,152.8553543090901L173.43709090909093,152.97206020356032L173.43709090909093,150.7970867157063L173.43709090909093,153.6616859436116L173.43709090909093,154.6483812332234L173.43709090909093,153.1205949783406L173.43709090909093,138.64906406403398L173.43709090909093,148.51601696015211L173.43709090909093,154.18155765534254L173.43709090909093,141.2165937423787L173.43709090909093,138.8294277191243L173.43709090909093,142.5640163421712L173.43709090909093,151.3806161880574L178.2341818181818,156.20799636841627L178.2341818181818,130.4584321975789L178.2341818181818,123.53034591675616L178.2341818181818,127.96516990662431L178.2341818181818,117.96029186249591L178.2341818181818,131.06318092347001L178.2341818181818,109.4195423126302L178.2341818181818,123.94412136078692L178.2341818181818,127.86968326569415L178.2341818181818,133.0153522491536L178.2341818181818,150.10746097565504L178.2341818181818,143.8265619278035L178.2341818181818,150.92440223694655L178.2341818181818,148.993450164803L178.2341818181818,151.8262205123982L178.2341818181818,142.26694679261064L178.2341818181818,150.4681882858357L183.03127272727272,146.12885093689775L183.03127272727272,146.5320167541585L183.03127272727272,153.70412445069167L183.03127272727272,149.08893680573317L183.03127272727272,152.98266983033034L183.03127272727272,156.8233547210774L183.03127272727272,154.425579071053L183.03127272727272,139.86917114258623L183.03127272727272,152.1445093154988L183.03127272727272,149.50271224976393L183.03127272727272,153.47071266175124L183.03127272727272,152.49462699890944L183.03127272727272,149.46027374268385L183.03127272727272,155.17886257172438L183.03127272727272,154.65899085999342L183.03127272727272,148.5690650940022L183.03127272727272,151.24269104004713L183.03127272727272,150.72281932831618L187.82836363636363,153.49193191529127L187.82836363636363,155.91092681885573L187.82836363636363,154.11789989472243L187.82836363636363,154.68021011353346L187.82836363636363,153.33278751374098L187.82836363636363,138.70211219788408L187.82836363636363,139.4766149520955L187.82836363636363,155.10459518433424L187.82836363636363,132.66523456574296L187.82836363636363,142.22450828553056L187.82836363636363,145.90604877472734L187.82836363636363,156.059461593636L187.82836363636363,152.40974998474928L187.82836363636363,152.07024192810866L187.82836363636363,155.97458457947585L187.82836363636363,155.8897075653157L187.82836363636363,158.30870246888014L187.82836363636363,155.49715137482497L187.82836363636363,157.53419971466872L187.82836363636363,156.72786808014723L187.82836363636363,148.74942874909254L187.82836363636363,152.1551189422688L192.62545454545455,151.96414566040846L192.62545454545455,150.99866962433669L192.62545454545455,156.03824234009596L192.62545454545455,142.7868185043416L192.62545454545455,150.22416687012526L192.62545454545455,144.82386684418535L192.62545454545455,155.2425203323445L192.62545454545455,154.68021011353346L192.62545454545455,156.08068084717604L192.62545454545455,155.44410324097487L192.62545454545455,151.84743976593825L192.62545454545455,156.78091621399733L192.62545454545455,152.83413505555006L192.62545454545455,154.02241325379225L192.62545454545455,154.0436325073323L192.62545454545455,154.5953330993733L192.62545454545455,152.94023132325026L192.62545454545455,150.11807060242506L197.42254545454546,154.81813526154372L197.42254545454546,154.0011940002522L197.42254545454546,157.5872478485188L197.42254545454546,152.91901206971022L197.42254545454546,154.9136219024739L197.42254545454546,152.01719379425856L197.42254545454546,152.1975574493489L197.42254545454546,159.13625335694167L197.42254545454546,154.74386787415358L197.42254545454546,154.55289459229323L197.42254545454546,148.1234607696614L197.42254545454546,153.02510833741042L197.42254545454546,149.52393150330397L197.42254545454546,145.49227333069658L197.42254545454546,160.99293804169508L197.42254545454546,146.25616645813798L197.42254545454546,152.40974998474928L197.42254545454546,156.46262741089674L197.42254545454546,156.10190010071608L197.42254545454546,155.59263801575514L202.21963636363637,156.4414081573567L202.21963636363637,155.44410324097487L202.21963636363637,155.87909793854567L202.21963636363637,152.59011363983961L202.21963636363637,157.12042427063795L202.21963636363637,153.4494934082112L202.21963636363637,154.8711833953938L202.21963636363637,154.93484115601393L202.21963636363637,154.27704429627272L202.21963636363637,153.41766452790114L202.21963636363637,154.99849891663405L202.21963636363637,142.91413402558183L202.21963636363637,149.72551441193434L202.21963636363637,154.99849891663405L202.21963636363637,156.17616748810622L202.21963636363637,155.91092681885573L202.21963636363637,156.15494823456618L207.01672727272725,88.96418190003256L207.01672727272725,133.52461433411455L207.01672727272725,152.8553543090901L207.01672727272725,123.94412136078692L207.01672727272725,149.88465881348463L207.01672727272725,151.69890499115797L207.01672727272725,153.16303348542067L207.01672727272725,150.00136470795485L207.01672727272725,147.93248748780104L207.01672727272725,145.03605937958574L207.01672727272725,149.19503307343336L207.01672727272725,149.33295822144362L207.01672727272725,158.31931209565016L207.01672727272725,151.78378200531813L207.01672727272725,155.507761001595L207.01672727272725,150.9456214904866L207.01672727272725,153.76778221131178L207.01672727272725,153.04632759095045L207.01672727272725,157.17347240448805L207.01672727272725,154.89240264893385L211.8138181818182,154.45740795136305L211.8138181818182,151.45488357544752L211.8138181818182,155.39105510712477L211.8138181818182,150.8395252227864L211.8138181818182,151.17903327942702L211.8138181818182,117.93907260895587L211.8138181818182,152.00658416748854L211.8138181818182,154.13911914826247L211.8138181818182,156.48384666443678L211.8138181818182,154.76508712769362L211.8138181818182,143.54010200501298L211.8138181818182,151.13659477234694L211.8138181818182,154.44679832459303L211.8138181818182,152.61133289337965L211.8138181818182,151.30634880066725L211.8138181818182,153.32217788697096L216.6109090909091,131.08440017701005L216.6109090909091,155.65629577637526L216.6109090909091,149.9695358276448L216.6109090909091,156.61116218567702L216.6109090909091,160.7276973724446L216.6109090909091,158.36175060273024L216.6109090909091,154.5316753387532L216.6109090909091,153.1205949783406L216.6109090909091,155.39105510712477L216.6109090909091,154.1497287750325L216.6109090909091,156.2186059951863L216.6109090909091,155.00910854340407L216.6109090909091,154.46801757813307L216.6109090909091,155.6244668960652L216.6109090909091,155.5714187622151L216.6109090909091,154.1072902679524L216.6109090909091,153.49193191529127L216.6109090909091,157.51298046112868L221.408,157.3113975524983L221.408,158.92406082154127L221.408,158.73308753968092L221.408,153.6616859436116L221.408,156.58994293213698L221.408,150.14989948273512L221.408,155.32739734650465L221.408,157.84187889099928L221.408,158.0646810531697L221.408,152.9084024429402L221.408,144.70716094971513L221.408,156.5475044250569L221.408,156.66421031952711L221.408,156.29287338257643L221.408,155.4016647338948L221.408,151.96414566040846L221.408,140.63306427002763L221.408,156.3247022628865L221.408,149.4284448623738L221.408,150.075632095345L221.408,155.38044548035475L221.408,152.40974998474928L226.2050909090909,140.73916053772783L226.2050909090909,146.02275466919755L226.2050909090909,148.10224151612135L226.2050909090909,152.89779281617018L226.2050909090909,160.53672409058424L226.2050909090909,153.2266912460408L226.2050909090909,146.9245729446492L226.2050909090909,150.71220970154616L226.2050909090909,154.23460578919264L226.2050909090909,157.91614627838942L226.2050909090909,156.09129047394606L226.2050909090909,150.7970867157063L226.2050909090909,153.33278751374098L231.0021818181818,156.20799636841627L231.0021818181818,156.03824234009596L231.0021818181818,150.56367492676588L231.0021818181818,153.2373008728108L231.0021818181818,154.38314056397292L231.0021818181818,156.2186059951863L231.0021818181818,156.3883600235066L231.0021818181818,155.27434921265456L231.0021818181818,154.29826354981276L231.0021818181818,157.12042427063795L231.0021818181818,155.9003171920857L231.0021818181818,157.5872478485188L231.0021818181818,155.31678771973463L231.0021818181818,151.31695842743727L231.0021818181818,151.03049850464674L231.0021818181818,157.50237083435866L231.0021818181818,144.10241222382402L231.0021818181818,148.8343057632527L231.0021818181818,155.26373958588454L231.0021818181818,148.52662658692213L231.0021818181818,152.33548259735915L231.0021818181818,147.48688316346022L235.79927272727275,152.97206020356032L235.79927272727275,154.84996414185377L235.79927272727275,158.1813869476399L235.79927272727275,156.08068084717604L235.79927272727275,154.0436325073323L235.79927272727275,157.26895904541823L235.79927272727275,149.78917217255446L235.79927272727275,155.16825294495436L235.79927272727275,156.2822637558064L235.79927272727275,154.27704429627272L235.79927272727275,154.977279663094L235.79927272727275,156.61116218567702L235.79927272727275,156.7703065872273L235.79927272727275,157.39627456665846L235.79927272727275,156.89762210846754L235.79927272727275,155.39105510712477L240.59636363636363,153.49193191529127L240.59636363636363,156.17616748810622L240.59636363636363,156.52628517151686L240.59636363636363,157.94797515869948L240.59636363636363,153.5131511688313L240.59636363636363,154.7544775009236L240.59636363636363,153.54498004914137L240.59636363636363,143.10510730744218L240.59636363636363,155.44410324097487L240.59636363636363,153.09937572480055L240.59636363636363,156.7066488266072L240.59636363636363,149.40722560883376L240.59636363636363,154.61655235291335L240.59636363636363,158.20260620117995L240.59636363636363,155.47593212128493L240.59636363636363,154.4892368316731L240.59636363636363,152.46279811859938L240.59636363636363,157.3113975524983L240.59636363636363,154.38314056397292L240.59636363636363,157.18408203125807L240.59636363636363,152.54767513275954L240.59636363636363,144.45252990723466L245.39345454545455,158.69064903260085L245.39345454545455,142.16085052491044L245.39345454545455,153.2373008728108L245.39345454545455,159.08320522309157L245.39345454545455,147.98553562165114L245.39345454545455,147.67785644532057L245.39345454545455,153.43888378144118L245.39345454545455,153.09937572480055L245.39345454545455,156.50506591797682L245.39345454545455,157.3644456863484L245.39345454545455,155.2955684661946L245.39345454545455,156.94006061554762L245.39345454545455,153.91631698609206L245.39345454545455,155.12581443787428L245.39345454545455,156.2292156219563L245.39345454545455,151.57158946991774L245.39345454545455,155.96397495270583L250.19054545454546,149.56637001038405L250.19054545454546,152.32487297058913L250.19054545454546,157.71456336975905L250.19054545454546,146.43653011322832L250.19054545454546,153.64046669007155L250.19054545454546,159.32722663880202L250.19054545454546,156.3353118896565L250.19054545454546,155.59263801575514L250.19054545454546,156.48384666443678L250.19054545454546,154.4892368316731L250.19054545454546,153.54498004914137L250.19054545454546,160.43062782288405L250.19054545454546,154.28765392304274L250.19054545454546,154.62716197968336L250.19054545454546,148.57967472077223L250.19054545454546,151.41244506836745L250.19054545454546,158.84979343415114L254.98763636363637,157.29017829895827L254.98763636363637,158.24504470826002L254.98763636363637,154.84996414185377L254.98763636363637,152.43096923828932L254.98763636363637,152.79169654847L254.98763636363637,150.7864770889363L254.98763636363637,149.35417747498366L254.98763636363637,154.61655235291335L254.98763636363637,137.64114952088212L254.98763636363637,138.2777271270833L254.98763636363637,149.40722560883376L254.98763636363637,155.0197181701741L254.98763636363637,152.81291580201002L254.98763636363637,157.67212486267897L254.98763636363637,149.88465881348463L254.98763636363637,152.13389968872877L254.98763636363637,150.2453861236653L254.98763636363637,142.88230514527177L254.98763636363637,154.95606040955397L254.98763636363637,151.720124244698L254.98763636363637,153.9375362396321L259.78472727272725,152.81291580201002L259.78472727272725,154.0436325073323L259.78472727272725,154.08607101441237L259.78472727272725,155.96397495270583L259.78472727272725,156.3353118896565L259.78472727272725,155.93214607239577L259.78472727272725,157.09920501709792L259.78472727272725,157.06737613678786L259.78472727272725,158.09650993347975L259.78472727272725,144.08119297028398L259.78472727272725,159.13625335694167L259.78472727272725,152.1551189422688L259.78472727272725,142.64889335633134L259.78472727272725,152.84474468232008L259.78472727272725,154.44679832459303L259.78472727272725,156.14433860779616L259.78472727272725,150.92440223694655L259.78472727272725,154.46801757813307L259.78472727272725,154.24521541596266L259.78472727272725,154.7014293670735L259.78472727272725,158.02224254608961L259.78472727272725,155.42288398743483L259.78472727272725,153.58741855622145L259.78472727272725,150.59550380707594L259.78472727272725,156.12311935425612L259.78472727272725,133.35486030579423L259.78472727272725,139.97526741028642L259.78472727272725,157.48115158081862L259.78472727272725,157.29017829895827L259.78472727272725,156.45201778412672" style="fill: none;" fill="none"></path></g></g></g></g></g></g><g transform="translate(58, 178)" clip-path="url(#clip_1)"><clipPath id="clip_1"><rect width="272" height="22"></rect></clipPath><g><g><line x1="0" y1="0" x2="0" y2="5" style="visibility: inherit;" fill="rgb(0, 0, 0)" stroke="rgb(204, 204, 204)" stroke-width="1px"></line><line x1="24.727272727272727" y1="0" x2="24.727272727272727" y2="5" style="visibility: inherit;" fill="rgb(0, 0, 0)" stroke="rgb(204, 204, 204)" stroke-width="1px"></line><line x1="49.45454545454545" y1="0" x2="49.45454545454545" y2="5" style="visibility: inherit;" fill="rgb(0, 0, 0)" stroke="rgb(204, 204, 204)" stroke-width="1px"></line><line x1="74.18181818181817" y1="0" x2="74.18181818181817" y2="5" style="visibility: inherit;" fill="rgb(0, 0, 0)" stroke="rgb(204, 204, 204)" stroke-width="1px"></line><line x1="98.9090909090909" y1="0" x2="98.9090909090909" y2="5" style="visibility: inherit;" fill="rgb(0, 0, 0)" stroke="rgb(204, 204, 204)" stroke-width="1px"></line><line x1="123.63636363636363" y1="0" x2="123.63636363636363" y2="5" style="visibility: inherit;" fill="rgb(0, 0, 0)" stroke="rgb(204, 204, 204)" stroke-width="1px"></line><line x1="148.36363636363635" y1="0" x2="148.36363636363635" y2="5" style="visibility: inherit;" fill="rgb(0, 0, 0)" stroke="rgb(204, 204, 204)" stroke-width="1px"></line><line x1="173.0909090909091" y1="0" x2="173.0909090909091" y2="5" style="visibility: inherit;" fill="rgb(0, 0, 0)" stroke="rgb(204, 204, 204)" stroke-width="1px"></line><line x1="197.8181818181818" y1="0" x2="197.8181818181818" y2="5" style="visibility: inherit;" fill="rgb(0, 0, 0)" stroke="rgb(204, 204, 204)" stroke-width="1px"></line><line x1="222.54545454545456" y1="0" x2="222.54545454545456" y2="5" style="visibility: inherit;" fill="rgb(0, 0, 0)" stroke="rgb(204, 204, 204)" stroke-width="1px"></line><line x1="247.27272727272725" y1="0" x2="247.27272727272725" y2="5" style="visibility: inherit;" fill="rgb(0, 0, 0)" stroke="rgb(204, 204, 204)" stroke-width="1px"></line><line x1="272" y1="0" x2="272" y2="5" style="visibility: inherit;" fill="rgb(0, 0, 0)" stroke="rgb(204, 204, 204)" stroke-width="1px"></line></g><g transform="translate(0, 8)"><text x="0" y="0" dx="0em" dy="0.95em" style="text-anchor: middle; visibility: hidden; font-family: &quot;Helvetica Neue&quot;, sans-serif; font-size: 12px; font-weight: 200;" fill="rgb(50, 49, 63)" stroke="none" stroke-width="1px">-500</text><text x="24.727272727272727" y="0" dx="0em" dy="0.95em" style="text-anchor: middle; visibility: inherit; font-family: &quot;Helvetica Neue&quot;, sans-serif; font-size: 12px; font-weight: 200;" fill="rgb(50, 49, 63)" stroke="none" stroke-width="1px">0</text><text x="49.45454545454545" y="0" dx="0em" dy="0.95em" style="text-anchor: middle; visibility: inherit; font-family: &quot;Helvetica Neue&quot;, sans-serif; font-size: 12px; font-weight: 200;" fill="rgb(50, 49, 63)" stroke="none" stroke-width="1px">500</text><text x="74.18181818181817" y="0" dx="0em" dy="0.95em" style="text-anchor: middle; visibility: inherit; font-family: &quot;Helvetica Neue&quot;, sans-serif; font-size: 12px; font-weight: 200;" fill="rgb(50, 49, 63)" stroke="none" stroke-width="1px">1k</text><text x="98.9090909090909" y="0" dx="0em" dy="0.95em" style="text-anchor: middle; visibility: inherit; font-family: &quot;Helvetica Neue&quot;, sans-serif; font-size: 12px; font-weight: 200;" fill="rgb(50, 49, 63)" stroke="none" stroke-width="1px">1.5k</text><text x="123.63636363636363" y="0" dx="0em" dy="0.95em" style="text-anchor: middle; visibility: inherit; font-family: &quot;Helvetica Neue&quot;, sans-serif; font-size: 12px; font-weight: 200;" fill="rgb(50, 49, 63)" stroke="none" stroke-width="1px">2k</text><text x="148.36363636363635" y="0" dx="0em" dy="0.95em" style="text-anchor: middle; visibility: inherit; font-family: &quot;Helvetica Neue&quot;, sans-serif; font-size: 12px; font-weight: 200;" fill="rgb(50, 49, 63)" stroke="none" stroke-width="1px">2.5k</text><text x="173.0909090909091" y="0" dx="0em" dy="0.95em" style="text-anchor: middle; visibility: inherit; font-family: &quot;Helvetica Neue&quot;, sans-serif; font-size: 12px; font-weight: 200;" fill="rgb(50, 49, 63)" stroke="none" stroke-width="1px">3k</text><text x="197.8181818181818" y="0" dx="0em" dy="0.95em" style="text-anchor: middle; visibility: inherit; font-family: &quot;Helvetica Neue&quot;, sans-serif; font-size: 12px; font-weight: 200;" fill="rgb(50, 49, 63)" stroke="none" stroke-width="1px">3.5k</text><text x="222.54545454545456" y="0" dx="0em" dy="0.95em" style="text-anchor: middle; visibility: inherit; font-family: &quot;Helvetica Neue&quot;, sans-serif; font-size: 12px; font-weight: 200;" fill="rgb(50, 49, 63)" stroke="none" stroke-width="1px">4k</text><text x="247.27272727272725" y="0" dx="0em" dy="0.95em" style="text-anchor: middle; visibility: inherit; font-family: &quot;Helvetica Neue&quot;, sans-serif; font-size: 12px; font-weight: 200;" fill="rgb(50, 49, 63)" stroke="none" stroke-width="1px">4.5k</text><text x="272" y="0" dx="0em" dy="0.95em" style="text-anchor: middle; visibility: hidden; font-family: &quot;Helvetica Neue&quot;, sans-serif; font-size: 12px; font-weight: 200;" fill="rgb(50, 49, 63)" stroke="none" stroke-width="1px">5k</text></g><line x1="0" y1="0" x2="272" y2="0" fill="rgb(0, 0, 0)" stroke="rgb(204, 204, 204)" stroke-width="1px"></line></g></g></g></g></svg>